<svg version="1.1" xmlns="http://www.w3.org/2000/svg" xmlns:xlink="http://www.w3.org/1999/xlink" width="71.5975" height="29.4" viewBox="0,0,71.5975,29.4"><g transform="translate(-204.3525,-165.70001)"><g data-paper-data="{&quot;isPaintingLayer&quot;:true}" fill="none" fill-rule="nonzero" stroke="#1f1f1f" stroke-width="3" stroke-linecap="butt" stroke-linejoin="miter" stroke-miterlimit="10" stroke-dasharray="" stroke-dashoffset="0" style="mix-blend-mode: normal"><path d="M206.7275,193.6c0,0 -0.65026,0.21294 -0.69221,-0.9032c-0.20489,-5.45246 -0.18279,-22.61628 -0.18279,-25.49679c0,-0.88895 0.875,-0.8 0.875,-0.8h62.17369c0,0 0.77534,-0.10307 0.8167,1.17846c0.18367,5.69062 -0.0667,22.30447 -0.0667,25.12154c0,0.87711 -0.75,0.9 -0.75,0.9z"/><path d="M269.94107,184.72v-10.425c0,0 3.61689,0.25 4.50893,0.25c0.58342,0 0.3225,0.875 0.3225,0.875v8.8c0,0 0.29612,0.25 -0.3225,0.25c-0.89056,0 -4.50893,0.25 -4.50893,0.25z"/></g></g></svg>