<svg version="1.1" xmlns="http://www.w3.org/2000/svg" xmlns:xlink="http://www.w3.org/1999/xlink" width="110.70021" height="44.08231" viewBox="0,0,110.70021,44.08231"><defs><linearGradient x1="239.99993" y1="172.19448" x2="239.99993" y2="192.87222" gradientTransform="translate(-438.27336,-418.92799) scale(2.23187,2.23187)" gradientUnits="userSpaceOnUse" id="color-1"><stop offset="0" stop-color="#ac0000"/><stop offset="1" stop-color="#410000"/></linearGradient><linearGradient x1="239.99993" y1="172.19448" x2="239.99993" y2="192.87222" gradientTransform="translate(-438.27336,-418.92799) scale(2.23187,2.23187)" gradientUnits="userSpaceOnUse" id="color-2"><stop offset="0" stop-color="#000000"/><stop offset="1" stop-color="#130000"/></linearGradient><linearGradient x1="239.88889" y1="163.24867" x2="239.88889" y2="205.43715" gradientUnits="userSpaceOnUse" id="color-3"><stop offset="0" stop-color="#c00000"/><stop offset="1" stop-color="#280000"/></linearGradient><linearGradient x1="240.00008" y1="168.5361" x2="240.00008" y2="191.46388" gradientTransform="translate(-385.70725,-373.84903) scale(2.01284,2.01284)" gradientUnits="userSpaceOnUse" id="color-4"><stop offset="0" stop-color="#ac0000"/><stop offset="1" stop-color="#ab0000"/></linearGradient><linearGradient x1="240.00008" y1="168.5361" x2="240.00008" y2="191.46388" gradientTransform="translate(-385.70725,-373.84903) scale(2.01284,2.01284)" gradientUnits="userSpaceOnUse" id="color-5"><stop offset="0" stop-color="#000000"/><stop offset="1" stop-color="#650000"/></linearGradient></defs><g transform="translate(-184.89959,-162.35484)"><g data-paper-data="{&quot;isPaintingLayer&quot;:true}" fill-rule="nonzero" stroke-linecap="butt" stroke-linejoin="miter" stroke-miterlimit="10" stroke-dasharray="" stroke-dashoffset="0" style="mix-blend-mode: normal"><text transform="translate(196.37057,187.70278) scale(0.44806,0.44806)" font-size="40" xml:space="preserve" fill="url(#color-1)" fill-rule="nonzero" stroke="url(#color-2)" stroke-width="3" stroke-linecap="butt" stroke-linejoin="miter" stroke-miterlimit="10" stroke-dasharray="" stroke-dashoffset="0" font-family="Sans Serif" font-weight="normal" text-anchor="start" style="mix-blend-mode: normal"><tspan x="0" dy="0">Efst á síðu</tspan></text><path d="M189.8857,192.91567c0,0 0.69456,-4.92644 -0.1077,-7.41126c-0.31968,-0.99016 0.65115,1.80423 -0.21843,4.8741c-0.45673,1.61239 -2.97837,-1.1733 -3.65998,-6.19539c-1.49875,-11.04272 3.98611,-17.06732 3.98611,-17.06732c0,0 1.55699,-3.58331 6.6,-3.58331c0.77616,0 5.04189,1.28165 6.20123,1.27449c2.45102,-0.01513 5.75811,-0.79292 9.43262,-0.88426c4.39196,-0.10917 1.96869,3.56616 8.8536,3.5446c7.4167,-0.02322 5.30375,-3.91784 9.12677,-4.11378c1.29881,-0.06656 4.06515,1.73401 5.43327,1.68653c2.9304,-0.10171 10.66724,-1.36594 13.71488,-1.49368c2.83885,-0.11899 6.21198,1.23398 8.72012,1.19227c4.73147,-0.07869 7.18225,1.61732 10.86212,1.3647c3.7982,-0.26074 8.80312,-2.46675 12.27541,-2.31375c9.33882,0.41149 8.77999,3.3262 8.77999,3.3262c0,0 2.18126,2.09631 3.97924,9.20902c0.30774,1.21739 2.33733,7.30726 -2.05645,10.70264c-3.11441,2.40672 -1.42842,-6.89814 -1.94759,-4.89306c-0.75637,2.92114 -0.11805,7.06698 -0.11805,7.06698c0,0 0.06555,2.41907 -1.84645,4.25129c-0.48156,0.46147 -3.43093,3.19927 -6.55001,3.17119c-4.0888,0.17523 -4.18802,7.17253 -7.96713,6.9665c-6.0584,0.38431 -6.83538,-4.99481 -9.36081,-4.89239c-2.24591,0.09108 -5.885,-0.18942 -8.18712,-0.18754c-3.87711,0.00316 -4.66104,-2.37711 -8.00079,-2.35775c-2.48138,0.01439 1.50061,8.06698 -4.74116,7.54901c-5.06004,0.46327 -7.42914,-4.56598 -7.72071,-4.57074c-1.78254,-0.02909 -4.2201,-2.89429 -4.73601,-2.86937c-4.97612,0.24041 -3.38702,-2.76936 -6.05543,-2.51901c-3.71344,0.3484 -4.36688,6.02517 -7.86292,6.55082c-4.58023,0.0303 -4.83859,-5.72945 -6.28604,-5.3987c-1.91666,0.43797 -2.19082,1.95715 -5.02483,2.23229c-0.88441,0.08587 -3.25192,-1.67854 -4.25153,-1.57829c-4.17461,0.41867 2.88637,9.28707 -6.29953,9.86973c-5.68978,0.36091 -3.95415,-4.57087 -3.56675,-8.27871c0.13665,-1.30791 -0.62813,-2.02875 -1.03078,-2.77627c-0.36674,-0.68087 -0.36914,-1.44778 -0.36914,-1.44778z" fill="url(#color-3)" stroke="#000000" stroke-width="2"/><text transform="translate(191.62322,185.73194) scale(0.49681,0.49681)" font-size="40" xml:space="preserve" fill="url(#color-4)" fill-rule="nonzero" stroke="url(#color-5)" stroke-width="3" stroke-linecap="butt" stroke-linejoin="miter" stroke-miterlimit="10" stroke-dasharray="" stroke-dashoffset="0" font-family="Sans Serif" font-weight="normal" text-anchor="start" style="mix-blend-mode: normal"><tspan x="0" dy="0">Efst á síðu</tspan></text></g></g></svg>