<svg version="1.1" xmlns="http://www.w3.org/2000/svg" xmlns:xlink="http://www.w3.org/1999/xlink" width="200" height="190.33893" viewBox="0,0,67.17744,55.33893"><defs><linearGradient x1="227.79928" y1="182.39772" x2="227.79928" y2="213.71241" gradientUnits="userSpaceOnUse" id="color-1"><stop offset="0" stop-color="#ff0000"/><stop offset="1" stop-color="#490000"/></linearGradient><linearGradient x1="226.70501" y1="187.68463" x2="226.70501" y2="188.36904" gradientUnits="userSpaceOnUse" id="color-2"><stop offset="0" stop-color="#ff0000"/><stop offset="1" stop-color="#000000"/></linearGradient><linearGradient x1="221.9311" y1="186.61322" x2="221.9311" y2="188.81514" gradientUnits="userSpaceOnUse" id="color-3"><stop offset="0" stop-color="#ff0000"/><stop offset="1" stop-color="#000000"/></linearGradient><linearGradient x1="228.70845" y1="179.22115" x2="228.70845" y2="180.85802" gradientUnits="userSpaceOnUse" id="color-4"><stop offset="0" stop-color="#000000"/><stop offset="1" stop-color="#ff0000"/></linearGradient><linearGradient x1="221.8402" y1="179.25994" x2="221.8402" y2="180.42923" gradientUnits="userSpaceOnUse" id="color-5"><stop offset="0" stop-color="#000000"/><stop offset="1" stop-color="#ff0000"/></linearGradient><linearGradient x1="228.66519" y1="172.84527" x2="228.66519" y2="178.0414" gradientUnits="userSpaceOnUse" id="color-6"><stop offset="0" stop-color="#ffffff"/><stop offset="1" stop-color="#ff0000"/></linearGradient><linearGradient x1="213.86024" y1="174.88415" x2="213.86024" y2="179.80731" gradientUnits="userSpaceOnUse" id="color-7"><stop offset="0" stop-color="#ffffff"/><stop offset="1" stop-color="#ff0000"/></linearGradient><linearGradient x1="226.19833" y1="176.94076" x2="226.19833" y2="191.24718" gradientUnits="userSpaceOnUse" id="color-8"><stop offset="0" stop-color="#fcbb7d"/><stop offset="1" stop-color="#926946"/></linearGradient><linearGradient x1="227.94684" y1="164.92344" x2="227.94684" y2="191.25203" gradientUnits="userSpaceOnUse" id="color-9"><stop offset="0" stop-color="#fd0000"/><stop offset="1" stop-color="#4c0000"/></linearGradient><linearGradient x1="224.89837" y1="180.12119" x2="224.89837" y2="184.56213" gradientUnits="userSpaceOnUse" id="color-10"><stop offset="0" stop-color="#3b0000"/><stop offset="1" stop-color="#000000"/></linearGradient><linearGradient x1="224.74044" y1="183.92569" x2="224.74044" y2="187.9801" gradientUnits="userSpaceOnUse" id="color-11"><stop offset="0" stop-color="#ff7d7d"/><stop offset="1" stop-color="#910000"/></linearGradient><linearGradient x1="216.83069" y1="179.17676" x2="216.83069" y2="187.20677" gradientUnits="userSpaceOnUse" id="color-12"><stop offset="0" stop-color="#ffbd7e"/><stop offset="1" stop-color="#916946"/></linearGradient><linearGradient x1="214.26851" y1="180.92327" x2="214.26851" y2="188.76359" gradientUnits="userSpaceOnUse" id="color-13"><stop offset="0" stop-color="#ff0000"/><stop offset="1" stop-color="#490000"/></linearGradient><linearGradient x1="226.70347" y1="193.74002" x2="226.70347" y2="200.27145" gradientUnits="userSpaceOnUse" id="color-14"><stop offset="0" stop-color="#ffffff"/><stop offset="1" stop-color="#ffffff"/></linearGradient><linearGradient x1="218.00422" y1="179.95632" x2="218.00422" y2="184.4364" gradientUnits="userSpaceOnUse" id="color-15"><stop offset="0" stop-color="#ffffff"/><stop offset="1" stop-color="#ff0000"/></linearGradient><linearGradient x1="219.50422" y1="179.83132" x2="219.50422" y2="184.3114" gradientUnits="userSpaceOnUse" id="color-16"><stop offset="0" stop-color="#ffffff"/><stop offset="1" stop-color="#ff0000"/></linearGradient><linearGradient x1="221.12922" y1="179.76882" x2="221.12922" y2="184.2489" gradientUnits="userSpaceOnUse" id="color-17"><stop offset="0" stop-color="#ffffff"/><stop offset="1" stop-color="#ff0000"/></linearGradient><linearGradient x1="222.56672" y1="179.76882" x2="222.56672" y2="184.2489" gradientUnits="userSpaceOnUse" id="color-18"><stop offset="0" stop-color="#ffffff"/><stop offset="1" stop-color="#ff0000"/></linearGradient><linearGradient x1="224.12922" y1="179.51882" x2="224.12922" y2="183.9989" gradientUnits="userSpaceOnUse" id="color-19"><stop offset="0" stop-color="#ffffff"/><stop offset="1" stop-color="#ff0000"/></linearGradient><linearGradient x1="228.06672" y1="180.08132" x2="228.06672" y2="184.5614" gradientUnits="userSpaceOnUse" id="color-20"><stop offset="0" stop-color="#ffffff"/><stop offset="1" stop-color="#ff0000"/></linearGradient><linearGradient x1="229.44172" y1="180.26882" x2="229.44172" y2="184.7489" gradientUnits="userSpaceOnUse" id="color-21"><stop offset="0" stop-color="#ffffff"/><stop offset="1" stop-color="#ff0000"/></linearGradient><linearGradient x1="218.81672" y1="187.21049" x2="218.81672" y2="182.73041" gradientUnits="userSpaceOnUse" id="color-22"><stop offset="0" stop-color="#ffffff"/><stop offset="1" stop-color="#ff0000"/></linearGradient><linearGradient x1="220.19172" y1="187.71049" x2="220.19172" y2="183.23041" gradientUnits="userSpaceOnUse" id="color-23"><stop offset="0" stop-color="#ffffff"/><stop offset="1" stop-color="#ff0000"/></linearGradient><linearGradient x1="221.75422" y1="188.71049" x2="221.75422" y2="184.23041" gradientUnits="userSpaceOnUse" id="color-24"><stop offset="0" stop-color="#ffffff"/><stop offset="1" stop-color="#ff0000"/></linearGradient><linearGradient x1="223.31672" y1="188.52299" x2="223.31672" y2="184.04291" gradientUnits="userSpaceOnUse" id="color-25"><stop offset="0" stop-color="#ffffff"/><stop offset="1" stop-color="#ff0000"/></linearGradient><linearGradient x1="224.75422" y1="188.52299" x2="224.75422" y2="184.04291" gradientUnits="userSpaceOnUse" id="color-26"><stop offset="0" stop-color="#ffffff"/><stop offset="1" stop-color="#ff0000"/></linearGradient><linearGradient x1="226.69137" y1="188.08549" x2="226.69137" y2="183.60541" gradientUnits="userSpaceOnUse" id="color-27"><stop offset="0" stop-color="#ffffff"/><stop offset="1" stop-color="#ff0000"/></linearGradient></defs><g transform="translate(-193.21363,-164.48561)"><g data-paper-data="{&quot;isPaintingLayer&quot;:true}" fill-rule="nonzero" stroke="none" stroke-linecap="butt" stroke-linejoin="miter" stroke-miterlimit="10" stroke-dasharray="" stroke-dashoffset="0" style="mix-blend-mode: normal"><path d="M253.69876,189.08483c-1.52309,-1.46715 -3.78001,-0.50538 -5.60994,-1.11535c0,0 -0.11403,-0.11238 -0.20684,0.06624c-0.17862,0.09281 -0.11055,0.29682 -0.11055,0.29682c0.69782,2.00585 -0.55444,3.54331 -0.55444,5.38648c0,2.14933 -0.39872,2.9447 -1.07692,4.93347l-0.01286,0.26159c0,0 -0.00003,0.21888 0.20388,0.24755c-0.24051,1.41382 -1.08404,2.80493 -2.05833,3.78767c-1.15942,1.72618 -2.78662,2.87002 -4.24594,4.34469c-0.89609,0.5974 -0.81417,1.87921 -0.91342,2.99787c-0.09312,0.07261 -0.09357,0.20244 -0.09357,0.20244c0.00229,0.165 -0.00455,0.34211 -0.01768,0.5256c-0.01783,0.07336 -0.0385,0.14523 -0.06161,0.21458l-0.07769,0.14936c0,0 -0.09511,0.18984 0.06444,0.30716c-0.09708,0.67095 -0.26471,1.3685 -0.44525,1.91013l-0.00562,0.11128c-0.17915,-0.11393 -0.52867,-0.26109 -1.0059,-0.27287c0.20016,-0.71705 -0.35878,-1.73786 0.03798,-2.65061l0.10543,-0.07025c0.06893,-0.04451 0.11401,-0.12159 0.11401,-0.20974c0,-0.13807 -0.04973,-0.17169 -0.1878,-0.17169l-0.27328,0.00043c-1.68483,0 -0.87239,-1.91751 -2.5884,-1.90378c-2.68923,0.86705 -5.34206,1.79654 -8.21485,1.82619c-1.0986,0.39843 -3.72672,-0.40515 -5.18988,-0.46073c-0.02196,-0.06692 -0.06704,-0.11183 -0.06704,-0.11183l-0.18941,-0.15175c-1.76658,-0.53234 -4.7039,-1.83831 -4.7252,1.61108c0.00582,0.56411 0.35846,1.22946 0.2286,1.79995c-0.10947,0.48092 -2.0543,0.53136 -2.08639,0.27038c-0.05592,-0.45483 0.01721,-0.9906 0.01721,-1.45147c-0.01806,-1.75005 -0.01783,-3.56076 -0.00942,-5.32761c0.03089,0.0142 0.15339,-0.03052 0.20011,-0.03052c0.25,0 0.16548,-0.19655 0.16548,-0.19655l-0.17157,-0.32911c-0.46354,-0.15005 -0.79926,-0.42285 -1.19508,-0.68672c-1.55848,-1.55848 -1.71254,-3.48338 -3.24279,-5.0725c-0.98954,-1.47252 -2.10653,-3.94628 -2.14372,-5.67928c-0.93567,-0.93567 -1.14856,-3.68894 -0.71804,-4.92645c0,0 0.07925,-0.23765 -0.15792,-0.31671c-0.00416,-0.00138 -0.00827,-0.00267 -0.01234,-0.00387c-0.02797,-0.13077 -0.07765,-0.13835 -0.07765,-0.13835l-0.31171,-0.10058c-0.22546,-0.00233 -0.45072,-0.00374 -0.67619,-0.00374c-1.44322,0 -2.82165,-0.27136 -4.18536,0.28853c-0.43201,0.17737 -1.13117,1.12133 -1.54523,1.04218c-2.71153,0 -0.33409,-3.2636 0.79725,-4.01782c1.09452,-1.09452 3.66018,-3.43007 5.15918,-3.40976c1.51681,-0.48952 3.85057,-0.3714 5.50694,-0.36657c-0.45548,1.45186 -0.26981,3.05139 -0.25686,4.6711c0.15574,0.46722 0.0493,2.40472 1.03574,1.83661c0.57868,-0.33327 0.82102,-1.70911 1.23305,-2.23198c0.09282,-0.11778 0.44014,-0.77216 0.54118,-1.14302c-0.10074,1.48683 0.48092,2.34174 1.45846,3.33177c0.00406,0.05109 -0.04602,0.17675 0.16966,0.17675c0.10837,0 0.17019,-0.04753 0.20497,-0.10076l0.07928,0.27479c0,2.14472 2.92501,2.36784 4.53692,2.36784c2.42344,0 4.45175,-0.69598 6.65735,-1.5738c0.22287,-0.05546 0.43559,-0.12092 0.63227,-0.19527c0.05822,0.02558 0.11362,0.02562 0.11362,0.02562l0.18294,0.00007c0.52196,-0.00538 1.04469,-0.11826 1.54226,-0.28411c1.06197,-0.35399 1.99507,-1.26365 2.76264,-2.23415c-0.54127,0.93173 -1.40955,1.9152 -2.02517,2.5311l-0.25304,0.16973c-0.06893,0.04451 -0.0831,0.02708 -0.0831,0.11524c0,0.11898 0.08464,0.21908 0.19598,0.24434l0.36069,0.09047l0.01766,-0.07091c1.29909,0.33491 2.18154,-0.65047 3.21089,-1.51856c0.02554,-0.02154 0.03069,0.00123 0.11387,-0.08019c-0.77877,0.95715 -1.74133,1.78008 -2.42688,2.80631l-0.16842,0.1689c-0.04524,0.04524 -0.01991,0.02313 -0.01991,0.09217c0,0.13807 0.11396,0.25136 0.25203,0.25136c0.02287,0 0.04531,-0.00287 0.06635,-0.00863l0.3595,-0.08859l-0.01233,-0.04863c1.99318,-0.17625 4.50131,-1.36983 5.84541,-2.72026c1.38812,-0.92541 2.47404,-2.48399 3.17931,-4.09059c0.03369,0.01941 0.15001,-0.03653 0.20591,-0.03653c0.25,0 0.1769,-0.18177 0.1769,-0.18177l0.00023,-0.18156c0,-0.84814 0.21063,-1.62041 0.36976,-2.40822c0.05713,0.02434 0.17778,-0.04923 0.17778,-0.04923l0.09102,0.0001c1.80518,0 3.55376,0.00574 5.36891,0.00574c2.79397,0 3.93636,1.19554 5.94402,1.95616c0.76873,1.22979 1.53757,3.02529 2.80418,3.73707c-1.04006,-0.00174 -1.83366,0.06255 -2.67628,0.93363z" data-paper-data="{&quot;noHover&quot;:false,&quot;origItem&quot;:[&quot;Path&quot;,{&quot;applyMatrix&quot;:true,&quot;segments&quot;:[[[507.50985,378.09359],[0,0],[1.68524,-1.74217]],[[512.86242,376.22635],[-2.08013,-0.00348],[-2.53322,-1.42356]],[[507.26014,368.76619],[1.53747,2.45959],[-4.01532,-1.52126]],[[495.38182,364.86883],[5.58795,0],[-3.63029,0]],[[484.65455,364.86883],[3.61037,0],[0,0]],[484.47273,364.86883],[[484.25265,364.82016],[0.11427,0.04867],[-0.31825,1.57563]],[[483.51818,369.64156],[0,-1.69629],[0,0]],[483.51818,370.0052],[[483.01818,370.5052],[0.5,0],[-0.1118,0]],[[482.75219,370.44138],[0.06739,0.03882],[-1.41053,3.2132]],[[476.24427,378.7555],[2.77624,-1.85082],[-2.68819,2.70085]],[[464.56976,384.2115],[3.98635,-0.35251],[0,0]],[464.594,384.30845],[[463.8776,384.48755],[0,0],[-0.04209,0.01151]],[[463.74546,384.5052],[0.04574,0],[-0.27614,0]],[[463.24546,384.0052],[0,0.27614],[0,-0.13807]],[[463.3919,383.65164],[-0.09048,0.09048],[0,0]],[[463.72932,383.31422],[0,0],[1.3711,-2.05246]],[[468.5871,377.7043],[-1.55755,1.9143],[-0.16635,0.16282]],[[468.24427,378.02823],[0.05108,-0.04308],[-2.0587,1.73618]],[[461.84145,381.07578],[2.59819,0.66982],[0,0]],[461.80601,381.21754],[[461.08888,381.03826],[0,0],[-0.22266,-0.05053]],[[460.7,380.55065],[0,0.23795],[0,-0.17631]],[[460.9291,380.13032],[-0.13785,0.08903],[0,0]],[[461.43723,379.79157],[0,0],[1.23124,-1.23181]],[[465.41177,374.91423],[-1.08253,1.86345],[-1.53514,1.941]],[[459.90357,379.38863],[2.12395,-0.70798],[-0.99513,0.33171]],[[456.83636,379.95974],[1.04392,-0.01077],[0,0]],[456.47273,379.95974],[[456.2469,379.90858],[0.11645,0.05116],[-0.39338,0.14871]],[[454.9902,380.29912],[0.44573,-0.11093],[-4.41119,1.75566]],[[441.74546,383.41429],[4.84689,0],[-3.22382,0]],[[432.51818,378.55065],[0,4.28945],[0,0]],[[432.51818,378.12297],[0,0],[-0.06956,0.10645]],[[432.10909,378.32338],[0.21674,0],[-0.43136,0]],[[431.61039,377.84906],[0.00813,0.10217],[-1.95508,-1.98006]],[[428.6997,371.1781],[-0.20149,2.97365],[-0.20209,0.74171]],[[427.76849,373.59492],[0.18563,-0.23557],[-0.82405,1.04572]],[[425.31054,378.04718],[1.15736,-0.66654],[-1.97288,1.13621]],[[423.07009,374.26711],[0.31148,0.93444],[-0.0259,-3.23942]],[[423.7385,365.05037],[-0.91095,2.90373],[-3.31274,-0.00967]],[[412.73464,365.77147],[3.03362,-0.97904],[-2.99799,-0.04062]],[[402.42609,372.57369],[2.18904,-2.18904],[-2.26267,1.50845]],[[400.83636,380.59611],[-5.42306,0],[0.82813,0.15829]],[[403.73593,378.45235],[-0.86401,0.35474],[2.72742,-1.11979]],[[412.10909,377.86883],[-2.88644,0],[0.45094,0]],[[413.46191,377.87529],[-0.45092,-0.00465],[0,0]],[414.08539,378.07631],[[414.42435,378.4322],[-0.05594,-0.26155],[0.00813,0.00239]],[[414.44902,378.43995],[-0.00832,-0.00277],[0.47434,0.15811]],[[414.76525,379.0724],[0,0],[-0.86104,2.47502]],[[416.2074,388.90476],[-1.87134,-1.87134],[0.07439,3.46601]],[[420.49576,400.23366],[-1.97909,-2.94504],[3.0605,3.17823]],[[426.97154,410.3458],[-3.11697,-3.11697],[0.79163,0.52775]],[[429.35811,411.71267],[-0.92707,-0.30009],[0,0]],[429.7,412.36883],[[429.2,412.86883],[0.5,0],[-0.09343,0]],[[428.96883,412.82298],[0.06177,0.02839],[-0.01682,3.53371]],[[428.97273,423.45974],[-0.03612,-3.5001],[0,0.92174]],[[428.93467,426.35931],[-0.11184,-0.90966],[0.06417,0.52195]],[[433.1017,425.81385],[-0.21894,0.96184],[0.25972,-1.14098]],[[432.51818,422.36883],[0.01164,1.12823],[0.04261,-6.89878]],[[442.08539,418.9854],[-3.53317,-1.06469],[0,0]],[442.46265,419.28801],[[442.59598,419.51125],[-0.04393,-0.13384],[2.92632,0.11116]],[[452.93809,420.42074],[-2.1972,0.79685],[5.74559,-0.0593]],[[469.30173,416.78438],[-5.37846,1.73411],[3.43202,-0.02744]],[[474.47273,420.59611],[-3.36967,0],[0,0]],[[475.01818,420.59611],[0,0],[0.27614,0]],[[475.51818,421.09611],[0,-0.27614],[0,0.17631]],[[475.28908,421.51643],[0.13785,-0.08903],[0,0]],[[475.0776,421.65742],[0,0],[-0.79351,1.8255]],[[474.99424,426.96376],[0.40032,-1.43409],[0.95445,0.02355]],[[476.89654,427.34217],[-0.3583,-0.22786],[0,0]],[[476.90748,427.11981],[0,0],[0.36108,-1.08325]],[[477.79139,423.30449],[-0.19417,1.3419],[-0.3191,-0.23464]],[477.66188,422.69068],[[477.81657,422.39254],[0,0],[0.04623,-0.1387]],[[477.93897,421.96408],[-0.03567,0.14672],[0.02626,-0.36699]],[[477.97273,420.91429],[0.00458,0.33],[0,0]],[[478.15896,420.51024],[-0.18624,0.14521],[0.19852,-2.23733]],[[479.97392,414.52762],[-1.79218,1.19479],[2.91864,-2.94935]],[[488.44969,405.87002],[-2.31884,3.45237],[1.94858,-1.96548]],[[492.56237,398.31719],[-0.48103,2.82764],[-0.40782,-0.05733]],[492.15455,397.82338],[[492.1802,397.30163],[0,0],[1.3564,-3.97754]],[[494.33636,387.45974],[0,4.29866],[0,-3.68636]],[[495.45293,376.70876],[1.39564,4.0117],[0,0]],[[495.67445,376.11601],[-0.35723,0.18562],[0.18562,-0.35723]],[[496.26721,375.89449],[0,0],[3.65986,1.21995]],[[507.49202,378.13697],[-3.04617,-2.93431],[0,0]]],&quot;closed&quot;:true}]}" fill="url(#color-1)" stroke-width="0.5"/><path d="M239.52223,173.72751c0.07308,0.0149 0.19921,0.06635 0.19921,0.24392c0,0.03945 -0.00623,0.07266 -0.01671,0.10064c0.71289,1.05058 0.89615,3.35466 1.29623,4.50265c0.32322,0.92744 1.29408,1.14768 1.30359,2.33697c0,0.35102 -0.03659,0.69035 -0.09082,1.02433c0.01403,-0.0016 0.02264,-0.0016 0.02264,-0.0016c1.8045,0 3.6402,0 5.45454,0c1.49638,0 2.7597,0.14321 4.16335,0.55618c0.98883,0.29093 1.29041,1.27535 2.0793,1.49514c1.22905,1.75063 1.80212,3.86025 4.03483,3.9677c0.29063,0.29063 0.86199,0.09526 1.04439,0.58985c0.20746,0.56251 1.67056,4.28823 1.326,4.70871c-0.18514,0.27158 -0.97229,0.49919 -0.99052,0.53314c-0.20471,0.38111 0.25202,3.37299 -1.22371,2.71379c-0.10586,-0.04728 -0.19957,-0.2911 -0.25819,-0.55966c-0.21819,0.71515 -0.81816,2.19769 -1.62497,1.51283c-0.98204,-0.83361 0.24233,-2.63056 -1.40872,-3.20273c-1.53333,-0.07379 -1.41825,-2.15054 -0.48147,-2.8585c0.18197,-0.13752 -0.52343,-0.0853 -0.61855,-0.2926c-0.17165,-0.37408 -0.04385,-0.87664 -0.12295,-1.27313c-0.08109,-0.06744 -0.08385,-0.16059 -0.07478,-0.22032c-0.02875,-0.05509 -0.06531,-0.10632 -0.11171,-0.15272c-1.2776,-1.29104 -3.47372,-0.56903 -5.13449,-0.94382c0.46653,1.93316 -0.62055,3.4248 -0.62055,5.22159c0,1.9303 -0.36013,2.86058 -0.89499,4.44849c0.07682,0.07404 0.07681,0.18788 0.07681,0.18788c0,1.77325 -0.99952,3.65972 -2.23848,4.88577c-1.15873,1.7533 -2.8201,2.92379 -4.30757,4.39847c-0.90526,0.6035 -0.61529,2.30924 -0.84861,3.4295c-0.07437,0.88037 -0.27424,1.87897 -0.52726,2.63805l0.01283,0.10276c0,0 0,0.24685 -0.2453,0.24997c0.04927,0.3188 -0.05252,0.76443 -0.02998,1.33152c1.0264,0.24411 2.0267,0.5279 2.83843,1.33264c2.28012,2.28012 -2.30893,3.99208 -3.85367,2.57126c-1.51053,-0.45519 -1.99123,-1.05406 -2.2076,-2.54576c-0.06165,-0.42503 0.27597,-1.18619 0.64367,-1.55999c-0.04891,-0.08468 -0.08023,-0.20332 -0.10009,-0.37964c0.04247,-0.39521 -0.37993,-0.63441 -0.05357,-1.13144c0.11711,-0.17836 0.60768,-0.24506 0.88186,-0.24873c-0.09859,-0.18887 0.057,-0.78183 0.00893,-0.8878c-0.1393,-0.30708 -0.2394,-1.37641 0.06542,-1.78224c-1.37381,-0.23326 -1.02134,-1.8735 -2.15804,-1.88484c-2.61834,0.9109 -5.36265,1.85729 -8.18182,1.81818c-1.27658,0.3956 -3.88727,-0.45131 -5.40368,-0.45131c0,0 -0.24303,0 -0.24985,-0.23962c-0.01149,-0.00908 -0.01783,-0.01543 -0.01783,-0.01543l0.00681,-0.03052c-1.42524,-0.50599 -4.14855,-1.76342 -4.12549,1.21738c-0.00852,0.61408 0.48725,1.25277 0.26258,1.88967c0.96694,0.59437 0.29936,1.17538 -0.24068,1.73727c0.75965,0.57887 1.87312,0.38738 0.92143,1.80429c-1.20185,1.20185 -4.61248,2.31377 -5.84122,0.45454c-2.11741,-2.16214 0.51571,-2.4451 2.4019,-2.49064c-0.12354,-0.29479 -0.06608,-0.51817 0.06034,-0.90122c-0.14356,-0.07655 -0.25477,-0.17827 -0.31806,-0.30733c-0.17767,-0.36234 -0.01903,-1.24615 -0.01903,-1.64112c0.02521,-1.81708 0.01093,-3.80369 0.0005,-5.63994c-0.28032,-0.15636 -0.5361,-0.34237 -0.81808,-0.53036c-0.44861,-0.44861 -1.37732,-0.9959 -1.68068,-1.50171c-0.69075,-1.15174 -0.5383,-2.58729 -1.62689,-3.62404c-0.96642,-1.45776 -2.26135,-4.07227 -2.21945,-5.7901c-1.00035,-1.00035 -1.15666,-3.74703 -0.77209,-5.13641l-0.21881,-0.07612c-0.19876,0.00276 -0.39755,0.00323 -0.59632,0.00323c-1.39698,0 -2.68248,-0.24774 -3.99523,0.2537c-0.38348,0.14648 -0.62318,0.47926 -0.904,0.74302l0.07601,0.03105c0.64044,1.60657 -0.53506,1.88818 -1.22492,2.92298c-0.61221,1.80802 1.66134,0.89615 1.37002,1.98583c-0.2059,0.7702 -1.57766,1.17502 -2.10922,1.67212c-0.19142,0.61113 0.98997,1.60177 -0.50386,2.10784c-1.33166,0.45113 -1.46666,-0.67731 -1.43039,-1.32188c-0.27572,0.92427 -1.45062,1.35487 -2.18247,0.62302c-0.32008,-0.32008 0.64247,-3.29651 0.05317,-1.47052c-0.20323,0.63873 -1.13682,0.96291 -1.68953,0.37961c-1.15946,-1.22364 1.35139,-3.53649 2.20009,-4.09739c0.14998,-0.15156 1.38038,-0.99724 1.36304,-1.0794c-0.24714,-1.17144 0.02771,-2.88343 1.64464,-2.97466c0.16854,-1.19531 1.29596,-2.72414 2.17414,-3.30959c1.15965,-1.15965 3.78731,-3.48886 5.39118,-3.50798c1.50775,-0.5225 4.04478,-0.36686 5.67641,-0.36686c0,0 0.03637,0 0.08136,0.01387c0.1384,-0.33584 0.31184,-0.667 0.52881,-0.99346c0,0 0.0077,-0.01154 0.02217,-0.02737c-0.19212,-0.00473 -0.37507,-0.02316 -0.54815,-0.05522c0.71637,-0.22398 1.3981,-0.52639 2.03513,-0.89715c-0.93796,0.32164 -1.89982,0.32611 -2.6986,-0.47267c-2.49325,-1.6934 0.15765,-4.67498 2.12795,-5.15574c0.0179,-0.0001 0.03591,-0.00001 0.05403,0.00029l0.03011,-0.0593c0.35098,-0.86918 0.83268,-1.66008 1.24359,-2.4819c1.23776,-1.26128 2.31096,-2.72539 3.57852,-4.01102c-0.00618,-0.01639 -0.01241,-0.03275 -0.01868,-0.0491c0.49809,-0.46845 1.04993,-0.89123 1.61836,-1.28718c-0.00358,0.01547 -0.00714,0.03095 -0.01066,0.04645c0.57796,-0.44253 1.27789,-1.19433 1.97783,-1.36772c1.21511,-0.30101 2.71122,0.13052 3.81891,-0.55909c2.57384,-0.64989 4.80483,0.58838 7.25384,1.21079c2.17171,1.08234 3.25935,3.0119 5.17211,4.35474c0.50988,0.96735 0.99351,2.39446 1.29195,3.49296zM253.75493,189.0468c0.84262,-0.87108 1.63622,-0.93536 2.67629,-0.93362c-1.26661,-0.71178 -2.03241,-2.50029 -2.80114,-3.73008c-2.00766,-0.76063 -3.14518,-1.94868 -5.93916,-1.94868c-1.81515,0 -3.55845,0 -5.36364,0h-0.09091c0,0 -0.05291,0 -0.11004,-0.02434c-0.15912,0.78781 -0.36724,1.56256 -0.36724,2.4107v0.18182c0,0 0,0.25 -0.25,0.25c-0.0559,0 -0.0993,-0.0125 -0.13299,-0.03191c-0.70526,1.6066 -1.86584,3.23165 -3.25396,4.15706c-1.3441,1.35043 -3.84408,2.55175 -5.83725,2.728l0.01212,0.04847l-0.3582,0.08955c-0.02104,0.00575 -0.0432,0.00883 -0.06607,0.00883c-0.13807,0 -0.25,-0.11193 -0.25,-0.25c0,-0.06904 0.02798,-0.13154 0.07322,-0.17678l0.16871,-0.16871c0.68555,-1.02623 1.65012,-1.84781 2.42889,-2.80496c-0.08318,0.08141 -0.14588,0.14043 -0.17142,0.16197c-1.02935,0.86809 -1.90231,1.85869 -3.20141,1.52378l-0.01772,0.07088l-0.35856,-0.08964c-0.11133,-0.02526 -0.19444,-0.12483 -0.19444,-0.2438c0,-0.08816 0.04563,-0.16565 0.11455,-0.21017l0.25406,-0.16938c0.61562,-0.6159 1.446,-1.50695 1.98727,-2.43867c-0.76757,0.9705 -1.69213,1.88321 -2.7541,2.2372c-0.49757,0.16585 -1.01164,0.28017 -1.5336,0.28556h-0.18182c0,0 -0.05469,0 -0.11292,-0.02558c-0.19669,0.07435 -0.40548,0.13981 -0.62835,0.19527c-2.20559,0.87783 -4.19893,1.55758 -6.62237,1.55758c-1.61191,0 -4.61364,-0.28709 -4.61364,-2.43182v-0.21384c-0.03478,0.05322 -0.09617,0.1002 -0.20454,0.1002c-0.21568,0 -0.24528,-0.18607 -0.24935,-0.23716c-0.97754,-0.99003 -1.55609,-1.84866 -1.45534,-3.33548c-0.10104,0.37086 -0.37279,1.09063 -0.46561,1.20841c-0.41202,0.52286 -0.65029,1.89286 -1.22897,2.22613c-0.98644,0.56811 -0.96448,-1.42282 -1.12023,-1.89004c-0.01295,-1.61971 -0.12127,-3.15651 0.3342,-4.60837c-1.65637,-0.00484 -3.98512,-0.12897 -5.50193,0.36055c-1.499,-0.02031 -4.05976,2.30659 -5.15428,3.40111c-1.13134,0.75422 -3.50639,4.01121 -0.79486,4.01121c0.41406,0.07915 1.01778,-0.89451 1.44978,-1.07188c1.36371,-0.5599 2.74336,-0.29176 4.18658,-0.29176c0.22547,0 0.45095,0.0009 0.67641,0.00323l0.31174,0.10051c0,0 0.14151,0.04717 0.16948,0.17795c0.00406,0.00119 0.00817,0.00249 0.01234,0.00387c0.23717,0.07906 0.15811,0.31623 0.15811,0.31623c-0.43052,1.23751 -0.21459,3.98051 0.72108,4.91618c0.03719,1.733 1.15464,4.19193 2.14418,5.66445c1.53025,1.58911 1.67941,3.49759 3.23789,5.05607c0.39581,0.26388 0.72975,0.53339 1.19329,0.68344l0.17094,0.32808c0,0 0,0.25 -0.25,0.25c-0.04672,0 -0.0847,-0.00873 -0.11558,-0.02293c-0.00841,1.76685 -0.01611,3.56833 0.00195,5.31838c0,0.46087 -0.07495,0.99496 -0.01903,1.44978c0.03208,0.26098 1.97405,0.20819 2.08352,-0.27273c0.12986,-0.57049 -0.28594,-1.1584 -0.29176,-1.72251c0.02131,-3.44939 3.01702,-2.22406 4.78361,-1.69171l0.18863,0.1513c0,0 0.0447,0.0447 0.06667,0.11162c1.46316,0.05558 4.07245,0.85317 5.17105,0.45475c2.87279,-0.02965 5.49259,-0.95113 8.18182,-1.81818c1.71601,-0.01372 0.90067,1.90587 2.5855,1.90587h0.27272c0.13807,0 0.25,0.11193 0.25,0.25c0,0.08816 -0.04562,0.16565 -0.11455,0.21016l-0.10574,0.07049c-0.39676,0.91275 0.15848,1.93612 -0.04168,2.65317c0.47723,0.01178 0.772,0.07528 0.95115,0.18921l0.00547,-0.11118c0.18054,-0.54163 0.34487,-1.23671 0.44195,-1.90766c-0.15955,-0.11732 -0.06475,-0.30691 -0.06475,-0.30691l0.07735,-0.14907c0.02311,-0.06935 0.04336,-0.14087 0.0612,-0.21423c0.01313,-0.18349 0.01917,-0.3599 0.01688,-0.5249c0,0 -0.00001,-0.12942 0.09311,-0.20202c0.09926,-1.11866 0.01139,-2.39391 0.90748,-2.99131c1.45932,-1.47467 3.07846,-2.60262 4.23788,-4.3288c0.97429,-0.98274 1.81583,-2.3626 2.05634,-3.77642c-0.20391,-0.02866 -0.20391,-0.2469 -0.20391,-0.2469l0.01283,-0.26087c0.6782,-1.98877 1.07808,-2.77161 1.07808,-4.92094c0,-1.84318 1.2561,-3.36964 0.55828,-5.37549c0,0 -0.06786,-0.20356 0.11076,-0.29637c0.09281,-0.17862 0.29638,-0.11076 0.29638,-0.11076c1.82993,0.60997 4.08932,-0.34591 5.61241,1.12124zM232.92828,178.30484c1.7122,0.59658 3.24776,1.43687 3.18372,3.49748c-0.73969,1.17666 -2.28261,1.09456 -2.94968,1.98839c-0.47943,0.64241 -0.13819,1.66024 -0.74918,2.29776c-1.23083,1.15106 -1.95741,2.44041 -3.20557,3.29873c0.19892,-0.04527 0.39535,-0.10365 0.5861,-0.16723c1.42825,-0.47609 2.63847,-2.13769 3.464,-3.38142c0.00143,-0.03639 0.00192,-0.07263 0.00142,-0.10869c0,0 0,-0.25 0.25,-0.25c0.25,0 0.25,0.25 0.25,0.25c-0.00039,0.0377 -0.00161,0.07549 -0.00365,0.11337c0.01556,0.05934 0.00222,0.11634 -0.01283,0.15547c-0.15159,1.36997 -1.31161,2.82474 -2.31097,3.87758c0.7253,-0.36446 1.64423,-0.64941 2.37351,-1.24885c0.2674,-0.2198 1.15801,-1.55627 1.6401,-1.29981c0.49697,0.26438 -0.13005,0.96197 -0.27359,1.17728c-0.67774,1.00904 -1.61242,1.8273 -2.38873,2.76266c0.55288,-0.11415 1.28144,0.05978 1.72142,-0.13231c1.05995,-0.46276 2.47139,-1.31844 3.30081,-2.14418c1.59807,-1.06538 2.8351,-3.05858 3.45718,-4.84671l-0.00323,-0.23268c0,0 0,-0.13983 0.10458,-0.21034c0.15839,-0.93337 0.44088,-1.82053 0.44088,-2.78966c0.01055,-1.05777 -0.92457,-1.2827 -1.25928,-2.13118c-0.46965,-1.19055 -0.57221,-3.77857 -1.39477,-4.60113c-0.20307,-0.20307 -0.39424,-0.415 -0.57689,-0.63367c0.08503,-0.15815 0.16593,-0.31886 0.24255,-0.48197c-0.26999,-0.85814 -0.63282,-1.79175 -0.96072,-2.49828c-1.86984,-1.15977 -2.91054,-3.18315 -4.97075,-4.21669c-2.31961,-0.56752 -4.45772,-1.81596 -6.88902,-1.21779c-1.90259,1.10507 -3.81879,0.45412 -5.73138,1.8976c0,0 -0.18986,0.1424 -0.33836,-0.03528c-0.01748,0.09484 -0.03361,0.19015 -0.04839,0.28591c-0.32916,0.24312 -0.64914,0.49741 -0.95209,0.76795c-0.02292,0.06102 -0.06295,0.10106 -0.06295,0.10106c-1.28495,1.28495 -2.34957,2.80432 -3.61682,4.04083c-0.37999,0.75997 -0.8296,1.49982 -1.15727,2.30616c1.30823,0.25295 2.86922,1.30306 3.03812,2.44743c0.04278,-0.00349 0.08633,-0.0058 0.13064,-0.00691c0,0 0.06138,0 0.12331,0.03041c0.08878,-0.13286 0.17446,-0.26796 0.25694,-0.4052c1.62153,-0.24049 3.10989,0.19168 4.78079,0.19168c0.17828,0 0.35483,-0.00526 0.53029,-0.01324c0.05097,-0.16079 0.23724,-0.16079 0.23724,-0.16079l0.2101,0.04199c0.04496,0.03109 0.09089,0.05939 0.13764,0.08535c0.02478,-0.00155 0.04956,-0.00312 0.07433,-0.00466c0.04575,0.03575 0.09181,0.07111 0.13819,0.10608c0.15341,0.06297 0.31267,0.10959 0.47302,0.15416c-0.75648,-1.49435 0.60795,-2.9652 2.24911,-3.76429c1.72836,-1.75778 4.74404,-0.29285 6.3761,0.79519c1.12526,1.13496 0.99374,3.14026 -0.07573,4.05147c0.0689,0.08122 0.11936,0.161 0.15428,0.26283c0.00184,-0.00061 0.00368,-0.00123 0.00552,-0.00184zM228.74118,178.5353l-0.25882,-0.1c-0.00198,-0.00276 -0.00398,-0.00551 -0.00597,-0.00826c-1.37368,-0.03968 -2.83733,-0.18625 -3.5722,-0.67616c-0.0152,-0.01013 -0.0305,-0.01997 -0.04589,-0.02953c-0.07972,-0.01779 -0.13507,-0.07314 -0.13507,-0.07314c-0.00185,-0.0019 -0.0037,-0.00379 -0.00555,-0.0057c-0.39867,-0.20158 -0.84655,-0.25936 -1.26308,-0.43162c-0.34245,0.02141 -0.68666,0.04172 -1.03642,0.04172c-1.56207,0 -2.98061,-0.41244 -4.48512,-0.23324c0.60851,0.25225 1.19397,0.69797 1.62518,1.16029c0.00635,0.1228 0.01268,0.2456 0.01903,0.3684v0.0909c0,0 0,0.06863 -0.03596,0.13397c2.22794,-0.1473 4.74169,-0.68798 6.39862,-0.15376c0.5656,0.19676 1.17304,0.13455 1.76219,-0.01399c0.66413,0.13893 1.35248,0.21197 2.05788,0.21197c0.25629,0 0.51032,-0.00964 0.76176,-0.02858c1.8949,1.61583 0.59382,6.9467 -0.93184,8.47668c-3.26521,3.26521 -8.06167,3.10867 -11.92612,0.91888c-0.06776,-0.02236 -0.14695,-0.03959 -0.23094,-0.05286c0.11136,0.06806 0.21259,0.19182 0.21259,0.4168c0,0.5 -0.5,0.5 -0.5,0.5h-0.09091c-0.10512,-0.00484 -0.20353,-0.01365 -0.29546,-0.02606v0.25333c0,1.78105 2.79994,1.93182 4.11364,1.93182c2.37493,0 4.30618,-0.66476 6.46854,-1.53333c2.30938,-0.57985 3.18291,-2.33679 4.71832,-3.9389c0.59395,-0.55546 0.201,-1.63788 0.70538,-2.2477c0.71513,-0.86461 2.12052,-0.80391 2.86849,-1.82979c-0.089,-1.66161 -1.28341,-2.31645 -2.69479,-2.81963c-0.02445,0.03792 -0.06227,0.07284 -0.12081,0.0901c0.11432,0.29366 0.18155,0.62132 0.19123,0.98379l-0.59091,0.5c0,0 -0.5,0 -0.5,-0.5c0,-0.12706 0.03229,-0.22183 0.08046,-0.29252c-0.04774,-0.39551 -0.23114,-0.70972 -0.49434,-0.95363c0.15602,-0.02745 0.3108,-0.05851 0.46425,-0.0931c-0.01635,-0.03738 -0.03352,-0.07224 -0.05261,-0.10387c-0.33023,0.07291 -0.70407,0.06873 -1.11792,-0.03473c-0.48519,0 -1.14229,0.01261 -1.85082,0.00303c-0.07173,0.09843 -0.20603,0.09843 -0.20603,0.09843zM231.84638,173.95417c-0.08822,-0.0513 -0.17855,-0.10235 -0.27072,-0.15276c-0.02466,-0.02237 -0.04954,-0.04432 -0.07463,-0.06582c-0.28504,-0.24432 -0.56146,-0.35159 -0.83048,-0.37378c-1.3423,-0.56553 -2.85973,-0.79793 -3.91008,0.241c-1.5359,0.78473 -3.12378,2.20508 -1.73633,3.63884c0.05342,0.02804 0.10595,0.0589 0.1574,0.0932c0.59742,0.39828 1.736,0.54449 2.89108,0.59352c-0.17229,-0.19878 -0.34673,-0.39347 -0.50245,-0.59736c1.16787,0.43162 2.61536,0.67172 3.19599,0.67172c2.93021,0 2.31019,-2.75981 0.88841,-4.12759c0.06452,0.02475 0.12851,0.05115 0.19182,0.07904zM224.71439,184.14286c0.19407,-0.07054 0.39112,-0.11149 0.58234,-0.11566c1.4198,-0.35495 3.71156,-1.10046 4.74527,0.18103c0.32773,-1.086 0.52199,-2.31522 0.42227,-3.26924c-0.68775,0.4511 -1.96413,0.4644 -2.71472,0.09934c-0.33437,-0.16262 -0.68791,-0.93013 -0.96773,-0.87664c-0.50017,-0.03552 -0.37132,0.39886 -0.81342,0.52643c-1.32689,0.38288 -3.27016,0.12741 -4.64113,0.20084c-0.45842,0 -1.24046,-0.00082 -2.02117,-0.08827c0.04217,1.28822 0.78109,2.43074 0.95978,3.74006c1.05697,-1.0467 3.30728,-1.31709 4.44851,-0.39789zM197.57728,192.18442c-0.04368,0.5554 -1.1689,1.09216 -1.54605,1.46606c-0.46284,0.31087 -3.07785,2.5801 -2.16354,3.35716c0.29454,0.25033 0.80765,0.20511 0.85592,-0.16585c0.13306,-0.38395 1.13227,-1.68247 1.39791,-0.50019c0.0761,0.3387 -0.90729,1.46712 -0.61746,1.75695c0.45576,0.45576 1.39463,0.19797 1.39463,-0.60136c-0.12088,-0.75759 0.10712,-0.43165 0.46052,0.06899c0.01427,-0.0964 0.02892,-0.15342 0.03302,-0.14908c0,0.06154 -0.00374,0.12169 -0.01094,0.18034c0.36577,0.51777 0.85728,1.19785 1.23718,1.07497c1.10459,-0.35726 -0.00153,-1.23698 0.22342,-1.89216c0.46693,-0.48721 0.9164,-0.81162 1.48063,-1.00863c0.2766,-0.09658 0.90375,-0.54937 0.62014,-0.62285c-1.16681,-0.30229 -1.89031,-0.45422 -1.3854,-1.98329c0.66204,-0.99305 1.60605,-1.1698 1.32053,-2.34974l-0.17501,-0.03052c0,0 -0.02683,-0.00895 -0.05944,-0.02984c-0.06986,0.0218 -0.14452,0.03657 -0.22514,0.04267c-1.14189,0 -1.62509,-0.45461 -1.70544,-1.09345c-1.50008,-0.02887 -1.07684,1.73427 -1.13547,2.4798zM257.05455,188.61624c-1.18474,0 -1.99076,-0.14269 -2.8822,0.7058l-0.09476,0.24515c0.33516,0.62664 0.75061,1.62331 0.7712,1.77442c0.06145,0.45083 -1.672,2.54058 0.06399,2.41422c1.64857,0.53204 1.6756,5.26324 2.5381,1.81324c0.06329,-0.18265 0.09068,-0.37815 0.09997,-0.57123l0.08333,-0.05197l-0.02914,-0.02913l0.18182,-0.18182c0.04524,-0.04524 0.10774,-0.07322 0.17678,-0.07322c0.13807,0 0.25,0.11193 0.25,0.25v0.23152c0.72733,2.11389 0.1069,-0.86369 0.72901,-1.65042c0.32625,-0.41258 0.68892,-0.06422 1.00947,-0.55777c0.17971,-0.11008 -0.5027,-1.26636 -0.59215,-1.58979c-0.12968,-0.46887 -0.7205,-2.45312 -0.80912,-2.61059c-0.1316,-0.23384 -0.56138,-0.10683 -0.7738,-0.31925c-0.16476,0.01199 -0.32278,0.00773 -0.47458,-0.01109c-0.02399,0.21194 -0.24793,0.21194 -0.24793,0.21194zM224.86769,184.63392c-0.06544,0.06544 -0.13088,0.08243 -0.18734,0.07788c-0.57733,0.29125 -1.15803,0.87032 -1.10307,1.38171l-0.34091,0.25c0,0 -0.25,0 -0.25,-0.25c0,-0.12061 0.05819,-0.18303 0.11842,-0.21534c0.1148,-0.56806 0.5538,-1.12045 1.08945,-1.47176c-1.14484,-0.59516 -3.68926,-0.27507 -3.90252,0.94797c-0.16239,0.45741 -0.30249,0.8011 -0.45455,1.27273l0.01283,0.10276c0,0 0,0.22321 -0.2109,0.2478c0.10326,0.08322 0.20287,0.13967 0.30036,0.14763c0.26212,0.0214 0.76709,-0.40735 1.02894,-0.26277c0.22532,0.1244 0.31645,0.49676 0.38972,0.73591c0.20744,0.26329 1.74767,-0.28446 2.0553,-0.37226c1.03948,-0.2967 1.41993,0.64004 2.27749,0.70824c0.26048,0.02071 0.82628,-0.52538 1.10276,-0.62354c0.42971,-0.13854 0.75078,-0.1392 1.07855,0.09399c0.35562,-0.24803 0.69385,-0.52999 1.01059,-0.84673c0.33221,-0.33116 0.67552,-0.97589 0.95916,-1.74964c-0.66792,-1.54368 -3.24027,-0.59601 -4.48415,-0.28504c-0.14087,-0.00387 -0.30697,0.03285 -0.48019,0.10012c-0.00319,0.00344 -0.0065,0.0069 -0.00995,0.01035zM214.37273,180.0026c0,0 0,0.26314 -0.19089,0.40762c-0.05701,0.17675 -0.21358,0.28113 -0.21358,0.28113l-0.11816,0.0654c0.01611,2.1336 1.95185,1.91147 2.62344,3.80315c0.29644,0.91941 0.17319,1.72415 0.5313,2.58571c0.18202,-0.01991 0.37832,-0.01774 0.58593,0.01205c-0.00588,-0.35684 -0.00054,-0.72363 0.22671,-0.90333c0.63442,-0.50167 1.1191,0.02528 1.53378,0.45032l0.01159,-0.23566c0.14542,-0.41802 0.32056,-0.83579 0.44585,-1.24415c-0.00414,-0.02419 -0.00414,-0.04044 -0.00414,-0.04044v-0.09091c0,-1.57689 -0.9453,-2.83815 -0.99792,-4.36196c-0.96495,-0.16217 -1.81682,-0.49141 -1.90385,-1.15978c-0.40536,-0.07028 -0.7935,-0.18135 -1.15864,-0.34679c-0.42905,0.27038 -0.89456,0.53606 -1.37141,0.7317zM213.28183,179.75218c0.77209,-0.08633 1.57327,-0.54406 2.26124,-0.98908l-0.10369,-0.17758c0.14498,-0.74977 0.54836,-1.31582 1.19924,-1.54238c-0.07435,-1.09241 -2.00002,-2.10148 -3.06522,-2.1093c-0.11804,0.03035 -0.24109,0.07262 -0.36679,0.12543c-2.08656,0.11495 -3.61812,5.40482 0.08089,4.62161c0.03049,-0.00646 0.06036,-0.01313 0.08964,-0.02003c-0.03241,0.03443 -0.064,0.0647 -0.09531,0.09133zM212.98983,181.32309c-1.19408,1.78513 -0.94065,3.66624 -0.96124,5.73037c0.16863,0.50591 0.18759,2.0772 0.33432,1.56451c0.27838,-0.97269 1.76638,-4.00972 2.46806,-3.43832c0.07408,1.4341 0.19022,2.06881 0.87164,2.8919c0.06799,-0.32094 0.36517,-0.63877 0.81351,-0.80985c-0.31506,-0.84859 -0.20922,-1.6592 -0.51692,-2.54368c-0.57203,-1.8983 -2.50761,-1.60192 -2.64185,-3.74608c-0.13429,0.01854 -0.2653,0.03167 -0.39286,0.03939c0.14246,0.13609 0.02535,0.31176 0.02535,0.31176zM239.71364,219.27533v-0.18182c0,-0.90356 0.17278,-1.93686 0.98854,-2.38927c-1.05018,-0.75997 -2.34909,-0.84428 -3.58519,-1.18619l-0.08347,0.02783c0.03118,0.97601 0.39456,1.59305 -0.43856,2.4517l-0.07192,0.01468c0.47497,0.42222 1.03946,0.74409 1.39021,0.86861c0.34771,0.38926 1.07997,0.50786 1.80211,0.41822c-0.00172,-0.01468 -0.00172,-0.02373 -0.00172,-0.02373zM216.16818,216.91169l0.01283,-0.01185c-0.23478,-0.72819 0.04105,-1.1019 0.2578,-1.74912c-0.03866,-0.02436 -0.07656,-0.05088 -0.11331,-0.07996c-0.02236,-0.00058 -0.24822,-0.01234 -0.24822,-0.24997c0,-0.12285 0.06037,-0.18534 0.12178,-0.21712c0.04239,-0.06493 0.10733,-0.0974 0.10733,-0.0974l0.11685,-0.04408c0.24684,-0.2395 1.03735,-0.72458 0.3377,-0.96326c0,0 -0.02563,-0.01281 -0.05521,-0.03845c-0.45629,0.32335 -1.27984,0.4721 -1.90881,0.3681c-0.08793,0.22756 -0.1918,0.4482 -0.07894,0.68088l0.15476,-0.02958c0,0 0.25,0 0.25,0.25c0,0.01618 -0.00105,0.03131 -0.00301,0.04546c0.00196,0.01415 0.00301,0.02928 0.00301,0.04546c0,0.25 -0.25,0.25 -0.25,0.25c-0.3827,-0.00236 -0.87252,-0.01905 -1.355,-0.00941c0.56614,0.80574 0.01287,1.50029 -0.22601,2.293l-0.14273,0.07437c0.90088,0.30891 2.11184,0.05211 3.05112,-0.39073c-0.03192,-0.06294 -0.03193,-0.12633 -0.03193,-0.12633zM221.32728,180.38896c1.73154,0.05381 3.3453,-0.51544 4.91302,-0.68579c-0.20443,-0.02492 -0.40993,-0.06869 -0.61659,-0.13532c-2.36525,-0.82286 -5.5624,0.30743 -8.18364,0.0735c0.37905,0.74158 3.06566,0.74761 3.88721,0.74761zM225.69091,188.43442c-0.66467,0.02436 -0.93339,-0.59631 -1.50182,-0.73178c-0.94897,-0.22617 -2.41208,0.95356 -3.25629,0.15867c-0.00224,-0.00631 -2.31753,-1.47285 -2.82298,-1.20135c-0.01723,0.00925 -0.02992,0.30145 -0.04307,0.61069c0.00496,0.00164 0.00994,0.0033 0.01491,0.00496c2.30573,1.49095 5.20212,1.94147 7.71427,1.14724c-0.0343,0.00628 -0.06928,0.01025 -0.10502,0.01156zM230.1886,180.52186l0.18569,-0.09476c-0.17409,-0.66787 -0.55624,-1.10824 -1.22884,-1.10631c0,0 -0.10964,0 -0.22624,-0.05134c-0.61837,0.19843 -1.24283,0.38768 -1.87646,0.44335c0.98095,0.30641 1.71909,1.77579 3.14585,0.80907zM212.88021,217.03985c0.2613,-0.59196 0.76447,-1.22829 0.08848,-1.86047c0,0 -0.03437,-0.03437 -0.05765,-0.08795c-1.11091,0.0967 -1.88636,0.45376 -0.66315,1.66177c0.12962,0.19297 0.28886,0.34685 0.47036,0.46643c0.01971,-0.11246 0.09883,-0.15982 0.16196,-0.17977zM238.44312,214.12669c0.02004,-0.15069 -0.97752,-0.14682 -1.11585,-0.14682h-0.27273c0,0 -0.11883,0 -0.19264,-0.08193c-0.16178,-0.02169 -0.32431,-0.05799 -0.43895,-0.02801c-0.31501,0.08237 0.05712,0.82891 0.06342,0.95085c-0.04923,0.132 0.02289,0.15058 0.1346,0.16678c0.07181,-0.05315 0.16085,-0.05315 0.16085,-0.05315l0.16996,0.01283c0.40303,0.14021 0.81644,0.24362 1.22975,0.34127c0.0485,-0.39024 0.20808,-0.7595 0.26158,-1.16183zM240.21364,219.09351v0.10974c1.11475,-0.29361 1.96758,-1.08406 0.93686,-2.11478c-0.00903,-0.00912 -0.01807,-0.01817 -0.02715,-0.02715c-0.82018,0.27343 -0.90971,1.26461 -0.90971,2.03218zM236.23637,217.57078l0.00504,0.07322c0.73247,-0.70322 0.34735,-1.287 0.29572,-2.13123c-0.19065,0.04075 -0.36449,0.08892 -0.48762,0.21205c-0.61236,0.61236 -0.40639,1.29511 0.07032,1.87315c0.05955,-0.02721 0.11654,-0.0272 0.11654,-0.0272zM216.65536,216.74173l0.00394,0.05225c0.26232,-0.15704 0.48731,-0.32618 0.65646,-0.49533c0.47778,-0.72294 0.08056,-0.7731 -0.42082,-0.94291c-0.18966,0.50339 -0.44147,0.80567 -0.23959,1.386zM226.95179,187.78523c-0.33111,0.09977 -0.60734,0.40972 -0.9303,0.5626c0.47277,-0.16517 0.93061,-0.3755 1.36683,-0.6324c-0.1272,-0.02403 -0.26368,0.00966 -0.43653,0.0698zM216.41687,177.73198c-0.06937,0.06227 -0.13253,0.13256 -0.19,0.20913c0.07392,-0.06909 0.13701,-0.13888 0.19,-0.20913z" fill="#000000" stroke-width="0.5"/><path d="M227.4338,187.69465c-0.43622,0.2569 -0.98481,0.50922 -1.45758,0.67439c0.32296,-0.15288 0.68014,-0.51908 1.01125,-0.61885c0.17285,-0.06014 0.31914,-0.07958 0.44634,-0.05554z" data-paper-data="{&quot;noHover&quot;:false,&quot;origItem&quot;:[&quot;Path&quot;,{&quot;applyMatrix&quot;:true,&quot;segments&quot;:[[[453.90358,375.57046],[0.3457,-0.12028],[-0.66222,0.19954]],[[452.04298,376.69566],[0.64592,-0.30576],[0.94554,-0.33034]],[[454.77664,375.43086],[-0.87244,0.5138],[-0.2544,-0.04806]]],&quot;closed&quot;:true,&quot;fillColor&quot;:[0,0,0,1],&quot;strokeWidth&quot;:0.5}]}" fill="url(#color-2)" stroke-width="0.25"/><path d="M225.6418,188.42505c0.03574,-0.00131 0.16903,0.01305 0.20333,0.00677c-2.51215,0.79423 -5.50741,0.32903 -7.81314,-1.16192c-0.00497,-0.00166 -0.00994,-0.00336 -0.0149,-0.005c0.01315,-0.30924 0.02732,-0.60904 0.04456,-0.61829c0.50545,-0.2715 2.91842,1.20129 2.92066,1.2076c0.84421,0.79489 2.30783,-0.37809 3.2568,-0.15192c0.56843,0.13547 0.83626,0.76585 1.50093,0.74149z" data-paper-data="{&quot;noHover&quot;:false,&quot;origItem&quot;:[&quot;Path&quot;,{&quot;applyMatrix&quot;:true,&quot;segments&quot;:[[[451.38182,376.86884],[0,0],[-1.32934,0.04872]],[[448.37818,375.40528],[1.13686,0.27094],[-1.89794,-0.45234]],[[441.8656,375.72262],[1.68842,1.58978],[-0.00448,-0.01262]],[[436.21964,373.31992],[1.0109,-0.543],[-0.03446,0.0185]],[[436.1335,374.5413],[0.0263,-0.61848],[0.00992,0.00328]],[[436.16332,374.55122],[-0.00994,-0.00332],[4.61146,2.9819]],[[451.59186,376.8457],[-5.0243,1.58846],[-0.0686,0.01256]],[[451.38182,376.86882],[0.07148,-0.00262],[0,0]]],&quot;closed&quot;:true,&quot;fillColor&quot;:[0,0,0,1],&quot;strokeWidth&quot;:0.5}]}" fill="url(#color-3)" stroke-width="0.25"/><path d="M230.23631,180.53682c-1.42676,0.96672 -2.26157,-0.52776 -3.24252,-0.83417c0.63363,-0.05567 1.31996,-0.28307 1.93833,-0.4815c0.1166,0.05134 0.23882,0.05663 0.23882,0.05663c0.6726,-0.00193 1.07807,0.49227 1.25216,1.16014l-0.18679,0.09889z" data-paper-data="{&quot;noHover&quot;:false,&quot;origItem&quot;:[&quot;Path&quot;,{&quot;applyMatrix&quot;:true,&quot;segments&quot;:[[460.3772,361.04372],[[460.74858,360.8542],[0,0],[-0.34818,-1.33574]],[[458.2909,358.64158],[1.3452,-0.00386],[0,0]],[[457.83842,358.5389],[0.2332,0.10268],[-1.23674,0.39686]],[[454.0855,359.4256],[1.26726,-0.11134],[1.9619,0.61282]],[[460.3772,361.04374],[-2.85352,1.93344],[0,0]]],&quot;closed&quot;:true,&quot;fillColor&quot;:[0,0,0,1],&quot;strokeWidth&quot;:0.5}]}" fill="url(#color-4)" stroke-width="0.25"/><path d="M217.39012,179.63924c2.62124,0.23393 5.91822,-0.89767 8.28347,-0.07482c0.20666,0.06663 0.41226,0.11241 0.61669,0.13733c-1.56772,0.17035 -3.2652,0.77792 -4.99674,0.72411c-0.82155,0 -3.52438,-0.04505 -3.90343,-0.78663z" data-paper-data="{&quot;noHover&quot;:false,&quot;origItem&quot;:[&quot;Path&quot;,{&quot;applyMatrix&quot;:true,&quot;segments&quot;:[[[442.65456,360.77792],[-1.6431,0],[3.46308,0.10762]],[[452.4806,359.40634],[-3.13544,0.3407],[-0.40886,-0.04984]],[[451.24742,359.1357],[0.41332,0.13326],[-4.7305,-1.64572]],[[434.88014,359.2827],[5.24248,0.46786],[0.7581,1.48316]]],&quot;closed&quot;:true,&quot;fillColor&quot;:[0,0,0,1],&quot;strokeWidth&quot;:0.5}]}" fill="url(#color-5)" stroke-width="0.25"/><path d="M231.69884,173.85191c1.42178,1.36779 2.02921,4.18949 -0.901,4.18949c-0.58063,0 -2.08492,-0.23554 -3.25279,-0.66716c0.15572,0.20389 0.34364,0.40398 0.51593,0.60275c-1.15508,-0.04904 -2.32596,-0.22001 -2.92338,-0.61829c-0.05145,-0.0343 -0.10488,-0.06687 -0.15829,-0.09491c-1.38745,-1.43375 0.20927,-2.91097 1.74517,-3.69569c1.05036,-1.03893 2.63846,-0.80784 3.98076,-0.24231c0.26902,0.02219 0.55359,0.13969 0.83863,0.38401c0.02508,0.0215 0.05068,0.04468 0.07534,0.06705c0.09217,0.05041 0.18424,0.10483 0.27246,0.15613c-0.06331,-0.02788 -0.12831,-0.05632 -0.19283,-0.08107z" data-paper-data="{&quot;noHover&quot;:false,&quot;origItem&quot;:[&quot;Path&quot;,{&quot;applyMatrix&quot;:true,&quot;segments&quot;:[[[231.84638,173.95417],[-0.06331,-0.02788],[-0.08822,-0.0513]],[[231.57566,173.80141],[0.09217,0.05041],[-0.02466,-0.02237]],[[231.50103,173.73559],[0.02508,0.0215],[-0.28504,-0.24432]],[[230.67055,173.36181],[0.26902,0.02219],[-1.3423,-0.56553]],[[226.76047,173.60281],[1.05036,-1.03893],[-1.5359,0.78473]],[[225.02413,177.24165],[-1.38745,-1.43375],[0.05342,0.02804]],[[225.18154,177.33485],[-0.05145,-0.0343],[0.59742,0.39828]],[[228.07261,177.92837],[-1.15508,-0.04904],[-0.17229,-0.19878]],[[227.57016,177.33101],[0.15572,0.20389],[1.16787,0.43162]],[[230.76615,178.00273],[-0.58063,0],[2.93021,0]],[[231.65456,173.87513],[1.42178,1.36779],[0.06452,0.02475]]],&quot;closed&quot;:true}]}" fill="url(#color-6)" stroke-width="0.5"/><path d="M213.3673,179.70988c-0.02928,0.0069 -0.06086,0.0132 -0.09135,0.01966c-3.69901,0.7832 -2.16927,-4.60349 -0.08271,-4.71844c0.1257,-0.05281 0.2566,-0.0966 0.37464,-0.12695c1.0652,0.00782 3.0461,1.06119 3.12045,2.1536c-0.65088,0.22656 -1.06445,0.82865 -1.20943,1.57842l0.1026,0.17893c-0.68796,0.44502 -1.53891,0.91945 -2.311,1.00579c0.03131,-0.02662 0.06439,-0.05658 0.0968,-0.091z" data-paper-data="{&quot;noHover&quot;:false,&quot;origItem&quot;:[&quot;Path&quot;,{&quot;applyMatrix&quot;:true,&quot;segments&quot;:[[[213.28183,179.75218],[0.03131,-0.02662],[0.77209,-0.08633]],[[215.54307,178.76311],[-0.68796,0.44502],[0,0]],[[215.43939,178.58553],[0,0],[0.14498,-0.74977]],[[216.63863,177.04314],[-0.65088,0.22656],[-0.07435,-1.09241]],[[213.57341,174.93384],[1.0652,0.00782],[-0.11804,0.03035]],[[213.20661,175.05927],[0.1257,-0.05281],[-2.08656,0.11495]],[[213.2875,179.68088],[-3.69901,0.7832],[0.03049,-0.00646]],[[213.37714,179.66085],[-0.02928,0.0069],[-0.03241,0.03443]]],&quot;closed&quot;:true}]}" fill="url(#color-7)" stroke-width="0.5"/><path d="M228.96909,178.39191c0.70853,0.00958 1.37531,0.00315 1.86049,0.00315c0.41385,0.10346 0.7918,0.11138 1.12202,0.03847c0.01909,0.03162 -0.03554,0.13608 -0.01919,0.17346c-0.15345,0.03459 -0.23712,-0.00464 -0.39314,0.02281c0.26319,0.24391 0.45123,0.56334 0.49898,0.95885c-0.04817,0.07069 -0.07968,0.16649 -0.07968,0.29355c0,0.5 0.50266,0.50404 0.50266,0.50404l0.50525,-0.4484c-0.00968,-0.36247 -0.07373,-0.68554 -0.18805,-0.9792c0.05854,-0.01726 0.17524,-0.11364 0.19969,-0.15157c1.41138,0.50317 2.61477,1.17625 2.70376,2.83786c-0.74797,1.02588 -2.15199,0.97309 -2.86712,1.8377c-0.50438,0.60981 -0.11307,1.71031 -0.70702,2.26577c-1.53541,1.60211 -2.44704,3.39453 -4.75642,3.97438c-2.16235,0.86857 -4.1336,1.52438 -6.50853,1.52438c-1.3137,0 -4.12751,-0.16673 -4.12751,-1.94778l-0.0005,-0.25425c0.09193,0.01241 0.27861,-0.02577 0.38372,-0.02093l0.09081,-0.00019c0,0 0.4118,0.04713 0.4118,-0.45287c0,-0.22498 -0.10229,-0.35091 -0.21365,-0.41897c0.08399,0.01327 0.25366,-0.01206 0.32142,0.0103c3.86445,2.18979 8.57932,2.3338 11.84453,-0.93141c1.52566,-1.52998 2.83166,-6.78795 0.93676,-8.40378c-0.25144,0.01894 -0.50187,0.03126 -0.75816,0.03126c-0.7054,0 -1.37898,-0.06625 -2.04312,-0.20517c-0.58915,0.14854 -1.18102,0.21248 -1.74661,0.01572c-1.65693,-0.53422 -4.13396,-0.01226 -6.3619,0.13504c0.03596,-0.06534 -0.0417,-0.19697 -0.0417,-0.19697l0.00026,-0.09123c-0.00635,-0.1228 -0.01169,-0.24675 -0.01804,-0.36955c-0.43121,-0.46232 -1.01732,-0.9073 -1.62583,-1.15955c1.5045,-0.1792 2.93686,0.22198 4.49893,0.22198c0.34976,0 0.69964,-0.02299 1.04209,-0.0444c0.41653,0.17227 0.87174,0.22776 1.27041,0.42934c0.00185,0.0019 0.00373,0.00379 0.00557,0.00569c0,0 0.05621,0.05515 0.13594,0.07294c0.01539,0.00956 0.03099,0.01934 0.04619,0.02947c0.73487,0.48991 2.22717,0.63909 3.60085,0.67878c0.00199,0.00275 0.00405,0.00553 0.00603,0.00829l0.26091,0.1009c0,0 0.13535,0.0005 0.20709,-0.09793z" data-paper-data="{&quot;noHover&quot;:false,&quot;origItem&quot;:[&quot;Path&quot;,{&quot;applyMatrix&quot;:true,&quot;segments&quot;:[[457.48235,357.07059],[[456.96471,356.87059],[0,0],[-0.00397,-0.00551]],[[456.95277,356.85407],[0.00399,0.0055],[-2.74736,-0.07936]],[[449.80837,355.50174],[1.46973,0.97982],[-0.0304,-0.02027]],[[449.71659,355.44268],[0.03078,0.01912],[-0.15945,-0.03557]],[[449.44645,355.29641],[0,0],[-0.0037,-0.0038]],[[449.43536,355.28502],[0.00369,0.0038],[-0.79734,-0.40316]],[[446.9092,354.42177],[0.83306,0.34453],[-0.6849,0.04283]],[[444.83636,354.5052],[0.69952,0],[-3.12414,0]],[[435.86613,354.03872],[3.00901,-0.3584],[1.21701,0.5045]],[[439.11649,356.35931],[-0.86242,-0.92464],[0.01269,0.2456]],[[439.15455,357.09611],[-0.01269,-0.2456],[0,0]],[439.15455,357.27792],[[439.08263,357.54586],[0.07191,-0.13068],[4.45587,-0.2946]],[[451.87987,357.23833],[-3.31385,-1.06844],[1.13119,0.39353]],[[455.40424,357.21036],[-1.17829,0.29707],[1.32827,0.27785]],[[459.52,357.63429],[-1.4108,0],[0.51258,0]],[[461.04353,357.57713],[-0.50288,0.03788],[3.7898,3.23166]],[[459.17984,374.53048],[3.05132,-3.05995],[-6.53042,6.53042]],[[435.3276,376.36825],[7.7289,4.37958],[-0.13552,-0.04472]],[[434.86573,376.26252],[0.16797,0.02655],[0.22272,0.13613]],[[435.29091,377.09611],[0,-0.44995],[0,1]],[434.29091,378.09611],[[434.10909,378.09611],[0,0],[-0.21023,-0.00967]],[[433.51818,378.04399],[0.18385,0.02482],[0,0]],[[433.51818,378.55065],[0,0],[0,3.56209]],[[441.74546,382.41429],[-2.62741,0],[4.74987,0]],[[454.68253,379.34763],[-4.32471,1.73715],[4.61876,-1.15969]],[[464.11917,371.46982],[-3.07082,3.20422],[1.18791,-1.11092]],[[465.52992,366.97443],[-1.00876,1.21963],[1.43026,-1.72923]],[[471.26691,363.31485],[-1.49595,2.05177],[-0.17799,-3.32322]],[[465.87733,357.6756],[2.82277,1.00634],[-0.0489,0.07584]],[[465.63571,357.85579],[0.11707,-0.03452],[0.22863,0.58732]],[[466.01818,359.82338],[-0.01937,-0.72494],[0,0]],[464.83636,360.82338],[[463.83636,359.82338],[0,1],[0,-0.25412]],[[463.99728,359.23833],[-0.09634,0.14138],[-0.09548,-0.79101]],[[463.00861,357.33108],[0.52638,0.48782],[0.31205,-0.05489]],[[463.9371,357.14488],[-0.30689,0.06918],[-0.03269,-0.07476]],[[463.83188,356.93715],[0.03818,0.06325],[-0.66045,0.14583]],[[461.59605,356.86768],[0.8277,0.20693],[-0.97037,0]],[[457.89441,356.87373],[1.41706,0.01917],[-0.14347,0.19686]]],&quot;closed&quot;:true}]}" fill="url(#color-8)" stroke-width="0.5"/><path d="M232.8728,178.3048c-0.03492,-0.10183 -0.08541,-0.17894 -0.15431,-0.26017c1.06947,-0.9112 1.21276,-2.88508 0.0875,-4.02004c-1.63206,-1.08804 -4.59513,-2.5373 -6.32349,-0.77952c-1.64116,0.79908 -2.97223,2.2369 -2.21575,3.73124c-0.16035,-0.04457 -0.41506,-0.12094 -0.56848,-0.18391c-0.04638,-0.03496 -0.09225,-0.07095 -0.138,-0.1067c-0.02477,0.00154 -0.04964,0.00339 -0.07442,0.00494c-0.04674,-0.02596 -0.09255,-0.05465 -0.13751,-0.08574l-0.11505,-0.01093c0,0 -0.18564,-0.00209 -0.23662,0.15869c-0.17547,0.00798 -0.35167,0.01193 -0.52995,0.01193c-1.6709,0 -3.15835,-0.43669 -4.77989,-0.1962c-0.08248,0.13725 -0.1679,0.2703 -0.25668,0.40315c-0.06193,-0.03041 -0.12332,-0.03034 -0.12332,-0.03034c-0.04431,0.0011 -0.18726,-0.0075 -0.23004,-0.00401c-0.16889,-1.14436 -1.72854,-2.20172 -3.03677,-2.45467c0.32767,-0.80634 0.78035,-1.55469 1.16034,-2.31466c1.26725,-1.23651 2.3435,-2.77168 3.62846,-4.05663c0,0 0.04035,-0.04032 0.06327,-0.10134c0.30295,-0.27054 0.62643,-0.52769 0.95559,-0.77081c0.01478,-0.09576 0.03153,-0.19152 0.04901,-0.28636c0.14849,0.17768 0.33912,0.03474 0.33912,0.03474c1.9126,-1.44349 3.84984,-0.80087 5.75243,-1.90595c2.4313,-0.59817 4.59617,0.6536 6.91579,1.22113c2.06021,1.03354 3.12132,3.07271 4.99116,4.23248c0.3279,0.70652 0.6963,1.64937 0.96629,2.50751c-0.07662,0.16311 -0.15692,0.32513 -0.24195,0.48329c0.18265,0.21867 0.37506,0.43379 0.57813,0.63686c0.82256,0.82256 0.92788,3.42978 1.39753,4.62033c0.33471,0.84849 1.26891,1.08067 1.25836,2.13844c0,0.96913 -0.28534,1.86562 -0.44373,2.79899c-0.10458,0.07051 -0.10489,0.21108 -0.10489,0.21108l0.00294,0.23335c-0.62207,1.78813 -1.87107,3.79776 -3.46914,4.86314c-0.82942,0.82574 -2.25195,1.68903 -3.3119,2.15179c-0.43998,0.19209 -1.2083,-0.07341 -1.76117,0.04074c0.77632,-0.93536 1.6997,-1.74774 2.37744,-2.75679c0.14354,-0.21531 0.83069,-0.83308 0.33372,-1.09746c-0.48209,-0.25646 -1.37992,1.08491 -1.64732,1.30471c-0.72928,0.59944 -1.68677,0.79277 -2.41207,1.15724c0.99937,-1.05284 2.14397,-2.49994 2.29556,-3.86991c0.01505,-0.03913 0.02796,-0.09581 0.01241,-0.15515c0.00204,-0.03788 0.00297,-0.07545 0.00336,-0.11315c0,0 0.0605,-0.17038 -0.1895,-0.17038c-0.25,0 -0.25153,0.25111 -0.25153,0.25111c0.0005,0.03606 -0.00027,0.07249 -0.0017,0.10888c-0.82552,1.24373 -2.05588,2.91346 -3.48413,3.38955c-0.19074,0.06358 -0.40095,0.02295 -0.59987,0.06822c1.24815,-0.85833 1.95585,-2.1416 3.18668,-3.29266c0.61098,-0.63752 0.26033,-1.64853 0.73977,-2.29094c0.66707,-0.89383 2.19827,-0.79549 2.93795,-1.97215c0.06404,-2.06061 -1.47591,-2.88219 -3.18811,-3.47877c-0.00184,0.00062 -0.00368,0.0012 -0.00552,0.00181z" data-paper-data="{&quot;noHover&quot;:false,&quot;origItem&quot;:[&quot;Path&quot;,{&quot;applyMatrix&quot;:true,&quot;segments&quot;:[[[465.85655,356.60967],[-0.00368,0.00123],[3.42439,1.19316]],[[472.224,363.60463],[0.12808,-4.12122],[-1.47937,2.35331]],[[466.32463,367.58142],[1.33414,-1.78766],[-0.95887,1.28483]],[[464.82628,372.17693],[1.22196,-1.27504],[-2.46166,2.30212]],[[458.41515,378.7744],[2.49631,-1.71665],[0.39784,-0.09054]],[[459.58734,378.43995],[-0.38148,0.12716],[2.8565,-0.95217]],[[466.51534,371.67711],[-1.65105,2.48747],[0.00287,-0.07278]],[[466.51818,371.45974],[0.001,0.07212],[0,0]],[[467.01818,370.95974],[-0.5,0],[0.5,0]],[[467.51818,371.45974],[0,0],[-0.00078,0.07541]],[[467.51087,371.68648],[0.00408,-0.07575],[0.03112,0.11868]],[[467.48521,371.99742],[0.0301,-0.07826],[-0.30317,2.73994]],[[462.86326,379.75258],[1.99873,-2.10569],[1.4506,-0.72893]],[[467.61028,377.25489],[-1.45856,1.19888],[0.53481,-0.4396]],[[470.89048,374.65527],[-0.96418,-0.51292],[0.99394,0.52876]],[[470.3433,377.00982],[0.28708,-0.43061],[-1.35548,2.01809]],[[465.56583,382.53515],[1.55263,-1.87072],[1.10575,-0.22829]],[[469.00866,382.27053],[-0.87996,0.38418],[2.1199,-0.92552]],[[475.61028,377.98216],[-1.65884,1.65148],[3.19614,-2.13076]],[[482.52464,368.28874],[-1.24415,3.57626],[0,0]],[482.51818,367.82338],[[482.72733,367.4027],[-0.20915,0.14102],[0.31678,-1.86673]],[[483.60909,361.82338],[0,1.93827],[0.0211,-2.11555]],[[481.09053,357.56101],[0.66942,1.69697],[-0.9393,-2.38111]],[[478.30099,348.35875],[1.64512,1.64512],[-0.40614,-0.40614]],[[477.14722,347.0914],[0.36529,0.43735],[0.17006,-0.31631]],[[477.63231,346.12746],[-0.15324,0.32622],[-0.53998,-1.71627]],[[475.71088,341.1309],[0.65579,1.41305],[-3.73968,-2.31955]],[[465.76938,332.69751],[4.12042,2.06708],[-4.63923,-1.13505]],[[451.99134,330.26194],[4.8626,-1.19634],[-3.80518,2.21014]],[[440.52857,334.05714],[3.82519,-2.88697],[0,0]],[[439.85186,333.98658],[0.29698,0.35536],[-0.03496,0.18968]],[[439.75507,334.5584],[0.02956,-0.19152],[-0.65833,0.48625]],[[437.85088,336.0943],[0.6059,-0.54108],[-0.04583,0.12204]],[[437.72498,336.29641],[0,0],[-2.56991,2.56991]],[[430.49134,344.37807],[2.5345,-2.47303],[-0.75997,1.51994]],[[428.17679,348.99039],[0.65534,-1.61269],[2.61646,0.50589]],[[434.25302,353.88524],[-0.33779,-2.28873],[0.08556,-0.00697]],[[434.51429,353.87143],[-0.08862,0.00221],[0,0]],[[434.76091,353.93225],[-0.12386,-0.06082],[0.17756,-0.26571]],[[435.27479,353.12185],[-0.16496,0.27449],[3.24307,-0.48098]],[[444.83636,353.5052],[-3.3418,0],[0.35655,0]],[[445.89695,353.47872],[-0.35094,0.01597],[0.10194,-0.32157]],[446.37143,353.15714],[[446.79164,353.24112],[0,0],[0.08992,0.06219]],[[447.06691,353.41182],[-0.09349,-0.05192],[0.04956,-0.00311]],[[447.21557,353.4025],[-0.04954,0.00309],[0.0915,0.0715]],[[447.49196,353.61465],[-0.09276,-0.06993],[0.30683,0.12594]],[[448.43799,353.92296],[-0.3207,-0.08913],[-1.51296,-2.98869]],[[452.93622,346.39438],[-3.28232,1.59817],[3.45672,-3.51556]],[[465.68842,347.98476],[-3.26412,-2.17608],[2.25052,2.26992]],[[465.53696,356.08769],[2.13894,-1.8224],[0.1378,0.16245]],[[465.84552,356.61335],[-0.06985,-0.20366],[0.00368,-0.00122]]],&quot;closed&quot;:true}]}" fill="url(#color-9)" stroke-width="0.5"/><path d="M220.22068,184.56213c-0.17869,-1.30931 -0.92059,-2.48657 -0.96276,-3.77479c0.78071,0.08745 1.56466,0.08269 2.02308,0.08269c1.37097,-0.07343 3.38759,0.15892 4.71448,-0.22396c0.4421,-0.12757 0.3188,-0.5578 0.81896,-0.52228c0.27982,-0.05348 0.64617,0.73102 0.98055,0.89364c0.75058,0.36506 2.03,0.36036 2.71775,-0.09073c0.09972,0.95402 -0.09598,2.21252 -0.42371,3.29852c-1.03372,-1.28149 -3.36094,-0.50433 -4.78074,-0.14938c-0.19121,0.00418 -0.40492,0.04622 -0.599,0.11676c-1.14123,-0.91921 -3.43164,-0.67717 -4.48861,0.36953z" data-paper-data="{&quot;noHover&quot;:false,&quot;origItem&quot;:[&quot;Path&quot;,{&quot;applyMatrix&quot;:true,&quot;segments&quot;:[[[449.42878,368.28572],[-2.28247,-1.83841],[0.38815,-0.14108]],[[450.59345,368.0544],[-0.38243,0.00835],[2.8396,-0.7099]],[[460.084,368.41646],[-2.06744,-2.56297],[0.65546,-2.172]],[[460.92854,361.87797],[0.19944,1.90804],[-1.3755,0.90219]],[[455.49911,362.07666],[1.50116,0.73011],[-0.66874,-0.32525]],[[453.56364,360.32338],[0.55965,-0.10697],[-1.00033,-0.07104]],[[451.9368,361.37623],[0.8842,-0.25514],[-2.65377,0.76576]],[[442.65455,361.77792],[2.74194,-0.14686],[-0.91683,0]],[[438.6122,361.60139],[1.56143,0.17489],[0.08434,2.57643]],[[440.53176,369.0815],[-0.35738,-2.61863],[2.11395,-2.0934]]],&quot;closed&quot;:true}]}" fill="url(#color-10)" stroke-width="0.5"/><path d="M224.8828,184.57385c0.17321,-0.06727 0.35409,-0.10012 0.49497,-0.09625c1.24389,-0.31097 3.84509,-1.22363 4.51302,0.32004c-0.28364,0.77375 -0.62631,1.43668 -0.95852,1.76784c-0.31674,0.31674 -0.65913,0.61251 -1.01475,0.86054c-0.32777,-0.23318 -0.65254,-0.22596 -1.08225,-0.08742c-0.27648,0.09815 -0.86236,0.66165 -1.12284,0.64094c-0.85756,-0.0682 -1.29548,-1.01531 -2.33496,-0.71861c-0.30763,0.08781 -1.85683,0.62279 -2.06427,0.35949c-0.07327,-0.23915 -0.16806,-0.62164 -0.39338,-0.74604c-0.26185,-0.14458 -0.76679,0.28428 -1.02891,0.26288c-0.0975,-0.00796 -0.19756,-0.06642 -0.30082,-0.14965c0.2109,-0.0246 0.21054,-0.2498 0.21054,-0.2498l-0.01298,-0.10379c0.15206,-0.47163 0.29211,-0.82878 0.4545,-1.2862c0.21326,-1.22304 2.79049,-1.58368 3.93533,-0.98852c-0.53565,0.3513 -0.90793,0.95276 -1.02274,1.52083c-0.06023,0.03231 -0.11856,0.08848 -0.11856,0.20909c0,0.25 0.15187,0.26716 0.15187,0.26716l0.33964,-0.25644c-0.05497,-0.51139 0.57288,-1.14684 1.15021,-1.43809c0.05647,0.00456 0.12919,-0.01226 0.19462,-0.0777c0.00345,-0.00345 0.00709,-0.00687 0.01028,-0.01031z" data-paper-data="{&quot;noHover&quot;:false,&quot;origItem&quot;:[&quot;Path&quot;,{&quot;applyMatrix&quot;:true,&quot;segments&quot;:[[[449.73537,369.26784],[0.0069,-0.0069],[-0.13087,0.13087]],[[449.36068,369.42359],[0.11294,0.00911],[-1.15465,0.5825]],[[447.15455,372.18701],[-0.10993,-1.02279],[0,0]],[446.47273,372.68701],[[445.97273,372.18701],[0,0.5],[0,-0.24122]],[[446.20957,371.75633],[-0.12046,0.06461],[0.22961,-1.13613]],[[448.38847,368.81282],[-1.0713,0.70261],[-2.28968,-1.19031]],[[440.58343,370.70876],[0.42651,-2.44608],[-0.32478,0.91483]],[[439.67434,373.25422],[0.30412,-0.94326],[0,0]],[439.7,373.45974],[[439.27819,373.95535],[0.42181,-0.0492],[0.20652,0.16645]],[[439.87892,374.25061],[-0.19499,-0.01592],[0.52424,0.0428]],[[441.9368,373.72507],[-0.52371,-0.28916],[0.45064,0.24881]],[[442.71624,375.19688],[-0.14654,-0.47829],[0.41488,0.52659]],[[446.82684,374.45235],[-0.61526,0.17562],[2.07895,-0.5934]],[[451.38182,375.86883],[-1.71512,-0.1364],[0.52095,0.04143]],[[453.58734,374.62176],[-0.55295,0.19631],[0.85942,-0.27709]],[[455.74443,374.80974],[-0.65554,-0.46637],[0.71124,-0.49606]],[[457.76562,373.11627],[-0.63349,0.63349],[0.66442,-0.66233]],[[459.68395,369.61699],[-0.56728,1.5475],[-1.33585,-3.08735]],[[450.71564,369.0469],[2.48777,-0.62194],[-0.28175,-0.00775]],[[449.75526,369.24715],[0.34643,-0.13454],[-0.00637,0.00689]]],&quot;closed&quot;:true}]}" fill="url(#color-11)" stroke-width="0.5"/><path d="M214.34249,179.91686c0.47684,-0.19565 0.9594,-0.46973 1.38845,-0.7401c0.36514,0.16544 0.76748,0.27474 1.17284,0.34502c0.08703,0.66837 0.96922,1.00862 1.93417,1.17079c0.05262,1.52381 1.00872,2.85098 1.00872,4.42787l-0.00059,0.0918c0,0 -0.00025,0.0166 0.00389,0.04079c-0.12529,0.40836 -0.31115,0.8375 -0.45657,1.25552l-0.01301,0.23672c-0.41467,-0.42504 -0.91316,-0.94502 -1.54758,-0.44335c-0.22725,0.1797 -0.2385,0.548 -0.23262,0.90484c-0.20761,-0.02979 -0.41112,-0.03111 -0.59314,-0.0112c-0.3581,-0.86156 -0.24966,-1.66786 -0.5461,-2.58727c-0.67158,-1.89167 -2.63346,-1.74958 -2.64956,-3.88318l0.11923,-0.06667c0,0 0.15974,-0.10769 0.21675,-0.28444c0.1909,-0.14449 0.19486,-0.41102 0.19486,-0.41102z" data-paper-data="{&quot;noHover&quot;:false,&quot;origItem&quot;:[&quot;Path&quot;,{&quot;applyMatrix&quot;:true,&quot;segments&quot;:[[428.74546,360.0052],[[428.36367,360.82045],[0.38179,-0.28898],[-0.11401,0.35349]],[427.93652,361.3827],[[427.7002,361.51351],[0,0],[0.03221,4.26721]],[[432.94707,369.11981],[-1.34316,-3.78335],[0.59287,1.83883]],[[434.00966,374.29123],[-0.71621,-1.72311],[0.36403,-0.03983]],[[435.18151,374.31533],[-0.41521,-0.05958],[-0.01176,-0.71368]],[[435.63492,372.50867],[-0.4545,0.3594],[1.26884,-1.00334]],[[438.70248,373.40931],[-0.82935,-0.85008],[0,0]],[[438.72566,372.93799],[0,0],[0.29085,-0.83604]],[[439.61737,370.4497],[-0.25059,0.81672],[-0.00828,-0.04839]],[439.60909,370.36883],[[439.60909,370.18701],[0,0],[0,-3.15378]],[[437.61325,361.46309],[0.10524,3.04762],[-1.9299,-0.32434]],[[433.80554,359.14353],[0.17407,1.33675],[-0.81073,-0.14056]],[[431.48827,358.44996],[0.73027,0.33087],[-0.8581,0.54076]],[[428.74546,359.91336],[0.95369,-0.39129],[0,0]]],&quot;closed&quot;:true}]}" fill="url(#color-12)" stroke-width="0.5"/><path d="M212.9484,180.96399c0.12757,-0.00772 0.26323,-0.02218 0.39751,-0.04073c0.13423,2.14416 2.13111,1.89278 2.70315,3.79108c0.3077,0.88448 0.18606,1.73538 0.50111,2.58397c-0.44834,0.17109 -0.75925,0.49799 -0.82725,0.81894c-0.68141,-0.82309 -0.77487,-1.47799 -0.84895,-2.91209c-0.70168,-0.5714 -2.25522,2.48475 -2.5336,3.45745c-0.14674,0.51269 -0.17875,-1.06813 -0.34739,-1.57404c0.02059,-2.06413 -0.21429,-4.02734 0.97979,-5.81247c0,0 0.11808,-0.17601 -0.02438,-0.3121z" data-paper-data="{&quot;noHover&quot;:false,&quot;origItem&quot;:[&quot;Path&quot;,{&quot;applyMatrix&quot;:true,&quot;segments&quot;:[[[425.97966,362.64618],[0,0],[-2.38816,3.57026]],[[424.05718,374.10692],[0.04118,-4.12826],[0.33727,1.01182]],[[424.72583,377.23594],[-0.29347,1.02538],[0.55677,-1.94539]],[[429.66194,370.35931],[-1.40336,-1.1428],[0.14816,2.8682]],[[431.40522,376.14311],[-1.36283,-1.64618],[0.13598,-0.64189]],[[433.03223,374.5234],[-0.89668,0.34217],[-0.63012,-1.69717]],[[431.99839,369.43604],[0.61541,1.76896],[-1.14407,-3.7966]],[[426.71469,361.94388],[0.26847,4.28831],[-0.26857,0.03709]],[[425.92897,362.02266],[0.25513,-0.01544],[0.28492,0.27218]]],&quot;closed&quot;:true}]}" fill="url(#color-13)" stroke-width="0.5"/><path d="M199.94091,192.54806c0,0.25 -0.25,0.25 -0.25,0.25h-0.09091c-0.64846,0 -1.04509,0.04374 -1.54041,-0.43686c0,0 -0.17677,-0.17678 0,-0.35356c0.17677,-0.17677 0.35356,0 0.35356,0c0.36411,0.37926 0.68427,0.29041 1.18686,0.29041h0.09091c0,0 0.25,0 0.25,0.25z" fill="#000000" stroke-width="0.5"/><path d="M198.12273,196.36624c0,0.25 -0.25,0.25 -0.25,0.25c-0.33334,0 -1.0303,0 -1.36364,0c0,0 -0.25,0 -0.25,-0.25c0,-0.25 0.25,-0.25 0.25,-0.25c0.33334,0 0.66666,0 1,0h0.36364c0,0 0.25,0 0.25,0.25z" fill="#000000" stroke-width="0.5"/><path d="M198.48637,194.09351c0,0.25 -0.25,0.25 -0.25,0.25c-0.24242,0 -0.66667,0 -0.90909,0c0,0 -0.25,0 -0.25,-0.25c0,-0.25 0.25,-0.25 0.25,-0.25c0.24242,0 0.48485,0 0.72727,0h0.18182c0,0 0.25,0 0.25,0.25z" fill="#000000" stroke-width="0.5"/><path d="M258.21364,189.63896c0,0.23215 -0.21556,0.24873 -0.24635,0.24991c-0.47708,0.39334 -1.08815,0.38917 -1.67028,0.53808c0,0 -0.24254,0.06063 -0.30317,-0.1819c-0.06063,-0.24254 0.1819,-0.30317 0.1819,-0.30317c0.48336,-0.11847 1.15717,-0.09149 1.52022,-0.47969l0.26769,-0.07323c0,0 0.25,0 0.25,0.25z" fill="#000000" stroke-width="0.5"/><path d="M217.55224,193.61277c0.17436,-0.11624 0.3,0.0111 0.33609,0.05535c0.13718,-0.04812 0.25209,0.06679 0.25209,0.06679c0.67471,0.70278 3.69808,2.39567 4.73232,2.38132c1.43909,0 2.34424,0.49939 3.67641,0.7305c0.77788,0.13495 1.46416,-0.60025 2.20214,-0.63772c2.29924,-0.51186 4.30255,-1.43882 6.1046,-2.81271c0.20176,-0.15382 0.65579,-0.00242 0.7214,0.24265c0,1.98821 -2.4641,4.10607 -3.8005,5.44951c-1.09936,1.06667 -5.14832,2.26891 -6.43104,1.33522c-2.26878,0 -4.6384,-1.34408 -5.67582,-3.45673c-0.77279,-0.75015 -1.67981,-1.73773 -2.02177,-2.76361l-0.16525,-0.24389c0,0 -0.13868,-0.20801 0.06934,-0.34669zM218.33441,194.53107c0.42374,0.80011 1.13075,1.51975 1.74113,2.14353c1.03652,2.04045 3.19007,3.27054 5.41509,3.27054c1.21734,0.77278 4.92472,-0.16043 5.93259,-1.21023c1.21541,-1.20986 3.54917,-3.19595 3.65063,-4.97686c-0.25877,0.33831 -1.21327,1.2286 -1.44159,1.37118c-1.23316,0.77009 -3.44779,1.21069 -4.8199,1.57603c-0.77672,-0.06419 -1.46096,0.77687 -2.34332,0.63501c-1.32958,-0.21377 -2.17308,-0.72405 -3.59632,-0.72405c-1.00302,-0.01035 -3.32607,-1.21548 -4.53832,-2.08516z" fill="#000000" stroke-width="0.5"/><path d="M222.92249,196.62114c1.42324,0 2.24506,0.464 3.57464,0.67777c0.88236,0.14186 1.48897,-0.65105 2.2657,-0.58686c1.37211,-0.36534 3.588,-0.79972 4.82116,-1.56982c0.22833,-0.14258 1.27773,-1.0639 1.53651,-1.40221c-0.10146,1.7809 -2.43495,3.80234 -3.65036,5.01219c-1.00788,1.0498 -4.78118,2.01195 -5.99852,1.23917c-2.22502,0 -4.4095,-1.27875 -5.44602,-3.31919c-0.61038,-0.62378 -1.31541,-1.35513 -1.73915,-2.15524c1.21225,0.86969 3.63303,2.09384 4.63605,2.10419z" data-paper-data="{&quot;noHover&quot;:false,&quot;origItem&quot;:[&quot;Path&quot;,{&quot;applyMatrix&quot;:true,&quot;segments&quot;:[[[218.33441,194.53107],[1.21225,0.86969],[0.42374,0.80011]],[[220.07554,196.6746],[-0.61038,-0.62378],[1.03652,2.04045]],[[225.49063,199.94515],[-2.22502,0],[1.21734,0.77278]],[[231.42323,198.73491],[-1.00788,1.0498],[1.21541,-1.20986]],[[235.07386,193.75806],[-0.10146,1.7809],[-0.25877,0.33831]],[[233.63227,195.12924],[0.22833,-0.14258],[-1.23316,0.77009]],[[228.81237,196.70527],[1.37211,-0.36534],[-0.77672,-0.06419]],[[226.46905,197.34028],[0.88236,0.14186],[-1.32958,-0.21377]],[[222.87273,196.61624],[1.42324,0],[-1.00302,-0.01035]]],&quot;closed&quot;:true}]}" fill="url(#color-14)" stroke-width="0.5"/><path d="M217.89745,185.28089c-0.07844,0 -0.07844,-0.07844 -0.07844,-0.07844v-0.03922c0,-0.1078 0.01151,-0.21404 0.02982,-0.31918c-0.05225,-0.67383 -0.30434,-1.34511 -0.30434,-2.03386c0,-0.66555 -0.25947,-2.2191 0.24067,-2.73449c0.00227,-0.29793 0.5044,-0.34139 0.61614,-0.07995c0.1707,0.39937 0.12363,1.08039 0.12363,1.52027c-0.0054,0.69395 -0.27452,1.35836 -0.27452,2.07852c-0.00922,0.42395 -0.17804,0.82026 -0.24627,1.2411c0.00684,0.08292 0.01077,0.16596 0.01096,0.24916c0,0 0,0.04939 -0.03919,0.06978c-0.00001,0.00288 -0.00003,0.00576 -0.00003,0.00865v0.03922c0,0 0,0.07844 -0.07843,0.07844zM217.94929,184.42071c0.07546,-0.27632 0.15388,-0.5489 0.14425,-0.82617c0,-0.71472 0.28111,-1.39467 0.27452,-2.07852c0,-0.44297 0.03093,-1.04834 -0.11168,-1.46024c-0.05499,-0.15882 -0.32622,-0.0687 -0.32507,0.07692c-0.48364,0.55042 -0.22995,1.98985 -0.22995,2.67749c0,0.54577 0.15592,1.07773 0.24793,1.61052z" fill="#000000" stroke-width="0.5"/><path d="M217.69445,182.82428c0,-0.68765 -0.24733,-2.15682 0.23631,-2.70725c-0.00116,-0.14562 0.27247,-0.23564 0.32746,-0.07682c0.14262,0.4119 0.11726,1.01902 0.11726,1.462c0.00659,0.68385 -0.28092,1.39327 -0.28092,2.10799c0.00963,0.27727 -0.07019,0.54988 -0.14565,0.8262c-0.09201,-0.53279 -0.25446,-1.06635 -0.25446,-1.61212z" data-paper-data="{&quot;noHover&quot;:false,&quot;origItem&quot;:[&quot;Path&quot;,{&quot;applyMatrix&quot;:true,&quot;segments&quot;:[[[435.71377,391.32839],[-0.58652,-3.39639],[0.48101,-1.76146]],[[436.63333,386.06177],[0.06139,1.76752],[0,-4.55613]],[[438.38333,372.81177],[0.04201,4.35939],[0,-2.82385]],[[437.6714,363.50311],[0.90914,2.62577],[-0.35054,-1.01244]],[[435.59916,363.99345],[-0.00735,-0.92831],[-3.08307,3.50881]],[[434.13333,381.06177],[0,-4.38355],[0,3.47918]]],&quot;closed&quot;:true}]}" fill="url(#color-15)" stroke-width="0.5"/><path d="M219.39745,185.15589c-0.07844,0 -0.07844,-0.07844 -0.07844,-0.07844v-0.03922c0,-0.1078 0.01151,-0.21404 0.02982,-0.31918c-0.05225,-0.67383 -0.30434,-1.34511 -0.30434,-2.03386c0,-0.66555 -0.25947,-2.2191 0.24067,-2.73449c0.00227,-0.29793 0.5044,-0.34139 0.61614,-0.07995c0.1707,0.39937 0.12363,1.08039 0.12363,1.52027c-0.0054,0.69395 -0.27452,1.35836 -0.27452,2.07852c-0.00922,0.42395 -0.17804,0.82026 -0.24627,1.2411c0.00684,0.08292 0.01077,0.16596 0.01096,0.24916c0,0 0,0.04939 -0.03919,0.06978c-0.00001,0.00288 -0.00003,0.00576 -0.00003,0.00865v0.03922c0,0 0,0.07844 -0.07843,0.07844zM219.44929,184.29571c0.07546,-0.27632 0.15388,-0.5489 0.14425,-0.82617c0,-0.71472 0.28111,-1.39467 0.27452,-2.07852c0,-0.44297 0.03093,-1.04834 -0.11168,-1.46024c-0.05499,-0.15882 -0.32622,-0.0687 -0.32507,0.07692c-0.48364,0.55042 -0.22995,1.98985 -0.22995,2.67749c0,0.54577 0.15592,1.07773 0.24793,1.61052z" fill="#000000" stroke-width="0.5"/><path d="M219.19445,182.69928c0,-0.68765 -0.24733,-2.15682 0.23631,-2.70725c-0.00116,-0.14562 0.27247,-0.23564 0.32746,-0.07682c0.14262,0.4119 0.11726,1.01902 0.11726,1.462c0.00659,0.68385 -0.28092,1.39327 -0.28092,2.10799c0.00963,0.27727 -0.07019,0.54988 -0.14565,0.8262c-0.09201,-0.53279 -0.25446,-1.06635 -0.25446,-1.61212z" data-paper-data="{&quot;noHover&quot;:false,&quot;origItem&quot;:[&quot;Path&quot;,{&quot;applyMatrix&quot;:true,&quot;segments&quot;:[[[435.71377,391.32839],[-0.58652,-3.39639],[0.48101,-1.76146]],[[436.63333,386.06177],[0.06139,1.76752],[0,-4.55613]],[[438.38333,372.81177],[0.04201,4.35939],[0,-2.82385]],[[437.6714,363.50311],[0.90914,2.62577],[-0.35054,-1.01244]],[[435.59916,363.99345],[-0.00735,-0.92831],[-3.08307,3.50881]],[[434.13333,381.06177],[0,-4.38355],[0,3.47918]]],&quot;closed&quot;:true}]}" fill="url(#color-16)" stroke-width="0.5"/><path d="M221.02245,185.09339c-0.07844,0 -0.07844,-0.07844 -0.07844,-0.07844v-0.03922c0,-0.1078 0.01151,-0.21404 0.02982,-0.31918c-0.05225,-0.67383 -0.30434,-1.34511 -0.30434,-2.03386c0,-0.66555 -0.25947,-2.2191 0.24067,-2.73449c0.00227,-0.29793 0.5044,-0.34139 0.61614,-0.07995c0.1707,0.39937 0.12363,1.08039 0.12363,1.52027c-0.0054,0.69395 -0.27452,1.35836 -0.27452,2.07852c-0.00922,0.42395 -0.17804,0.82026 -0.24627,1.2411c0.00684,0.08292 0.01077,0.16596 0.01096,0.24916c0,0 0,0.04939 -0.03919,0.06978c-0.00001,0.00288 -0.00003,0.00576 -0.00003,0.00865v0.03922c0,0 0,0.07844 -0.07843,0.07844zM221.07429,184.23321c0.07546,-0.27632 0.15388,-0.5489 0.14425,-0.82617c0,-0.71472 0.28111,-1.39467 0.27452,-2.07852c0,-0.44297 0.03093,-1.04834 -0.11168,-1.46024c-0.05499,-0.15882 -0.32622,-0.0687 -0.32507,0.07692c-0.48364,0.55042 -0.22995,1.98985 -0.22995,2.67749c0,0.54577 0.15592,1.07773 0.24793,1.61052z" fill="#000000" stroke-width="0.5"/><path d="M220.81945,182.63678c0,-0.68765 -0.24733,-2.15682 0.23631,-2.70725c-0.00116,-0.14562 0.27247,-0.23564 0.32746,-0.07682c0.14262,0.4119 0.11726,1.01902 0.11726,1.462c0.00659,0.68385 -0.28092,1.39327 -0.28092,2.10799c0.00963,0.27727 -0.07019,0.54988 -0.14565,0.8262c-0.09201,-0.53279 -0.25446,-1.06635 -0.25446,-1.61212z" data-paper-data="{&quot;noHover&quot;:false,&quot;origItem&quot;:[&quot;Path&quot;,{&quot;applyMatrix&quot;:true,&quot;segments&quot;:[[[435.71377,391.32839],[-0.58652,-3.39639],[0.48101,-1.76146]],[[436.63333,386.06177],[0.06139,1.76752],[0,-4.55613]],[[438.38333,372.81177],[0.04201,4.35939],[0,-2.82385]],[[437.6714,363.50311],[0.90914,2.62577],[-0.35054,-1.01244]],[[435.59916,363.99345],[-0.00735,-0.92831],[-3.08307,3.50881]],[[434.13333,381.06177],[0,-4.38355],[0,3.47918]]],&quot;closed&quot;:true}]}" fill="url(#color-17)" stroke-width="0.5"/><path d="M222.45995,185.09339c-0.07844,0 -0.07844,-0.07844 -0.07844,-0.07844v-0.03922c0,-0.1078 0.01151,-0.21404 0.02982,-0.31918c-0.05225,-0.67383 -0.30434,-1.34511 -0.30434,-2.03386c0,-0.66555 -0.25947,-2.2191 0.24067,-2.73449c0.00227,-0.29793 0.5044,-0.34139 0.61614,-0.07995c0.1707,0.39937 0.12363,1.08039 0.12363,1.52027c-0.0054,0.69395 -0.27452,1.35836 -0.27452,2.07852c-0.00922,0.42395 -0.17804,0.82026 -0.24627,1.2411c0.00684,0.08292 0.01077,0.16596 0.01096,0.24916c0,0 0,0.04939 -0.03919,0.06978c-0.00001,0.00288 -0.00003,0.00576 -0.00003,0.00865v0.03922c0,0 0,0.07844 -0.07843,0.07844zM222.51179,184.23321c0.07546,-0.27632 0.15388,-0.5489 0.14425,-0.82617c0,-0.71472 0.28111,-1.39467 0.27452,-2.07852c0,-0.44297 0.03093,-1.04834 -0.11168,-1.46024c-0.05499,-0.15882 -0.32622,-0.0687 -0.32507,0.07692c-0.48364,0.55042 -0.22995,1.98985 -0.22995,2.67749c0,0.54577 0.15592,1.07773 0.24793,1.61052z" fill="#000000" stroke-width="0.5"/><path d="M222.25695,182.63678c0,-0.68765 -0.24733,-2.15682 0.23631,-2.70725c-0.00116,-0.14562 0.27247,-0.23564 0.32746,-0.07682c0.14262,0.4119 0.11726,1.01902 0.11726,1.462c0.00659,0.68385 -0.28092,1.39327 -0.28092,2.10799c0.00963,0.27727 -0.07019,0.54988 -0.14565,0.8262c-0.09201,-0.53279 -0.25446,-1.06635 -0.25446,-1.61212z" data-paper-data="{&quot;noHover&quot;:false,&quot;origItem&quot;:[&quot;Path&quot;,{&quot;applyMatrix&quot;:true,&quot;segments&quot;:[[[435.71377,391.32839],[-0.58652,-3.39639],[0.48101,-1.76146]],[[436.63333,386.06177],[0.06139,1.76752],[0,-4.55613]],[[438.38333,372.81177],[0.04201,4.35939],[0,-2.82385]],[[437.6714,363.50311],[0.90914,2.62577],[-0.35054,-1.01244]],[[435.59916,363.99345],[-0.00735,-0.92831],[-3.08307,3.50881]],[[434.13333,381.06177],[0,-4.38355],[0,3.47918]]],&quot;closed&quot;:true}]}" fill="url(#color-18)" stroke-width="0.5"/><path d="M224.02245,184.84339c-0.07844,0 -0.07844,-0.07844 -0.07844,-0.07844v-0.03922c0,-0.1078 0.01151,-0.21404 0.02982,-0.31918c-0.05225,-0.67383 -0.30434,-1.34511 -0.30434,-2.03386c0,-0.66555 -0.25947,-2.2191 0.24067,-2.73449c0.00227,-0.29793 0.5044,-0.34139 0.61614,-0.07995c0.1707,0.39937 0.12363,1.08039 0.12363,1.52027c-0.0054,0.69395 -0.27452,1.35836 -0.27452,2.07852c-0.00922,0.42395 -0.17804,0.82026 -0.24627,1.2411c0.00684,0.08292 0.01077,0.16596 0.01096,0.24916c0,0 0,0.04939 -0.03919,0.06978c-0.00001,0.00288 -0.00003,0.00576 -0.00003,0.00865v0.03922c0,0 0,0.07844 -0.07843,0.07844zM224.07429,183.98321c0.07546,-0.27632 0.15388,-0.5489 0.14425,-0.82617c0,-0.71472 0.28111,-1.39467 0.27452,-2.07852c0,-0.44297 0.03093,-1.04834 -0.11168,-1.46024c-0.05499,-0.15882 -0.32622,-0.0687 -0.32507,0.07692c-0.48364,0.55042 -0.22995,1.98985 -0.22995,2.67749c0,0.54577 0.15592,1.07773 0.24793,1.61052z" fill="#000000" stroke-width="0.5"/><path d="M223.81945,182.38678c0,-0.68765 -0.24733,-2.15682 0.23631,-2.70725c-0.00116,-0.14562 0.27247,-0.23564 0.32746,-0.07682c0.14262,0.4119 0.11726,1.01902 0.11726,1.462c0.00659,0.68385 -0.28092,1.39327 -0.28092,2.10799c0.00963,0.27727 -0.07019,0.54988 -0.14565,0.8262c-0.09201,-0.53279 -0.25446,-1.06635 -0.25446,-1.61212z" data-paper-data="{&quot;noHover&quot;:false,&quot;origItem&quot;:[&quot;Path&quot;,{&quot;applyMatrix&quot;:true,&quot;segments&quot;:[[[435.71377,391.32839],[-0.58652,-3.39639],[0.48101,-1.76146]],[[436.63333,386.06177],[0.06139,1.76752],[0,-4.55613]],[[438.38333,372.81177],[0.04201,4.35939],[0,-2.82385]],[[437.6714,363.50311],[0.90914,2.62577],[-0.35054,-1.01244]],[[435.59916,363.99345],[-0.00735,-0.92831],[-3.08307,3.50881]],[[434.13333,381.06177],[0,-4.38355],[0,3.47918]]],&quot;closed&quot;:true}]}" fill="url(#color-19)" stroke-width="0.5"/><path d="M227.95995,185.40589c-0.07844,0 -0.07844,-0.07844 -0.07844,-0.07844v-0.03922c0,-0.1078 0.01151,-0.21404 0.02982,-0.31918c-0.05225,-0.67383 -0.30434,-1.34511 -0.30434,-2.03386c0,-0.66555 -0.25947,-2.2191 0.24067,-2.73449c0.00227,-0.29793 0.5044,-0.34139 0.61614,-0.07995c0.1707,0.39937 0.12363,1.08039 0.12363,1.52027c-0.0054,0.69395 -0.27452,1.35836 -0.27452,2.07852c-0.00922,0.42395 -0.17804,0.82026 -0.24627,1.2411c0.00684,0.08292 0.01077,0.16596 0.01096,0.24916c0,0 0,0.04939 -0.03919,0.06978c-0.00001,0.00288 -0.00003,0.00576 -0.00003,0.00865v0.03922c0,0 0,0.07844 -0.07843,0.07844zM228.01179,184.54571c0.07546,-0.27632 0.15388,-0.5489 0.14425,-0.82617c0,-0.71472 0.28111,-1.39467 0.27452,-2.07852c0,-0.44297 0.03093,-1.04834 -0.11168,-1.46024c-0.05499,-0.15882 -0.32622,-0.0687 -0.32507,0.07692c-0.48364,0.55042 -0.22995,1.98985 -0.22995,2.67749c0,0.54577 0.15592,1.07773 0.24793,1.61052z" fill="#000000" stroke-width="0.5"/><path d="M227.75695,182.94928c0,-0.68765 -0.24733,-2.15682 0.23631,-2.70725c-0.00116,-0.14562 0.27247,-0.23564 0.32746,-0.07682c0.14262,0.4119 0.11726,1.01902 0.11726,1.462c0.00659,0.68385 -0.28092,1.39327 -0.28092,2.10799c0.00963,0.27727 -0.07019,0.54988 -0.14565,0.8262c-0.09201,-0.53279 -0.25446,-1.06635 -0.25446,-1.61212z" data-paper-data="{&quot;noHover&quot;:false,&quot;origItem&quot;:[&quot;Path&quot;,{&quot;applyMatrix&quot;:true,&quot;segments&quot;:[[[435.71377,391.32839],[-0.58652,-3.39639],[0.48101,-1.76146]],[[436.63333,386.06177],[0.06139,1.76752],[0,-4.55613]],[[438.38333,372.81177],[0.04201,4.35939],[0,-2.82385]],[[437.6714,363.50311],[0.90914,2.62577],[-0.35054,-1.01244]],[[435.59916,363.99345],[-0.00735,-0.92831],[-3.08307,3.50881]],[[434.13333,381.06177],[0,-4.38355],[0,3.47918]]],&quot;closed&quot;:true}]}" fill="url(#color-20)" stroke-width="0.5"/><path d="M229.33495,185.59339c-0.07844,0 -0.07844,-0.07844 -0.07844,-0.07844v-0.03922c0,-0.1078 0.01151,-0.21404 0.02982,-0.31918c-0.05225,-0.67383 -0.30434,-1.34511 -0.30434,-2.03386c0,-0.66555 -0.25947,-2.2191 0.24067,-2.73449c0.00227,-0.29793 0.5044,-0.34139 0.61614,-0.07995c0.1707,0.39937 0.12363,1.08039 0.12363,1.52027c-0.0054,0.69395 -0.27452,1.35836 -0.27452,2.07852c-0.00922,0.42395 -0.17804,0.82026 -0.24627,1.2411c0.00684,0.08292 0.01077,0.16596 0.01096,0.24916c0,0 0,0.04939 -0.03919,0.06978c-0.00001,0.00288 -0.00003,0.00576 -0.00003,0.00865v0.03922c0,0 0,0.07844 -0.07843,0.07844zM229.38679,184.73321c0.07546,-0.27632 0.15388,-0.5489 0.14425,-0.82617c0,-0.71472 0.28111,-1.39467 0.27452,-2.07852c0,-0.44297 0.03093,-1.04834 -0.11168,-1.46024c-0.05499,-0.15882 -0.32622,-0.0687 -0.32507,0.07692c-0.48364,0.55042 -0.22995,1.98985 -0.22995,2.67749c0,0.54577 0.15592,1.07773 0.24793,1.61052z" fill="#000000" stroke-width="0.5"/><path d="M229.13195,183.13678c0,-0.68765 -0.24733,-2.15682 0.23631,-2.70725c-0.00116,-0.14562 0.27247,-0.23564 0.32746,-0.07682c0.14262,0.4119 0.11726,1.01902 0.11726,1.462c0.00659,0.68385 -0.28092,1.39327 -0.28092,2.10799c0.00963,0.27727 -0.07019,0.54988 -0.14565,0.8262c-0.09201,-0.53279 -0.25446,-1.06635 -0.25446,-1.61212z" data-paper-data="{&quot;noHover&quot;:false,&quot;origItem&quot;:[&quot;Path&quot;,{&quot;applyMatrix&quot;:true,&quot;segments&quot;:[[[435.71377,391.32839],[-0.58652,-3.39639],[0.48101,-1.76146]],[[436.63333,386.06177],[0.06139,1.76752],[0,-4.55613]],[[438.38333,372.81177],[0.04201,4.35939],[0,-2.82385]],[[437.6714,363.50311],[0.90914,2.62577],[-0.35054,-1.01244]],[[435.59916,363.99345],[-0.00735,-0.92831],[-3.08307,3.50881]],[[434.13333,381.06177],[0,-4.38355],[0,3.47918]]],&quot;closed&quot;:true}]}" fill="url(#color-21)" stroke-width="0.5"/><path d="M218.78838,181.96436v0.03921c0,0.00288 0.00001,0.00577 0.00003,0.00865c0.0392,0.0204 0.03919,0.06978 0.03919,0.06978c-0.00019,0.0832 -0.00412,0.16624 -0.01096,0.24916c0.06823,0.42084 0.23705,0.81715 0.24627,1.2411c0,0.72016 0.26912,1.38457 0.27452,2.07852c0,0.43988 0.04708,1.1209 -0.12363,1.52027c-0.11175,0.26144 -0.61387,0.21798 -0.61614,-0.07995c-0.50014,-0.51539 -0.24067,-2.06895 -0.24067,-2.73449c0,-0.68875 0.25209,-1.36002 0.30434,-2.03385c-0.01831,-0.10514 -0.02982,-0.21139 -0.02982,-0.31919v-0.03921c0,0 0,-0.07844 0.07844,-0.07844c0.07844,0 0.07843,0.07844 0.07843,0.07844zM218.51386,184.35661c0,0.68765 -0.25369,2.12707 0.22995,2.67749c-0.00116,0.14562 0.27008,0.23574 0.32507,0.07692c0.14262,-0.4119 0.11168,-1.01727 0.11168,-1.46024c0.00659,-0.68385 -0.27452,-1.3638 -0.27452,-2.07852c0.00963,-0.27727 -0.06879,-0.54985 -0.14425,-0.82617c-0.09201,0.53279 -0.24793,1.06474 -0.24793,1.61051z" data-paper-data="{&quot;index&quot;:null}" fill="#000000" stroke-width="0.5"/><path d="M218.76141,182.73041c0.07546,0.27632 0.15527,0.54893 0.14565,0.8262c0,0.71472 0.28751,1.42414 0.28092,2.10799c0,0.44297 0.02536,1.05009 -0.11726,1.462c-0.05499,0.15882 -0.32862,0.0688 -0.32746,-0.07682c-0.48364,-0.55042 -0.23631,-2.0196 -0.23631,-2.70725c0,-0.54577 0.16245,-1.07933 0.25446,-1.61212z" data-paper-data="{&quot;noHover&quot;:false,&quot;origItem&quot;:[&quot;Path&quot;,{&quot;applyMatrix&quot;:true,&quot;segments&quot;:[[[435.71377,391.32839],[-0.58652,-3.39639],[0.48101,-1.76146]],[[436.63333,386.06177],[0.06139,1.76752],[0,-4.55613]],[[438.38333,372.81177],[0.04201,4.35939],[0,-2.82385]],[[437.6714,363.50311],[0.90914,2.62577],[-0.35054,-1.01244]],[[435.59916,363.99345],[-0.00735,-0.92831],[-3.08307,3.50881]],[[434.13333,381.06177],[0,-4.38355],[0,3.47918]]],&quot;closed&quot;:true}],&quot;index&quot;:null}" fill="url(#color-22)" stroke-width="0.5"/><path d="M220.16338,182.46436v0.03921c0,0.00288 0.00001,0.00577 0.00003,0.00865c0.0392,0.0204 0.03919,0.06978 0.03919,0.06978c-0.00019,0.0832 -0.00412,0.16624 -0.01096,0.24916c0.06823,0.42084 0.23705,0.81715 0.24627,1.2411c0,0.72016 0.26912,1.38457 0.27452,2.07852c0,0.43988 0.04708,1.1209 -0.12363,1.52027c-0.11175,0.26144 -0.61387,0.21798 -0.61614,-0.07995c-0.50014,-0.51539 -0.24067,-2.06895 -0.24067,-2.73449c0,-0.68875 0.25209,-1.36002 0.30434,-2.03385c-0.01831,-0.10514 -0.02982,-0.21139 -0.02982,-0.31919v-0.03921c0,0 0,-0.07844 0.07844,-0.07844c0.07844,0 0.07843,0.07844 0.07843,0.07844zM219.88886,184.85661c0,0.68765 -0.25369,2.12707 0.22995,2.67749c-0.00116,0.14562 0.27008,0.23574 0.32507,0.07692c0.14262,-0.4119 0.11168,-1.01727 0.11168,-1.46024c0.00659,-0.68385 -0.27452,-1.3638 -0.27452,-2.07852c0.00963,-0.27727 -0.06879,-0.54985 -0.14425,-0.82617c-0.09201,0.53279 -0.24793,1.06474 -0.24793,1.61051z" data-paper-data="{&quot;index&quot;:null}" fill="#000000" stroke-width="0.5"/><path d="M220.13641,183.23041c0.07546,0.27632 0.15527,0.54893 0.14565,0.8262c0,0.71472 0.28751,1.42414 0.28092,2.10799c0,0.44297 0.02536,1.05009 -0.11726,1.462c-0.05499,0.15882 -0.32862,0.0688 -0.32746,-0.07682c-0.48364,-0.55042 -0.23631,-2.0196 -0.23631,-2.70725c0,-0.54577 0.16245,-1.07933 0.25446,-1.61212z" data-paper-data="{&quot;noHover&quot;:false,&quot;origItem&quot;:[&quot;Path&quot;,{&quot;applyMatrix&quot;:true,&quot;segments&quot;:[[[435.71377,391.32839],[-0.58652,-3.39639],[0.48101,-1.76146]],[[436.63333,386.06177],[0.06139,1.76752],[0,-4.55613]],[[438.38333,372.81177],[0.04201,4.35939],[0,-2.82385]],[[437.6714,363.50311],[0.90914,2.62577],[-0.35054,-1.01244]],[[435.59916,363.99345],[-0.00735,-0.92831],[-3.08307,3.50881]],[[434.13333,381.06177],[0,-4.38355],[0,3.47918]]],&quot;closed&quot;:true}],&quot;index&quot;:null}" fill="url(#color-23)" stroke-width="0.5"/><path d="M221.72588,183.46436v0.03921c0,0.00288 0.00001,0.00577 0.00003,0.00865c0.0392,0.0204 0.03919,0.06978 0.03919,0.06978c-0.00019,0.0832 -0.00412,0.16624 -0.01096,0.24916c0.06823,0.42084 0.23705,0.81715 0.24627,1.2411c0,0.72016 0.26912,1.38457 0.27452,2.07852c0,0.43988 0.04708,1.1209 -0.12363,1.52027c-0.11175,0.26144 -0.61387,0.21798 -0.61614,-0.07995c-0.50014,-0.51539 -0.24067,-2.06895 -0.24067,-2.73449c0,-0.68875 0.25209,-1.36002 0.30434,-2.03385c-0.01831,-0.10514 -0.02982,-0.21139 -0.02982,-0.31919v-0.03921c0,0 0,-0.07844 0.07844,-0.07844c0.07844,0 0.07843,0.07844 0.07843,0.07844zM221.45136,185.85661c0,0.68765 -0.25369,2.12707 0.22995,2.67749c-0.00116,0.14562 0.27008,0.23574 0.32507,0.07692c0.14262,-0.4119 0.11168,-1.01727 0.11168,-1.46024c0.00659,-0.68385 -0.27452,-1.3638 -0.27452,-2.07852c0.00963,-0.27727 -0.06879,-0.54985 -0.14425,-0.82617c-0.09201,0.53279 -0.24793,1.06474 -0.24793,1.61051z" data-paper-data="{&quot;index&quot;:null}" fill="#000000" stroke-width="0.5"/><path d="M221.69891,184.23041c0.07546,0.27632 0.15527,0.54893 0.14565,0.8262c0,0.71472 0.28751,1.42414 0.28092,2.10799c0,0.44297 0.02536,1.05009 -0.11726,1.462c-0.05499,0.15882 -0.32862,0.0688 -0.32746,-0.07682c-0.48364,-0.55042 -0.23631,-2.0196 -0.23631,-2.70725c0,-0.54577 0.16245,-1.07933 0.25446,-1.61212z" data-paper-data="{&quot;noHover&quot;:false,&quot;origItem&quot;:[&quot;Path&quot;,{&quot;applyMatrix&quot;:true,&quot;segments&quot;:[[[435.71377,391.32839],[-0.58652,-3.39639],[0.48101,-1.76146]],[[436.63333,386.06177],[0.06139,1.76752],[0,-4.55613]],[[438.38333,372.81177],[0.04201,4.35939],[0,-2.82385]],[[437.6714,363.50311],[0.90914,2.62577],[-0.35054,-1.01244]],[[435.59916,363.99345],[-0.00735,-0.92831],[-3.08307,3.50881]],[[434.13333,381.06177],[0,-4.38355],[0,3.47918]]],&quot;closed&quot;:true}],&quot;index&quot;:null}" fill="url(#color-24)" stroke-width="0.5"/><path d="M223.28838,183.27686v0.03921c0,0.00288 0.00001,0.00577 0.00003,0.00865c0.0392,0.0204 0.03919,0.06978 0.03919,0.06978c-0.00019,0.0832 -0.00412,0.16624 -0.01096,0.24916c0.06823,0.42084 0.23705,0.81715 0.24627,1.2411c0,0.72016 0.26912,1.38457 0.27452,2.07852c0,0.43988 0.04708,1.1209 -0.12363,1.52027c-0.11175,0.26144 -0.61387,0.21798 -0.61614,-0.07995c-0.50014,-0.51539 -0.24067,-2.06895 -0.24067,-2.73449c0,-0.68875 0.25209,-1.36002 0.30434,-2.03385c-0.01831,-0.10514 -0.02982,-0.21139 -0.02982,-0.31919v-0.03921c0,0 0,-0.07844 0.07844,-0.07844c0.07844,0 0.07843,0.07844 0.07843,0.07844zM223.01386,185.66911c0,0.68765 -0.25369,2.12707 0.22995,2.67749c-0.00116,0.14562 0.27008,0.23574 0.32507,0.07692c0.14262,-0.4119 0.11168,-1.01727 0.11168,-1.46024c0.00659,-0.68385 -0.27452,-1.3638 -0.27452,-2.07852c0.00963,-0.27727 -0.06879,-0.54985 -0.14425,-0.82617c-0.09201,0.53279 -0.24793,1.06474 -0.24793,1.61051z" data-paper-data="{&quot;index&quot;:null}" fill="#000000" stroke-width="0.5"/><path d="M223.26141,184.04291c0.07546,0.27632 0.15527,0.54893 0.14565,0.8262c0,0.71472 0.28751,1.42414 0.28092,2.10799c0,0.44297 0.02536,1.05009 -0.11726,1.462c-0.05499,0.15882 -0.32862,0.0688 -0.32746,-0.07682c-0.48364,-0.55042 -0.23631,-2.0196 -0.23631,-2.70725c0,-0.54577 0.16245,-1.07933 0.25446,-1.61212z" data-paper-data="{&quot;noHover&quot;:false,&quot;origItem&quot;:[&quot;Path&quot;,{&quot;applyMatrix&quot;:true,&quot;segments&quot;:[[[435.71377,391.32839],[-0.58652,-3.39639],[0.48101,-1.76146]],[[436.63333,386.06177],[0.06139,1.76752],[0,-4.55613]],[[438.38333,372.81177],[0.04201,4.35939],[0,-2.82385]],[[437.6714,363.50311],[0.90914,2.62577],[-0.35054,-1.01244]],[[435.59916,363.99345],[-0.00735,-0.92831],[-3.08307,3.50881]],[[434.13333,381.06177],[0,-4.38355],[0,3.47918]]],&quot;closed&quot;:true}],&quot;index&quot;:null}" fill="url(#color-25)" stroke-width="0.5"/><path d="M224.72588,183.27686v0.03921c0,0.00288 0.00001,0.00577 0.00003,0.00865c0.0392,0.0204 0.03919,0.06978 0.03919,0.06978c-0.00019,0.0832 -0.00412,0.16624 -0.01096,0.24916c0.06823,0.42084 0.23705,0.81715 0.24627,1.2411c0,0.72016 0.26912,1.38457 0.27452,2.07852c0,0.43988 0.04708,1.1209 -0.12363,1.52027c-0.11175,0.26144 -0.61387,0.21798 -0.61614,-0.07995c-0.50014,-0.51539 -0.24067,-2.06895 -0.24067,-2.73449c0,-0.68875 0.25209,-1.36002 0.30434,-2.03385c-0.01831,-0.10514 -0.02982,-0.21139 -0.02982,-0.31919v-0.03921c0,0 0,-0.07844 0.07844,-0.07844c0.07844,0 0.07843,0.07844 0.07843,0.07844zM224.45136,185.66911c0,0.68765 -0.25369,2.12707 0.22995,2.67749c-0.00116,0.14562 0.27008,0.23574 0.32507,0.07692c0.14262,-0.4119 0.11168,-1.01727 0.11168,-1.46024c0.00659,-0.68385 -0.27452,-1.3638 -0.27452,-2.07852c0.00963,-0.27727 -0.06879,-0.54985 -0.14425,-0.82617c-0.09201,0.53279 -0.24793,1.06474 -0.24793,1.61051z" data-paper-data="{&quot;index&quot;:null}" fill="#000000" stroke-width="0.5"/><path d="M224.69891,184.04291c0.07546,0.27632 0.15527,0.54893 0.14565,0.8262c0,0.71472 0.28751,1.42414 0.28092,2.10799c0,0.44297 0.02536,1.05009 -0.11726,1.462c-0.05499,0.15882 -0.32862,0.0688 -0.32746,-0.07682c-0.48364,-0.55042 -0.23631,-2.0196 -0.23631,-2.70725c0,-0.54577 0.16245,-1.07933 0.25446,-1.61212z" data-paper-data="{&quot;noHover&quot;:false,&quot;origItem&quot;:[&quot;Path&quot;,{&quot;applyMatrix&quot;:true,&quot;segments&quot;:[[[435.71377,391.32839],[-0.58652,-3.39639],[0.48101,-1.76146]],[[436.63333,386.06177],[0.06139,1.76752],[0,-4.55613]],[[438.38333,372.81177],[0.04201,4.35939],[0,-2.82385]],[[437.6714,363.50311],[0.90914,2.62577],[-0.35054,-1.01244]],[[435.59916,363.99345],[-0.00735,-0.92831],[-3.08307,3.50881]],[[434.13333,381.06177],[0,-4.38355],[0,3.47918]]],&quot;closed&quot;:true}],&quot;index&quot;:null}" fill="url(#color-26)" stroke-width="0.5"/><path d="M226.79814,182.76092c0.07844,0 0.07843,0.07844 0.07843,0.07844v0.03921c0,0.1078 -0.01151,0.21404 -0.02982,0.31919c0.05225,0.67383 0.30434,1.3451 0.30434,2.03385c0,0.66555 0.25947,2.21911 -0.24067,2.73449c-0.00227,0.29793 -0.5044,0.34139 -0.61615,0.07995c-0.1707,-0.39937 -0.12362,-1.08039 -0.12362,-1.52027c0.0054,-0.69395 0.27452,-1.35836 0.27452,-2.07852c0.00922,-0.42395 0.17804,-0.82026 0.24626,-1.2411c-0.00684,-0.08292 -0.01077,-0.16596 -0.01096,-0.24916c0,0 0,-0.04939 0.0392,-0.06978c0.00001,-0.00288 0.00002,-0.00577 0.00002,-0.00865v-0.03921c0,0 0,-0.07844 0.07844,-0.07844zM226.7463,183.6211c-0.07546,0.27632 -0.15388,0.5489 -0.14425,0.82617c0,0.71472 -0.28111,1.39467 -0.27452,2.07852c0,0.44297 -0.03094,1.04834 0.11168,1.46024c0.05499,0.15882 0.32623,0.0687 0.32507,-0.07692c0.48364,-0.55042 0.22995,-1.98985 0.22995,-2.67749c0,-0.54577 -0.15592,-1.07772 -0.24793,-1.61051z" data-paper-data="{&quot;index&quot;:null}" fill="#000000" stroke-width="0.5"/><path d="M227.00114,185.21753c0,0.68765 0.24732,2.15682 -0.23632,2.70725c0.00116,0.14562 -0.27247,0.23564 -0.32746,0.07682c-0.14262,-0.4119 -0.11726,-1.01902 -0.11726,-1.462c-0.00659,-0.68385 0.28092,-1.39327 0.28092,-2.10799c-0.00963,-0.27727 0.07019,-0.54988 0.14565,-0.8262c0.09201,0.53279 0.25446,1.06635 0.25446,1.61212z" data-paper-data="{&quot;noHover&quot;:false,&quot;origItem&quot;:[&quot;Path&quot;,{&quot;applyMatrix&quot;:true,&quot;segments&quot;:[[[435.71377,391.32839],[-0.58652,-3.39639],[0.48101,-1.76146]],[[436.63333,386.06177],[0.06139,1.76752],[0,-4.55613]],[[438.38333,372.81177],[0.04201,4.35939],[0,-2.82385]],[[437.6714,363.50311],[0.90914,2.62577],[-0.35054,-1.01244]],[[435.59916,363.99345],[-0.00735,-0.92831],[-3.08307,3.50881]],[[434.13333,381.06177],[0,-4.38355],[0,3.47918]]],&quot;closed&quot;:true}],&quot;index&quot;:null}" fill="url(#color-27)" stroke-width="0.5"/></g></g></svg>