<svg version="1.1" xmlns="http://www.w3.org/2000/svg" xmlns:xlink="http://www.w3.org/1999/xlink" width="61.5879" height="122.42517" viewBox="0,0,61.5879,122.42517"><defs><linearGradient x1="238.31445" y1="164.6529" x2="238.31445" y2="203.36155" gradientUnits="userSpaceOnUse" id="color-1"><stop offset="0" stop-color="#870000"/><stop offset="1" stop-color="#020000"/></linearGradient><linearGradient x1="237.89732" y1="164.89832" x2="237.89732" y2="169.11789" gradientUnits="userSpaceOnUse" id="color-2"><stop offset="0" stop-color="#5c0000"/><stop offset="1" stop-color="#a40000"/></linearGradient><linearGradient x1="238.29017" y1="197.62709" x2="238.29017" y2="206.25021" gradientUnits="userSpaceOnUse" id="color-3"><stop offset="0" stop-color="#a0a0a0"/><stop offset="1" stop-color="#b6b6b6"/></linearGradient><linearGradient x1="238.94601" y1="203.0368" x2="238.94601" y2="232.31173" gradientUnits="userSpaceOnUse" id="color-4"><stop offset="0" stop-color="#eaeaea"/><stop offset="1" stop-color="#a3a3a3"/></linearGradient><linearGradient x1="242.61225" y1="197.02" x2="242.61225" y2="205.14105" gradientUnits="userSpaceOnUse" id="color-5"><stop offset="0" stop-color="#ff0000"/><stop offset="1" stop-color="#a40000"/></linearGradient><linearGradient x1="237.21132" y1="116.46233" x2="237.59256" y2="129.53408" gradientUnits="userSpaceOnUse" id="color-6"><stop offset="0" stop-color="#707070"/><stop offset="1" stop-color="#535353"/></linearGradient><linearGradient x1="237.4709" y1="123.72428" x2="238.72985" y2="166.89099" gradientUnits="userSpaceOnUse" id="color-7"><stop offset="0" stop-color="#eaeaea"/><stop offset="1" stop-color="#a3a3a3"/></linearGradient><linearGradient x1="227.48033" y1="138.40773" x2="227.61327" y2="142.96623" gradientUnits="userSpaceOnUse" id="color-8"><stop offset="0" stop-color="#000dff"/><stop offset="1" stop-color="#05006e"/></linearGradient><linearGradient x1="249.69861" y1="138.50381" x2="249.82938" y2="142.98773" gradientUnits="userSpaceOnUse" id="color-9"><stop offset="0" stop-color="#000dff"/><stop offset="1" stop-color="#05006e"/></linearGradient><linearGradient x1="237.62854" y1="149.77663" x2="237.84962" y2="157.35697" gradientUnits="userSpaceOnUse" id="color-10"><stop offset="0" stop-color="#000dff"/><stop offset="1" stop-color="#05006e"/></linearGradient><linearGradient x1="234.26989" y1="114.93584" x2="234.58444" y2="125.72123" gradientUnits="userSpaceOnUse" id="color-11"><stop offset="0" stop-color="#ff7600"/><stop offset="1" stop-color="#6a3200"/></linearGradient><linearGradient x1="240.19805" y1="122.33038" x2="240.30331" y2="125.93978" gradientUnits="userSpaceOnUse" id="color-12"><stop offset="0" stop-color="#0057ff"/><stop offset="1" stop-color="#002672"/></linearGradient><linearGradient x1="241.42315" y1="117.94612" x2="241.64785" y2="125.65057" gradientUnits="userSpaceOnUse" id="color-13"><stop offset="0" stop-color="#07c300"/><stop offset="1" stop-color="#034d00"/></linearGradient><linearGradient x1="223.87087" y1="122.28054" x2="224.09557" y2="129.985" gradientUnits="userSpaceOnUse" id="color-14"><stop offset="0" stop-color="#07c300"/><stop offset="1" stop-color="#034d00"/></linearGradient><linearGradient x1="234.38447" y1="117.83378" x2="234.48974" y2="121.44318" gradientUnits="userSpaceOnUse" id="color-15"><stop offset="0" stop-color="#0057ff"/><stop offset="1" stop-color="#002672"/></linearGradient><linearGradient x1="235.74356" y1="118.04412" x2="235.96826" y2="125.74859" gradientUnits="userSpaceOnUse" id="color-16"><stop offset="0" stop-color="#07c300"/><stop offset="1" stop-color="#034d00"/></linearGradient><linearGradient x1="241.66338" y1="114.84385" x2="241.76865" y2="118.45325" gradientUnits="userSpaceOnUse" id="color-17"><stop offset="0" stop-color="#0057ff"/><stop offset="1" stop-color="#002672"/></linearGradient><linearGradient x1="242.88848" y1="110.4596" x2="243.11318" y2="118.16405" gradientUnits="userSpaceOnUse" id="color-18"><stop offset="0" stop-color="#07c300"/><stop offset="1" stop-color="#034d00"/></linearGradient><linearGradient x1="218.18296" y1="111.7837" x2="218.49751" y2="122.56908" gradientUnits="userSpaceOnUse" id="color-19"><stop offset="0" stop-color="#ff7600"/><stop offset="1" stop-color="#6a3200"/></linearGradient><linearGradient x1="216.8322" y1="122.16819" x2="216.93747" y2="125.77759" gradientUnits="userSpaceOnUse" id="color-20"><stop offset="0" stop-color="#0057ff"/><stop offset="1" stop-color="#002672"/></linearGradient><linearGradient x1="218.1913" y1="122.37851" x2="218.416" y2="130.08296" gradientUnits="userSpaceOnUse" id="color-21"><stop offset="0" stop-color="#07c300"/><stop offset="1" stop-color="#034d00"/></linearGradient><linearGradient x1="225.85549" y1="122.29033" x2="226.17005" y2="133.07572" gradientUnits="userSpaceOnUse" id="color-22"><stop offset="0" stop-color="#ff7600"/><stop offset="1" stop-color="#9b4900"/></linearGradient><linearGradient x1="224.11111" y1="119.17827" x2="224.21638" y2="122.78768" gradientUnits="userSpaceOnUse" id="color-23"><stop offset="0" stop-color="#0057ff"/><stop offset="1" stop-color="#002672"/></linearGradient><linearGradient x1="225.33622" y1="114.79401" x2="225.56092" y2="122.49847" gradientUnits="userSpaceOnUse" id="color-24"><stop offset="0" stop-color="#07c300"/><stop offset="1" stop-color="#034d00"/></linearGradient><linearGradient x1="252.24856" y1="110.79017" x2="252.56312" y2="121.57556" gradientUnits="userSpaceOnUse" id="color-25"><stop offset="0" stop-color="#ff7600"/><stop offset="1" stop-color="#6a3200"/></linearGradient><linearGradient x1="250.89782" y1="121.17467" x2="251.00309" y2="124.78408" gradientUnits="userSpaceOnUse" id="color-26"><stop offset="0" stop-color="#0057ff"/><stop offset="1" stop-color="#002672"/></linearGradient><linearGradient x1="252.2569" y1="121.38499" x2="252.4816" y2="129.08943" gradientUnits="userSpaceOnUse" id="color-27"><stop offset="0" stop-color="#07c300"/><stop offset="1" stop-color="#034d00"/></linearGradient><linearGradient x1="258.17669" y1="118.18475" x2="258.28196" y2="121.79416" gradientUnits="userSpaceOnUse" id="color-28"><stop offset="0" stop-color="#0057ff"/><stop offset="1" stop-color="#002672"/></linearGradient><linearGradient x1="259.40182" y1="113.80049" x2="259.62652" y2="121.50495" gradientUnits="userSpaceOnUse" id="color-29"><stop offset="0" stop-color="#07c300"/><stop offset="1" stop-color="#034d00"/></linearGradient><linearGradient x1="219.9451" y1="153.04575" x2="220.24245" y2="163.24142" gradientUnits="userSpaceOnUse" id="color-30"><stop offset="0" stop-color="#230404"/><stop offset="1" stop-color="#880f0f"/></linearGradient><linearGradient x1="256.58594" y1="150.86676" x2="256.79377" y2="157.99278" gradientUnits="userSpaceOnUse" id="color-31"><stop offset="0" stop-color="#230404"/><stop offset="1" stop-color="#880f0f"/></linearGradient><linearGradient x1="249.82947" y1="142.05516" x2="249.96108" y2="146.56797" gradientUnits="userSpaceOnUse" id="color-32"><stop offset="0" stop-color="#230404"/><stop offset="1" stop-color="#880f0f"/></linearGradient><linearGradient x1="227.04133" y1="141.31788" x2="227.18511" y2="146.24784" gradientUnits="userSpaceOnUse" id="color-33"><stop offset="0" stop-color="#230404"/><stop offset="1" stop-color="#880f0f"/></linearGradient><linearGradient x1="257.68587" y1="131.92052" x2="257.85254" y2="137.63549" gradientUnits="userSpaceOnUse" id="color-34"><stop offset="0" stop-color="#230404"/><stop offset="1" stop-color="#880f0f"/></linearGradient><linearGradient x1="230.20688" y1="205.06426" x2="230.20688" y2="215.06892" gradientUnits="userSpaceOnUse" id="color-35"><stop offset="0" stop-color="#230404"/><stop offset="1" stop-color="#880f0f"/></linearGradient><linearGradient x1="219.89768" y1="202.37143" x2="219.89768" y2="206.26893" gradientUnits="userSpaceOnUse" id="color-36"><stop offset="0" stop-color="#230404"/><stop offset="1" stop-color="#880f0f"/></linearGradient><linearGradient x1="256.54455" y1="201.26893" x2="256.54455" y2="204.66839" gradientUnits="userSpaceOnUse" id="color-37"><stop offset="0" stop-color="#230404"/><stop offset="1" stop-color="#880f0f"/></linearGradient><linearGradient x1="257.33705" y1="205.1545" x2="257.33705" y2="213.36893" gradientUnits="userSpaceOnUse" id="color-38"><stop offset="0" stop-color="#230404"/><stop offset="1" stop-color="#880f0f"/></linearGradient><linearGradient x1="219.69281" y1="219.46893" x2="219.69281" y2="224.26675" gradientUnits="userSpaceOnUse" id="color-39"><stop offset="0" stop-color="#230404"/><stop offset="1" stop-color="#880f0f"/></linearGradient><linearGradient x1="238.43253" y1="214.36213" x2="238.43253" y2="222.76893" gradientUnits="userSpaceOnUse" id="color-40"><stop offset="0" stop-color="#230404"/><stop offset="1" stop-color="#880f0f"/></linearGradient><linearGradient x1="216.24623" y1="165.08817" x2="216.24623" y2="177.81323" gradientUnits="userSpaceOnUse" id="color-41"><stop offset="0" stop-color="#ffffff"/><stop offset="1" stop-color="#a40000"/></linearGradient><linearGradient x1="219.62315" y1="166.42539" x2="219.62315" y2="179.15048" gradientUnits="userSpaceOnUse" id="color-42"><stop offset="0" stop-color="#ffffff"/><stop offset="1" stop-color="#a40000"/></linearGradient><linearGradient x1="223.39599" y1="167.42773" x2="223.39599" y2="180.15281" gradientUnits="userSpaceOnUse" id="color-43"><stop offset="0" stop-color="#ffffff"/><stop offset="1" stop-color="#a40000"/></linearGradient><linearGradient x1="227.36749" y1="168.49752" x2="227.36749" y2="181.2226" gradientUnits="userSpaceOnUse" id="color-44"><stop offset="0" stop-color="#ffffff"/><stop offset="1" stop-color="#a40000"/></linearGradient><linearGradient x1="232.13624" y1="168.36497" x2="232.13624" y2="181.09004" gradientUnits="userSpaceOnUse" id="color-45"><stop offset="0" stop-color="#ffffff"/><stop offset="1" stop-color="#a40000"/></linearGradient><linearGradient x1="236.70638" y1="169.03242" x2="236.70638" y2="181.75748" gradientUnits="userSpaceOnUse" id="color-46"><stop offset="0" stop-color="#ffffff"/><stop offset="1" stop-color="#a40000"/></linearGradient><linearGradient x1="242.07378" y1="168.43242" x2="242.07378" y2="181.15749" gradientUnits="userSpaceOnUse" id="color-47"><stop offset="0" stop-color="#ffffff"/><stop offset="1" stop-color="#a40000"/></linearGradient><linearGradient x1="246.64256" y1="168.16497" x2="246.64256" y2="180.89004" gradientUnits="userSpaceOnUse" id="color-48"><stop offset="0" stop-color="#ffffff"/><stop offset="1" stop-color="#a40000"/></linearGradient><linearGradient x1="251.41133" y1="167.63007" x2="251.41133" y2="180.35514" gradientUnits="userSpaceOnUse" id="color-49"><stop offset="0" stop-color="#ffffff"/><stop offset="1" stop-color="#a40000"/></linearGradient><linearGradient x1="255.98417" y1="166.89518" x2="255.98417" y2="179.62025" gradientUnits="userSpaceOnUse" id="color-50"><stop offset="0" stop-color="#ffffff"/><stop offset="1" stop-color="#a40000"/></linearGradient><linearGradient x1="260.35701" y1="165.02538" x2="260.35701" y2="177.75046" gradientUnits="userSpaceOnUse" id="color-51"><stop offset="0" stop-color="#ffffff"/><stop offset="1" stop-color="#a40000"/></linearGradient><linearGradient x1="239.07122" y1="194.92062" x2="239.07122" y2="203.36578" gradientUnits="userSpaceOnUse" id="color-52"><stop offset="0" stop-color="#ff4343"/><stop offset="1" stop-color="#000000"/></linearGradient><linearGradient x1="239.16398" y1="199.82529" x2="239.16398" y2="204.71321" gradientUnits="userSpaceOnUse" id="color-53"><stop offset="0" stop-color="#5c0000"/><stop offset="1" stop-color="#a40000"/></linearGradient><linearGradient x1="218.2129" y1="200.43895" x2="218.2129" y2="185.69833" gradientUnits="userSpaceOnUse" id="color-54"><stop offset="0" stop-color="#ffffff"/><stop offset="1" stop-color="#a40000"/></linearGradient><linearGradient x1="221.58982" y1="201.2067" x2="221.58982" y2="186.46606" gradientUnits="userSpaceOnUse" id="color-55"><stop offset="0" stop-color="#ffffff"/><stop offset="1" stop-color="#a40000"/></linearGradient><linearGradient x1="225.56265" y1="201.66733" x2="225.56265" y2="186.92672" gradientUnits="userSpaceOnUse" id="color-56"><stop offset="0" stop-color="#ffffff"/><stop offset="1" stop-color="#a40000"/></linearGradient><linearGradient x1="229.73415" y1="202.28154" x2="229.73415" y2="187.54089" gradientUnits="userSpaceOnUse" id="color-57"><stop offset="0" stop-color="#ffffff"/><stop offset="1" stop-color="#a40000"/></linearGradient><linearGradient x1="234.30291" y1="202.43509" x2="234.30291" y2="187.69444" gradientUnits="userSpaceOnUse" id="color-58"><stop offset="0" stop-color="#ffffff"/><stop offset="1" stop-color="#a40000"/></linearGradient><linearGradient x1="238.67304" y1="202.58862" x2="238.67304" y2="187.84801" gradientUnits="userSpaceOnUse" id="color-59"><stop offset="0" stop-color="#ffffff"/><stop offset="1" stop-color="#a40000"/></linearGradient><linearGradient x1="243.44045" y1="202.58862" x2="243.44045" y2="187.84801" gradientUnits="userSpaceOnUse" id="color-60"><stop offset="0" stop-color="#ffffff"/><stop offset="1" stop-color="#a40000"/></linearGradient><linearGradient x1="248.00922" y1="202.43509" x2="248.00922" y2="187.69446" gradientUnits="userSpaceOnUse" id="color-61"><stop offset="0" stop-color="#ffffff"/><stop offset="1" stop-color="#a40000"/></linearGradient><linearGradient x1="252.57799" y1="202.128" x2="252.57799" y2="187.38737" gradientUnits="userSpaceOnUse" id="color-62"><stop offset="0" stop-color="#ffffff"/><stop offset="1" stop-color="#a40000"/></linearGradient><linearGradient x1="256.55084" y1="201.8209" x2="256.55084" y2="187.08028" gradientUnits="userSpaceOnUse" id="color-63"><stop offset="0" stop-color="#ffffff"/><stop offset="1" stop-color="#a40000"/></linearGradient><linearGradient x1="260.52367" y1="201.20671" x2="260.52367" y2="186.46608" gradientUnits="userSpaceOnUse" id="color-64"><stop offset="0" stop-color="#ffffff"/><stop offset="1" stop-color="#a40000"/></linearGradient></defs><g transform="translate(-205.56126,-110.63654)"><g data-paper-data="{&quot;isPaintingLayer&quot;:true}" fill-rule="nonzero" stroke-linecap="butt" stroke-linejoin="miter" stroke-miterlimit="10" stroke-dasharray="" stroke-dashoffset="0" style="mix-blend-mode: normal"><path d="M216.46279,203.36155v-38.70865h43.70331v38.70865z" fill="url(#color-1)" stroke="#000000" stroke-width="0.5"/><path d="M214.69049,165.09882c0,0 -0.97234,-1.63595 -0.53557,-1.89826c0.41326,-0.24819 2.2562,-0.30223 2.2562,-0.30223c0,0 14.54754,3.44954 21.7935,3.49233c7.18344,0.04242 21.32586,-3.58756 21.32586,-3.58756c0,0 1.89868,-0.73156 2.83936,0.35328c0.25923,0.29896 -1.93234,1.90047 -1.93234,1.90047c0,0 -1.68928,4.42796 -22.22891,4.01691c-18.26942,-0.36562 -21.18477,-3.30826 -21.18477,-3.30826z" data-paper-data="{&quot;index&quot;:null}" fill="url(#color-2)" stroke="#000000" stroke-width="0.5"/><path d="M235.01309,203.00737c-0.37843,-0.26198 -0.12615,-0.65496 -0.12615,-0.65496l0.33237,-0.50115c1.91502,-1.32574 3.22712,-2.71339 5.69446,-2.71339c0,0 0.45482,0 0.45482,0.4723c0,0.4723 -0.45482,0.4723 -0.45482,0.4723c-2.18354,0 -3.34989,1.25891 -5.05124,2.43673l-0.21871,0.3572c0,0 -0.25229,0.39298 -0.63073,0.131z" fill="#000000" stroke="none" stroke-width="1.5"/><path d="M231.95252,203.82704c-0.20341,0.42243 -0.61021,0.21122 -0.61021,0.21122l-0.18244,-0.1073c-1.35953,-0.41631 -1.58891,-1.69514 -0.13777,-2.20392c0,0 0.44124,-0.11455 0.55155,0.34364c0.11031,0.45819 -0.33093,0.57274 -0.33093,0.57274c-0.6928,0.03839 -0.22622,0.3065 0.13777,0.37114l0.36862,0.17882c0,0 0.4068,0.21122 0.20341,0.63365z" fill="#000000" stroke="none" stroke-width="1.5"/><path d="M262.46273,202.82847c0,4.00833 -10.82243,3.38693 -24.17258,3.38693c-13.35015,0 -24.17258,0.6214 -24.17258,-3.38693c0,-4.00833 10.63649,-5.20137 23.98664,-5.20137c13.35015,0 24.35852,1.19304 24.35852,5.20137z" fill="url(#color-3)" stroke="#000000" stroke-width="1.5"/><path d="M263.85084,227.60711c0,0 0.14892,0.75942 -1.1401,1.2899c-2.66372,1.0962 -9.20314,3.49012 -23.08552,3.41289c-15.22118,-0.08467 -21.90319,-2.33155 -24.25219,-3.37287c-1.10394,-0.48938 -1.18616,-1.32992 -1.18616,-1.32992c0,0 -1.90509,-4.28619 -1.41757,-13.56575c0.47299,-9.00291 1.6086,-10.88359 1.6086,-10.88359c0,0 5.98088,1.86404 25.24732,1.98778c17.15271,0.11015 24.60767,-2.10875 24.60767,-2.10875c0,0 0.88007,3.81515 0.96385,11.57435c0.10865,10.06206 -1.34588,12.99597 -1.34588,12.99597z" data-paper-data="{&quot;index&quot;:null}" fill="url(#color-4)" stroke="#000000" stroke-width="1.5"/><path d="M259.17034,203.04688c0.27987,0.33483 -0.07865,0.59621 -0.07865,0.59621l-0.58024,0.32955c-0.28969,0.0168 -0.57923,0.04857 -0.86606,0.09489c-0.13442,0.13712 -0.34844,0.13712 -0.34844,0.13712l0.04593,-0.08266c-0.01207,0.0024 -0.02414,0.00483 -0.03619,0.00727c-0.7915,0.62517 -2.59368,1.01008 -3.64473,1.01858c-2.63595,0 -5.25895,0.77784 -7.95081,0.94237c-1.80588,0.11037 -3.74479,-0.23497 -5.58281,-0.23497c0,0 -0.26322,0 -0.38918,-0.18701c-3.06703,-0.14356 -5.97995,-0.53386 -9.0382,-1.1051c0,0 -0.44599,-0.08331 -0.35679,-0.49983c0.0892,-0.41652 0.53519,-0.33322 0.53519,-0.33322c3.24048,0.60527 6.2953,1.00363 9.56363,1.1167c0.072,-0.31268 0.4428,-0.31268 0.4428,-0.31268c1.65696,0 3.33893,0.02283 5.02499,0.01076c1.52014,-0.28837 2.97846,-0.74537 4.53361,-1.30136c2.31438,-0.82743 4.99127,-0.98803 7.09943,-2.28332l0.2023,-0.20184c0,0 0.3216,-0.30036 0.64321,0h0.00001c0.3216,0.30036 0,0.60072 0,0.60072l-0.34877,0.31281c-2.17736,1.31498 -4.8541,1.49935 -7.22817,2.34856c-0.41117,0.14707 -0.81603,0.2875 -1.21723,0.42011c2.36843,-0.13188 4.7147,-0.41657 6.98027,-1.01557c0.61152,-0.15901 1.2437,-0.26006 1.87703,-0.30005l0.0795,-0.15145c0,0 0.35852,-0.26138 0.63839,0.07345z" fill="#000000" stroke="none" stroke-width="1.5"/><path d="M241.62413,195.72803c12.00608,0 22.52943,4.79636 22.52943,7.03893c0,2.24256 -34.81368,6.2364 -43.28022,14.18652c-9.04168,8.49018 -6.69557,-11.66077 -6.69557,-13.90334c0,-2.24256 15.44028,-7.32211 27.44636,-7.32211z" data-paper-data="{&quot;index&quot;:null}" fill="url(#color-5)" stroke="#000000" stroke-width="1.5"/><path d="M263.63014,123.58328c0.17721,6.07622 -11.57541,5.47621 -26.03912,5.89804c-14.46371,0.42183 -26.16139,1.70576 -26.3386,-4.37045c-0.17721,-6.07622 11.29374,-8.22082 25.75745,-8.64266c14.46371,-0.42183 26.44306,1.03885 26.62028,7.11507z" fill="url(#color-6)" stroke="#000000" stroke-width="2"/><path d="M227.78677,128.45603l-0.23632,-2.41127l14.37253,-1.20644l0.23632,2.41127z" data-paper-data="{&quot;index&quot;:null}" fill="#0057ff" stroke="#000000" stroke-width="0"/><path d="M242.35792,125.04751l1.03037,2.23443l-13.34721,4.9669l-1.03037,-2.23443z" data-paper-data="{&quot;index&quot;:null}" fill="#07c300" stroke="#000000" stroke-width="0"/><path d="M232.34296,126.83216l-0.09539,2.42094l-14.41841,-0.36675l0.09539,-2.42094z" data-paper-data="{&quot;index&quot;:null}" fill="#0057ff" stroke="#000000" stroke-width="0"/><path d="M239.78946,126.18826l0.89839,-2.29067l13.61399,4.18058l-0.89839,2.29067z" data-paper-data="{&quot;index&quot;:null}" fill="#ff0000" stroke="#000000" stroke-width="0"/><path d="M243.47897,131.39013l-0.23632,-2.41127l14.37253,-1.20644l0.23632,2.41127z" data-paper-data="{&quot;index&quot;:null}" fill="#0057ff" stroke="#000000" stroke-width="0"/><path d="M212.72257,160.70648c0,0 -0.94477,-3.59455 -1.39453,-18.18804c-0.46438,-15.06791 -0.0604,-18.02996 -0.0604,-18.02996c0,0 7.86795,3.04514 25.74657,2.36115c20.08181,-0.76828 26.23729,-3.69874 26.23729,-3.69874c0,0 1.41091,3.61477 1.24763,16.6389c-0.21864,17.4398 0.00296,19.40654 0.00296,19.40654c0,0 -0.04958,1.2419 -1.17948,1.99707c-2.40426,1.60688 -9.27431,5.12316 -25.14021,5.71085c-14.47041,0.536 -21.39134,-2.79506 -24.21568,-4.33045c-1.36675,-0.74301 -1.24415,-1.86733 -1.24415,-1.86733z" fill="url(#color-7)" stroke="#000000" stroke-width="1.5"/><path d="M230.23316,140.60863c0.00745,0.25556 0.01772,0.50122 -0.06702,0.73325c-0.16081,0.44033 -0.59723,0.64155 -1.02426,0.92689c-0.21248,0.14197 -0.42468,0.34608 -0.65392,0.47524c-0.26312,0.14825 -0.54824,0.2127 -0.87467,0.22222c-0.67397,0.01966 -1.08542,-0.1791 -1.56719,-0.5132c-0.3519,-0.24403 -0.70131,-0.3733 -0.92997,-0.73893c-0.1474,-0.2357 -0.24782,-0.6795 -0.25568,-0.94877c-0.01676,-0.57476 0.22277,-0.96614 0.6248,-1.37914c0.2624,-0.26955 0.43104,-0.71403 0.81048,-0.89876c0.31247,-0.15212 0.82051,-0.06908 1.1846,-0.0797c0.46852,-0.01366 0.78205,0.23574 1.19806,0.34003c0.77401,0.19403 1.18537,0.64664 1.38594,1.21532c0.07154,0.20284 0.16223,0.41912 0.16883,0.64556z" fill="url(#color-8)" stroke="#000000" stroke-width="1.5"/><path d="M247.25036,140.17924c0.16435,-0.56992 0.54235,-1.03795 1.29128,-1.27286c0.40252,-0.12625 0.69611,-0.38914 1.15697,-0.40258c0.35814,-0.01045 0.85226,-0.12111 1.16781,0.01035c0.3832,0.15965 0.57427,0.58644 0.84739,0.83609c0.41846,0.3825 0.67611,0.7531 0.6926,1.31845c0.00772,0.26487 -0.06544,0.70642 -0.19668,0.94633c-0.20357,0.37215 -0.53928,0.51911 -0.87084,0.77893c-0.45392,0.35568 -0.84656,0.57445 -1.50951,0.59379c-0.32109,0.00936 -0.60477,-0.03759 -0.87164,-0.16808c-0.23251,-0.1137 -0.45258,-0.30194 -0.66938,-0.42918c-0.4357,-0.25571 -0.87578,-0.42829 -1.05893,-0.85146c-0.09652,-0.22299 -0.10051,-0.46481 -0.10784,-0.71619c-0.0065,-0.22274 0.07016,-0.44031 0.12878,-0.6436z" data-paper-data="{&quot;index&quot;:null}" fill="url(#color-9)" stroke="#000000" stroke-width="1.5"/><path d="M260.5123,145.45567c-0.96596,2.93251 -2.16485,2.54748 -5.6644,5.01873c-5.35921,3.78448 -12.70731,9.22779 -18.05082,9.38363c-3.45938,0.10089 -4.43233,-1.30408 -8.78517,-4.45381c-1.20645,-0.87299 -6.50596,-2.69178 -7.5418,-3.66538c-4.76927,-4.48266 -7.17849,-9.68896 -5.63979,-11.85948c0.49394,-0.69676 2.90293,-1.62091 4.07981,-0.38046c1.35518,1.42838 1.59183,5.22276 3.89247,7.21862c4.15794,3.60712 9.94906,6.31782 14.29201,6.19115c8.8328,-0.25761 18.74519,-10.49394 20.4856,-9.36838c0,0 1.75009,-0.05736 2.10268,0.10073c1.93377,0.86708 0.8294,1.81461 0.8294,1.81461z" fill="url(#color-10)" stroke="#000000" stroke-width="1.5"/><path d="M229.31701,125.87485l-1.75399,-2.14904l11.97427,-8.94359l1.754,2.14904z" data-paper-data="{&quot;index&quot;:null}" fill="url(#color-11)" stroke="#000000" stroke-width="0"/><path d="M221.64817,123.27774l0.94002,-2.57946l14.32997,4.74101l-0.94002,2.57946z" data-paper-data="{&quot;index&quot;:null}" fill="#ff0000" stroke="#000000" stroke-width="0"/><path d="M243.19987,123.06763l1.08876,2.52029l-14.0293,5.56811l-1.08876,-2.52029z" data-paper-data="{&quot;index&quot;:null}" fill="#ff0000" stroke="#000000" stroke-width="0"/><path d="M247.88209,122.99351l-0.09504,2.72801l-15.1678,-0.44487l0.09504,-2.72801z" data-paper-data="{&quot;index&quot;:null}" fill="url(#color-12)" stroke="#000000" stroke-width="0"/><path d="M233.90049,120.71757l0.94002,-2.57947l14.32997,4.74103l-0.94002,2.57946z" data-paper-data="{&quot;index&quot;:null}" fill="url(#color-13)" stroke="#000000" stroke-width="0"/><path d="M216.34823,125.05199l0.94001,-2.57947l14.32997,4.74103l-0.94002,2.57946z" data-paper-data="{&quot;index&quot;:null}" fill="url(#color-14)" stroke="#000000" stroke-width="0"/><path d="M223.11352,115.79121l0.94002,-2.57946l14.32997,4.74102l-0.94002,2.57946z" data-paper-data="{&quot;index&quot;:null}" fill="#ff0000" stroke="#000000" stroke-width="0"/><path d="M227.00599,121.66144l-0.25387,-2.71783l15.11609,-1.3281l0.25387,2.71783z" data-paper-data="{&quot;index&quot;:null}" fill="url(#color-15)" stroke="#000000" stroke-width="0"/><path d="M242.32619,117.85214l1.08875,2.5203l-14.0293,5.56813l-1.08876,-2.5203z" data-paper-data="{&quot;index&quot;:null}" fill="url(#color-16)" stroke="#000000" stroke-width="0"/><path d="M244.66521,115.5811l1.08876,2.52029l-14.0293,5.56811l-1.08876,-2.52029z" data-paper-data="{&quot;index&quot;:null}" fill="#ff0000" stroke="#000000" stroke-width="0"/><path d="M249.34744,115.50698l-0.09504,2.72801l-15.16781,-0.44487l0.09505,-2.72801z" data-paper-data="{&quot;index&quot;:null}" fill="url(#color-17)" stroke="#000000" stroke-width="0"/><path d="M235.36584,113.23104l0.94002,-2.57946l14.32996,4.74102l-0.94001,2.57947z" data-paper-data="{&quot;index&quot;:null}" fill="url(#color-18)" stroke="#000000" stroke-width="0"/><path d="M213.23009,122.7227l-1.754,-2.14904l11.97427,-8.94359l1.754,2.14904z" data-paper-data="{&quot;index&quot;:null}" fill="url(#color-19)" stroke="#000000" stroke-width="0"/><path d="M205.56126,120.12559l0.94002,-2.57946l14.32997,4.74101l-0.94002,2.57946z" fill="#ff0000" stroke="#000000" stroke-width="0"/><path d="M209.45372,125.99586l-0.25387,-2.71783l15.11609,-1.3281l0.25387,2.71783z" fill="url(#color-20)" stroke="#000000" stroke-width="0"/><path d="M224.77392,122.18653l1.08876,2.52029l-14.0293,5.56813l-1.08876,-2.5203z" data-paper-data="{&quot;index&quot;:null}" fill="url(#color-21)" stroke="#000000" stroke-width="0"/><path d="M233.06323,130.67449l-1.62577,2.24761l-12.47515,-8.23054l1.62577,-2.24761z" data-paper-data="{&quot;index&quot;:null}" fill="url(#color-22)" stroke="#000000" stroke-width="0"/><path d="M227.11295,119.91552l1.08876,2.52029l-14.0293,5.56811l-1.08876,-2.52029z" data-paper-data="{&quot;index&quot;:null}" fill="#ff0000" stroke="#000000" stroke-width="0"/><path d="M231.79517,119.8414l-0.09504,2.72801l-15.16781,-0.44487l0.09505,-2.72801z" data-paper-data="{&quot;index&quot;:null}" fill="url(#color-23)" stroke="#000000" stroke-width="0"/><path d="M217.81356,117.56546l0.94002,-2.57947l14.32997,4.74103l-0.94002,2.57946z" data-paper-data="{&quot;index&quot;:null}" fill="url(#color-24)" stroke="#000000" stroke-width="0"/><path d="M247.29571,121.72919l-1.754,-2.14904l11.97427,-8.9436l1.75399,2.14904z" data-paper-data="{&quot;index&quot;:null}" fill="url(#color-25)" stroke="#000000" stroke-width="0"/><path d="M239.62688,119.13207l0.94001,-2.57946l14.32997,4.74102l-0.94002,2.57946z" data-paper-data="{&quot;index&quot;:null}" fill="#ff0000" stroke="#000000" stroke-width="0"/><path d="M243.51934,125.00234l-0.25387,-2.71783l15.11609,-1.3281l0.25387,2.71783z" data-paper-data="{&quot;index&quot;:null}" fill="url(#color-26)" stroke="#000000" stroke-width="0"/><path d="M258.83952,121.19301l1.08876,2.52029l-14.02931,5.56813l-1.08875,-2.5203z" data-paper-data="{&quot;index&quot;:null}" fill="url(#color-27)" stroke="#000000" stroke-width="0"/><path d="M261.17855,118.922l1.08876,2.52029l-14.0293,5.56811l-1.08875,-2.52029z" data-paper-data="{&quot;index&quot;:null}" fill="#ff0000" stroke="#000000" stroke-width="0"/><path d="M265.86074,118.84789l-0.09504,2.72801l-15.1678,-0.44487l0.09505,-2.72801z" data-paper-data="{&quot;index&quot;:null}" fill="url(#color-28)" stroke="#000000" stroke-width="0"/><path d="M251.87918,116.57195l0.94002,-2.57947l14.32996,4.74103l-0.94002,2.57946z" data-paper-data="{&quot;index&quot;:null}" fill="url(#color-29)" stroke="#000000" stroke-width="0"/><path d="M224.89878,162.58574c-0.51464,0.54557 -1.06021,0.03092 -1.06021,0.03092l-0.45877,-0.437c-0.77378,-0.87533 -1.63184,-1.62388 -2.45212,-2.36126c0.19266,0.45547 0.37485,0.9135 0.54128,1.37469l0.07985,-0.05666l0.62005,0.87377c0.08652,0.11825 0.13938,0.26301 0.14397,0.42054c0.01208,0.41403 -0.31378,0.75947 -0.72782,0.77155c-0.22947,0.00669 -0.43786,-0.09041 -0.58012,-0.2488l-0.61688,-0.6786c-0.3099,-0.34092 -0.76451,-0.82522 -1.26417,-1.39269l0.05283,0.46849c0.00288,0.02331 0.00469,0.04695 0.00539,0.07089c0.01208,0.41403 -0.31378,0.75947 -0.72782,0.77155c-0.2551,0.00744 -0.48415,-0.1134 -0.62524,-0.30411l-0.51415,-0.67717l0.0066,-0.005l-0.02029,-0.01361c-0.92377,-1.38553 -1.39653,-2.6704 -2.08814,-4.16236c0,0 -0.31541,-0.68045 0.36504,-0.99587c0.15739,-0.07296 0.29526,-0.09263 0.4142,-0.07977c-0.11147,-0.36833 -0.22854,-0.70702 -0.36078,-0.99344l0.0088,-0.0647l-0.02733,0.00768l-0.21868,-0.77764c-0.01909,-0.06261 -0.03024,-0.12877 -0.03224,-0.19736c-0.01208,-0.41403 0.31378,-0.75947 0.72782,-0.77155c0.33019,-0.00963 0.61675,0.19565 0.72539,0.48919l0.14613,0.36809c0.1219,-0.23185 0.36192,-0.39303 0.64242,-0.40121c0.32755,-0.00955 0.61217,0.1924 0.72275,0.48218l0.31333,0.76677c0.09653,0.2171 0.19521,0.43429 0.29546,0.65164c0.57484,0.47707 0.8656,1.22812 1.49664,1.90771c1.26459,1.36191 2.81653,2.34377 4.07166,3.76362l0.36421,0.33934c0,0 0.54557,0.51464 0.03092,1.06021z" fill="url(#color-30)" stroke="none" stroke-width="0.5"/><path d="M259.16605,155.82905c-0.9057,0.96226 -4.67774,3.72034 -5.58322,1.14132c-0.16167,-0.46048 0.38377,-0.90574 0.66605,-1.30386c1.26341,-1.78186 2.38003,-1.92309 3.09481,-4.29889c0,0 0.21633,-0.71812 0.93445,-0.50179c0.71812,0.21633 0.50179,0.93445 0.50179,0.93445c-0.23744,0.78727 -0.49392,1.74385 -0.91256,2.56627l0.87105,-0.54274c0.11135,-0.07221 0.24329,-0.11577 0.38565,-0.11992c0.41403,-0.01208 0.75947,0.31378 0.77155,0.72782c0.00459,0.15753 -0.03973,0.30513 -0.11922,0.42822l-0.56807,0.90842l-0.02228,-0.01393z" fill="url(#color-31)" stroke="none" stroke-width="0.5"/><path d="M248.71267,146.60438c-0.74968,0.02186 -0.77155,-0.72782 -0.77155,-0.72782l0.14637,-0.32303l-0.57437,-0.30636c-0.23633,-0.12048 -0.40129,-0.36289 -0.40957,-0.64674c-0.00864,-0.29618 0.15565,-0.55725 0.40144,-0.6863c-0.02015,-0.06938 -0.03107,-0.14827 -0.02941,-0.23795c-0.0772,-0.01811 -0.15466,-0.03571 -0.23235,-0.05262c0,0 -0.7326,-0.16061 -0.57199,-0.89321c0.16061,-0.7326 0.89321,-0.57199 0.89321,-0.57199c1.27403,0.28118 2.98429,1.13998 4.15812,0.35535l-0.10113,-0.08132c0,0 0.31571,-0.68031 0.99602,-0.3646c0.68031,0.31571 0.3646,0.99602 0.3646,0.99602l-0.47764,0.73c-0.11356,0.0655 -0.22687,0.12343 -0.34001,0.17439c0.01663,0.05854 0.02635,0.12006 0.02821,0.18368c0.01135,0.38913 -0.27581,0.71768 -0.65412,0.7658l-0.88775,0.12493l-0.00886,-0.06293l-0.12416,0.0697c-0.05405,-0.01159 -0.10731,-0.02401 -0.15985,-0.03712c-0.04352,0.02205 -0.09066,0.03805 -0.14113,0.04918c0.00149,0.01596 0.00248,0.03208 0.00295,0.04833c0.01126,0.38595 -0.27111,0.71228 -0.64484,0.76456l-0.1368,0.02117c-0.01421,0.18071 -0.10896,0.69086 -0.72543,0.70884z" fill="url(#color-32)" stroke="none" stroke-width="0.5"/><path d="M227.6164,145.99946c-0.51464,0.54557 -1.06021,0.03092 -1.06021,0.03092l-0.37882,-1.43956c-0.47681,-0.22343 -0.95535,-0.43787 -1.42575,-0.68789c0,0 -0.50437,-0.26901 -0.3976,-0.77765c-0.17199,-0.12969 -0.33761,-0.269 -0.49586,-0.41766c0,0 -0.54557,-0.51464 -0.03092,-1.06021c0.51464,-0.54557 1.06021,-0.03092 1.06021,-0.03092c1.03505,0.98103 2.75107,1.5713 4.17158,1.16761c0.03548,-0.21849 0.17453,-0.61375 0.71585,-0.62954c0.74968,-0.02186 0.77155,0.72782 0.77155,0.72782l-0.45432,1.11597c-0.42796,0.15935 -0.86882,0.2652 -1.31351,0.32005c0.00698,0.03766 0.01117,0.07635 0.01232,0.11583c0.01126,0.38595 -0.27111,0.71228 -0.64484,0.76456l-0.35624,0.05512c0.07575,0.19791 0.08861,0.46772 -0.17347,0.74555z" fill="url(#color-33)" stroke="none" stroke-width="0.5"/><path d="M255.34601,137.23555c-0.29872,-0.68794 0.38921,-0.98667 0.38921,-0.98667l0.40175,-0.1666c0.05481,-0.03344 0.10947,-0.06628 0.16397,-0.09866c-0.3678,-0.41319 -0.02106,-0.90475 -0.02106,-0.90475l0.4852,-0.6004c0.88794,-0.58447 1.58939,-1.25078 2.08313,-2.19777c0,0 0.35296,-0.66175 1.01472,-0.30879c0.66175,0.35296 0.30879,1.01472 0.30879,1.01472c-0.35394,0.65205 -0.77164,1.19859 -1.26266,1.68295c0.0806,0.04208 0.16213,0.10505 0.24197,0.19537c0.49673,0.56193 -0.0652,1.05865 -0.0652,1.05865c-0.67915,0.59341 -1.40093,0.97051 -2.16701,1.43881l-0.58616,0.26238c0,0 -0.68794,0.29872 -0.98667,-0.38921z" fill="url(#color-34)" stroke="none" stroke-width="0.5"/><path d="M229.89951,207.80415v-0.23522h1.2c0.37649,0 0.68819,0.27741 0.74184,0.63898c3.2801,-0.78286 6.57886,-1.6549 9.32275,-3.0598c0,0 0.67082,-0.33541 1.00623,0.33541c0.33541,0.67082 -0.33541,1.00623 -0.33541,1.00623c-4.13752,2.02994 -9.25082,2.96949 -13.88652,4.17035c-0.01711,0.3162 -0.23007,0.58032 -0.51971,0.67317l-1.21191,0.42006c-1.81264,0.69228 -3.54231,1.55832 -5.30936,2.34832l0.0222,0.03171l-0.99247,0.69473c-0.12316,0.08864 -0.2743,0.14084 -0.43762,0.14084c-0.0647,0 -0.12749,-0.00819 -0.18739,-0.0236c-0.11836,0.07812 -0.26018,0.1236 -0.41261,0.1236c-0.41421,0 -0.75,-0.33579 -0.75,-0.75c0,-0.13708 0.03678,-0.26557 0.101,-0.37614l0.48755,-0.87759c0.0371,-0.07383 0.07399,-0.14824 0.11073,-0.22314c-0.00067,-0.58429 0.00768,-1.40532 0.07153,-1.54124c0.15828,-0.33693 0.63237,-0.72523 1.20975,-1.05981c0.43557,-0.78251 0.93574,-1.51125 1.57556,-2.08651c0,0 0.56443,-0.49388 1.05831,0.07055c0.1382,0.15794 0.19353,0.31036 0.20155,0.44798l0.48024,-0.16008c0.07926,-0.0285 0.16471,-0.04402 0.25378,-0.04402c0.15356,0 0.29635,0.04615 0.41524,0.12534c1.90884,-0.47566 3.86946,-0.89745 5.78476,-0.79012z" fill="url(#color-35)" stroke="none" stroke-width="0.5"/><path d="M215.37583,203.79353c-0.20922,-0.09469 -0.49661,-0.3149 -0.41611,-0.79789c0.1233,-0.7398 0.86309,-0.6165 0.86309,-0.6165l0.71387,0.12828c0.32588,0.11288 0.61755,0.18429 0.88869,0.23369c0.18141,-0.00774 0.36208,-0.00923 0.53601,-0.00729c0.14128,-0.06529 0.28256,-0.13057 0.42384,-0.19586c0,0 0.5096,-0.2352 0.85059,0.14217l0.74686,0.09336c0.37508,0.04137 0.66685,0.35933 0.66685,0.74544c0,0.00071 0,0.00141 0,0.00212c0.6997,0.19025 1.40439,0.48453 2.05066,0.82468c0.21196,0.05109 0.43074,0.09492 0.65733,0.12824l0.02056,-0.0514l0.98378,0.39351c0.28484,0.10636 0.48768,0.38091 0.48768,0.70285c0,0.41421 -0.33579,0.75 -0.75,0.75c-0.0988,0 -0.19314,-0.01911 -0.27953,-0.05382l-0.72167,-0.27063c-0.77492,-0.09626 -2.73158,-0.46034 -3.95448,-1.01582l-0.02881,0.00864l-0.00393,-0.0131l-0.05905,0.01687c-0.00684,0.00538 -0.01368,0.01076 -0.02052,0.01615l-0.0219,-0.00402l-0.82554,0.23587l-0.03913,0.31302c-0.04137,0.37508 -0.35933,0.66685 -0.74544,0.66685c-0.22016,0 -0.41817,-0.09486 -0.55537,-0.24595c-0.12442,0.09173 -0.27819,0.14595 -0.44463,0.14595c-0.35158,0 -0.64666,-0.24192 -0.72786,-0.56838l-0.29571,-1.08428l0.05691,-0.01552c-0.03472,-0.11005 -0.05794,-0.22347 -0.06619,-0.34127c-0.00666,-0.09516 -0.00329,-0.18366 0.00917,-0.26595z" fill="url(#color-36)" stroke="none" stroke-width="0.5"/><path d="M252.888,204.1561c-0.23717,-0.71151 0.47434,-0.94868 0.47434,-0.94868l0.70106,-0.2329c0.04328,-0.22191 0.18441,-0.40882 0.37665,-0.51399l0.68736,-0.39278l0.04346,0.07605l0.0232,-0.00994l0.11295,-0.13981c0.17164,-0.00335 0.34189,-0.01062 0.51112,-0.02082c0.64682,-0.39462 1.97409,-0.39546 2.73233,-0.49013l0.75083,-0.18771c0.06314,-0.01726 0.1296,-0.02647 0.19822,-0.02647c0.41421,0 0.75,0.33579 0.75,0.75c0,0.06437 -0.00811,0.12684 -0.02336,0.18646c0.01498,0.06339 0.02336,0.13428 0.02336,0.21354c0,0.75 -0.75,0.75 -0.75,0.75c-0.02998,0 -0.05992,0.00016 -0.08982,0.00048l-0.17985,0.17985l-0.16954,-0.16954c-0.05402,0.00256 -0.10792,0.00552 -0.16171,0.00885c-1.10088,0.86895 -2.31583,0.73692 -4.19888,1.15314l-0.86303,0.28873c0,0 -0.71151,0.23717 -0.94868,-0.47434z" fill="url(#color-37)" stroke="none" stroke-width="0.5"/><path d="M259.40023,210.3529c-0.20226,0.11057 -0.4091,0.2136 -0.61986,0.30963c-0.13209,0.23323 -0.37626,0.34175 -0.37626,0.34175l-0.83555,0.36755c-1.01847,0.71744 -1.56485,1.18225 -2.3841,1.44031l0.07838,0.20902l-0.78382,0.29393c-0.08639,0.03472 -0.18072,0.05382 -0.27953,0.05382c-0.41421,0 -0.75,-0.33579 -0.75,-0.75c0,-0.18443 0.06657,-0.3533 0.17699,-0.48392l0.00135,-0.00162l-0.27456,0.09152c-0.07926,0.0285 -0.16471,0.04402 -0.25378,0.04402c-0.41421,0 -0.75,-0.33579 -0.75,-0.75c0,-0.1879 0.0691,-0.35967 0.18328,-0.49127l0.59728,-0.69682l0.02571,0.02204l0.03734,-0.08719c0.58857,-0.42448 1.2365,-0.84001 1.9156,-1.21664l0.16045,-0.16045l0.0325,0.0325l0.04258,-0.0982c1.68438,-0.97249 3.0227,-2.2062 4.46137,-3.4684c0,0 0.56443,-0.49388 1.05831,0.07055c0.22179,0.25347 0.23015,0.49271 0.17205,0.67939c0.31501,-0.11881 0.62129,-0.19816 0.8145,0.01522c1.32973,1.46856 -0.47459,2.28525 -1.29834,2.60544c-0.07452,0.02897 -0.14903,0.0574 -0.22351,0.08537c0.07646,0.11752 0.12088,0.2578 0.12088,0.40846c0,0.25521 -0.12747,0.48064 -0.32221,0.61611l-0.69187,0.49419l-0.01076,-0.01507z" fill="url(#color-38)" stroke="none" stroke-width="0.5"/><path d="M218.3719,223.70083c-0.1819,-0.72761 0.54571,-0.90951 0.54571,-0.90951l0.66311,-0.16529c-0.4876,-0.01337 -0.95888,-0.09035 -1.44259,-0.27675l-0.10196,0.2719l-0.78361,-0.29385c-0.29289,-0.10209 -0.50305,-0.3807 -0.50305,-0.70839c0,-0.05159 0.00521,-0.10196 0.01513,-0.15062c-0.24957,-0.0629 -0.50539,-0.14907 -0.76973,-0.26402c0,0 -0.68536,-0.3046 -0.38075,-0.98996c0.3046,-0.68536 0.98996,-0.38075 0.98996,-0.38075c1.66886,0.76214 3.00845,-0.04907 4.7274,-0.05264l0.68847,-0.25818c0.08639,-0.03472 0.18072,-0.05382 0.27953,-0.05382c0.41421,0 0.75,0.33579 0.75,0.75c0,0.23689 -0.10983,0.44813 -0.28135,0.58558l0.22659,-0.02832c0.03423,-0.00478 0.06921,-0.00726 0.10476,-0.00726c0.41421,0 0.75,0.33579 0.75,0.75c0,0.20711 -0.08395,0.39461 -0.21967,0.53033l-0.8,0.8l-0.15157,-0.15157c-0.62535,0.63556 -1.3142,0.92124 -2.56906,1.34133l-0.82779,0.20752c0,0 -0.72761,0.1819 -0.90951,-0.54571z" fill="url(#color-39)" stroke="none" stroke-width="0.5"/><path d="M236.44951,222.01893c0,-0.61712 0.50779,-0.72646 0.68772,-0.74583c0.38391,-0.51816 0.62959,-1.08971 0.86068,-1.66647c-0.53456,0.35099 -1.1432,0.66317 -1.88235,0.98526l0.34795,-1.77047c0.83532,-1.33542 1.52404,-2.34698 1.90839,-3.8844c0,0 0.1819,-0.72761 0.90951,-0.54571c0.54634,0.13659 0.57989,0.58085 0.5627,0.79373c0.05014,-0.01056 0.10212,-0.01612 0.1554,-0.01612c0.41421,0 0.75,0.33579 0.75,0.75c0,0.01805 -0.00064,0.03596 -0.00189,0.0537l-0.09314,1.49017l-0.43674,-0.0273c-0.01262,0.01709 -0.02522,0.03409 -0.03782,0.05099c-0.20258,1.77948 -0.97284,3.60893 -2.10425,5.01258l-0.87617,0.26986c0,0 -0.75,0 -0.75,-0.75z" fill="url(#color-40)" stroke="none" stroke-width="0.5"/><path d="M216.84432,171.08762c0,3.51394 0.03274,6.72562 -0.59808,6.72562c-0.63082,0 -0.52037,-3.15981 -0.52037,-6.67375c0,-3.51394 -1.74242,-6.76351 0.44264,-6.77748c2.34205,-0.01497 0.67582,3.21168 0.67582,6.72562z" data-paper-data="{&quot;index&quot;:null}" fill="url(#color-41)" stroke="#000000" stroke-width="0.5"/><path d="M220.22123,172.42485c0,3.51394 0.03274,6.72562 -0.59808,6.72562c-0.63082,0 -0.52037,-3.15981 -0.52037,-6.67374c0,-3.51394 -1.74242,-6.76352 0.44263,-6.77749c2.34205,-0.01497 0.67582,3.21168 0.67582,6.72561z" data-paper-data="{&quot;index&quot;:null}" fill="url(#color-42)" stroke="#000000" stroke-width="0.5"/><path d="M223.99407,173.42719c0,3.51394 0.03274,6.72562 -0.59808,6.72562c-0.63082,0 -0.52037,-3.15981 -0.52037,-6.67374c0,-3.51394 -1.74242,-6.76352 0.44264,-6.77749c2.34205,-0.01497 0.67582,3.21168 0.67582,6.72562z" data-paper-data="{&quot;index&quot;:null}" fill="url(#color-43)" stroke="#000000" stroke-width="0.5"/><path d="M227.96557,174.49699c0,3.51394 0.03274,6.72562 -0.59808,6.72562c-0.63082,0 -0.52037,-3.15981 -0.52037,-6.67374c0,-3.51394 -1.74242,-6.76352 0.44263,-6.77749c2.34205,-0.01497 0.67582,3.21168 0.67582,6.72562z" data-paper-data="{&quot;index&quot;:null}" fill="url(#color-44)" stroke="#000000" stroke-width="0.5"/><path d="M232.73433,174.36444c0,3.51394 0.03274,6.72562 -0.59808,6.72562c-0.63082,0 -0.52036,-3.15981 -0.52036,-6.67374c0,-3.51394 -1.74242,-6.76352 0.44263,-6.77749c2.34205,-0.01497 0.67582,3.21168 0.67582,6.72562z" data-paper-data="{&quot;index&quot;:null}" fill="url(#color-45)" stroke="#000000" stroke-width="0.5"/><path d="M237.30447,175.03187c0,3.51394 0.03274,6.72562 -0.59808,6.72562c-0.63082,0 -0.52037,-3.15981 -0.52037,-6.67374c0,-3.51394 -1.74242,-6.76351 0.44263,-6.77748c2.34205,-0.01497 0.67582,3.21168 0.67582,6.72561z" data-paper-data="{&quot;index&quot;:null}" fill="url(#color-46)" stroke="#000000" stroke-width="0.5"/><path d="M242.67186,174.43187c0,3.51394 0.03274,6.72562 -0.59808,6.72562c-0.63082,0 -0.52037,-3.15981 -0.52037,-6.67374c0,-3.51394 -1.74242,-6.76352 0.44263,-6.77749c2.34205,-0.01497 0.67582,3.21168 0.67582,6.72562z" data-paper-data="{&quot;index&quot;:null}" fill="url(#color-47)" stroke="#000000" stroke-width="0.5"/><path d="M247.24064,174.16442c0,3.51394 0.03274,6.72562 -0.59808,6.72562c-0.63082,0 -0.52037,-3.15981 -0.52037,-6.67375c0,-3.51394 -1.74242,-6.76352 0.44263,-6.77749c2.34205,-0.01497 0.67582,3.21168 0.67582,6.72562z" data-paper-data="{&quot;index&quot;:null}" fill="url(#color-48)" stroke="#000000" stroke-width="0.5"/><path d="M251.33361,166.90391c2.34205,-0.01497 0.67582,3.21168 0.67582,6.72562c0,3.51394 0.03274,6.72562 -0.59808,6.72562c-0.63082,0 -0.52037,-3.15981 -0.52037,-6.67374c0,-3.51394 -1.74244,-6.76352 0.44262,-6.77749z" data-paper-data="{&quot;index&quot;:null}" fill="url(#color-49)" stroke="#000000" stroke-width="0.5"/><path d="M256.58226,172.89463c0,3.51394 0.03274,6.72562 -0.59809,6.72562c-0.63082,0 -0.52037,-3.15981 -0.52037,-6.67374c0,-3.51394 -1.74242,-6.76352 0.44263,-6.77749c2.34205,-0.01497 0.67582,3.21168 0.67582,6.72562z" data-paper-data="{&quot;index&quot;:null}" fill="url(#color-50)" stroke="#000000" stroke-width="0.5"/><path d="M260.95509,171.02484c0,3.51394 0.03274,6.72562 -0.59808,6.72562c-0.63082,0 -0.52037,-3.15981 -0.52037,-6.67375c0,-3.51394 -1.74243,-6.76351 0.44263,-6.77748c2.34204,-0.01497 0.67582,3.21168 0.67582,6.72562z" data-paper-data="{&quot;index&quot;:null}" fill="url(#color-51)" stroke="#000000" stroke-width="0.5"/><path d="M261.72,201.82c0,1.1598 -9.77816,2.1 -21.1,2.1c-11.32184,0 -22.7,-1.5402 -22.7,-2.7c0,-1.1598 12.17816,-5.5 23.5,-5.5c11.32184,0 20.3,4.9402 20.3,6.1z" fill="#310000" stroke="#000000" stroke-width="0.5"/><path d="M252.38025,199.14321c0,2.33206 -5.95865,4.22257 -13.30903,4.22257c-7.35038,0 -13.30903,-1.89051 -13.30903,-4.22257c0,-2.33206 5.95866,-4.22257 13.30903,-4.22257c7.35038,0 13.30903,1.89051 13.30903,4.22257z" fill="url(#color-52)" stroke="#000000" stroke-width="0.5"/><path d="M214.95715,201.60207c0,0 0.52767,-0.92975 0.96444,-1.2336c0.41327,-0.2875 1.58953,-0.54317 1.58953,-0.54317c0,0 14.7142,1.67914 21.96017,1.7287c7.18344,0.04914 20.6592,-1.25983 20.6592,-1.25983c0,0 1.56534,-0.4613 2.50602,0.79538c0.25923,0.34631 0.73433,1.0431 0.73433,1.0431c0,0 -3.35595,3.00559 -23.89558,2.52944c-18.26942,-0.42354 -24.5181,-3.06 -24.5181,-3.06z" fill="url(#color-53)" stroke="#000000" stroke-width="0.5"/><path d="M218.13517,201.28014c-2.18506,-0.01618 -0.44264,-3.78047 -0.44264,-7.85099c0,-4.07052 -0.11045,-7.73082 0.52037,-7.73082c0.63082,0 0.59808,3.72039 0.59808,7.7909c0,4.07052 1.66623,7.80824 -0.67581,7.7909z" data-paper-data="{&quot;index&quot;:null}" fill="url(#color-54)" stroke="#000000" stroke-width="0.5"/><path d="M221.51208,202.04787c-2.18506,-0.01618 -0.44263,-3.78048 -0.44263,-7.85099c0,-4.07052 -0.11045,-7.73082 0.52037,-7.73082c0.63082,0 0.59808,3.72039 0.59808,7.79091c0,4.07052 1.66623,7.80824 -0.67581,7.7909z" data-paper-data="{&quot;index&quot;:null}" fill="url(#color-55)" stroke="#000000" stroke-width="0.5"/><path d="M225.48492,202.50852c-2.18506,-0.01618 -0.44263,-3.78047 -0.44263,-7.85099c0,-4.07052 -0.11046,-7.73082 0.52036,-7.73082c0.63082,0 0.59809,3.72039 0.59809,7.7909c0,4.07052 1.66623,7.80824 -0.67581,7.7909z" data-paper-data="{&quot;index&quot;:null}" fill="url(#color-56)" stroke="#000000" stroke-width="0.5"/><path d="M229.65641,203.12271c-2.18506,-0.01618 -0.44263,-3.78047 -0.44263,-7.85099c0,-4.07052 -0.11045,-7.73082 0.52037,-7.73082c0.63082,0 0.59808,3.72039 0.59808,7.7909c0,4.07052 1.66623,7.80824 -0.67582,7.7909z" data-paper-data="{&quot;index&quot;:null}" fill="url(#color-57)" stroke="#000000" stroke-width="0.5"/><path d="M234.22518,203.27626c-2.18506,-0.01618 -0.44263,-3.78048 -0.44263,-7.85099c0,-4.07052 -0.11046,-7.73082 0.52036,-7.73082c0.63082,0 0.59809,3.72039 0.59809,7.7909c0,4.07052 1.66623,7.80825 -0.67582,7.79091z" data-paper-data="{&quot;index&quot;:null}" fill="url(#color-58)" stroke="#000000" stroke-width="0.5"/><path d="M238.59531,203.42982c-2.18506,-0.01618 -0.44263,-3.78047 -0.44263,-7.85099c0,-4.07052 -0.11045,-7.73082 0.52037,-7.73082c0.63082,0 0.59809,3.72039 0.59809,7.7909c0,4.07052 1.66622,7.80824 -0.67582,7.7909z" data-paper-data="{&quot;index&quot;:null}" fill="url(#color-59)" stroke="#000000" stroke-width="0.5"/><path d="M243.36271,203.42982c-2.18506,-0.01618 -0.44264,-3.78047 -0.44264,-7.85099c0,-4.07052 -0.11045,-7.73082 0.52037,-7.73082c0.63082,0 0.59808,3.72039 0.59808,7.7909c0,4.07052 1.66623,7.80824 -0.67581,7.7909z" data-paper-data="{&quot;index&quot;:null}" fill="url(#color-60)" stroke="#000000" stroke-width="0.5"/><path d="M247.93148,203.27627c-2.18506,-0.01618 -0.44263,-3.78047 -0.44263,-7.85099c0,-4.07052 -0.11045,-7.73082 0.52037,-7.73082c0.63082,0 0.59808,3.72039 0.59808,7.79091c0,4.07052 1.66622,7.80824 -0.67582,7.7909z" data-paper-data="{&quot;index&quot;:null}" fill="url(#color-61)" stroke="#000000" stroke-width="0.5"/><path d="M252.50026,202.96918c-2.18506,-0.01618 -0.44262,-3.78047 -0.44262,-7.85099c0,-4.07052 -0.11045,-7.73082 0.52037,-7.73082c0.63082,0 0.59808,3.72039 0.59808,7.7909c0,4.07052 1.66623,7.80824 -0.67582,7.7909z" data-paper-data="{&quot;index&quot;:null}" fill="url(#color-62)" stroke="#000000" stroke-width="0.5"/><path d="M256.4731,202.66209c-2.18506,-0.01618 -0.44263,-3.78048 -0.44263,-7.85099c0,-4.07052 -0.11045,-7.73082 0.52037,-7.73082c0.63082,0 0.59808,3.72039 0.59808,7.79091c0,4.07052 1.66623,7.80824 -0.67582,7.7909z" data-paper-data="{&quot;index&quot;:null}" fill="url(#color-63)" stroke="#000000" stroke-width="0.5"/><path d="M260.44594,202.04787c-2.18506,-0.01618 -0.44263,-3.78047 -0.44263,-7.85099c0,-4.07052 -0.11045,-7.73082 0.52037,-7.73082c0.63082,0 0.59808,3.72039 0.59808,7.7909c0,4.07052 1.66623,7.80824 -0.67581,7.7909z" data-paper-data="{&quot;index&quot;:null}" fill="url(#color-64)" stroke="#000000" stroke-width="0.5"/></g></g></svg>