<svg version="1.1" xmlns="http://www.w3.org/2000/svg" xmlns:xlink="http://www.w3.org/1999/xlink" width="61.60231" height="89.83399" viewBox="0,0,61.60231,89.83399"><defs><linearGradient x1="240.75066" y1="186.14038" x2="240.75066" y2="194.7635" gradientUnits="userSpaceOnUse" id="color-1"><stop offset="0" stop-color="#a0a0a0"/><stop offset="1" stop-color="#b6b6b6"/></linearGradient><linearGradient x1="241.4065" y1="191.55009" x2="241.4065" y2="220.82502" gradientUnits="userSpaceOnUse" id="color-2"><stop offset="0" stop-color="#eaeaea"/><stop offset="1" stop-color="#a3a3a3"/></linearGradient><linearGradient x1="245.07274" y1="185.53329" x2="245.07274" y2="193.65434" gradientUnits="userSpaceOnUse" id="color-3"><stop offset="0" stop-color="#ff0000"/><stop offset="1" stop-color="#a40000"/></linearGradient><linearGradient x1="240.94225" y1="140.91769" x2="240.94225" y2="153.995" gradientUnits="userSpaceOnUse" id="color-4"><stop offset="0" stop-color="#707070"/><stop offset="1" stop-color="#535353"/></linearGradient><linearGradient x1="240.99001" y1="148.18412" x2="240.99001" y2="191.36918" gradientUnits="userSpaceOnUse" id="color-5"><stop offset="0" stop-color="#eaeaea"/><stop offset="1" stop-color="#a3a3a3"/></linearGradient><linearGradient x1="230.57562" y1="162.57008" x2="230.57562" y2="167.13053" gradientUnits="userSpaceOnUse" id="color-6"><stop offset="0" stop-color="#000dff"/><stop offset="1" stop-color="#05006e"/></linearGradient><linearGradient x1="252.78166" y1="163.31383" x2="252.78166" y2="167.79967" gradientUnits="userSpaceOnUse" id="color-7"><stop offset="0" stop-color="#000dff"/><stop offset="1" stop-color="#05006e"/></linearGradient><linearGradient x1="240.38809" y1="174.38778" x2="240.38809" y2="181.97134" gradientUnits="userSpaceOnUse" id="color-8"><stop offset="0" stop-color="#000dff"/><stop offset="1" stop-color="#05006e"/></linearGradient><linearGradient x1="238.04657" y1="139.3061" x2="238.04657" y2="150.09607" gradientUnits="userSpaceOnUse" id="color-9"><stop offset="0" stop-color="#ff7600"/><stop offset="1" stop-color="#6a3200"/></linearGradient><linearGradient x1="243.75664" y1="146.87031" x2="243.75664" y2="150.48125" gradientUnits="userSpaceOnUse" id="color-10"><stop offset="0" stop-color="#0057ff"/><stop offset="1" stop-color="#002672"/></linearGradient><linearGradient x1="245.10903" y1="142.52363" x2="245.10903" y2="150.23136" gradientUnits="userSpaceOnUse" id="color-11"><stop offset="0" stop-color="#07c300"/><stop offset="1" stop-color="#034d00"/></linearGradient><linearGradient x1="227.43786" y1="146.34452" x2="227.43786" y2="154.05225" gradientUnits="userSpaceOnUse" id="color-12"><stop offset="0" stop-color="#07c300"/><stop offset="1" stop-color="#034d00"/></linearGradient><linearGradient x1="238.07662" y1="142.20614" x2="238.07662" y2="145.81708" gradientUnits="userSpaceOnUse" id="color-13"><stop offset="0" stop-color="#0057ff"/><stop offset="1" stop-color="#002672"/></linearGradient><linearGradient x1="239.429" y1="142.45602" x2="239.429" y2="150.16376" gradientUnits="userSpaceOnUse" id="color-14"><stop offset="0" stop-color="#07c300"/><stop offset="1" stop-color="#034d00"/></linearGradient><linearGradient x1="245.4396" y1="139.42968" x2="245.4396" y2="143.04062" gradientUnits="userSpaceOnUse" id="color-15"><stop offset="0" stop-color="#0057ff"/><stop offset="1" stop-color="#002672"/></linearGradient><linearGradient x1="246.79199" y1="135.08301" x2="246.79199" y2="142.79074" gradientUnits="userSpaceOnUse" id="color-16"><stop offset="0" stop-color="#07c300"/><stop offset="1" stop-color="#034d00"/></linearGradient><linearGradient x1="222.05837" y1="135.68632" x2="222.05837" y2="146.47629" gradientUnits="userSpaceOnUse" id="color-17"><stop offset="0" stop-color="#ff7600"/><stop offset="1" stop-color="#6a3200"/></linearGradient><linearGradient x1="220.40545" y1="146.02702" x2="220.40545" y2="149.63796" gradientUnits="userSpaceOnUse" id="color-18"><stop offset="0" stop-color="#0057ff"/><stop offset="1" stop-color="#002672"/></linearGradient><linearGradient x1="221.75784" y1="146.27687" x2="221.75784" y2="153.9846" gradientUnits="userSpaceOnUse" id="color-19"><stop offset="0" stop-color="#07c300"/><stop offset="1" stop-color="#034d00"/></linearGradient><linearGradient x1="229.42135" y1="146.41216" x2="229.42135" y2="157.20214" gradientUnits="userSpaceOnUse" id="color-20"><stop offset="0" stop-color="#ff7600"/><stop offset="1" stop-color="#9b4900"/></linearGradient><linearGradient x1="227.76843" y1="143.25057" x2="227.76843" y2="146.86151" gradientUnits="userSpaceOnUse" id="color-21"><stop offset="0" stop-color="#0057ff"/><stop offset="1" stop-color="#002672"/></linearGradient><linearGradient x1="229.12083" y1="138.90389" x2="229.12083" y2="146.61162" gradientUnits="userSpaceOnUse" id="color-22"><stop offset="0" stop-color="#07c300"/><stop offset="1" stop-color="#034d00"/></linearGradient><linearGradient x1="256.13846" y1="135.68631" x2="256.13846" y2="146.47629" gradientUnits="userSpaceOnUse" id="color-23"><stop offset="0" stop-color="#ff7600"/><stop offset="1" stop-color="#6a3200"/></linearGradient><linearGradient x1="254.48555" y1="146.02702" x2="254.48555" y2="149.63796" gradientUnits="userSpaceOnUse" id="color-24"><stop offset="0" stop-color="#0057ff"/><stop offset="1" stop-color="#002672"/></linearGradient><linearGradient x1="255.83793" y1="146.27687" x2="255.83793" y2="153.9846" gradientUnits="userSpaceOnUse" id="color-25"><stop offset="0" stop-color="#07c300"/><stop offset="1" stop-color="#034d00"/></linearGradient><linearGradient x1="261.8485" y1="143.25057" x2="261.8485" y2="146.86151" gradientUnits="userSpaceOnUse" id="color-26"><stop offset="0" stop-color="#0057ff"/><stop offset="1" stop-color="#002672"/></linearGradient><linearGradient x1="263.20092" y1="138.90389" x2="263.20092" y2="146.61162" gradientUnits="userSpaceOnUse" id="color-27"><stop offset="0" stop-color="#07c300"/><stop offset="1" stop-color="#034d00"/></linearGradient><linearGradient x1="222.61687" y1="176.98222" x2="222.61687" y2="187.18222" gradientUnits="userSpaceOnUse" id="color-28"><stop offset="0" stop-color="#230404"/><stop offset="1" stop-color="#880f0f"/></linearGradient><linearGradient x1="259.30565" y1="175.87231" x2="259.30565" y2="183.00136" gradientUnits="userSpaceOnUse" id="color-29"><stop offset="0" stop-color="#230404"/><stop offset="1" stop-color="#880f0f"/></linearGradient><linearGradient x1="252.80894" y1="166.86749" x2="252.80894" y2="171.38222" gradientUnits="userSpaceOnUse" id="color-30"><stop offset="0" stop-color="#230404"/><stop offset="1" stop-color="#880f0f"/></linearGradient><linearGradient x1="230.05198" y1="165.46619" x2="230.05198" y2="170.39825" gradientUnits="userSpaceOnUse" id="color-31"><stop offset="0" stop-color="#230404"/><stop offset="1" stop-color="#880f0f"/></linearGradient><linearGradient x1="260.95745" y1="156.96619" x2="260.95745" y2="162.6836" gradientUnits="userSpaceOnUse" id="color-32"><stop offset="0" stop-color="#230404"/><stop offset="1" stop-color="#880f0f"/></linearGradient><linearGradient x1="232.66737" y1="193.57755" x2="232.66737" y2="203.58222" gradientUnits="userSpaceOnUse" id="color-33"><stop offset="0" stop-color="#230404"/><stop offset="1" stop-color="#880f0f"/></linearGradient><linearGradient x1="222.35817" y1="190.88472" x2="222.35817" y2="194.78222" gradientUnits="userSpaceOnUse" id="color-34"><stop offset="0" stop-color="#230404"/><stop offset="1" stop-color="#880f0f"/></linearGradient><linearGradient x1="259.00504" y1="189.78222" x2="259.00504" y2="193.18168" gradientUnits="userSpaceOnUse" id="color-35"><stop offset="0" stop-color="#230404"/><stop offset="1" stop-color="#880f0f"/></linearGradient><linearGradient x1="259.79754" y1="193.66779" x2="259.79754" y2="201.88222" gradientUnits="userSpaceOnUse" id="color-36"><stop offset="0" stop-color="#230404"/><stop offset="1" stop-color="#880f0f"/></linearGradient><linearGradient x1="222.1533" y1="207.98222" x2="222.1533" y2="212.78004" gradientUnits="userSpaceOnUse" id="color-37"><stop offset="0" stop-color="#230404"/><stop offset="1" stop-color="#880f0f"/></linearGradient><linearGradient x1="240.89302" y1="202.87541" x2="240.89302" y2="211.28221" gradientUnits="userSpaceOnUse" id="color-38"><stop offset="0" stop-color="#230404"/><stop offset="1" stop-color="#880f0f"/></linearGradient></defs><g transform="translate(-209.19884,-135.08301)"><g data-paper-data="{&quot;isPaintingLayer&quot;:true}" fill-rule="nonzero" stroke-linecap="butt" stroke-linejoin="miter" stroke-miterlimit="10" stroke-dasharray="" stroke-dashoffset="0" style="mix-blend-mode: normal"><path d="M241.73582,211.86144c14.22133,0 25.75,2.92259 25.75,6.52778c0,3.60519 -11.52867,6.52778 -25.75,6.52778c-14.22133,0 -25.75,-2.92259 -25.75,-6.52778c0,-3.60519 11.52867,-6.52778 25.75,-6.52778z" data-paper-data="{&quot;index&quot;:null}" fill="#171717" stroke="none" stroke-width="NaN"/><path d="M237.47358,191.52066c-0.37843,-0.26198 -0.12615,-0.65496 -0.12615,-0.65496l0.33237,-0.50115c1.91502,-1.32574 3.22712,-2.71339 5.69446,-2.71339c0,0 0.45482,0 0.45482,0.4723c0,0.4723 -0.45482,0.4723 -0.45482,0.4723c-2.18354,0 -3.34989,1.25891 -5.05124,2.43673l-0.21871,0.3572c0,0 -0.25229,0.39298 -0.63073,0.131z" data-paper-data="{&quot;index&quot;:null}" fill="#000000" stroke="none" stroke-width="1.5"/><path d="M234.41301,192.34033c-0.20341,0.42243 -0.61021,0.21122 -0.61021,0.21122l-0.18244,-0.1073c-1.35953,-0.41631 -1.58891,-1.69514 -0.13777,-2.20392c0,0 0.44124,-0.11455 0.55155,0.34364c0.11031,0.45819 -0.33093,0.57274 -0.33093,0.57274c-0.6928,0.03839 -0.22622,0.3065 0.13777,0.37114l0.36862,0.17882c0,0 0.4068,0.21122 0.20341,0.63365z" data-paper-data="{&quot;index&quot;:null}" fill="#000000" stroke="none" stroke-width="1.5"/><path d="M264.92322,191.34176c0,4.00833 -10.82243,3.38693 -24.17258,3.38693c-13.35015,0 -24.17258,0.6214 -24.17258,-3.38693c0,-4.00833 10.63649,-5.20137 23.98664,-5.20137c13.35015,0 24.35852,1.19304 24.35852,5.20137z" data-paper-data="{&quot;index&quot;:null}" fill="url(#color-1)" stroke="#000000" stroke-width="1.5"/><path d="M266.31133,216.1204c0,0 0.14892,0.75942 -1.1401,1.2899c-2.66372,1.0962 -9.20314,3.49012 -23.08552,3.41289c-15.22118,-0.08467 -21.90319,-2.33155 -24.25219,-3.37287c-1.10394,-0.48938 -1.18616,-1.32992 -1.18616,-1.32992c0,0 -1.90509,-4.28619 -1.41757,-13.56575c0.47299,-9.00291 1.6086,-10.88359 1.6086,-10.88359c0,0 5.98088,1.86404 25.24732,1.98778c17.15271,0.11015 24.60767,-2.10875 24.60767,-2.10875c0,0 0.88007,3.81515 0.96385,11.57435c0.10865,10.06206 -1.34588,12.99597 -1.34588,12.99597z" data-paper-data="{&quot;index&quot;:null}" fill="url(#color-2)" stroke="#000000" stroke-width="1.5"/><path d="M261.63083,191.56017c0.27987,0.33483 -0.07865,0.59621 -0.07865,0.59621l-0.58024,0.32955c-0.28969,0.0168 -0.57923,0.04857 -0.86606,0.09489c-0.13442,0.13712 -0.34844,0.13712 -0.34844,0.13712l0.04593,-0.08266c-0.01207,0.0024 -0.02414,0.00483 -0.03619,0.00727c-0.7915,0.62517 -2.59368,1.01008 -3.64473,1.01858c-2.63595,0 -5.25895,0.77784 -7.95081,0.94237c-1.80588,0.11037 -3.74479,-0.23497 -5.58281,-0.23497c0,0 -0.26322,0 -0.38918,-0.18701c-3.06703,-0.14356 -5.97995,-0.53386 -9.0382,-1.1051c0,0 -0.44599,-0.08331 -0.35679,-0.49983c0.0892,-0.41652 0.53519,-0.33322 0.53519,-0.33322c3.24048,0.60527 6.2953,1.00363 9.56363,1.1167c0.072,-0.31268 0.4428,-0.31268 0.4428,-0.31268c1.65696,0 3.33893,0.02283 5.02499,0.01076c1.52014,-0.28837 2.97846,-0.74537 4.53361,-1.30136c2.31438,-0.82743 4.99127,-0.98803 7.09943,-2.28332l0.2023,-0.20184c0,0 0.3216,-0.30036 0.64321,0h0.00001c0.3216,0.30036 0,0.60072 0,0.60072l-0.34877,0.31281c-2.17736,1.31498 -4.8541,1.49935 -7.22817,2.34856c-0.41117,0.14707 -0.81603,0.2875 -1.21723,0.42011c2.36843,-0.13188 4.7147,-0.41657 6.98027,-1.01557c0.61152,-0.15901 1.2437,-0.26006 1.87703,-0.30005l0.0795,-0.15145c0,0 0.35852,-0.26138 0.63839,0.07345z" data-paper-data="{&quot;index&quot;:null}" fill="#000000" stroke="none" stroke-width="1.5"/><path d="M244.08462,184.24132c12.00608,0 22.52943,4.79636 22.52943,7.03893c0,2.24256 -34.81368,6.2364 -43.28022,14.18652c-9.04168,8.49018 -6.69557,-11.66077 -6.69557,-13.90334c0,-2.24256 15.44028,-7.32211 27.44636,-7.32211z" data-paper-data="{&quot;index&quot;:null}" fill="url(#color-3)" stroke="#000000" stroke-width="1.5"/><path d="M267.14225,148.80578c0,6.0788 -11.73014,5.13643 -26.2,5.13643c-14.46986,0 -26.2,0.94237 -26.2,-5.13643c0,-6.0788 11.5286,-7.88809 25.99846,-7.88809c14.46986,0 26.40154,1.80929 26.40154,7.88809z" data-paper-data="{&quot;index&quot;:null}" fill="url(#color-4)" stroke="#000000" stroke-width="2"/><path d="M231.17206,152.63155l-0.16593,-2.41713l14.40159,-0.78693l0.16593,2.41713z" data-paper-data="{&quot;index&quot;:null}" fill="#0057ff" stroke="#000000" stroke-width="0"/><path d="M245.83638,149.64925l0.96479,2.26352l-13.48633,4.57569l-0.96479,-2.26352z" data-paper-data="{&quot;index&quot;:null}" fill="#07c300" stroke="#000000" stroke-width="0"/><path d="M235.77365,151.14119l-0.16593,2.41713l-14.40159,-0.78693l0.16593,-2.41713z" data-paper-data="{&quot;index&quot;:null}" fill="#0057ff" stroke="#000000" stroke-width="0"/><path d="M243.23576,150.71464l0.96479,-2.26351l13.48633,4.57568l-0.96479,2.26351z" data-paper-data="{&quot;index&quot;:null}" fill="#ff0000" stroke="#000000" stroke-width="0"/><path d="M246.77205,156.02186l-0.16593,-2.41713l14.40159,-0.78693l0.16593,2.41713z" data-paper-data="{&quot;index&quot;:null}" fill="#0057ff" stroke="#000000" stroke-width="0"/><path d="M215.17408,184.42914c0,0 -0.83958,-3.62056 -0.86371,-18.22096c-0.02492,-15.07504 0.46524,-18.02406 0.46524,-18.02406c0,0 7.77583,3.27322 25.66679,3.11072c20.09567,-0.18252 26.33397,-2.93229 26.33397,-2.93229c0,0 1.30493,3.65437 0.76203,16.6682c-0.72696,17.42601 -0.56279,19.39838 -0.56279,19.39838c0,0 -0.08576,1.23993 -1.2372,1.96184c-2.45008,1.53611 -9.41972,4.85061 -25.29601,4.97552c-14.47989,0.11392 -21.30077,-3.41748 -24.07914,-5.03456c-1.34451,-0.78254 -1.18918,-1.90281 -1.18918,-1.90281z" data-paper-data="{&quot;index&quot;:null}" fill="url(#color-5)" stroke="#000000" stroke-width="1.5"/><path d="M233.26312,164.8503c0,0.25567 0.0031,0.50152 -0.08837,0.73098c-0.17358,0.43545 -0.61568,0.62387 -1.05085,0.89664c-0.21653,0.13572 -0.43459,0.33355 -0.6675,0.45597c-0.26733,0.14052 -0.55421,0.19663 -0.88078,0.19663c-0.67426,0 -1.07974,-0.21067 -1.55156,-0.55867c-0.34464,-0.25419 -0.69013,-0.39359 -0.90803,-0.76573c-0.14047,-0.2399 -0.22791,-0.68644 -0.22791,-0.95582c0,-0.575 0.25084,-0.95924 0.66474,-1.36034c0.27015,-0.26179 0.45167,-0.70116 0.83634,-0.87475c0.31677,-0.14295 0.82218,-0.04513 1.18642,-0.04513c0.46872,0 0.77485,0.25844 1.18764,0.37481c0.76802,0.21651 1.16602,0.68092 1.34992,1.25521c0.0656,0.20484 0.14994,0.42367 0.14994,0.65021z" data-paper-data="{&quot;index&quot;:null}" fill="url(#color-6)" stroke="#000000" stroke-width="1.5"/><path d="M250.28562,164.91718c0.18089,-0.56489 0.57238,-1.0217 1.32784,-1.23467c0.40603,-0.11446 0.70716,-0.36868 1.16821,-0.36868c0.35829,0 0.85543,-0.09621 1.16701,0.04439c0.37838,0.17075 0.55693,0.60293 0.82266,0.86044c0.40713,0.39454 0.65387,0.77249 0.65387,1.33808c0,0.26498 -0.08601,0.70421 -0.22418,0.94019c-0.21433,0.36606 -0.55418,0.50317 -0.89318,0.75321c-0.4641,0.3423 -0.86295,0.54953 -1.52618,0.54953c-0.32123,0 -0.60342,-0.0552 -0.86637,-0.19342c-0.2291,-0.12043 -0.44359,-0.31501 -0.65658,-0.44851c-0.42806,-0.2683 -0.86292,-0.45364 -1.03366,-0.88197c-0.08998,-0.22571 -0.08692,-0.46754 -0.08692,-0.71903c0,-0.22283 0.08297,-0.43808 0.14749,-0.63957z" data-paper-data="{&quot;index&quot;:null}" fill="url(#color-7)" stroke="#000000" stroke-width="1.5"/><path d="M263.86147,170.10463c-4.36457,4.95434 -3.65829,4.8501 -7.22839,7.21828c-5.46726,3.62664 -10.28854,5.22431 -15.63432,5.22431c-3.46085,0 -1.23668,0.30292 -11.33398,-1.86786c-1.18049,-0.90779 -5.478,-3.82702 -6.48502,-4.8304c-4.63656,-4.61979 -6.73519,-13.83879 -5.13387,-15.96353c3.512,-2.7333 3.10674,-0.1155 3.93138,3.68332c0.8396,4.78081 1.4389,5.26695 3.68038,7.32903c4.05102,3.7268 9.76065,6.60517 14.10545,6.60517c8.83656,0 20.46324,-7.26063 22.32787,-13.02745c0,0 1.90881,-2.21534 2.25664,-2.04703c1.90767,0.92309 0.93394,3.57368 0.93394,3.57368z" data-paper-data="{&quot;index&quot;:null}" fill="url(#color-8)" stroke="#000000" stroke-width="1.5"/><path d="M232.7769,150.09607l-1.69059,-2.19926l12.22991,-8.59071l1.6906,2.19926z" data-paper-data="{&quot;index&quot;:null}" fill="url(#color-9)" stroke="#000000" stroke-width="0"/><path d="M225.18703,147.2765l1.01482,-2.55096l14.18567,5.15675l-1.01482,2.55096z" data-paper-data="{&quot;index&quot;:null}" fill="#ff0000" stroke="#000000" stroke-width="0"/><path d="M246.73569,147.69476l1.01482,2.55096l-14.18566,5.15675l-1.01482,-2.55096z" data-paper-data="{&quot;index&quot;:null}" fill="#ff0000" stroke="#000000" stroke-width="0"/><path d="M251.41809,147.75717l-0.17453,2.72408l-15.14838,-0.88686l0.17453,-2.72408z" data-paper-data="{&quot;index&quot;:null}" fill="url(#color-10)" stroke="#000000" stroke-width="0"/><path d="M237.50878,145.0746l1.01482,-2.55097l14.18567,5.15677l-1.01482,2.55096z" data-paper-data="{&quot;index&quot;:null}" fill="url(#color-11)" stroke="#000000" stroke-width="0"/><path d="M219.83762,148.89549l1.01481,-2.55097l14.18567,5.15677l-1.01482,2.55096z" data-paper-data="{&quot;index&quot;:null}" fill="url(#color-12)" stroke="#000000" stroke-width="0"/><path d="M226.87001,139.83587l1.01482,-2.55096l14.18567,5.15676l-1.01482,2.55096z" data-paper-data="{&quot;index&quot;:null}" fill="#ff0000" stroke="#000000" stroke-width="0"/><path d="M230.58969,145.81708l-0.17453,-2.72408l15.14838,-0.88686l0.17453,2.72408z" data-paper-data="{&quot;index&quot;:null}" fill="url(#color-13)" stroke="#000000" stroke-width="0"/><path d="M246.01443,142.45602l1.01481,2.55097l-14.18566,5.15677l-1.01482,-2.55097z" data-paper-data="{&quot;index&quot;:null}" fill="url(#color-14)" stroke="#000000" stroke-width="0"/><path d="M248.41866,140.25413l1.01482,2.55096l-14.18566,5.15675l-1.01482,-2.55096z" data-paper-data="{&quot;index&quot;:null}" fill="#ff0000" stroke="#000000" stroke-width="0"/><path d="M253.10105,140.31654l-0.17453,2.72408l-15.14839,-0.88686l0.17454,-2.72408z" data-paper-data="{&quot;index&quot;:null}" fill="url(#color-15)" stroke="#000000" stroke-width="0"/><path d="M239.19175,137.63397l1.01482,-2.55096l14.18566,5.15676l-1.01481,2.55097z" data-paper-data="{&quot;index&quot;:null}" fill="url(#color-16)" stroke="#000000" stroke-width="0"/><path d="M216.78871,146.47629l-1.6906,-2.19926l12.22991,-8.59071l1.6906,2.19926z" data-paper-data="{&quot;index&quot;:null}" fill="url(#color-17)" stroke="#000000" stroke-width="0"/><path d="M209.19885,143.65671l1.01482,-2.55096l14.18567,5.15675l-1.01482,2.55096z" data-paper-data="{&quot;index&quot;:null}" fill="#ff0000" stroke="#000000" stroke-width="0"/><path d="M212.91852,149.63796l-0.17453,-2.72408l15.14838,-0.88686l0.17453,2.72408z" data-paper-data="{&quot;index&quot;:null}" fill="url(#color-18)" stroke="#000000" stroke-width="0"/><path d="M228.34326,146.27687l1.01482,2.55096l-14.18566,5.15677l-1.01482,-2.55097z" data-paper-data="{&quot;index&quot;:null}" fill="url(#color-19)" stroke="#000000" stroke-width="0"/><path d="M236.3816,155.00288l-1.6906,2.19926l-12.22991,-8.59072l1.6906,-2.19926z" data-paper-data="{&quot;index&quot;:null}" fill="url(#color-20)" stroke="#000000" stroke-width="0"/><path d="M230.7475,144.07502l1.01482,2.55096l-14.18566,5.15675l-1.01482,-2.55096z" data-paper-data="{&quot;index&quot;:null}" fill="#ff0000" stroke="#000000" stroke-width="0"/><path d="M235.42989,144.13743l-0.17453,2.72408l-15.14839,-0.88686l0.17454,-2.72408z" data-paper-data="{&quot;index&quot;:null}" fill="url(#color-21)" stroke="#000000" stroke-width="0"/><path d="M221.52058,141.45486l1.01482,-2.55097l14.18567,5.15677l-1.01482,2.55096z" data-paper-data="{&quot;index&quot;:null}" fill="url(#color-22)" stroke="#000000" stroke-width="0"/><path d="M250.86881,146.47629l-1.6906,-2.19926l12.22991,-8.59072l1.69059,2.19926z" data-paper-data="{&quot;index&quot;:null}" fill="url(#color-23)" stroke="#000000" stroke-width="0"/><path d="M243.27895,143.65671l1.01481,-2.55096l14.18567,5.15676l-1.01482,2.55096z" data-paper-data="{&quot;index&quot;:null}" fill="#ff0000" stroke="#000000" stroke-width="0"/><path d="M246.99863,149.63796l-0.17453,-2.72408l15.14838,-0.88686l0.17453,2.72408z" data-paper-data="{&quot;index&quot;:null}" fill="url(#color-24)" stroke="#000000" stroke-width="0"/><path d="M262.42335,146.27687l1.01482,2.55096l-14.18567,5.15677l-1.01481,-2.55097z" data-paper-data="{&quot;index&quot;:null}" fill="url(#color-25)" stroke="#000000" stroke-width="0"/><path d="M264.82759,144.07502l1.01482,2.55096l-14.18566,5.15675l-1.01481,-2.55096z" data-paper-data="{&quot;index&quot;:null}" fill="#ff0000" stroke="#000000" stroke-width="0"/><path d="M269.50995,144.13743l-0.17453,2.72408l-15.14838,-0.88686l0.17454,-2.72408z" data-paper-data="{&quot;index&quot;:null}" fill="url(#color-26)" stroke="#000000" stroke-width="0"/><path d="M255.60068,141.45486l1.01482,-2.55097l14.18566,5.15677l-1.01482,2.55096z" data-paper-data="{&quot;index&quot;:null}" fill="url(#color-27)" stroke="#000000" stroke-width="0"/><path d="M227.29033,186.66255c-0.53033,0.53033 -1.06066,0 -1.06066,0l-0.44584,-0.45019c-0.74793,-0.89752 -1.58381,-1.67076 -2.38224,-2.43174c0.1793,0.46089 0.34806,0.92404 0.50097,1.38989l0.08147,-0.05431l0.59431,0.89147c0.08304,0.12072 0.13165,0.26696 0.13165,0.42456c0,0.41421 -0.33579,0.75 -0.75,0.75c-0.22957,0 -0.43504,-0.10314 -0.57262,-0.26561l-0.59683,-0.6963c-0.29983,-0.34981 -0.74013,-0.84716 -1.22303,-1.42895l0.03915,0.46983c0.0022,0.02338 0.00332,0.04707 0.00332,0.07102c0,0.41421 -0.33579,0.75 -0.75,0.75c-0.25521,0 -0.48064,-0.12747 -0.61611,-0.32221l-0.49419,-0.69187l0.00674,-0.00481l-0.01988,-0.0142c-0.88299,-1.41187 -1.31809,-2.70998 -1.96591,-4.22147c0,0 -0.29544,-0.68936 0.39392,-0.9848c0.15945,-0.06834 0.29783,-0.08398 0.41635,-0.06766c-0.10068,-0.37142 -0.20783,-0.71338 -0.33167,-1.00354l0.01068,-0.06442l-0.02754,0.00688l-0.19592,-0.78368c-0.01726,-0.06314 -0.02647,-0.1296 -0.02647,-0.19822c0,-0.41421 0.33579,-0.75 0.75,-0.75c0.33033,0 0.61078,0.21355 0.71082,0.51013l0.13534,0.37219c0.12861,-0.2282 0.37322,-0.38231 0.65384,-0.38231c0.32769,0 0.6063,0.21016 0.70839,0.50305l0.29084,0.77558c0.09016,0.21982 0.18247,0.4398 0.27634,0.65998c0.56069,0.49363 0.82943,1.25283 1.44039,1.95053c1.22435,1.3982 2.74701,2.42488 3.96021,3.88072l0.35416,0.34981c0,0 0.53033,0.53033 0,1.06066z" data-paper-data="{&quot;index&quot;:null}" fill="url(#color-28)" stroke="none" stroke-width="0.5"/><path d="M261.74,180.90771c-0.93337,0.93545 -4.78421,3.58239 -5.61412,0.97807c-0.14818,-0.465 0.41001,-0.89417 0.70378,-1.28389c1.31482,-1.74427 2.43508,-1.85289 3.21882,-4.20684c0,0 0.23717,-0.71151 0.94868,-0.47434c0.71151,0.23717 0.47434,0.94868 0.47434,0.94868c-0.26029,0.78001 -0.54455,1.72871 -0.98699,2.53858l0.8865,-0.51712c0.11341,-0.06893 0.24656,-0.10863 0.38898,-0.10863c0.41421,0 0.75,0.33579 0.75,0.75c0,0.1576 -0.04861,0.30384 -0.13165,0.42456l-0.59431,0.89147l-0.02186,-0.01457z" data-paper-data="{&quot;index&quot;:null}" fill="url(#color-29)" stroke="none" stroke-width="0.5"/><path d="M251.56,171.38222c-0.75,0 -0.75,-0.75 -0.75,-0.75l0.15573,-0.31863l-0.56519,-0.32297c-0.23272,-0.12732 -0.39054,-0.37443 -0.39054,-0.65841c0,-0.29631 0.17183,-0.55248 0.42128,-0.67431c-0.01812,-0.06994 -0.02673,-0.14911 -0.02246,-0.23871c-0.07664,-0.02035 -0.15355,-0.0402 -0.23072,-0.05937c0,0 -0.72761,-0.1819 -0.54571,-0.90951c0.1819,-0.72761 0.90951,-0.54571 0.90951,-0.54571c1.26529,0.3182 2.94979,1.22649 4.14599,0.47642l-0.09872,-0.08423c0,0 0.33541,-0.67082 1.00623,-0.33541c0.67082,0.33541 0.33541,1.00623 0.33541,1.00623l-0.49872,0.71577c-0.11542,0.06216 -0.23037,0.11676 -0.34495,0.1644c0.01492,0.059 0.02284,0.12078 0.02284,0.18442c0,0.3893 -0.29661,0.70933 -0.67617,0.74641l-0.89101,0.099l-0.00702,-0.06316l-0.12614,0.06605c-0.05369,-0.01316 -0.10656,-0.02713 -0.1587,-0.04176c-0.04414,0.02077 -0.09173,0.03539 -0.1425,0.04504c0.00102,0.016 0.00154,0.03214 0.00154,0.0484c0,0.38611 -0.29176,0.70407 -0.66685,0.74544l-0.13736,0.01717c-0.01947,0.18022 -0.12905,0.68739 -0.74579,0.68739z" data-paper-data="{&quot;index&quot;:null}" fill="url(#color-30)" stroke="none" stroke-width="0.5"/><path d="M230.49033,170.16255c-0.53033,0.53033 -1.06066,0 -1.06066,0l-0.33669,-1.44999c-0.47009,-0.23724 -0.94218,-0.46553 -1.40509,-0.72916c0,0 -0.49631,-0.2836 -0.37476,-0.78891c-0.16814,-0.13465 -0.32962,-0.27873 -0.48347,-0.43194c0,0 -0.53033,-0.53033 0,-1.06066c0.53033,-0.53033 1.06066,0 1.06066,0c1.00601,1.01079 2.70409,1.65083 4.13577,1.28873c0.04183,-0.21736 0.19235,-0.6084 0.7339,-0.6084c0.75,0 0.75,0.75 0.75,0.75l-0.48666,1.10225c-0.43242,0.14681 -0.87618,0.23976 -1.32228,0.28162c0.00588,0.03785 0.00894,0.07664 0.00894,0.11614c0,0.38611 -0.29176,0.70407 -0.66685,0.74544l-0.3577,0.04471c0.06995,0.20003 0.07494,0.4701 -0.19513,0.74018z" data-paper-data="{&quot;index&quot;:null}" fill="url(#color-31)" stroke="none" stroke-width="0.5"/><path d="M258.46364,162.21076c-0.27854,-0.69636 0.41781,-0.9749 0.41781,-0.9749l0.40644,-0.15482c0.05576,-0.03183 0.11136,-0.06306 0.16678,-0.09384c-0.3556,-0.42374 0.00532,-0.90498 0.00532,-0.90498l0.5025,-0.586c0.9046,-0.55834 1.62518,-1.20391 2.14632,-2.13611c0,0 0.3721,-0.65118 1.02329,-0.27908c0.65118,0.3721 0.27908,1.02329 0.27908,1.02329c-0.3728,0.64145 -0.80625,1.17559 -1.31119,1.64542c0.07934,0.04441 0.159,0.10973 0.23617,0.20234c0.48014,0.57617 -0.09603,1.0563 -0.09603,1.0563c-0.69616,0.57336 -1.42863,0.92926 -2.20803,1.37502l-0.59356,0.24518c0,0 -0.69636,0.27854 -0.9749,-0.41781z" data-paper-data="{&quot;index&quot;:null}" fill="url(#color-32)" stroke="none" stroke-width="0.5"/><path d="M232.36,196.31744v-0.23522h1.2c0.37649,0 0.68819,0.27741 0.74184,0.63898c3.2801,-0.78286 6.57886,-1.6549 9.32275,-3.0598c0,0 0.67082,-0.33541 1.00623,0.33541c0.33541,0.67082 -0.33541,1.00623 -0.33541,1.00623c-4.13752,2.02994 -9.25082,2.96949 -13.88652,4.17035c-0.01711,0.3162 -0.23007,0.58032 -0.51971,0.67317l-1.21191,0.42006c-1.81264,0.69228 -3.54231,1.55832 -5.30936,2.34832l0.0222,0.03171l-0.99247,0.69473c-0.12316,0.08864 -0.2743,0.14084 -0.43762,0.14084c-0.0647,0 -0.12749,-0.00819 -0.18739,-0.0236c-0.11836,0.07812 -0.26018,0.1236 -0.41261,0.1236c-0.41421,0 -0.75,-0.33579 -0.75,-0.75c0,-0.13708 0.03678,-0.26557 0.101,-0.37614l0.48755,-0.87759c0.0371,-0.07383 0.07399,-0.14824 0.11073,-0.22314c-0.00067,-0.58429 0.00768,-1.40532 0.07153,-1.54124c0.15828,-0.33693 0.63237,-0.72523 1.20975,-1.05981c0.43557,-0.78251 0.93574,-1.51125 1.57556,-2.08651c0,0 0.56443,-0.49388 1.05831,0.07055c0.1382,0.15794 0.19353,0.31036 0.20155,0.44798l0.48024,-0.16008c0.07926,-0.0285 0.16471,-0.04402 0.25378,-0.04402c0.15356,0 0.29635,0.04615 0.41524,0.12534c1.90884,-0.47566 3.86946,-0.89745 5.78476,-0.79012z" data-paper-data="{&quot;index&quot;:null}" fill="url(#color-33)" stroke="none" stroke-width="0.5"/><path d="M217.83632,192.30682c-0.20922,-0.09469 -0.49661,-0.3149 -0.41611,-0.79789c0.1233,-0.7398 0.86309,-0.6165 0.86309,-0.6165l0.71387,0.12828c0.32588,0.11288 0.61755,0.18429 0.88869,0.23369c0.18141,-0.00774 0.36208,-0.00923 0.53601,-0.00729c0.14128,-0.06529 0.28256,-0.13057 0.42384,-0.19586c0,0 0.5096,-0.2352 0.85059,0.14217l0.74686,0.09336c0.37508,0.04137 0.66685,0.35933 0.66685,0.74544c0,0.00071 0,0.00141 0,0.00212c0.6997,0.19025 1.40439,0.48453 2.05066,0.82468c0.21196,0.05109 0.43074,0.09492 0.65733,0.12824l0.02056,-0.0514l0.98378,0.39351c0.28484,0.10636 0.48768,0.38091 0.48768,0.70285c0,0.41421 -0.33579,0.75 -0.75,0.75c-0.0988,0 -0.19314,-0.01911 -0.27953,-0.05382l-0.72167,-0.27063c-0.77492,-0.09626 -2.73158,-0.46034 -3.95448,-1.01582l-0.02881,0.00864l-0.00393,-0.0131l-0.05905,0.01687c-0.00684,0.00538 -0.01368,0.01076 -0.02052,0.01615l-0.0219,-0.00402l-0.82554,0.23587l-0.03913,0.31302c-0.04137,0.37508 -0.35933,0.66685 -0.74544,0.66685c-0.22016,0 -0.41817,-0.09486 -0.55537,-0.24595c-0.12442,0.09173 -0.27819,0.14595 -0.44463,0.14595c-0.35158,0 -0.64666,-0.24192 -0.72786,-0.56838l-0.29571,-1.08428l0.05691,-0.01552c-0.03472,-0.11005 -0.05794,-0.22347 -0.06619,-0.34127c-0.00666,-0.09516 -0.00329,-0.18366 0.00917,-0.26595z" data-paper-data="{&quot;index&quot;:null}" fill="url(#color-34)" stroke="none" stroke-width="0.5"/><path d="M255.34849,192.66939c-0.23717,-0.71151 0.47434,-0.94868 0.47434,-0.94868l0.70106,-0.2329c0.04328,-0.22191 0.18441,-0.40882 0.37665,-0.51399l0.68736,-0.39278l0.04346,0.07605l0.0232,-0.00994l0.11295,-0.13981c0.17164,-0.00335 0.34189,-0.01062 0.51112,-0.02082c0.64682,-0.39462 1.97409,-0.39546 2.73233,-0.49013l0.75083,-0.18771c0.06314,-0.01726 0.1296,-0.02647 0.19822,-0.02647c0.41421,0 0.75,0.33579 0.75,0.75c0,0.06437 -0.00811,0.12684 -0.02336,0.18646c0.01498,0.06339 0.02336,0.13428 0.02336,0.21354c0,0.75 -0.75,0.75 -0.75,0.75c-0.02998,0 -0.05992,0.00016 -0.08982,0.00048l-0.17985,0.17985l-0.16954,-0.16954c-0.05402,0.00256 -0.10792,0.00552 -0.16171,0.00885c-1.10088,0.86895 -2.31583,0.73692 -4.19888,1.15314l-0.86303,0.28873c0,0 -0.71151,0.23717 -0.94868,-0.47434z" data-paper-data="{&quot;index&quot;:null}" fill="url(#color-35)" stroke="none" stroke-width="0.5"/><path d="M261.86072,198.86619c-0.20226,0.11057 -0.4091,0.2136 -0.61986,0.30963c-0.13209,0.23323 -0.37626,0.34175 -0.37626,0.34175l-0.83555,0.36755c-1.01847,0.71744 -1.56485,1.18225 -2.3841,1.44031l0.07838,0.20902l-0.78382,0.29393c-0.08639,0.03472 -0.18072,0.05382 -0.27953,0.05382c-0.41421,0 -0.75,-0.33579 -0.75,-0.75c0,-0.18443 0.06657,-0.3533 0.17699,-0.48392l0.00135,-0.00162l-0.27456,0.09152c-0.07926,0.0285 -0.16471,0.04402 -0.25378,0.04402c-0.41421,0 -0.75,-0.33579 -0.75,-0.75c0,-0.1879 0.0691,-0.35967 0.18328,-0.49127l0.59728,-0.69682l0.02571,0.02204l0.03734,-0.08719c0.58857,-0.42448 1.2365,-0.84001 1.9156,-1.21664l0.16045,-0.16045l0.0325,0.0325l0.04258,-0.0982c1.68438,-0.97249 3.0227,-2.2062 4.46137,-3.4684c0,0 0.56443,-0.49388 1.05831,0.07055c0.22179,0.25347 0.23015,0.49271 0.17205,0.67939c0.31501,-0.11881 0.62129,-0.19816 0.8145,0.01522c1.32973,1.46856 -0.47459,2.28525 -1.29834,2.60544c-0.07452,0.02897 -0.14903,0.0574 -0.22351,0.08537c0.07646,0.11752 0.12088,0.2578 0.12088,0.40846c0,0.25521 -0.12747,0.48064 -0.32221,0.61611l-0.69187,0.49419l-0.01076,-0.01507z" data-paper-data="{&quot;index&quot;:null}" fill="url(#color-36)" stroke="none" stroke-width="0.5"/><path d="M220.83239,212.21412c-0.1819,-0.72761 0.54571,-0.90951 0.54571,-0.90951l0.66311,-0.16529c-0.4876,-0.01337 -0.95888,-0.09035 -1.44259,-0.27675l-0.10196,0.2719l-0.78361,-0.29385c-0.29289,-0.10209 -0.50305,-0.3807 -0.50305,-0.70839c0,-0.05159 0.00521,-0.10196 0.01513,-0.15062c-0.24957,-0.0629 -0.50539,-0.14907 -0.76973,-0.26402c0,0 -0.68536,-0.3046 -0.38075,-0.98996c0.3046,-0.68536 0.98996,-0.38075 0.98996,-0.38075c1.66886,0.76214 3.00845,-0.04907 4.7274,-0.05264l0.68847,-0.25818c0.08639,-0.03472 0.18072,-0.05382 0.27953,-0.05382c0.41421,0 0.75,0.33579 0.75,0.75c0,0.23689 -0.10983,0.44813 -0.28135,0.58558l0.22659,-0.02832c0.03423,-0.00478 0.06921,-0.00726 0.10476,-0.00726c0.41421,0 0.75,0.33579 0.75,0.75c0,0.20711 -0.08395,0.39461 -0.21967,0.53033l-0.8,0.8l-0.15157,-0.15157c-0.62535,0.63556 -1.3142,0.92124 -2.56906,1.34133l-0.82779,0.20752c0,0 -0.72761,0.1819 -0.90951,-0.54571z" data-paper-data="{&quot;index&quot;:null}" fill="url(#color-37)" stroke="none" stroke-width="0.5"/><path d="M238.91,210.53221c0,-0.61712 0.50779,-0.72646 0.68772,-0.74583c0.38391,-0.51816 0.62959,-1.08971 0.86068,-1.66647c-0.53456,0.35099 -1.1432,0.66317 -1.88235,0.98526l0.34795,-1.77047c0.83532,-1.33542 1.52404,-2.34698 1.90839,-3.8844c0,0 0.1819,-0.72761 0.90951,-0.54571c0.54634,0.13659 0.57989,0.58085 0.5627,0.79373c0.05014,-0.01056 0.10212,-0.01612 0.1554,-0.01612c0.41421,0 0.75,0.33579 0.75,0.75c0,0.01805 -0.00064,0.03596 -0.00189,0.0537l-0.09314,1.49017l-0.43674,-0.0273c-0.01262,0.01709 -0.02522,0.03409 -0.03782,0.05099c-0.20258,1.77948 -0.97284,3.60893 -2.10425,5.01258l-0.87617,0.26986c0,0 -0.75,0 -0.75,-0.75z" data-paper-data="{&quot;index&quot;:null}" fill="url(#color-38)" stroke="none" stroke-width="0.5"/></g></g></svg>