<svg version="1.1" xmlns="http://www.w3.org/2000/svg" xmlns:xlink="http://www.w3.org/1999/xlink" width="176.92802" height="38.77878" viewBox="0,0,176.92802,38.77878"><defs><radialGradient cx="240.00001" cy="179.82078" r="79.66424" gradientUnits="userSpaceOnUse" id="color-1"><stop offset="0" stop-color="#ff0000"/><stop offset="1" stop-color="#ff0000" stop-opacity="0"/></radialGradient><linearGradient x1="240.00001" y1="161.16829" x2="240.00001" y2="198.83172" gradientUnits="userSpaceOnUse" id="color-2"><stop offset="0" stop-color="#950000"/><stop offset="1" stop-color="#ff0000"/></linearGradient><linearGradient x1="239.89124" y1="165.18328" x2="239.89124" y2="198.62255" gradientUnits="userSpaceOnUse" id="color-3"><stop offset="0" stop-color="#950000"/><stop offset="1" stop-color="#ff0000"/></linearGradient><linearGradient x1="152.96266" y1="181.11745" x2="186.2712" y2="181.11745" gradientUnits="userSpaceOnUse" id="color-4"><stop offset="0" stop-color="#000000"/><stop offset="1" stop-color="#ff0000"/></linearGradient><linearGradient x1="328.89068" y1="182.24085" x2="295.58214" y2="182.24085" gradientUnits="userSpaceOnUse" id="color-5"><stop offset="0" stop-color="#000000"/><stop offset="1" stop-color="#ff0000"/></linearGradient></defs><g transform="translate(-152.46266,-160.68632)"><g data-paper-data="{&quot;isPaintingLayer&quot;:true}" fill-rule="nonzero" stroke-linecap="butt" stroke-linejoin="miter" stroke-miterlimit="10" stroke-dasharray="" stroke-dashoffset="0" style="mix-blend-mode: normal"><path d="M319.66425,179.82078c0,14.08671 -36.78434,19.36026 -80.78169,19.36026c-43.99734,0 -78.54679,-5.27355 -78.54679,-19.36026c0,-14.08671 35.38753,-19.0809 79.38487,-19.0809c43.99734,0 79.9436,4.99419 79.9436,19.0809z" fill="url(#color-1)" stroke="none" stroke-width="0"/><path d="M192.38009,198.21517l-1.11019,-32.62683c0,0 5.7867,-4.40202 7.18533,-4.40202c7.27066,0 69.075,-0.10073 82.34805,0.17401c1.62612,0.03366 7.92684,4.83146 7.92684,4.83146l-1.1102,31.82222c0,0 -4.6927,0.58014 -6.82419,0.62446c-14.72042,0.30612 -74.77937,0.15686 -82.14016,0.15686c-1.50358,0 -6.27549,-0.58017 -6.27549,-0.58017z" fill="url(#color-2)" stroke="#000000" stroke-width="1"/><path d="M192.15806,197.1822v-30.57485c0,0 0.50734,-1.40806 2.05738,-1.40806c8.05778,0 76.55306,-0.08945 91.26307,0.15449c1.80217,0.02989 2.14094,1.25356 2.14094,1.25356v30.57485c0,0 0.21294,1.22944 -2.1493,1.26879c-16.31405,0.27178 -82.875,0.13927 -91.03266,0.13927c-1.66637,0 -2.27942,-1.40806 -2.27942,-1.40806z" fill="url(#color-3)" stroke="#000000" stroke-width="1"/><text transform="translate(197.78126,187.72429) scale(0.5,0.5)" font-size="40" xml:space="preserve" fill="#000000" fill-rule="nonzero" stroke="none" stroke-width="1" stroke-linecap="butt" stroke-linejoin="miter" stroke-miterlimit="10" stroke-dasharray="" stroke-dashoffset="0" font-family="Sans Serif" font-weight="normal" text-anchor="start" style="mix-blend-mode: normal"><tspan x="0" dy="0">Spila leik</tspan></text><path d="M176.08753,184.14113c0,0 -13.85081,0.00586 -20.14138,0.00586c-1.6478,0 -2.98349,-1.33599 -2.98349,-2.98349c0,-1.6478 1.33569,-2.98325 2.98349,-2.98325c5.27394,0 20.12519,-0.00616 20.12519,-0.00616c0,0 -0.99706,-1.00902 -5.59675,-5.60842c-1.1652,-1.16526 -1.1652,-3.05406 0,-4.21901c1.1658,-1.16495 3.05436,-1.16526 4.21931,0c3.72969,3.72915 10.70359,10.70382 10.70359,10.70382c1.16495,1.16526 1.16495,3.0543 0,4.21901c0,0 -6.01828,6.01852 -10.61792,10.61821c-1.1658,1.1658 -3.0546,1.1658 -4.21931,0c-1.16526,-1.16502 -1.16526,-3.05436 0,-4.21846c3.72976,-3.73084 5.52727,-5.52812 5.52727,-5.52812z" fill="url(#color-4)" stroke="#000000" stroke-width="1"/><path d="M311.29308,190.79265c1.16526,1.16411 1.16526,3.05345 0,4.21847c-1.16471,1.1658 -3.05351,1.1658 -4.21931,0c-4.59963,-4.59969 -10.61792,-10.61821 -10.61792,-10.61821c-1.16496,-1.16471 -1.16496,-3.05375 0,-4.21901c0,0 6.97389,-6.97467 10.70359,-10.70383c1.16496,-1.16526 3.05351,-1.16495 4.21931,0c1.16519,1.16495 1.16519,3.05375 0,4.21901c-4.59969,4.59939 -5.59675,5.60842 -5.59675,5.60842c0,0 14.85125,0.00616 20.12519,0.00616c1.6478,0 2.98349,1.33545 2.98349,2.98325c0,1.6475 -1.33569,2.98349 -2.98349,2.98349c-6.29057,0 -20.14138,-0.00586 -20.14138,-0.00586c0,0 1.79751,1.79728 5.52727,5.52812z" data-paper-data="{&quot;index&quot;:null}" fill="url(#color-5)" stroke="#000000" stroke-width="1"/></g></g></svg>