<svg version="1.1" xmlns="http://www.w3.org/2000/svg" xmlns:xlink="http://www.w3.org/1999/xlink" width="85.15706" height="69.64068" viewBox="0,0,85.15706,69.64068"><g transform="translate(-231.42146,-150.48206)"><g data-paper-data="{&quot;isPaintingLayer&quot;:true}" fill-rule="nonzero" stroke-linecap="butt" stroke-linejoin="miter" stroke-miterlimit="10" stroke-dasharray="" stroke-dashoffset="0" style="mix-blend-mode: normal"><path d="M248.35474,160.02069c-0.42495,-0.27037 -0.78121,-0.29224 -1.34434,-0.57439c-3.54084,-1.7741 -5.35134,0.94879 -7.09966,3.68424c-0.43166,0.27588 -1.21113,0.62747 -1.51411,1.02872c-0.43074,0.57047 -0.35754,1.64246 -0.56966,2.27879c-0.63787,1.91363 -2.79275,5.17299 0.96049,5.20545h0.2253c-0.13861,0.3905 -0.1688,0.7736 -0.02371,1.12539c0.18575,0.4504 0.97787,0.73614 1.33756,1.00615c1.58418,1.18923 3.27118,2.18237 5.33205,1.66714c1.8744,0.01487 3.87331,-0.1738 5.77348,-0.39845c0.02359,0.04187 0.05562,0.08411 0.09813,0.12662c0.34684,0.34684 0.62932,0.01156 0.62932,0.01156l0.00332,-0.03899c0.10247,-0.06287 0.26352,-0.14805 0.35435,-0.23166c1.53487,-0.17591 3.13964,0.28857 4.70414,0.25628c0.23245,-0.11369 0.40147,-0.21139 0.63391,-0.32508l0.28004,-0.22727c0.27208,0.26243 0.58945,0.45434 0.95312,0.55095c1.64996,0.43834 3.5656,-0.26839 5.21101,-0.25533c2.14706,0 4.6508,0.33779 6.64777,-0.42756c0.6986,-0.26774 1.25388,-0.97388 1.89846,-1.32543c1.08219,-0.59022 2.16511,-0.91876 3.27785,-1.51179c1.19465,0.02896 5.90208,-0.43836 3.31454,-2.43815c-1.09893,-0.84931 -2.73747,-0.51322 -3.92146,-0.97488c-1.12392,-0.43825 -2.2526,-1.02157 -3.35585,-1.67643c-1.36558,-0.32912 -2.47405,-1.83374 -3.96113,-1.86495c-2.08134,-0.04369 -4.20103,0.51329 -6.25914,0.51329c0,0 -0.20313,-0.0008 -0.34801,0.13062c-1.42448,0.00192 -0.29117,-0.0698 0.53118,-0.92298c0.16526,-0.17145 0.23319,-0.40363 0.28709,-0.64363c1.69153,-0.3382 3.45031,-0.64836 5.11297,-1.05319l0.11866,0.12021c0,0 0.4676,0.15483 0.6227,-0.31052c0.15511,-0.46534 -0.30315,-0.55545 -0.30315,-0.55545l-0.66449,-0.14163c-0.88598,0.22872 -1.8263,0.05092 -2.7129,0.25335c-0.5628,0.1285 -1.09381,0.31226 -1.62398,0.50581c0.96032,-1.07345 2.9824,-1.68881 4.07249,-2.23561c0.99711,-0.16274 2.03616,-0.62701 3.06682,-0.50329c1.3671,0.1641 2.57766,0.8452 3.88192,1.1704c0.99574,0.24827 1.69451,0.17202 2.57136,0.83412l0.42593,0.09871c0,0 0.45042,0.05167 0.45042,-0.43884c0,-0.41805 -0.35502,-0.47885 -0.46028,-0.48798c-0.93697,-0.64565 -1.716,-0.63184 -2.7877,-0.90064c-1.33126,-0.33391 -2.56132,-1.03731 -3.96679,-1.18424c-1.19616,-0.12505 -2.31914,0.34698 -3.4729,0.54308c-1.62842,0.81166 -3.20212,1.38904 -4.49906,2.73032c-0.01572,0.01626 -0.03066,0.03264 -0.04516,0.04934c-1.05917,-0.98537 -2.10689,-0.90596 -3.41579,-1.22924c-0.87039,-0.21498 -1.7406,-0.57688 -2.61429,-0.78663c-1.54532,-0.37099 -3.0284,0.35361 -4.48292,0.4125c-0.55106,0.51694 -1.37376,1.03173 -2.08565,1.30291l-0.44138,0.28228c-0.02086,-0.00627 -0.10054,-0.0412 -0.1216,-0.0472l0.00004,-0.07072c0,-1.21858 -0.06092,-1.97005 0.84481,-2.87578c1.50289,-0.7281 2.09092,-2.29524 3.49076,-3.11547c2.06895,-1.21232 4.56486,0.47058 6.45496,0.91108c0.58372,0.57706 3.00522,2.26702 3.83481,1.98602c0.87636,-0.29684 1.59005,-1.39718 2.41313,-1.85872c1.55376,-0.87124 3.40381,-1.04259 4.95986,-1.82062c4.15331,-2.12018 5.4754,3.67582 8.21211,5.10912c0,0 0.33066,0.16554 0.56136,-0.07698c0.31154,-0.03497 0.35201,-0.32475 0.35201,-0.32475c0.28468,-1.16862 1.43823,-1.75661 2.146,-2.70956c1.51196,-2.03566 2.59022,-3.95148 4.96656,-5.12879c4.05072,-2.02537 8.77678,0.13861 11.79582,3.10667c3.76547,1.8251 5.81711,6.46011 6.73618,10.13644c-0.02343,2.95281 -1.34467,5.62096 -3.62024,7.54921c-0.84183,0.71334 -1.80797,0.4098 -2.62323,1.18461c-2.44824,1.84116 -6.25498,1.30839 -8.24641,3.66453c-0.01036,0.00808 -0.08335,-0.00026 -0.09252,0.0082l0.15717,-0.12437c0,0 -0.49073,0.00083 -0.49073,0.49134c0,0.37781 0.29087,0.4651 0.42458,0.48503c0.47442,1.09778 1.18219,2.50191 1.91172,3.36458c0.36735,0.43439 0.80113,0.70401 1.16528,1.07613c-1.84943,1.73825 -3.53431,1.54862 -5.87515,2.19302c-0.87186,0.24 -2.21655,1.03356 -3.06869,1.45962c-3.89567,0.949 -7.97736,2.8037 -11.51611,4.58398c-1.12162,0.21634 -2.18863,0.09518 -3.30702,0.23958c-0.81003,0.10459 -1.51604,0.60266 -2.28016,0.79433c-1.73166,0.43433 -3.81418,0.31275 -5.53215,-0.13076c-1.47517,-0.35919 -3.0264,0.01393 -4.5237,-0.1455c-0.75384,-0.08026 -0.92113,-0.43352 -1.51938,-0.73039c-0.358,-0.17765 -0.73716,-0.30069 -1.12347,-0.39277c0.25068,0.00593 0.50638,-0.04683 0.66646,-0.04683c1.56563,-0.08222 2.45034,-1.64953 2.55468,-3.27179c3.18695,-0.02776 6.19252,-0.46052 9.2218,-1.20488c3.45474,-1.43013 9.54205,-1.32017 10.74641,-5.91015c0.41864,-0.82587 1.21958,-1.98498 0.7736,-2.96769c-0.50546,-1.1138 -2.85404,-2.45159 -4.0076,-1.92405c-1.43144,0.65461 -2.6118,2.684 -4.11157,2.99023c-1.47634,0.3931 -2.35328,1.88996 -3.74705,2.50936c-2.26129,1.00492 -5.00341,0.81288 -7.34384,1.39799c-3.84729,-0.03052 -7.34375,0.89456 -11.18808,0.13777c-1.67656,-0.65312 -3.5229,-0.6088 -5.25465,-1.05588l0.09709,-0.00175c0,0 -0.06417,-0.06428 -0.16482,-0.10981c0.17698,-0.9402 0.61791,-2.29342 1.18206,-2.4936c0.93574,-0.33204 1.89331,-0.77257 2.55884,-1.59886c0,0 0.29408,-0.3934 -0.09834,-0.6877c-0.39241,-0.29431 -0.62281,0.08421 -0.62281,0.08421c-0.48794,0.73533 -1.43783,0.94124 -2.14999,1.27896c-0.02124,0.01007 -0.10578,0.03662 -0.1267,0.04789c-0.06764,-0.04192 -0.15626,-0.06952 -0.2723,-0.06952c-0.16621,0 -0.21259,0.04073 -0.28525,0.11521c-0.05816,0 -0.17982,0.0156 -0.23797,0.0156c-1.98805,0.00831 -3.76036,0.46413 -5.6863,-0.3514c-1.81489,-0.76849 -3.05607,-3.53635 -4.17043,-5.00565c-2.44313,-1.83234 -1.09108,-4.73709 -0.52297,-7.26441c0.24952,-1.11 -0.64413,-2.8964 0.43587,-3.61077c1.1185,-2.70861 4.20724,-4.31036 6.44047,-5.92429c1.15159,-0.83224 1.6366,-2.12626 3.24693,-2.15192c2.89607,-1.68649 6.68654,-0.8145 9.13306,1.50182c-1.29379,0.84423 -1.94204,2.30728 -3.34938,3.02782c-0.5239,0.52391 -0.8287,1.00748 -1.00669,1.52894z" data-paper-data="{&quot;noHover&quot;:false,&quot;origItem&quot;:[&quot;Path&quot;,{&quot;applyMatrix&quot;:true,&quot;segments&quot;:[[[560.99097,276.93586],[-1.72208,0.86283],[10.82798,-5.42526]],[[582.71065,288.22267],[-5.34639,-8.3651],[1.32,0.84365]],[[587.34205,291.37284],[-0.9265,-1.22706],[1.31722,1.74454]],[[589.08563,298.34866],[-0.64864,-1.94593],[1.95065,5.85194]],[[586.14999,314.28333],[11.4775,-0.09923],[0,0]],[[585.46106,314.28333],[0,0],[0.42389,1.19419]],[[585.53355,317.72853],[0.44369,-1.07579],[-0.56804,1.37731]],[[581.44311,320.80897],[1.09993,-0.8257],[-4.84451,3.63668]],[[565.13672,325.91543],[6.30221,1.57555],[-5.73199,0.04547]],[[547.48088,324.69934],[5.81075,0.68698],[-0.07212,0.12803]],[[547.18066,325.08733],[0.12998,-0.12998],[-1.06066,1.06066]],[545.05933,325.08733],[[545.04917,324.96831],[0,0],[-0.31335,-0.19226]],[[544.16253,324.29454],[0.27774,0.2557],[-4.69366,-0.53795]],[[529.77537,325.08654],[4.78429,0.09872],[-0.71081,-0.34767]],[[527.64293,324.04353],[0.71081,0.34767],[0,0]],[[526.98114,323.39484],[0,0],[-0.83202,0.8025]],[[524.06462,325.08654],[1.11211,-0.29545],[-5.04562,1.34045]],[[508.12,324.32667],[5.03172,-0.03992],[-6.56581,0]],[[487.64565,323.04969],[6.1068,2.34044],[-2.13635,-0.81876]],[[481.80317,318.9443],[1.97114,1.07503],[-3.30937,-1.80488]],[[471.77537,314.28654],[3.40281,1.81351],[-3.65325,0.08856]],[[461.64293,306.8098],[-7.91278,6.11539],[3.36055,-2.5972]],[[473.64565,303.80364],[-3.62067,1.41179],[3.43695,-1.34015]],[[483.94597,298.64085],[-3.37379,2.00257],[4.17598,-1.00644]],[[496.12,292.92667],[-4.54751,0.09545],[6.36479,-0.13359]],[[515.32,294.52667],[-6.29374,0],[0,0]],[[516.38642,294.92855],[-0.44302,-0.40189],[4.3561,0.00586]],[[514.61941,292.24584],[2.51477,2.60905],[-0.50536,-0.5243]],[[513.74606,290.28158],[0.16479,0.73391],[-5.17276,-1.03421]],[[498.15619,287.08188],[5.08444,1.23803],[0,0]],[497.79434,287.44969],[[495.89697,286.50101],[0.47434,1.42302],[-0.47434,-1.42302]],[496.84565,284.60364],[[498.8838,284.17145],[0,0],[2.70934,0.69945]],[[507.20366,284.95373],[-2.71127,-0.61903],[1.72106,0.39295]],[[512.0731,286.67491],[-1.62129,-0.59192],[-2.93666,-3.28263]],[[499.65613,279.85314],[3.33355,1.67211],[-3.0492,-0.49765]],[[490.30327,278.31543],[3.15178,-0.37832],[-4.18065,0.50182]],[[478.46462,281.88654],[3.98848,-0.99447],[-3.04497,0.75922]],[[470.62,284.42667],[2.68144,-2.02473],[0,0]],[469.32,284.72667],[[467.82,283.22667],[0,1.5],[0,-1.27844]],[[469.23149,281.7315],[-0.32188,0.02789],[2.86528,-1.9744]],[[477.77537,278.96679],[-3.27729,0.82201],[4.07105,-1.02111]],[[489.93672,275.3379],[-4.298,0.44933],[3.65791,-0.38241]],[[500.58386,277.00019],[-3.52827,-0.59966],[4.97977,2.48207]],[[514.38066,285.366],[-3.96607,-4.10169],[0.04808,0.04972]],[[514.51923,285.51719],[-0.04435,-0.05105],[3.239,-3.0133]],[[524.97537,281.76679],[-4.00267,0.98863],[2.66168,-0.65741]],[[532.97537,279.36679],[-2.67175,0.64141],[4.72563,-1.1345]],[[546.69402,280.64085],[-4.44799,-0.18006],[1.68515,1.58083]],[[553.07708,284.63395],[-2.17697,-0.8293],[0,0]],[[554.42775,285.49898],[0,0],[0.06378,-0.0192]],[[554.62,285.44267],[-0.06438,0.01834],[0,0]],[[554.62,285.22667],[0,0],[0,-3.72647]],[[552.04293,276.44353],[2.76975,2.76975],[-4.5959,-2.22654]],[[541.38095,266.93196],[4.28075,2.50832],[-6.3269,-3.70727]],[[521.65904,269.73196],[5.77999,-1.34707],[-1.78503,1.76467]],[[509.94597,275.81248],[2.53688,0.85929],[-2.67995,-0.90775]],[[502.58511,270.13431],[2.51701,1.41137],[-4.75146,-2.6643]],[[487.44917,264.56831],[4.75844,2.37922],[-12.70094,-6.48357]],[[462.39082,280.16831],[8.36891,-4.38308],[0,0]],[[460.67596,279.93135],[0.70549,0.74164],[-0.9527,-0.10697]],[[459.46478,278.79047],[0,0],[-0.87056,-3.57369]],[[452.90313,270.50373],[2.16441,2.91412],[-4.62359,-6.22511]],[[437.84917,254.96831],[7.26692,3.60024],[-12.38725,-6.19363]],[[401.79706,264.44353],[9.23234,-9.0764],[-11.51493,5.58118]],[[381.20876,295.40994],[2.81057,-11.2423],[0.07163,9.02977]],[[392.28112,318.47504],[-6.95877,-5.89665],[2.57433,2.18141]],[[400.3028,322.09348],[-2.4931,-2.3694],[7.48676,5.6303]],[[425.51759,333.28137],[-6.08988,-7.20513],[0.03165,0.02471]],[[425.60709,333.3573],[-0.02804,-0.02588],[0,0]],[425.32,332.92667],[[426.82,334.42667],[0,-1.5],[0,1.15536]],[[425.52116,335.90847],[0.40893,-0.06099],[-1.45082,3.35704]],[[419.67162,346.18779],[2.23089,-2.63806],[-1.12338,1.32841]],[[416.10737,349.47685],[1.11362,-1.13798],[5.65561,5.31564]],[[434.06462,356.16679],[-7.15838,-1.97059],[2.66614,0.73395]],[[443.44041,360.61984],[-2.60584,-1.30292],[11.91306,2.90207]],[[478.6068,374.60786],[-10.82162,-5.44415],[3.42993,0.66159]],[[488.70327,375.3379],[-3.42008,-0.44159],[2.47707,0.31983]],[[495.66462,377.76679],[-2.33671,-0.5861],[5.29545,1.32821]],[[512.55619,377.37145],[-5.25358,1.35627],[4.51113,-1.09843]],[[526.37219,376.93397],[-4.57882,0.48755],[2.30528,-0.24547]],[[531.01221,374.70415],[-1.8295,0.90784],[1.09479,-0.54326]],[[534.4437,373.5058],[-1.18134,0.28163],[-0.76659,0.01812]],[[532.52,373.52667],[0.48951,0],[-4.78774,-0.25145]],[[524.7065,363.52225],[0.31906,4.96091],[-9.74579,-0.08489]],[[496.45849,359.85391],[9.26365,2.27628],[-10.56469,-4.37339]],[[463.51317,341.74708],[3.68297,14.0363],[-1.2802,-2.5255]],[[461.13418,332.65264],[-1.3638,3.00515],[1.54574,-3.40605]],[[473.56465,326.67226],[-3.52761,-1.61321],[4.37738,2.00182]],[[486.0838,335.77145],[-4.58634,-0.9365],[4.51469,1.20211]],[[497.49402,343.44085],[-4.2622,-1.89412],[6.91509,3.07307]],[[519.90327,347.7379],[-7.15708,-1.78927],[11.76513,-0.09333]],[[554.09257,348.18885],[-11.75605,2.31428],[5.12696,-1.99725]],[[570.15619,344.97145],[-5.29575,1.36716],[0,0]],[569.85933,344.966],[[570.36315,344.63074],[-0.30779,0.13924],[-0.54121,-2.87515]],[[566.74597,337.01248],[1.72519,0.61217],[-2.86153,-1.0154]],[[558.92,332.12667],[2.03519,2.52684],[0,0]],[[559.22,330.02667],[-1.2,0.9],[1.2,-0.9]],[[561.32,330.32667],[0,0],[1.49215,2.24865]],[[567.89402,334.24085],[-2.17779,-1.03273],[0.06495,0.0308]],[[568.08744,334.33878],[-0.064,-0.03447],[0.20682,-0.12817]],[[568.92,334.12667],[-0.35484,0],[0.5083,0]],[[569.98652,334.52667],[-0.22218,-0.22775],[0.17782,0]],[[570.52,334.52667],[-0.17782,0],[6.07954,0.02539]],[[587.90774,333.45731],[-5.88958,2.49391],[5.54998,-2.3501]],[[600.65933,318.166],[-3.40773,4.4932],[7.47119,-5.60339]],[[602.26012,295.97129],[1.73731,7.72861],[-0.76303,-3.39441]],[[600.92942,284.9391],[3.3027,2.18455],[-3.42042,-8.28302]],[[581.24293,266.84353],[6.82929,4.93543],[-3.52158,-2.545]],[[571.31959,260.27224],[4.92444,0.07849],[-8.8563,-5.15735]],[[543.54248,264.73616],[7.48158,-7.08337],[3.95644,2.58169]],[[553.79706,274.0098],[-4.30369,-2.20344],[1.60211,1.60211]],[[556.87958,278.69178],[-0.54429,-1.59464],[1.29951,-0.8268]]],&quot;closed&quot;:true}],&quot;index&quot;:null}" fill="#5c8d3c" stroke="#000000" stroke-width="0"/><path d="M295.68949,212.69496c-0.28356,0.43449 -0.54488,0.86004 -1.0122,1.22252c-0.9032,0.90749 -1.95435,1.14899 -2.91225,1.85861c-2.14637,1.59002 -5.27965,3.4898 -8.07506,3.4898c-0.75357,0.1884 -1.46725,0.03608 -2.22365,0.1308c-3.47209,0.43486 -6.32798,1.37524 -9.43219,-0.92482c-0.33478,-0.45908 -0.88691,-0.59866 -1.3869,-0.78232c-0.14531,0.14116 -0.35912,0.14116 -0.35912,0.14116c-1.80383,0 -3.15913,-0.54068 -4.82161,-0.92874c-1.66484,-0.38862 -3.45481,-0.17724 -5.028,-0.93297c-0.99359,-0.24204 -2.26683,-0.3824 -3.31906,-0.73488c-0.12848,0.24213 -0.43486,0.24214 -0.43486,0.24214c-3.62511,0 -8.61508,-0.29052 -8.58719,-5.05052c0.57277,-1.17103 1.19774,-1.49773 2.33941,-1.54776c-0.04019,-0.09375 -0.07541,-0.18767 -0.10509,-0.28148c-0.08344,-0.20758 -0.16688,-0.41517 -0.25031,-0.62276l-0.21431,-0.3025c0,0 -0.00707,-0.0106 -0.01722,-0.02953c-0.09181,0.005 -0.18489,0.0076 -0.27936,0.0076l-0.55762,-0.69855c0,0 -0.00481,-0.01925 -0.00863,-0.05098c-0.59698,-0.53347 -1.10922,-1.24945 -1.48984,-1.94945c-1.95953,0.29474 -3.94098,-0.49295 -3.89075,-2.92055c0.76987,-1.21688 1.80542,-2.14966 3.05082,-2.66842c-0.04705,-0.11147 -0.04705,-0.21424 -0.04705,-0.21424l0.02517,-0.00838c-0.06079,-0.18902 -0.12156,-0.37804 -0.18234,-0.56706c-0.02761,-2.48009 -0.15159,-5.25916 1.11608,-7.50716c0.24402,-0.43273 0.64972,-0.76526 1.02764,-1.11418c-0.33621,-0.34468 0.00635,-0.68725 0.00635,-0.68725l0.2616,-0.26161c0.86416,-0.69289 1.68072,-0.41379 2.4649,0.34133c0.44299,0.21712 0.87667,0.71687 1.32378,1.01412c-0.4575,-0.47748 -0.70338,-1.23896 -1.32906,-1.62817c-0.77354,-0.48119 -2.50292,0.07058 -3.49956,0.35323c-0.14054,0.10284 -0.31367,0.10285 -0.31367,0.10285c-0.02762,-0.00102 -0.05515,-0.00235 -0.08262,-0.00395c-0.05356,0.00474 -0.13145,0.00486 -0.21187,-0.01829c-3.03172,-0.34633 -5.03576,-4.23063 -5.03576,-7.00843l0.69184,-0.38437c0.09781,-0.76341 0.38214,-1.75778 0.81964,-2.52586c-2.03528,0.01369 -3.95765,0.47276 -5.9301,-0.43529c-2.00786,-0.92433 -3.23446,-3.54349 -4.46314,-5.20227c-1.05513,-0.79136 -2.17674,-2.18316 -1.83099,-3.59882c0.13944,-0.57094 0.57192,-1.03966 0.64457,-1.64769c0.12782,-1.06964 0.10118,-1.88846 0.40186,-2.93043c0.38988,-1.35109 -0.70763,-2.89315 0.61128,-3.97896c1.06137,-2.75051 4.38062,-4.52242 6.64268,-6.11649c1.22032,-0.85996 1.81473,-2.33058 3.55676,-2.29845c3.24412,-2.01243 7.6456,-0.62957 10.28341,1.9526c2.25809,-0.74974 4.65343,0.68978 6.7012,1.23254c0.66779,0.67582 1.6757,0.93182 2.43416,1.62592c0.15252,0.13957 0.36684,0.42676 0.53733,0.30979c0.77656,-0.53278 1.44886,-1.33527 2.30185,-1.80569c1.57331,-0.86767 3.43065,-1.06195 4.99147,-1.84236c2.92933,-1.4403 5.27483,0.57032 7.13008,2.7334c0.56976,0.66427 0.93243,1.65978 1.62989,2.18045c0.44331,-1.11854 1.43321,-1.68532 2.17973,-2.66908c1.63577,-2.15562 2.7489,-4.10857 5.27988,-5.38405c4.3152,-2.15759 9.58574,-0.10068 12.80166,3.18008c3.99819,2.05419 6.13293,6.80358 7.1326,10.80225c0.02073,3.28981 -1.46871,6.25697 -3.96583,8.41551c-0.8244,0.71262 -1.94371,0.45609 -2.60897,1.17119c-1.24781,0.93387 -2.9632,1.49766 -4.31938,2.04466c-1.20642,0.48661 -2.76318,0.2321 -3.68557,1.32195c0.40788,0.99679 1.12627,2.39219 1.78161,3.14271c0.5486,0.62829 1.17847,0.9789 1.62548,1.68581c0.14157,0.04668 0.3197,0.16415 0.3197,0.45974c0,0.08138 -0.0135,0.14927 -0.03602,0.20588c0.97526,2.54431 3.13819,4.3975 4.34816,6.79017l0.01536,0.06586c0.04426,0.05338 0.06639,0.09765 0.06639,0.09765c1.61482,3.22964 1.71083,6.27275 1.68049,9.78117c-0.44223,1.36243 -0.78137,2.75274 -1.23003,4.11834c0.00008,0.00037 0.00017,0.00071 0.00026,0.00108l0.00983,-0.02864c0,0 -0.00001,0.0214 -0.00448,0.05528c0.00931,0.05487 0.0097,0.11748 -0.0022,0.18885c-0.05869,0.35212 -0.33091,0.40526 -0.47479,0.40811c-0.23474,0.97724 -0.44009,2.0233 -0.82361,2.95986c0.70645,0.04614 1.52678,0.1452 2.12599,-0.00681c0.70507,-0.17888 1.30488,-0.71565 2.03537,-0.89827c3.38127,-1.69064 6.39137,-5.20759 5.31885,-9.36202c-0.43363,-1.78083 -1.4371,-2.81225 -2.07702,-4.5269c-0.56536,-1.51485 -0.8761,-3.32805 -1.00489,-5.0516c0.02752,-0.09916 0.04629,-0.20196 0.05541,-0.30753c0.31978,0.22709 0.63878,0.45533 0.95819,0.68231c0.13753,1.49713 0.4212,3.03685 0.91144,4.33649c0.64895,1.72036 1.64225,2.82263 2.10867,4.62933c1.14037,4.68338 -2.06842,8.58915 -5.93022,10.52005c-0.76939,0.19234 -1.39569,0.74613 -2.15034,0.93296c-0.83831,0.20755 -1.97462,0.01499 -2.84694,0.01313c-0.70538,1.06848 -1.82041,1.76678 -2.66437,2.70549l0.09545,0.09592c0.29569,0.22177 0.58416,0.45793 0.83592,0.72854c3.07884,0.71755 7.85888,0.81891 10.78804,-0.6659c0.86997,-0.42146 1.36366,-1.29198 2.18514,-1.80977l-0.00002,-0.00001c2.09762,-1.32218 3.82708,-2.81126 4.48917,-5.45008c-0.05174,-0.18774 0.03889,-0.36898 0.03889,-0.36898l0.09366,-0.16121c0.15002,-0.53886 0.60652,-0.87066 0.64305,-1.3798c0.18916,-2.63601 -0.69754,-5.41512 -2.26004,-7.49395c-0.62503,-0.85621 -0.69684,-1.91613 -1.21166,-2.7995c-0.25983,-0.44585 -0.67214,-0.82313 -1.02167,-1.23637c0.61617,0.31185 1.24954,0.58676 1.90698,0.81065c0.02753,0.05141 0.05361,0.10352 0.07844,0.15621c0.0353,0.11946 0.08337,0.23344 0.14263,0.34036c0.27231,0.72521 0.40514,1.51635 0.89008,2.14c1.62531,2.17141 2.8307,5.41666 2.44889,8.20244c-0.09981,0.72827 -0.53295,0.85125 -0.66499,1.49787l-0.12912,0.27831c0.02688,0.13059 -0.00168,0.24491 -0.00168,0.24491c-0.71364,2.85458 -2.60856,4.61785 -4.92691,6.05362c-0.85683,0.53066 -1.35118,1.38631 -2.26216,1.85271c-3.24223,1.60257 -8.32555,1.53922 -11.71012,0.64213c-0.31487,-0.29924 -0.64783,-0.58048 -0.99534,-0.8411zM250.77326,190.13866c-0.18678,-0.1955 -0.5346,-0.48939 -0.81678,-0.57251c0.10425,0.24978 -0.08466,0.48592 -0.08466,0.48592c-0.39832,0.49651 -1.13704,0.92903 -1.42368,1.48127c-1.117,2.15195 -0.97355,4.54512 -1.00947,6.8812c0.04822,0.13799 0.09645,0.27598 0.14467,0.41397l0.01847,0.23384c0.44462,-0.10387 0.91079,-0.15894 1.39649,-0.16047l0.10813,-0.02499c0.00396,-0.62678 0.27923,-1.28854 0.93481,-1.95689c0,0 0.34684,-0.34684 0.69369,0c0.34684,0.34684 0,0.69369 0,0.69369c-2.17513,2.12065 1.5726,4.02664 3.33089,4.31969l0.24636,-0.00667c0,0 0.49051,0 0.49051,0.49051c0,0.49051 -0.49051,0.49051 -0.49051,0.49051l-0.40765,-0.00667c-0.60879,-0.10146 -1.29958,-0.32984 -1.96354,-0.65678c-1.14209,0.78325 -1.97192,1.93848 -3.35575,2.43546c-0.02922,0.0105 -0.05855,0.02076 -0.08796,0.03077c0.33501,0.58341 0.79625,1.17866 1.29797,1.5748l0.07644,0.02604c0,0 0.2157,0.10784 0.26899,0.32355c1.84684,-0.21667 3.21162,-1.42607 5.06501,-1.83898c1.28219,-0.28566 2.91475,-0.24811 4.03298,-0.96786c1.72299,-0.04556 3.32138,-0.28061 5.00681,-0.42814c1.36657,-0.11961 2.72042,0.24004 4.09326,0.15583c-0.00951,-0.00801 -0.01903,-0.016 -0.02854,-0.02398c-1.57837,-3.5093 2.35553,-6.16664 5.5286,-6.79734c0.08519,-0.50405 0.52572,-0.97169 1.54928,-1.35812c0,0 0.46533,-0.15512 0.62045,0.31023c0.15513,0.46534 -0.31022,0.62045 -0.31022,0.62045c-2.37664,0.60101 0.43234,2.40394 1.04174,3.14777c0.39754,0.48524 0.53514,1.69745 1.11641,1.98336c0.56992,0.28032 1.13605,-0.41497 1.62381,-0.79608c0.03057,-0.14407 0.1332,-0.3858 0.47753,-0.3858c0.49051,0 0.49051,0.49052 0.49051,0.49052l-0.33539,0.62885c-0.85403,0.21597 -1.40742,1.58529 -2.63188,0.96885c-0.19896,-0.10016 -0.3536,-0.22343 -0.4789,-0.36234c-0.39605,0.78429 -1.28112,1.5933 -2.31296,2.21283c0.76485,0.16676 1.36897,-0.32231 2.18976,-0.46336c1.01345,-0.17416 2.08238,0.09279 3.10451,-0.08141c1.42418,-0.23736 2.24394,0.31255 3.55469,0.40376c2.47089,0.17193 4.88506,-0.00421 7.36555,0.40823c1.96465,-0.5843 4.37789,-0.07074 6.36311,0.08184c0.93102,0.07156 1.6904,-0.27548 2.56547,-0.27895c0.42361,-1.28716 0.72938,-2.61494 1.16669,-3.88846c-0.03459,-3.14233 -0.05078,-5.81617 -1.35977,-8.70314c-0.21985,-0.09898 -0.27208,-0.36007 -0.27208,-0.36007l-0.0395,-0.28559c-1.22518,-2.4844 -3.46394,-4.36995 -4.44168,-7.02691c-1.88487,1.69242 -3.72331,1.77706 -6.17257,2.29316c-0.76269,0.16071 -2.17054,1.03126 -2.95099,1.42149c-3.92321,1.00142 -7.93371,2.79864 -11.52167,4.58203c-1.19944,0.24717 -2.30557,0.14174 -3.50014,0.28448c-0.76512,0.09143 -1.44338,0.59398 -2.17089,0.77537c-1.90357,0.47462 -4.09838,0.32754 -5.98701,-0.13233c-1.40791,-0.36346 -2.94016,0.0463 -4.37668,-0.11854c-0.83942,-0.09632 -1.22169,-0.50631 -1.88356,-0.84047c-1.06322,-0.53677 -2.32612,-0.45117 -3.41292,-0.7399c-0.80374,-0.21353 -1.39268,-1.0092 -2.13616,-1.3875zM265.69193,215.94719c1.40805,0.29989 2.52654,0.76275 3.94742,0.87656c-0.17361,-0.77368 0.51351,-2.09387 0.99588,-2.48223c0.88545,-0.71287 2.84911,-0.59547 3.93004,-0.99305c1.23469,-0.45414 2.19607,-1.47358 3.42015,-1.96872c1.85477,-0.46757 4.1518,-0.80861 6.03706,-0.80861h0.2616c0,0 0.49051,0 0.49051,0.49051c0,0.49051 -0.49051,0.49051 -0.49051,0.49051h-0.2616c-1.79883,0 -3.96172,0.32184 -5.73523,0.76102c-1.75432,0.69133 -3.11512,2.02638 -5.00874,2.49593c-0.47042,0.11664 -1.6435,-0.04823 -2.02943,0.29764c-0.11388,0.10205 -0.81959,1.27642 -0.67449,1.45235c0.4455,0.5402 1.58687,0.48211 2.15325,1.21907c2.75293,2.10715 5.54547,1.02838 8.61864,0.64484c0.75927,-0.09477 1.47176,0.05717 2.22365,-0.1308c2.71409,0 5.50165,-1.84142 7.62131,-3.31197c0.98781,-0.68531 1.94569,-0.91022 2.84308,-1.80388c0.66435,-0.47717 0.86659,-1.1751 1.38363,-1.77499c0.88407,-1.02572 2.13917,-1.74325 2.82742,-2.93585c0.54031,-0.93626 0.76716,-2.11442 1.01596,-3.19921c-0.67135,0.08408 -1.32986,0.3052 -2.06436,0.25623c-1.98576,-0.13238 -4.25396,-0.62486 -6.22671,-0.08167c-2.52056,-0.31986 -5.02045,-0.17646 -7.51332,-0.40929c-1.28533,-0.12005 -1.95222,-0.64047 -3.31248,-0.41377c-1.02716,0.16791 -2.09351,-0.07935 -3.10865,0.0821c-1.25223,0.19915 -1.93716,0.8197 -3.24101,0.1998l0.05586,0.05179c0,0 -0.22283,0 -0.36812,-0.15019c-1.14685,0.46868 -2.3138,0.64066 -3.10641,0.26906c-0.37928,-0.17782 -0.73175,-0.42468 -1.06968,-0.6945c-0.10047,0.06211 -0.19852,0.07846 -0.19852,0.07846c-1.61414,0.26387 -3.18688,-0.20113 -4.7818,-0.07675c-1.62959,0.12708 -3.12436,0.45842 -4.80344,0.38938c-1.07166,0.74328 -2.87907,0.73749 -4.14223,0.99421c-1.65432,0.33622 -2.91671,1.31451 -4.47402,1.71458l0.0856,0.13366c0.09097,0.22842 0.18193,0.45685 0.27289,0.68527c0.10254,0.8062 1.32082,1.84058 2.04374,2.36905c1.2734,0.93087 2.08644,2.60136 3.50276,3.38155c1.07469,0.592 2.76956,0.69794 3.96721,1.00364c1.48312,0.77785 3.30047,0.55483 4.91302,0.89826zM268.19529,165.64027c-0.71038,0.02331 -1.42482,0.09136 -2.13984,0.17099c-0.06401,-0.0073 -0.12909,-0.01106 -0.19504,-0.01106c-0.11458,0 -0.22651,0.01133 -0.33475,0.03294c-0.18278,-0.06714 -0.38028,-0.1038 -0.58634,-0.1038c-0.32541,0 -0.62947,0.09141 -0.88791,0.24994c-0.29855,-0.00739 -0.56738,0.00898 -0.78347,0.04987c-0.28703,0.05433 -3.05609,1.69877 -4.24642,3.19719c-0.26478,0.20336 -0.60601,0.42899 -0.80928,0.67425c0.02892,0.13925 0.02546,0.35933 -0.2186,0.50405c-0.24751,1.15688 0.03062,3.53637 1.28893,3.81634c0.40054,0.08911 0.81399,0.11687 1.23377,0.10829c0.1074,0.03543 0.20594,0.05471 0.28931,0.05471c2.8993,0 7.55693,0.33251 10.22703,-1.00254c0.09974,-0.04987 0.24104,-0.16183 0.39932,-0.31602c-0.00236,0.0052 -0.00473,0.0104 -0.00711,0.01558c0.33386,-0.28144 0.65973,-0.59905 0.9833,-0.77556c1.14075,-0.6223 2.33719,-1.04553 3.5226,-1.61614c1.19129,-0.02039 2.22666,0.0298 3.26505,-0.3568c0.14348,-0.05342 -2.17682,-0.87364 -2.34435,-0.9109c-1.8753,-0.41701 -3.3681,-0.96605 -5.05062,-1.98744c-1.14227,-0.29497 -2.39439,-1.83366 -3.60558,-1.7939zM254.27799,168.51789c-0.73181,-0.18851 -1.37832,-0.35953 -2.08942,-0.45288c-2.03176,-0.89999 -6.77193,-0.32806 -9.21123,1.32064c0.03217,-0.05862 0.06579,-0.11672 0.10088,-0.17426c-0.36915,0.06601 -0.73707,0.13963 -1.10333,0.22342c-0.47642,0.4716 -2.47089,2.23489 -2.09406,3.00661c0.16995,0.34805 0.70689,0.33004 1.01686,0.56231v-0.00001c0.57309,0.42945 1.14617,0.83009 1.74799,1.12204c1.93831,1.40342 5.74482,0.17476 7.93397,-0.03578c0.43291,-0.04164 2.52766,0.46043 3.4474,0.11593c0.97371,-0.01701 1.95143,-0.01644 2.93727,0.01507c0.11637,-0.06072 0.23273,-0.12143 0.34911,-0.18215l0.20084,-0.20626c-0.6432,-1.17809 -0.78336,-2.83235 -0.41278,-3.9066c-0.66369,-0.63511 -1.41709,-1.15408 -2.37893,-1.14646c0,0 -0.32262,0 -0.44456,-0.26165zM244.85843,184.54637c1.71242,0.04788 4.15643,0.26403 5.7974,0.66359c0,0 0.01772,0.00443 0.04548,0.01501c0.38318,-0.51329 1.08065,-0.81447 2.0592,-0.81447c1.42923,0 3.74953,-0.8407 5.01584,0.2387c0.10006,0.08529 0.19299,0.17886 0.27886,0.27964c3.04383,-0.06531 5.54927,-0.77736 8.45147,-1.55011c3.31159,-0.82702 6.17774,-2.60805 9.18663,-4.14856c0,0 0.43874,-0.21937 0.65809,0.21937c0.21936,0.43873 -0.21936,0.65808 -0.21936,0.65808c-3.12405,1.51349 -5.9722,3.36809 -9.38742,4.22285c-2.81799,0.63914 -5.25523,1.4083 -8.14378,1.55825c0.1008,0.27644 0.17155,0.5715 0.21291,0.87515c3.08683,-0.0229 6.04051,-0.40238 8.96902,-1.15232c1.46166,-0.56758 3.10851,-0.69417 4.61633,-1.0571c0.75329,-0.18131 1.31682,-0.88647 2.03537,-1.15987c1.64332,-0.62528 3.04698,-1.17301 3.50343,-3.11102c0.28154,-0.56959 1.04312,-1.5684 0.7917,-2.25818c-0.17561,-0.48178 -2.15573,-1.77687 -2.73691,-1.44526c-1.46888,0.83817 -2.65436,2.58954 -4.27753,3.04144c-1.33944,0.3038 -2.30391,1.88927 -3.59375,2.46257c-2.34073,1.04041 -5.16225,0.86716 -7.58357,1.47249c-3.97311,0.02504 -7.60795,0.91978 -11.57958,0.11414c-1.61847,-0.66691 -3.47598,-0.62511 -5.17582,-1.03216c-0.05736,0.12963 -0.17954,0.26768 -0.43975,0.26768c-0.03737,0 -0.07189,-0.00285 -0.10377,-0.0081c0.31509,2.12795 1.85409,5.26674 4.07737,5.31082c0.89955,-0.22741 2.20153,-0.64189 3.3161,-0.61272c-0.21582,-0.53095 -0.30217,-1.02014 -0.26648,-1.44764c-1.34252,-0.32979 -2.83731,-0.05618 -4.2055,-0.23754c-0.59086,-0.07832 -0.92529,-0.40742 -1.50971,-0.38874l-0.47765,-0.27447c0,0 -0.34684,-0.34685 0,-0.6937c0.31534,-0.31534 0.63068,-0.05729 0.68537,-0.00781zM251.00015,167.01735c1.29723,-0.00818 2.31142,0.24432 3.49485,0.54444c0.06974,-0.06928 0.13901,-0.10392 0.13901,-0.10392c0.03805,-0.01545 0.89095,-0.40755 0.43564,-0.61748c-0.87575,-0.40379 -1.77555,-0.56365 -2.59593,-1.16192c-0.25489,-0.18587 -0.50126,-0.39385 -0.74579,-0.60941c-0.09552,-0.01811 -0.24372,-0.06838 -0.33028,-0.20798c-2.30966,0.06007 -3.57455,0.59989 -5.61193,1.64301c0,0 -0.43874,0.21937 -0.65809,-0.21936c-0.21937,-0.43873 0.21937,-0.65809 0.21937,-0.65809c0.572,-0.27711 0.91041,-0.83494 1.50308,-1.07305c1.06116,-0.42632 2.29138,-0.58997 3.521,-0.64881c-0.47657,-0.35741 -0.98781,-0.65137 -1.57489,-0.79233c-0.05961,0.0264 -0.13242,0.04254 -0.22137,0.04254c-0.16312,0 -0.27199,-0.05425 -0.34466,-0.12666c-0.10085,-0.00601 -0.20391,-0.00752 -0.30936,-0.00415c-2.93076,-0.02325 -3.77863,2.17382 -6.02068,3.58923c-0.23137,0.14606 -1.98498,0.8556 -1.86992,1.1861c0.12678,0.36417 0.71612,0.44986 1.01796,0.52587l0.46328,-0.00366c0,0 0.21051,0 0.35572,0.1379c3.02085,-0.64682 6.15192,-0.70062 9.13299,-1.44226zM276.22837,201.27378c0,0 0.03802,-0.2281 0.21848,-0.34497c-0.11906,-0.29927 -0.24779,-0.59653 -0.4655,-0.85214c-0.59841,-0.70257 -1.53682,-1.55381 -1.95054,-2.38349c-2.40507,0.43034 -6.00752,2.53883 -4.93993,5.24449c2.25734,1.68903 3.23479,1.36132 5.55844,-0.11614c0.65475,-0.41631 1.47268,-0.68574 1.57906,-1.54776zM239.47933,170.71788c0.37852,-0.54151 0.86763,-1.05398 1.27971,-1.46351c-0.97765,-0.27361 -2.16278,-0.88182 -1.50568,-2.12265c0.35417,-0.66878 1.5074,-0.96749 2.13101,-1.3528c2.43447,-1.50419 3.33692,-3.71558 6.53642,-3.73574c0.0552,0.00114 0.10973,0.00319 0.16363,0.00612c0.00102,-0.3478 0.00828,-0.66589 0.03279,-0.96332c-0.03976,-0.02807 -0.06255,-0.05088 -0.06255,-0.05088c-0.51208,-0.54554 -0.8618,-0.40344 -1.50371,-0.72373c-3.13754,-1.56555 -4.38188,1.18 -5.97781,3.50329c-0.38836,0.26678 -1.11238,0.58279 -1.42857,0.93192c-0.28555,0.3153 -0.26526,1.53315 -0.41086,1.96996c-0.4174,1.25218 -2.56475,3.97391 0.02105,3.94546h0.49051c0,0 0.11527,0 0.23405,0.05588zM261.41096,163.66221c0,0 0.04266,0 0.10281,0.01257c0.12343,-0.15486 0.19226,-0.34223 0.25453,-0.53991c-0.11981,-0.04494 -0.19842,-0.12356 -0.19842,-0.12356c-0.8957,-0.91302 -1.89608,-0.75864 -3.03593,-1.04668c-0.87651,-0.22149 -1.7435,-0.55465 -2.61606,-0.78482c-1.32908,-0.35059 -2.66062,0.43436 -3.88529,0.36819c-0.43557,0.47113 -1.15598,0.88661 -1.79743,1.17926c0.54314,0.3241 1.03423,0.73087 1.53241,1.14719c0.02579,-0.00004 0.05157,-0.00005 0.07729,-0.00005h0.39241c0,0 0.25437,0 0.39675,0.18318c1.75405,-0.15234 3.84981,-0.62811 5.20972,0.4392c1.27193,-0.16351 2.27721,-0.80781 3.56718,-0.83457zM250.07783,202.60952c0.35471,-0.28929 0.63716,-0.59883 0.95994,-0.88599c-0.76999,-0.51701 -1.41812,-1.16771 -1.73076,-1.89646l-0.30875,0.05581c-1.87046,-0.00695 -3.35293,0.96088 -4.43565,2.4312c0.16924,3.1033 4.20859,1.36106 5.5152,0.29543zM255.72448,214.49268c-1.10361,-0.88 -1.8685,-2.25516 -2.98915,-3.0331c-0.59826,-0.41531 -1.23511,-0.98762 -1.71817,-1.61749c-0.05215,0.00964 -0.08787,0.00964 -0.08787,0.00964h-0.1308c-0.85864,0 -1.31457,-0.028 -1.74626,0.79941c0.04701,3.49655 3.83354,3.81359 6.67226,3.84153zM256.34234,165.02476c0,-0.06568 0.00879,-0.12257 0.02403,-0.17183c-0.92839,-0.2123 -2.1512,-0.03415 -3.20339,0.10358c0.72002,0.42459 2.00237,0.60568 2.52053,1.11865c0.70296,0.69593 0.4858,1.35924 -0.03438,1.84754c0.75908,0.20317 1.41568,0.63902 2.01172,1.18417c0.28962,-0.2698 0.62844,-0.49887 0.90056,-0.77228c0.89978,-0.88272 1.45865,-1.48469 2.34718,-2.05553c-0.66113,-0.06957 -1.25481,-0.32766 -1.17649,-1.20788c0.00382,-0.04292 0.01078,-0.08377 0.02062,-0.12273c-0.43869,0.14014 -0.88218,0.29996 -1.34324,0.41409c-0.02002,0.07316 -0.06282,0.15012 -0.13978,0.22707c-0.34684,0.34684 -0.69369,0 -0.69369,0l-0.08097,-0.08097c-0.07479,0.00434 -0.15018,0.00662 -0.22621,0.00662h-0.43601c0,0 -0.49051,0 -0.49051,-0.49051zM256.9789,185.42424c0,-0.04552 0.00422,-0.08682 0.01189,-0.12428c-0.49672,-0.28014 -1.1941,-0.28599 -1.90866,-0.20932c-0.00641,1.59851 -0.27142,3.07312 -0.26149,4.65011v0.2616c0,0 0,0.0005 -0.00002,0.00147c0.60296,0.03332 1.22612,0.03124 1.47155,0.03124c1.79397,0.19965 1.46158,-2.37692 1.22458,-3.31462c-0.03547,-0.14036 -0.07683,-0.50518 -0.14818,-0.81785c-0.14356,-0.02955 -0.38969,-0.13089 -0.38969,-0.47834zM253.83963,189.74074c0.01208,-1.52329 0.24146,-2.97432 0.26038,-4.51012c-0.50687,0.08207 -0.97747,0.16092 -1.33949,0.16092c-1.36334,0 -1.8909,0.61705 -1.13091,2.03698l0.1448,0.42007c0.017,0.00858 0.03385,0.0174 0.05055,0.02648c0.79803,0.43356 1.07301,1.31679 1.6349,1.87547c0.06117,0.06083 0.19758,0.10865 0.37979,0.14626v-0.15604z" data-paper-data="{&quot;index&quot;:null}" fill="#000000" stroke="#000000" stroke-width="0"/><path d="M314.69743,204.82662c-0.6621,2.63882 -2.40428,4.13472 -4.50189,5.45689c-0.82148,0.51779 -1.31992,1.38923 -2.18989,1.8107c-2.92916,1.48481 -7.72729,1.38048 -10.80613,0.66293c-0.25175,-0.27062 -0.5418,-0.50757 -0.83749,-0.72934l-0.06384,-0.15317c0.84394,-0.9387 1.95714,-1.63796 2.66253,-2.70644c0.87232,0.00185 2.0034,0.19246 2.84172,-0.01509c0.75465,-0.18684 1.37671,-0.74152 2.14609,-0.93386c3.86179,-1.9309 7.04009,-5.82427 5.89971,-10.50765c-0.46641,-1.80669 -1.45908,-2.86824 -2.10803,-4.5886c-0.49445,-1.31077 -0.76926,-2.86064 -0.89899,-4.36636c1.35946,0.96622 2.72602,1.90994 4.19102,2.64268c0.34061,0.39502 0.73045,0.76281 0.97867,1.18872c0.51482,0.88337 0.58817,1.95705 1.21321,2.81325c1.56249,2.07884 2.44145,4.87595 2.25228,7.51196c-0.03653,0.50915 -0.49556,0.84358 -0.64558,1.38244l-0.09399,0.1615c0,0 -0.09112,0.18168 -0.03939,0.36942z" data-paper-data="{&quot;noHover&quot;:false,&quot;origItem&quot;:[&quot;Path&quot;,{&quot;applyMatrix&quot;:true,&quot;segments&quot;:[[[709.13354,518.3157],[13.26699,-8.36249],[-5.19568,3.27495]],[[695.31301,529.76211],[5.50233,-2.66568],[-18.52629,9.39112]],[[627.08103,533.97379],[19.47299,4.53833],[-1.59229,-1.71158]],[[621.79406,529.36596],[1.87017,1.40263],[0,0]],[[621.19036,528.75938],[0,0],[5.33777,-5.93712]],[[638.04185,511.64769],[-4.4614,6.75787],[5.51722,0.01174]],[[656.04813,511.56461],[-5.30215,1.31274],[4.77302,-1.18173]],[[669.64854,505.66379],[-4.86616,1.21654],[24.42506,-12.21253]],[[707.1559,439.12674],[7.2126,29.62131],[-2.94999,-11.42694]],[[693.819,409.84726],[4.10446,10.8809],[-4.73853,-12.56183]],[[687.39329,367.90394],[0,13.27336],[0,-20.81192]],[[696.16608,306.41644],[-9.58714,18.78065],[0,0]],[[696.50777,304.67395],[0.05464,0.94983],[2.5373,-2.34757]],[[704.58913,305.38894],[-2.05333,-5.33069],[2.96533,7.69836]],[[701.06701,330.2963],[0.91774,-7.35328],[-0.71692,5.74423]],[[701.87107,347.22139],[0.04465,-5.62803],[0,4.41228]],[[701.87107,360.45822],[0,-4.41228],[0,0]],[701.87107,362.94013],[[701.9032,363.31809],[-0.03213,-0.23056],[0.02474,0.23146]],[[701.9637,363.69256],[0,0],[1.52866,5.98872]],[[708.54546,380.90014],[-1.39748,-6.03101],[1.11603,4.81635]],[[711.27251,394.8836],[-2.436,-4.7616],[2.25,4.39804]],[[720.4744,406.66105],[-2.42561,-4.16207],[3.25611,5.58711]],[[728.1379,424.36727],[-3.95322,-5.41535],[9.88243,13.14817]],[[742.4321,471.76489],[1.19639,-16.67221],[-0.23108,3.22023]],[[738.36497,480.49183],[0.94885,-3.40818],[0,0]],[737.77257,481.51144],[[737.52663,483.84513],[-0.32719,-1.18743],[-4.18758,16.68995]]],&quot;closed&quot;:true}],&quot;index&quot;:null}" fill="#000000" stroke="#000000" stroke-width="0"/><path d="M251.07041,201.72127c-0.32279,0.28717 -0.60646,0.60808 -0.96117,0.89737c-1.30662,1.06563 -5.40987,2.80242 -5.57911,-0.30088c1.08272,-1.47031 2.61409,-2.4701 4.48457,-2.46317l0.31127,-0.05419c0.31264,0.72874 0.97445,1.40384 1.74444,1.92084z" data-paper-data="{&quot;noHover&quot;:false,&quot;origItem&quot;:[&quot;Path&quot;,{&quot;applyMatrix&quot;:true,&quot;segments&quot;:[[[328.95718,469.97874],[2.24346,-1.82968],[-8.26408,6.73984]],[[294.07471,468.11018],[1.07038,19.62771],[6.84795,-9.29943]],[[322.12925,452.73339],[-11.83025,-0.04393],[0,0]],[[324.08197,452.3804],[0,0],[1.97738,4.6091]],[[335.02862,464.37506],[-4.87008,-3.26999],[-2.04155,1.81626]]],&quot;closed&quot;:true}],&quot;index&quot;:null}" fill="#000000" stroke="#000000" stroke-width="0"/><path d="M255.75132,214.51137c-2.83872,-0.02795 -6.68187,-0.37722 -6.72887,-3.87377c0.43168,-0.8274 0.89888,-0.81284 1.75752,-0.81284l0.13188,-0.00071c0,0 0.03654,-0.00051 0.0887,-0.01014c0.48306,0.62987 1.15092,1.201 1.74917,1.6163c1.12065,0.77794 1.89798,2.20116 3.00159,3.08116z" data-paper-data="{&quot;noHover&quot;:false,&quot;origItem&quot;:[&quot;Path&quot;,{&quot;applyMatrix&quot;:true,&quot;segments&quot;:[[[322.47026,520.84022],[0.29725,22.11493],[2.73032,-5.23314]],[[333.51499,515.78412],[-5.43076,0],[0,0]],[334.34229,515.78412],[[334.89809,515.72315],[-0.32989,0.06095],[3.05523,3.98377]],[[345.76513,525.95344],[-3.78383,-2.6267],[7.08789,4.92034]],[[364.67094,545.13709],[-6.98015,-5.56584],[-17.95431,-0.17675]]],&quot;closed&quot;:true}],&quot;index&quot;:null}" fill="#000000" stroke="#000000" stroke-width="0"/><path d="M276.47953,200.92923c-0.18045,0.11686 -0.21866,0.34814 -0.21866,0.34814c-0.10637,0.86202 -0.93347,1.15078 -1.58822,1.56709c-2.32366,1.47746 -3.35281,1.79855 -5.61015,0.10952c-1.06759,-2.70566 2.57605,-4.86051 4.98112,-5.29085c0.41372,0.82968 1.37108,1.70328 1.9695,2.40583c0.21771,0.25559 0.34737,0.561 0.46641,0.86027z" data-paper-data="{&quot;noHover&quot;:false,&quot;origItem&quot;:[&quot;Path&quot;,{&quot;applyMatrix&quot;:true,&quot;segments&quot;:[[[494.35362,461.5305],[0,0],[-0.67284,5.45206]],[[484.36636,471.31974],[4.14112,-2.63307],[-14.6966,9.34462]],[[449.21044,472.0543],[14.2772,10.68274],[-6.75225,-17.11274]],[[480.45448,438.88405],[-15.21155,2.72178],[2.61671,5.24753]],[[492.79122,453.95912],[-3.78486,-4.44356],[1.37694,1.61659]],[[495.73538,459.34866],[-0.75299,-1.89276],[-1.1413,0.73913]]],&quot;closed&quot;:true}],&quot;index&quot;:null}" fill="#000000" stroke="#000000" stroke-width="0"/><path d="M269.61553,216.84618c-1.42089,-0.11381 -2.54536,-0.58562 -3.95342,-0.88549c-1.61256,-0.34344 -3.43196,-0.12645 -4.91507,-0.9043c-1.19764,-0.3057 -2.89311,-0.41492 -3.9678,-1.00693c-1.41631,-0.78019 -2.22959,-2.4564 -3.50299,-3.38727c-0.72294,-0.52847 -1.94092,-1.56593 -2.04346,-2.37213c-0.09097,-0.22842 -0.18179,-0.4577 -0.27276,-0.68612l-0.08558,-0.13381c1.55731,-0.40007 2.82061,-1.38217 4.47492,-1.71838c1.26315,-0.25672 3.07199,-0.2548 4.14366,-0.99807c1.67908,0.06904 3.17669,-0.26739 4.80628,-0.39448c1.59491,-0.12439 3.17388,0.3338 4.78802,0.06993c0,0 0.09859,-0.01679 0.19907,-0.0789c0.33793,0.26982 0.69173,0.5157 1.07101,0.69351c0.79261,0.3716 1.97111,0.19445 3.11796,-0.27424c0.14528,0.15019 0.36963,0.14988 0.36963,0.14988l-0.05606,-0.05175c1.30385,0.6199 2.00366,-0.00002 3.25589,-0.19918c1.01514,-0.16144 2.09171,0.09071 3.11888,-0.0772c1.36027,-0.22672 2.03372,0.29995 3.31905,0.42c2.49286,0.23283 4.99761,0.09782 7.51816,0.41768c1.97274,-0.5432 4.24201,-0.04753 6.22777,0.08485c0.7345,0.04897 1.39313,-0.17176 2.06447,-0.25584c-0.2488,1.08479 -0.47487,2.26685 -1.01518,3.2031c-0.68825,1.19261 -1.94303,1.91418 -2.82711,2.93989c-0.51704,0.59988 -0.71938,1.30083 -1.38372,1.77799c-0.89741,0.89366 -1.85584,1.12257 -2.84365,1.80787c-2.11966,1.47055 -4.91345,3.32551 -7.62754,3.32551c-0.75189,0.18797 -1.46791,0.0399 -2.22719,0.13467c-3.07318,0.38355 -5.89981,1.46887 -8.65275,-0.63827c-0.56638,-0.73696 -1.71817,-0.68539 -2.16367,-1.22558c-0.1451,-0.17594 0.60731,-1.39599 0.72118,-1.49805c0.38592,-0.34586 1.55097,-0.18755 2.02139,-0.30421c1.89363,-0.46954 3.20589,-1.78248 4.96021,-2.4738c1.77351,-0.43919 3.93582,-0.75434 5.73465,-0.75434l0.26161,-0.00002c0,0 0.49058,0.00162 0.49058,-0.48889c0,-0.49051 -0.49034,-0.48868 -0.49034,-0.48868l-0.26158,0.00012c-1.88525,0 -4.11734,0.33338 -5.97211,0.80095c-1.22408,0.49515 -2.22777,1.54935 -3.46246,2.00349c-1.08093,0.39758 -3.00666,0.23228 -3.89211,0.94515c-0.48237,0.38835 -1.22141,1.74768 -1.0478,2.52136z" data-paper-data="{&quot;noHover&quot;:false,&quot;origItem&quot;:[&quot;Path&quot;,{&quot;applyMatrix&quot;:true,&quot;segments&quot;:[[[427.71286,554.33663],[8.90561,1.89671],[-10.1991,-2.1722]],[[396.63898,548.65524],[9.3804,4.91974],[-7.57482,-1.93351]],[[371.54729,542.30745],[6.79715,3.74431],[-8.95786,-4.93454]],[[349.39312,520.91986],[8.05397,5.88755],[-4.57237,-3.34246]],[[336.46688,505.93611],[0.64854,5.09903],[-0.57535,-1.44474]],[[334.74088,501.60192],[0.57535,1.44474],[0,0]],[[334.19948,500.75656],[0,0],[9.84963,-2.53034]],[[362.49669,489.91218],[-10.46319,2.12656],[7.98917,-1.62372]],[[388.69535,483.62407],[-6.77802,4.70104],[10.61978,0.43665]],[[419.07602,481.1613],[-10.30679,0.80383],[10.08752,-0.78672]],[[449.31985,481.64674],[-10.20909,1.66892],[0,0]],[[450.5754,481.15054],[-0.63543,0.39282],[2.13733,1.70658]],[[457.34089,485.5431],[-2.39884,-1.12465],[5.01314,2.35032]],[[476.98831,483.8414],[-7.25357,2.96433],[0.91888,0.94993]],[479.31657,484.79133],[[478.96327,484.4638],[0,0],[8.24661,3.92071]],[[499.46194,483.20008],[-7.92007,1.25959],[6.42048,-1.0211]],[[519.12343,482.68086],[-6.49655,1.06201],[8.60338,-1.4339]],[[540.07418,485.29781],[-8.1294,-0.7593],[15.76684,1.47262]],[[587.59429,487.88649],[-15.94198,-2.02304],[12.47714,-3.43564]],[[626.97682,488.40296],[-12.55954,-0.83727],[4.64557,0.3097]],[[640.03349,486.78236],[-4.24611,0.53179],[-1.57367,6.86102]],[[633.60773,507.01669],[3.41729,-5.9216],[-4.35301,7.54303]],[[615.72492,525.58531],[5.59157,-6.48749],[-3.27016,3.79413]],[[606.97377,536.81167],[4.20187,-3.018],[-5.67591,5.65221]],[[588.99183,548.22082],[6.24766,-4.3344],[-13.4064,9.30088]],[[540.78866,569.1683],[17.16601,0],[-4.75554,1.18887]],[[526.72453,569.99561],[4.80224,-0.59936],[-19.43718,2.4259]],[[472.2135,565.91722],[17.41176,13.32729],[-3.58217,-4.66114]],[[458.59469,558.20691],[2.81771,3.41657],[-0.91775,-1.1128]],[[462.86071,549.02109],[-0.72023,0.64546],[2.44087,-2.18749]],[[475.69636,547.13858],[-2.97533,0.73777],[11.97678,-2.96979]],[[507.37556,531.35237],[-11.09569,4.37248],[11.21701,-2.77775]],[[543.64961,526.53904],[-11.3772,0],[0,0]],[545.30422,526.53904],[[548.4066,523.43666],[0,3.10238],[0,-3.10238]],[545.30422,520.33428],[[543.64961,520.33428],[0,0],[-11.92384,0]],[[505.46654,525.44858],[11.73103,-2.95727],[-7.74203,3.13169]],[[483.83486,537.90031],[7.80915,-2.87233],[-6.83663,2.51462]],[[458.9782,544.18111],[5.60029,-4.50877],[-3.0509,2.45626]],[[452.67948,559.88071],[-1.09804,-4.89334],[-8.98679,-0.71986]]],&quot;closed&quot;:true}],&quot;index&quot;:null}" fill="#000000" stroke="#000000" stroke-width="0"/><path d="M249.92467,189.55862c0.28218,0.08313 0.69373,0.39161 0.88052,0.58711c0.74349,0.3783 1.33268,1.17264 2.13642,1.38617c1.08681,0.28873 2.34976,0.2029 3.41296,0.73967c0.66187,0.33414 0.97951,0.73418 1.81893,0.8305c1.43652,0.16485 2.96898,-0.24624 4.37689,0.11723c1.88861,0.45987 4.08473,0.60203 5.98829,0.1274c0.72751,-0.18141 1.41097,-0.69344 2.17608,-0.78488c1.19457,-0.14274 2.32665,-0.0498 3.52608,-0.29697c3.58796,-1.78339 7.62554,-3.56589 11.54874,-4.56732c0.78044,-0.39023 2.18874,-1.26007 2.95144,-1.42079c2.44926,-0.5161 4.28863,-0.59916 6.1735,-2.29158c0.97774,2.65696 3.22007,4.55271 4.44524,7.03711l0.03954,0.28596c0,0 0.0523,0.2616 0.27215,0.36058c1.30899,2.88697 1.32495,5.5715 1.35953,8.71383c-0.43731,1.27352 -0.74434,2.60602 -1.16794,3.89318c-0.87506,0.00347 -1.63497,0.35186 -2.56598,0.28031c-1.98523,-0.15259 -4.40014,-0.66258 -6.36479,-0.07828c-2.48048,-0.41244 -4.89948,-0.22964 -7.37037,-0.40158c-1.31075,-0.0912 -2.13576,-0.63659 -3.55993,-0.39923c-1.02213,0.1742 -2.0998,-0.08846 -3.11326,0.0857c-0.82079,0.14105 -1.4365,0.56627 -2.20134,0.39952c1.03185,-0.61952 1.90605,-1.42606 2.30209,-2.21035c0.12529,0.13891 0.27878,0.2627 0.47773,0.36285c1.22446,0.61645 1.76882,-0.74667 2.62285,-0.96263l0.33356,-0.62689c0,0 0.04944,-0.4477 -0.44107,-0.4477c-0.34434,0 -0.44876,0.24365 -0.47934,0.38773c-0.48776,0.38112 -1.06018,1.08124 -1.63009,0.80091c-0.58127,-0.28592 -0.71856,-1.49831 -1.1161,-1.98354c-0.60939,-0.74384 -3.46258,-2.59285 -1.08595,-3.19387c0,0 0.4605,-0.14353 0.30539,-0.60888c-0.15511,-0.46534 -0.55577,-0.302 -0.55577,-0.302c-1.02356,0.38643 -1.50521,0.88404 -1.5904,1.38809c-3.17308,0.6307 -7.0794,3.22992 -5.50103,6.73922c0.00951,0.00798 -0.01906,0.06913 -0.00955,0.07713c-1.37285,0.08421 -2.73311,-0.28147 -4.09967,-0.16186c-1.68543,0.14752 -3.28684,0.37814 -5.00982,0.4237c-1.11823,0.71975 -2.75162,0.68062 -4.03381,0.96628c-1.85339,0.41293 -3.21851,1.62162 -5.06534,1.83831c-0.05329,-0.2157 -0.2692,-0.324 -0.2692,-0.324l-0.07647,-0.02611c-0.50172,-0.39614 -0.96385,-0.99355 -1.29886,-1.57697c0.02941,-0.01002 0.05873,-0.02028 0.08797,-0.03077c1.38383,-0.49698 2.21315,-1.65372 3.35524,-2.43696c0.66396,0.32694 1.41662,0.53418 2.02541,0.63564l0.40757,0.00645c0,0 0.42925,0.02288 0.42925,-0.46763c0,-0.49051 -0.49084,-0.49144 -0.49084,-0.49144l-0.2464,0.00656c-1.75829,-0.29305 -5.5075,-2.20605 -3.33237,-4.32671c0,0 0.34677,-0.3478 -0.00008,-0.69464c-0.34684,-0.34684 -0.62843,-0.0044 -0.62843,-0.0044c-0.65558,0.66835 -0.93109,1.32769 -0.93505,1.95446l-0.1729,0.03418c-0.4857,0.00153 -0.95187,0.05655 -1.39649,0.16042l-0.01851,-0.23412c-0.04822,-0.13799 -0.09652,-0.2765 -0.14474,-0.41449c0.03591,-2.33608 -0.1074,-4.73775 1.00961,-6.8897c0.28665,-0.55224 1.02576,-0.98694 1.42408,-1.48344c0,0 0.18905,-0.23676 0.0848,-0.48655z" data-paper-data="{&quot;noHover&quot;:false,&quot;origItem&quot;:[&quot;Path&quot;,{&quot;applyMatrix&quot;:true,&quot;segments&quot;:[[[333.35561,391.10326],[-1.18137,-1.23653],[4.7024,2.39264]],[[346.86636,399.87889],[-5.08348,-1.35051],[6.8738,1.82614]],[[368.45239,404.5586],[-6.72458,-3.39494],[4.18623,2.11345]],[[380.3655,409.87441],[-5.30915,-0.60927],[9.0857,1.04267]],[[408.04701,410.62417],[-8.90474,-2.29886],[11.9451,2.90857]],[[445.9135,411.46111],[-12.03962,3.00191],[4.60139,-1.14728]],[[459.64391,406.55705],[-4.8392,0.57826],[7.55542,-0.90283]],[[481.78153,404.75775],[-7.58615,1.56329],[22.69307,-11.27951]],[[554.6536,375.77742],[-24.81345,6.33378],[4.93616,-2.46809]],[[573.31796,366.78682],[-4.82387,1.01648],[15.4911,-3.26424]],[[612.35816,352.28308],[-11.92144,10.70421],[6.18396,16.80471]],[[640.45086,396.72676],[-7.74898,-15.71325],[0,0]],[640.70064,398.53307],[[642.42147,400.81049],[-1.39055,-0.62604],[8.27908,18.25942]],[[651.02173,455.85588],[-0.21876,-19.87458],[-2.76588,8.05473]],[[643.64267,480.44957],[2.67928,-8.14106],[-5.53463,0.02196]],[[627.41668,482.21381],[5.88849,0.4526],[-12.55612,-0.96511]],[[587.17143,481.69615],[12.42599,-3.69558],[-15.68849,-2.60861]],[[540.58595,479.1142],[15.62781,1.08745],[-8.29018,-0.57686]],[[518.10337,476.56051],[9.0076,-1.50126],[-6.4647,1.10178]],[[498.46804,477.07542],[6.40983,-1.10151],[-5.1913,0.8921]],[[484.61829,480.00603],[4.83752,1.05469],[6.52625,-3.91835]],[[499.2473,466.0104],[-2.50492,4.96048],[0.79243,0.87855]],[[502.27622,468.30213],[-1.25833,-0.63349],[7.74445,3.89887]],[[518.92229,462.17433],[-5.40156,1.36598],[0,0]],[521.04362,458.19702],[[517.94124,455.09463],[3.10238,0],[-2.17787,0]],[[514.92094,457.5347],[0.1934,-0.91121],[-3.08501,2.41047]],[[504.65068,462.56968],[3.60459,1.77299],[-3.67645,-1.80832]],[[497.58963,450.02538],[2.51434,3.06904],[-3.85427,-4.7046]],[[491.00086,430.11639],[-15.03168,3.80133],[0,0]],[[492.96297,426.19215],[0.98106,2.94317],[-0.98106,-2.94317]],[[489.03873,424.23004],[0,0],[-6.47382,2.4441]],[[479.23992,432.81993],[0.5388,-3.18797],[-20.06906,3.98908]],[[444.27271,475.81167],[-9.98284,-22.19555],[0.06017,0.05042]],[[444.45325,475.96332],[-0.06019,-0.05067],[-8.68292,0.53258]],[[418.56425,474.97769],[8.64325,-0.75653],[-10.66001,0.93305]],[[386.89731,477.68555],[10.89755,-0.28809],[-7.07252,4.55225]],[[361.38962,483.80699],[8.1095,-1.80672],[-11.72235,2.61165]],[[329.35449,495.43819],[11.68084,-1.37047],[-0.33706,-1.36422]],[327.65318,493.39186],[[327.16969,493.2271],[0,0],[-3.17324,-2.5055]],[[318.96033,483.26686],[2.11886,3.68999],[0.18602,-0.06337]],[[319.51665,483.07222],[-0.18484,0.06639],[8.75244,-3.14323]],[[340.74106,467.6685],[-7.22348,4.95388],[4.1994,2.06782]],[[353.16009,471.82253],[-3.85049,-0.64176],[0,0]],[355.73838,471.86474],[[358.84076,468.76236],[0,3.10238],[0,-3.10238]],[355.73838,465.65998],[[354.18016,465.70217],[0,0],[-11.1208,-1.85347]],[[333.11304,438.38107],[-13.7572,13.41267],[0,0]],[[333.11304,433.99364],[2.19371,2.19371],[-2.19371,-2.19371]],[[328.72562,433.99364],[0,0],[-4.14642,4.2272]],[[322.81316,446.37057],[0.02511,-3.9642],[0,0]],[[322.12925,446.52863],[0,0],[-3.07192,0.00968]],[[313.29681,447.54358],[2.8121,-0.65702],[0,0]],[[313.17998,446.06462],[0,0],[-0.30498,-0.87276]],[[312.26498,443.44635],[0.30498,0.87276],[0.22718,-14.77519]],[[318.6497,399.92428],[-7.06485,13.61062],[1.81299,-3.49278]],[[327.6542,390.55555],[-2.51928,3.14031],[0,0]],[[328.18967,387.48221],[0.65934,1.57982],[1.7847,0.52575]]],&quot;closed&quot;:true}],&quot;index&quot;:null}" fill="#000000" stroke="#000000" stroke-width="0"/><path d="M263.03444,166.11022c0.01484,-0.00099 0.02967,-0.002 0.04451,-0.00302c-0.01431,0.00705 -0.02927,0.01455 -0.04484,0.02248c-0.00014,-0.00655 -0.00006,-0.01305 0.00034,-0.01947z" data-paper-data="{&quot;noHover&quot;:false,&quot;origItem&quot;:[&quot;Path&quot;,{&quot;applyMatrix&quot;:true,&quot;segments&quot;:[[[451.00928,245.33194],[12.03641,7.93329],[-5.3271,-3.51113]],[[433.86755,239.24441],[5.32503,2.79283],[-7.61175,-1.89369]],[[410.7248,240.41591],[7.5336,-2.17436],[0.20035,-0.3304]],[[411.09675,239.20586],[-0.02997,0.48023],[10.76055,-0.71711]],[[443.54611,236.15615],[-10.77045,0.35351],[7.66054,-0.25144]],[[466.35064,247.5022],[-7.22464,-1.86565],[10.64158,6.46005]],[[498.2947,260.07231],[-11.8609,-2.63748],[1.05955,0.23562]],[[513.12216,265.83355],[0.90741,-0.33783],[-6.5676,2.44519]],[[492.47145,268.09025],[7.53467,-0.12896],[-7.49742,3.609]],[[470.1918,278.31206],[7.21504,-3.93593],[-2.04652,1.1164]],[[463.97265,283.21733],[2.11163,-1.78006],[5.84443,-12.72543]]],&quot;closed&quot;:true}],&quot;index&quot;:null}" fill="#e7e8e3" stroke="#000000" stroke-width="0"/><path d="M271.42768,173.11357c0.00001,-0.00001 0.00003,-0.00002 0.00003,-0.00003c0,0.00002 -0.00002,0.00003 -0.00002,0.00004z" data-paper-data="{&quot;noHover&quot;:false,&quot;origItem&quot;:[&quot;Path&quot;,{&quot;applyMatrix&quot;:true,&quot;segments&quot;:[[[451.00928,245.33194],[12.03641,7.93329],[-5.3271,-3.51113]],[[433.86755,239.24441],[5.32503,2.79283],[-7.61175,-1.89369]],[[410.7248,240.41591],[7.5336,-2.17436],[0.20035,-0.3304]],[[411.09675,239.20586],[-0.02997,0.48023],[10.76055,-0.71711]],[[443.54611,236.15615],[-10.77045,0.35351],[7.66054,-0.25144]],[[466.35064,247.5022],[-7.22464,-1.86565],[10.64158,6.46005]],[[498.2947,260.07231],[-11.8609,-2.63748],[1.05955,0.23562]],[[513.12216,265.83355],[0.90741,-0.33783],[-6.5676,2.44519]],[[492.47145,268.09025],[7.53467,-0.12896],[-7.49742,3.609]],[[470.1918,278.31206],[7.21504,-3.93593],[-2.04652,1.1164]],[[463.97265,283.21733],[2.11163,-1.78006],[5.84443,-12.72543]]],&quot;closed&quot;:true}],&quot;index&quot;:null}" fill="#e7e8e3" stroke="#000000" stroke-width="0"/><path d="M253.85491,189.76965l-0.00082,0.15646c-0.18221,-0.03761 -0.32221,-0.08393 -0.38338,-0.14474c-0.56189,-0.55866 -0.87849,-1.46169 -1.67652,-1.89524c-0.0167,-0.00907 -0.03401,-0.01926 -0.05101,-0.02783l-0.14602,-0.43392c-0.75998,-1.41994 -0.19893,-2.06554 1.16441,-2.06554c0.36202,0 0.84848,-0.07414 1.35535,-0.15623c-0.01891,1.53581 -0.24993,3.04375 -0.26201,4.56703z" data-paper-data="{&quot;noHover&quot;:false,&quot;origItem&quot;:[&quot;Path&quot;,{&quot;applyMatrix&quot;:true,&quot;segments&quot;:[[[352.74975,388.58649],[0.07642,-9.6344],[0,0]],[[352.74975,389.57346],[0,0],[-1.15247,-0.23789]],[[350.34768,388.64839],[0.38689,0.38467],[-3.55376,-3.53347]],[[340.00734,376.78648],[5.04741,2.74219],[-0.10563,-0.05739]],[[339.68761,376.61905],[0.10753,0.05423],[0,0]],[[338.77177,373.96221],[0,0],[-4.80673,-8.98084]],[[345.92451,361.07871],[-8.62274,0],[2.28974,0]],[[354.39654,360.06094],[-3.20584,0.51913],[-0.11961,9.71364]]],&quot;closed&quot;:true}],&quot;index&quot;:null}" fill="#000000" stroke="#000000" stroke-width="0"/><path d="M257.00088,185.26884c-0.00766,0.03745 -0.01152,0.07888 -0.01152,0.1244c0,0.34746 0.25391,0.45263 0.39748,0.48219c0.07136,0.31267 0.12176,0.68663 0.15723,0.82699c0.23701,0.9377 0.54248,3.56498 -1.2515,3.36532c-0.24544,0 -0.88553,-0.00241 -1.48849,-0.03574c0.00001,-0.00096 0,-0.00146 0,-0.00146l-0.0014,-0.26248c-0.00994,-1.57698 0.25887,-3.10838 0.26528,-4.70689c0.71455,-0.07667 1.43616,-0.07247 1.93289,0.20768z" data-paper-data="{&quot;noHover&quot;:false,&quot;origItem&quot;:[&quot;Path&quot;,{&quot;applyMatrix&quot;:true,&quot;segments&quot;:[[[372.60499,361.28553],[0,-0.2879],[0,2.19754]],[[375.06963,364.31093],[-0.908,-0.18693],[0.45131,1.97754]],[[376.00684,369.48368],[-0.22436,-0.88774],[1.49901,5.9308]],[[368.26166,390.44792],[11.3465,1.26275],[-1.55233,0]],[[358.95443,390.25034],[3.81359,0.21076],[0.0001,-0.0061]],[358.95452,390.24109],[[358.95452,388.58649],[0,0],[-0.06285,-9.97409]],[[360.60837,359.1756],[-0.04058,10.11023],[4.51936,-0.48488]],[[372.68019,360.49949],[-3.14174,-1.77187],[-0.04848,0.23694]]],&quot;closed&quot;:true}],&quot;index&quot;:null}" fill="#000000" stroke="#000000" stroke-width="0"/><path d="M250.6243,185.21863c-1.64098,-0.39956 -4.08585,-0.62001 -5.79826,-0.66788c-0.05469,-0.04948 -0.30518,-0.31612 -0.62054,-0.00078c-0.34684,0.34684 -0.0002,0.69239 -0.0002,0.69239l0.47753,0.27379c0.58443,-0.01868 0.91854,0.30902 1.50941,0.38734c1.36818,0.18136 2.86199,-0.0956 4.20451,0.23418c-0.03569,0.4275 0.04905,0.91291 0.26487,1.44386c-1.11458,-0.02915 -2.47584,0.41287 -3.3754,0.64028c-2.22329,-0.04408 -3.76489,-3.19472 -4.07997,-5.32267c0.03189,0.00526 0.0664,0.00813 0.10377,0.00813c0.26022,0 0.44778,-0.13957 0.50513,-0.26919c1.69983,0.40706 3.55716,0.36226 5.17564,1.02916c3.97163,0.80562 7.58601,-0.11599 11.55913,-0.14103c2.42132,-0.60533 5.19811,-0.40039 7.53883,-1.4408c1.28983,-0.57331 2.2553,-2.15195 3.59474,-2.45574c1.62319,-0.4519 2.87083,-2.22319 4.33972,-3.06135c0.58118,-0.33163 2.56256,0.96747 2.73816,1.44924c0.25143,0.68977 -0.50945,1.69238 -0.79099,2.26197c-0.45645,1.93801 -1.85997,2.49223 -3.50328,3.11751c-0.71855,0.2734 -1.28257,0.98224 -2.03585,1.16355c-1.50782,0.36293 -3.15729,0.49746 -4.61895,1.06506c-2.92851,0.74993 -5.92631,1.14456 -9.01312,1.16747c-0.04137,-0.30366 -0.07904,-0.65496 -0.17983,-0.9314c2.88856,-0.14996 5.2764,-0.90271 8.09438,-1.54184c3.41523,-0.85476 6.26197,-2.69394 9.38602,-4.20741c0,0 0.43894,-0.21809 0.21958,-0.65682c-0.21936,-0.43873 -0.59399,-0.23231 -0.59399,-0.23231c-3.00889,1.54052 -5.87486,3.3343 -9.18644,4.16131c-2.90219,0.77275 -5.46451,1.50032 -8.50833,1.56562c-0.08587,-0.10079 -0.18081,-0.19692 -0.28087,-0.28221c-1.26631,-1.07939 -3.59165,-0.24969 -5.02087,-0.24969c-0.97855,0 -1.61277,0.28458 -1.99595,0.79788c-0.02776,-0.01058 -0.10853,0.00238 -0.10853,0.00238z" data-paper-data="{&quot;noHover&quot;:false,&quot;origItem&quot;:[&quot;Path&quot;,{&quot;applyMatrix&quot;:true,&quot;segments&quot;:[[[295.94559,355.73324],[10.83068,0.30279],[-0.34587,-0.31297]],[[291.61079,355.78259],[1.99446,-1.99446],[-2.19371,2.19371]],[291.61079,360.17004],[[294.63181,361.90601],[0,0],[3.69636,-0.11816]],[[304.18038,364.36467],[-3.73707,-0.49539],[8.65349,1.1471]],[[330.77925,365.86709],[-8.49116,-2.08583],[-0.22573,2.70385]],[[332.46465,375.02306],[-1.36501,-3.3581],[-7.04948,-0.18441]],[[311.49098,378.89841],[5.68948,-1.43833],[-14.06181,-0.27876]],[[285.70247,345.3087],[1.99287,13.45881],[0.2017,0.03326]],[[286.35879,345.35998],[-0.23632,0],[1.64585,0]],[[289.14014,343.66696],[-0.36277,0.81986],[10.75107,2.5745]],[[321.87605,350.19516],[-10.23643,-4.21802],[25.11971,5.09545]],[[395.11438,349.47324],[-25.12904,0.15837],[15.31431,-3.82859]],[[443.07875,340.15999],[-14.8046,6.58034],[8.15794,-3.62602]],[[465.80841,324.5848],[-8.47167,1.92145],[10.2663,-2.85816]],[[492.86293,305.34836],[-9.29039,5.30123],[3.67583,-2.09748]],[[510.17325,314.48925],[-1.11069,-3.04712],[1.59022,4.36265]],[[505.16598,328.77171],[1.78064,-3.60253],[-2.88695,12.25749]],[[483.00755,348.44823],[10.39362,-3.95477],[-4.5447,1.72927]],[[470.13431,355.78422],[4.76439,-1.14676],[-9.53666,2.29545]],[[440.93701,362.47015],[9.2447,-3.58989],[-18.52221,4.74317]],[[384.20988,369.75838],[19.52349,-0.14482],[-0.26165,-1.92054]],[[382.86326,364.22324],[0.63756,1.74842],[18.26947,-0.94844]],[[434.37094,354.36766],[-17.82314,4.04242],[21.60058,-5.40619]],[[493.74436,327.65911],[-19.75892,9.57246],[0,0]],[[495.13178,323.49681],[1.38743,2.77485],[-1.38743,-2.77485]],[[490.96948,322.10939],[0,0],[-19.03059,9.74344]],[[432.86606,348.34815],[20.94509,-5.23066],[-18.35574,4.88751]],[[379.41236,358.15231],[19.25152,-0.41305],[-0.54314,-0.63742]],[[377.64864,356.38363],[0.63284,0.53942],[-8.00915,-6.82691]],[[345.92451,354.87394],[9.03955,0],[-6.18917,0]],[[332.90049,360.02528],[2.42352,-3.24644],[-0.17555,-0.06689]],[[332.61284,359.93037],[0,0],[-10.37877,-2.52716]]],&quot;closed&quot;:true}],&quot;index&quot;:null}" fill="#000000" stroke="#000000" stroke-width="0"/><path d="M251.03074,167.02888c-2.98107,0.74165 -6.17228,0.79789 -9.19314,1.44471c-0.1452,-0.1379 -0.35627,-0.13915 -0.35627,-0.13915l-0.46359,0.00292c-0.30183,-0.07602 -0.89231,-0.16512 -1.01909,-0.52929c-0.11506,-0.33049 1.6378,-1.04366 1.86916,-1.18972c2.24204,-1.41542 3.12592,-3.64992 6.05668,-3.62667c0.10544,-0.00337 0.21207,-0.00127 0.31293,0.00475c0.07267,0.07241 0.18568,0.12788 0.3488,0.12788c0.08893,0 0.16378,-0.0153 0.22339,-0.0417c0.58708,0.14094 1.05769,0.48287 1.53425,0.84028c-1.22962,0.05884 -2.41493,0.23187 -3.47609,0.65818c-0.59267,0.23811 -0.91612,0.77008 -1.48812,1.04718c0,0 -0.43944,0.21073 -0.22007,0.64946c0.21937,0.43873 0.65632,0.21375 0.65632,0.21375c2.06495,-1.05723 3.33809,-1.59212 5.70798,-1.63984c0.32265,0.28943 0.64556,0.58065 0.98254,0.82639c0.82038,0.59826 1.71985,0.76332 2.5956,1.16711c0.45531,0.20993 -0.3982,0.60503 -0.43623,0.62048c0,0 -0.06943,0.03523 -0.13917,0.10451c-1.18343,-0.30012 -2.19864,-0.54945 -3.49586,-0.54127z" data-paper-data="{&quot;noHover&quot;:false,&quot;origItem&quot;:[&quot;Path&quot;,{&quot;applyMatrix&quot;:true,&quot;segments&quot;:[[[548.70327,300.1379],[-3.96696,-0.025],[9.11621,2.26798]],[[576.63221,304.54838],[-9.23788,-1.97799],[0.44405,-0.42172]],[577.72,304.12667],[[579.13672,304.1379],[0,0],[0.92302,-0.23247]],[[582.24968,302.52975],[-0.3877,1.11364],[0.35185,-1.01066]],[[576.5314,298.90264],[0.70752,0.44667],[-6.85622,-4.3284]],[[558.12,287.92667],[8.96235,-0.0711],[-0.32244,-0.01031]],[[557.17398,287.93935],[0.3084,-0.0184],[-0.22222,0.22144]],[[556.12,288.32667],[0.49882,0],[-0.27198,0]],[[555.44306,288.1966],[0.18229,0.08075],[-1.79529,0.43103]],[[550.62702,290.61957],[1.45735,-1.09299],[3.7602,0.17991]],[[561.39434,292.60364],[-3.24508,-1.30368],[1.81243,0.72813]],[[565.99082,295.88502],[-1.74918,-0.84741],[0,0]],[[566.66164,297.89749],[0.67082,-1.34164],[-0.67082,1.34164]],[[564.64917,298.56831],[0,0],[-6.31469,-3.23305]],[[547.19921,293.53728],[7.24723,0.14596],[-0.98666,0.88509]],[[544.19706,296.04353],[1.03051,-0.7515],[-2.50877,1.82951]],[[536.25859,299.59673],[2.67807,-1.23478],[-1.39236,0.64197]],[[537.59082,301.48502],[-0.11634,-0.04726],[0,0]],[[538.01592,301.80281],[-0.21325,-0.21186],[3.61894,-0.91776]]],&quot;closed&quot;:true}],&quot;index&quot;:null}" fill="#000000" stroke="#000000" stroke-width="0"/><path d="M260.94041,166.28669c-0.88855,0.57084 -1.45892,1.19082 -2.35871,2.07354c-0.27213,0.27341 -0.61872,0.50705 -0.90834,0.77684c-0.59604,-0.54515 -1.2692,-0.97876 -2.02827,-1.18194c0.52017,-0.4883 0.73124,-1.15296 0.0283,-1.8489c-0.54724,-0.54176 -1.96931,-0.7468 -2.65867,-1.22601c-0.12724,-0.08845 -0.25122,-0.18196 -0.3732,-0.27492c0.0331,-0.06373 0.05439,-0.14639 0.05439,-0.24753c0,-0.49051 -0.4275,-0.47326 -0.4275,-0.47326l-0.39214,-0.00088c-0.02574,0 -0.11429,-0.0183 -0.14008,-0.01825c-0.49819,-0.41632 -0.98811,-0.82644 -1.53125,-1.15054c0.64144,-0.29265 1.36772,-0.7175 1.8033,-1.18863c1.22468,0.06617 2.57989,-0.72967 3.90896,-0.37909c0.87257,0.23017 1.76081,0.57058 2.63731,0.79208c1.13984,0.28803 2.1503,0.14763 3.046,1.06064c0,0 0.07894,0.07955 0.19875,0.1245c-0.07567,0.24023 -0.16023,0.46796 -0.34147,0.63791c-0.44578,0.41799 -1.62142,0.50463 -1.69298,1.30867c-0.07832,0.88021 0.51445,1.1462 1.17559,1.21576z" data-paper-data="{&quot;noHover&quot;:false,&quot;origItem&quot;:[&quot;Path&quot;,{&quot;applyMatrix&quot;:true,&quot;segments&quot;:[[[525.58066,304.166],[-2.75157,-2.69937],[0.83214,0.8361]],[[528.33459,306.52763],[-0.88568,-0.82502],[1.8227,-1.66708]],[[534.4865,302.90641],[-2.32129,0.62132],[-1.59069,-1.49322]],[[534.3814,297.2566],[-2.14966,2.12816],[1.67347,-1.65673]],[[542.44293,293.6098],[-2.10809,1.46539],[0.38908,-0.27046]],[[543.58498,292.7763],[-0.37304,0.28429],[-0.10123,-0.19488]],[[543.42,292.02667],[0,0.30926],[0,-1.5]],[544.92,290.52667],[[546.12,290.52667],[0,0],[0.0787,0]],[[546.35637,290.52684],[-0.07889,-0.00012],[1.52347,-1.27312]],[[551.04255,287.01871],[-1.66094,0.99112],[-1.96156,-0.89493]],[[545.54597,283.41248],[1.33199,1.44074],[-3.74511,0.20235]],[[533.66462,282.28654],[4.06437,-1.07211],[-2.66833,0.70386]],[[525.66462,284.68654],[2.68039,-0.67732],[-3.48568,0.88082]],[[516.38066,287.88733],[2.73905,-2.79203],[0,0]],[[515.77388,288.26519],[0.36637,-0.13745],[0.23141,0.7346]],[[516.82058,290.20749],[-0.55427,-0.51972],[1.36322,1.27823]],[[522.00063,294.18639],[-0.21878,-2.45875],[0.2395,2.69169]],[[518.40287,297.8801],[2.02177,-0.21272],[2.71718,1.74566]]],&quot;closed&quot;:true}],&quot;index&quot;:null}" fill="#000000" stroke="#000000" stroke-width="0"/><path d="M239.46225,170.74577c-0.11878,-0.05588 -0.23503,-0.05651 -0.23503,-0.05651l-0.49213,-0.00115c-2.58579,0.02847 -0.44961,-2.70854 -0.03222,-3.96073c0.1456,-0.43681 0.1238,-1.67024 0.40935,-1.98555c0.31619,-0.34913 1.04524,-0.67836 1.4336,-0.94514c1.59592,-2.3233 2.88725,-5.077 6.02479,-3.51146c0.64191,0.32029 0.99737,0.18375 1.50945,0.72927c0,0 0.02304,0.0231 0.0628,0.05116c-0.0245,0.29743 -0.02955,0.6187 -0.03056,0.9665c-0.0539,-0.00293 -0.16393,0.02962 -0.21913,0.02849c-3.1995,0.02017 -4.04344,2.20332 -6.47792,3.70751c-0.62361,0.38531 -1.77873,0.67967 -2.13289,1.34846c-0.6571,1.24082 0.51404,1.83507 1.49167,2.10868c-0.41208,0.40954 -0.93328,0.97894 -1.3118,1.52045z" data-paper-data="{&quot;noHover&quot;:false,&quot;origItem&quot;:[&quot;Path&quot;,{&quot;applyMatrix&quot;:true,&quot;segments&quot;:[[584.64999,311.28333],[[586.14999,311.28333],[0,0],[7.90742,0.08703]],[[586.21436,299.21801],[1.2764,3.82921],[-0.44526,-1.33577]],[[584.95793,293.19382],[0.87322,0.96419],[-0.96691,-1.06763]],[[580.58933,290.34399],[1.18763,0.8158],[-4.88036,-7.10471]],[[562.30902,279.6308],[9.59469,-4.78746],[-1.96297,0.97946]],[[557.71065,281.84399],[1.56597,-1.66826],[0,0]],[[557.51935,281.99954],[0.12158,-0.08582],[0.07492,0.90954]],[[557.6196,284.94539],[-0.00309,-1.06358],[0.16483,-0.00897]],[[558.12,284.92667],[-0.16879,0.00348],[9.78418,0.06166]],[[578.10859,296.35069],[-7.44468,-4.59988],[1.90702,1.1783]],[[584.62529,300.48762],[-1.08304,-2.04514],[2.00943,3.79447]],[[580.02086,306.97874],[2.98967,-0.8367],[1.26014,1.25239]],[[583.93425,311.45421],[-1.15753,-1.65598],[0.36324,-0.17088]]],&quot;closed&quot;:true}],&quot;index&quot;:null}" fill="#000000" stroke="#000000" stroke-width="0"/><path d="M284.0598,162.88687c-0.39703,-0.05799 -0.39703,-0.484 -0.39703,-0.484l0.14366,-0.47765c1.9941,-1.9941 4.27983,-4.19856 7.14861,-4.19856c3.08778,0.01946 5.90488,3.6913 7.5808,5.94399c0.7318,0.98366 1.40343,1.44171 1.41191,2.78712c-0.0081,1.93971 -1.6217,4.55672 -3.66783,5.05977c-0.89577,0.22023 -1.98982,-0.06089 -2.9105,0.00518c-0.43147,0.03097 -1.16665,0.41129 -1.81308,0.76848l0.00715,0.00715l-0.39241,0.39241c-0.08877,0.08877 -0.21139,0.14367 -0.34684,0.14367c-0.2709,0 -0.49051,-0.21962 -0.49051,-0.49052v-0.52322c0,-0.84181 0.19676,-1.36141 0.39609,-2.15279c0,-2.79295 -3.46018,-6.65808 -6.31493,-6.64373c0,0 -0.2099,0 -0.35508,-0.13731zM291.70348,169.78778c-0.15655,0.62928 -0.31319,1.0391 -0.36814,1.59769c0.65275,-0.48231 2.10517,-0.83855 2.62817,-0.8401c2.51724,-0.00748 5.01775,-1.1974 5.00321,-4.08759c0.00868,-1.09463 -0.60289,-1.38762 -1.20414,-2.1834c-1.46169,-1.93463 -4.09678,-5.58819 -6.80755,-5.56669c-2.31205,0 -4.24249,1.71981 -5.92364,3.38186c3.29546,0.47498 6.67209,4.50115 6.67209,7.69823z" data-paper-data="{&quot;index&quot;:null}" fill="#000000" stroke="#000000" stroke-width="0"/><path d="M291.70145,169.82042c0,-3.19708 -3.4047,-7.26866 -6.70016,-7.74365c1.68115,-1.66205 3.63638,-3.40135 5.94843,-3.40135c2.71077,-0.02149 5.38359,3.65999 6.84528,5.59462c0.60124,0.79578 1.21246,1.0996 1.20378,2.19423c0.01453,2.8902 -2.50703,4.10442 -5.02427,4.11191c-0.523,0.00155 -1.98983,0.35951 -2.64258,0.84183c0.05496,-0.5586 0.21297,-0.96831 0.36952,-1.59757z" data-paper-data="{&quot;noHover&quot;:false,&quot;origItem&quot;:[&quot;Path&quot;,{&quot;applyMatrix&quot;:true,&quot;segments&quot;:[[[550.03082,213.69868],[20.84306,3.0042],[10.63298,-10.51209]],[[587.4966,192.30917],[-14.62324,0],[17.14504,-0.13601]],[[630.5529,227.51728],[-9.24487,-12.2361],[3.80271,5.03312]],[[638.16883,241.32679],[0.05491,-6.92332],[0.09189,18.27989]],[[606.52454,267.17997],[15.92101,-0.0473],[-3.30784,0.00982]],[[589.90192,272.49344],[4.12848,-3.05053],[0.34757,-3.53301]],[[592.23036,262.38838],[-0.99018,3.98],[0,-20.22082]]],&quot;closed&quot;:true}],&quot;index&quot;:null}" fill="#000000" stroke="#000000" stroke-width="0"/><path d="M251.8449,178.26276c-0.29431,-0.39241 0.0981,-0.68672 0.0981,-0.68672c0.72886,-0.51203 1.00938,-0.49051 1.86395,-0.49051c0.2506,0 0.58475,0.29691 0.74456,0.10389c0.27881,-0.33674 0.3879,-1.01951 0.82508,-1.01951c1.54896,0 0.32047,1.14142 1.10333,1.34537c2.6699,0.69555 1.89268,2.08067 0.31365,3.65223c-0.12186,0.16316 -0.78571,1.06457 -0.88405,1.13368c-2.57992,1.81296 -3.366,-2.13188 -3.75567,-3.69055l-0.05383,-0.15946c-0.08566,-0.02442 -0.1741,-0.0804 -0.25512,-0.18841z" data-paper-data="{&quot;index&quot;:null}" fill="#000000" stroke="#000000" stroke-width="0"/><path d="M234.85164,186.1936c-0.19123,-0.0928 -0.09842,-0.28403 -0.09842,-0.28403l0.16727,-0.34072c0.38118,-1.57222 2.21473,-1.75099 3.30066,-2.61503c1.94717,-0.96004 4.3721,-1.34725 6.25742,-2.60646c0,0 0.17686,-0.1179 0.29477,0.05896c0.1179,0.17686 -0.05896,0.29477 -0.05896,0.29477c-1.90879,1.27029 -4.31852,1.62549 -6.26411,2.61083c-0.91532,0.73668 -2.92782,1.0002 -3.12685,2.39253l-0.18772,0.39074c0,0 -0.0928,0.19123 -0.28403,0.09842z" data-paper-data="{&quot;index&quot;:null}" fill="#000000" stroke="none" stroke-width="0.5"/><path d="M287.40641,172.64317c0.43592,0.61422 1.00303,1.19213 0.62624,2.00649c-0.46274,1.00012 -2.16526,0.53309 -2.40083,-0.37949c-0.04289,-0.16613 -0.03563,-0.32475 -0.00398,-0.48024c-0.36588,-0.24081 -0.69633,-0.55421 -0.88941,-0.9045c-0.22008,-0.3993 -0.2737,-0.78878 -0.24629,-1.15597c-0.19791,-0.20766 -0.33504,-0.39106 -0.3544,-0.51914c-0.10146,-0.67157 0.0782,-0.94775 0.39273,-0.9992c-0.23495,-0.29707 -0.47539,-0.59204 -0.70635,-0.89016l-0.05402,0.06303l-0.64345,-0.55153c-0.09209,-0.07798 -0.15055,-0.19445 -0.15055,-0.32457c0,-0.11953 0.04933,-0.22755 0.12875,-0.30478l-0.0003,-0.00073c-0.02188,-0.05122 -0.03398,-0.10761 -0.03398,-0.16683c0,-0.00645 0.00014,-0.01288 0.00043,-0.01927c-0.00577,-0.04658 -0.00405,-0.09919 0.00783,-0.15858c0.08337,-0.41686 0.50024,-0.33349 0.50024,-0.33349c0.66248,0.1534 1.31416,0.57166 1.91169,1.09918c0.65975,0.47754 1.22881,1.10909 1.74597,1.80227c0.14122,0.18929 0.5123,0.62666 0.57405,0.98451c0.24467,0.38366 0.47652,0.89515 0.11348,1.20339c-0.11115,0.09438 -0.29466,0.09253 -0.51786,0.02963zM286.6005,174.2312c0.04446,0.02515 0.09654,0.04796 0.15169,0.06716l-0.01529,-0.03821c-0.04437,-0.00776 -0.08991,-0.01744 -0.13641,-0.02895z" data-paper-data="{&quot;index&quot;:null}" fill="#000000" stroke="none" stroke-width="0.5"/><path d="M249.16673,189.24175c0.09615,-0.23724 0.19263,-0.44216 0.28849,-0.61739c-2.27021,0.37351 -5.11484,-0.12495 -5.11484,-2.6137l-0.08723,-0.05234c-0.5564,-0.5564 -0.92992,-1.58073 -0.88495,-2.50893c-1.18836,0.92923 -2.72011,1.73939 -3.74683,2.08163c-1.47711,1.40186 -3.59063,2.40299 -5.17875,4.0129l-0.13043,0.13043c0,0 -0.1503,0.1503 -0.3006,0l-0.00001,-0.00001c-0.1503,-0.1503 0,-0.3006 0,-0.3006l0.13043,-0.13043c1.59516,-1.56923 3.88134,-2.61089 5.25586,-4.07392c1.00778,-0.33592 2.8497,-1.2862 4.06029,-2.30187c0.14207,-0.51671 0.45338,-0.95484 0.98498,-1.19225c0.02553,-0.0114 0.05077,-0.02239 0.07574,-0.03298c0.00619,-0.01311 0.01217,-0.02619 0.01792,-0.03924c0,0 0.09506,-0.19011 0.28518,-0.09506c0.00833,0.00417 0.01612,0.00852 0.02338,0.01302c0.27056,-0.08527 0.50579,-0.11897 0.71651,-0.11618c0.11036,-0.02048 0.22327,-0.03371 0.33822,-0.03918l-0.03642,-0.06748c-0.94167,-0.0113 -2.09773,-0.54454 -1.95468,-1.59068c0.99317,-1.15214 2.75039,-3.0121 4.36404,-3.58904l-1.0034,-0.09122l-0.22369,-0.07803l-0.23678,-0.00789l-0.93198,-0.26628l-1.41616,-0.14162l-0.11718,-0.04206l-0.12436,0.00592l-1.63893,-0.32779l-0.23634,-0.11195l-0.25817,-0.04164l-1.14725,-0.49168l-0.06536,-0.04967l-0.07658,0.00528l-0.42577,-0.38707l-0.45812,-0.34817l-0.00875,-0.07626l-0.06075,-0.05522l-0.04197,-0.06296l-0.22164,0.11821l-0.65557,0.16389l-0.30776,0l-0.29857,0.07464h-0.65557l-0.09758,-0.0244l-0.07576,0.03788l-0.53033,-0.1894l-0.54632,-0.13658l-0.04202,-0.07354l-0.09473,-0.03383l-0.49168,-0.32779l-0.70483,-0.77532l-0.09592,-0.05481l-0.01748,-0.06993l-0.04849,-0.05334l0.0076,-0.11021l-0.25413,-1.01652v-0.49168l0.09747,-0.38988l0.03082,-0.40069l0.32779,-0.98336l0.09661,-0.15181l0.03903,-0.17566l0.49168,-0.98336l0.03624,-0.04228l0.01443,-0.05379l0.81947,-1.47504l0.16184,-0.17301l0.103,-0.21335l0.63371,-0.76046l0.52581,-1.05162l0.14789,-0.17253l0.08818,-0.20943l1.47504,-1.96672l0.13965,-0.11347l0.09258,-0.1543l0.81947,-0.81947l0.1543,-0.09258l0.11347,-0.13965l0.38774,-0.2908l0.94171,-1.21077l0.12434,-0.09745l0.08128,-0.13546l0.44963,-0.44963l0.00069,-0.00498l0.01542,-0.01114l0.18983,-0.18983l0.43142,-0.25885l0.40787,-0.29457l0.24925,-0.0997l0.01631,-0.00979l0.00485,0.00132l0.54905,-0.21962l0.38873,-0.05301l0.37345,-0.12026l2.4584,-0.16389l0.42326,0.07632l0.42984,0.01433l1.14725,0.32779l0.04824,0.02783l0.05553,0.00427l0.98336,0.32779l0.20051,0.12759l0.13566,-0.00936l0.35084,0.31895l0.40002,0.25456l0.02667,0.13334l0.07689,0.0699l0.05452,0.02726l0.84047,0.3602l1.38368,0.27674l0.09332,0.0442l0.1032,0.00344l1.14725,0.32779l0.08896,0.05132l0.10204,0.01166l1.05632,0.39612l0.87783,0.1254l0.24147,0.09838l0.25934,0.02701l1.49747,0.54453l0.09129,-0.03948l0.45673,0.19231l0.48077,0.12019l0.06188,0.10829l0.18812,0.07921l0.53106,0.39829l0.79718,0.45553l0.25683,0.08561l0.15181,0.09661l0.04343,0.00965l0.00489,-0.00133l0.00641,0.00385l0.12092,0.02687l0.32779,0.16389l0.30513,0.26154l0.34461,0.20676l0.12861,0.12861l0.18236,0.15631l0.34461,0.20676l0.07922,0.07922l5.99537,1.56401l0.33298,0.18198l0.36096,0.11707l2.62229,1.63893l0.28295,0.29343l0.32694,0.24347l1.1282,1.37891l1.77049,-0.29508l0.20829,0.01666l0.20271,-0.05068h0.65557c0.42612,0 0.82733,0.10661 1.17843,0.29461l0.07157,0.01789l0.01883,0.03296c0.73685,0.43488 1.23117,1.23698 1.23117,2.15454c0,0.91756 -0.49431,1.71966 -1.23117,2.15454l-0.01883,0.03296l-0.07157,0.01789c-0.3511,0.188 -0.75232,0.29461 -1.17843,0.29461l-0.44867,0l-1.76263,0.29377l-0.13906,-0.01113l-0.13326,0.04129l-0.59281,0.03293l-0.71726,0.47817l-0.12025,-0.02672l-0.0195,0.01115l-0.04433,-0.02533l-1.0737,-0.2386l-0.16009,-0.08004l-0.13616,0.00756l-2.51509,0.31439l-3.42005,0.48858l-0.06501,-0.00672l-0.03156,0.03025l-1.14725,0.65557l-0.06838,0.01923l-0.05393,0.04623l-0.78173,0.39087l-0.47523,0.35642l-0.20943,0.08818l-0.17253,0.14789l-0.12616,0.06308l-0.11064,0.08298c0.71636,0.26524 1.26442,0.62642 1.33574,1.15648c1.35637,-0.04782 2.78307,-0.42407 4.14714,-0.50967c0.20823,-0.01307 0.43743,-0.00399 0.67534,0.01037c0.9754,-1.08349 1.99765,-2.08902 3.46405,-2.41489c1.40803,-0.3129 2.61389,0.47834 3.88095,0.40881c1.15739,-0.06351 2.08249,-0.61281 3.25487,0.05712c0.20533,0.11733 0.3892,0.27784 0.54936,0.46948c0.97972,-0.18255 1.96916,-0.4194 3.01711,-0.10034c1.29186,0.39331 1.95893,1.59036 3.38145,1.69274c0.76369,-0.00026 1.41885,0.2664 2.12793,0.2664l0.30709,0.14718c0,0 0.19011,0.09506 0.09506,0.28518l-0.00001,0.00002c-0.09506,0.19011 -0.28518,0.09506 -0.28518,0.09506l-0.21464,-0.11368c-0.6881,0 -1.30503,-0.25508 -2.04591,-0.25533c-1.50022,-0.11317 -2.15026,-1.31326 -3.48833,-1.7105c-0.91617,-0.27199 -1.78523,-0.1203 -2.64614,0.04586c0.45401,0.76328 0.61497,1.8114 0.39172,2.66042c1.77256,-0.12561 3.49998,-0.20019 5.34059,0.43705c0.15039,0.14811 0.31525,0.28962 0.50504,0.38199l0.26087,0.13043c0,0 0.19011,0.09506 0.09506,0.28518l0.00002,0.00001c-0.09506,0.19011 -0.28518,0.09506 -0.28518,0.09506l-0.26087,-0.13043c-0.19924,-0.10173 -0.38156,-0.24112 -0.53842,-0.40061c-1.82861,-0.58202 -3.52666,-0.48858 -5.27551,-0.36246c-0.0287,0.05998 -0.05989,0.11818 -0.0936,0.17437c-0.46482,0.7747 -3.25964,1.92291 -3.29315,2.30491c-0.06276,0.7154 0.313,3.30414 -0.50481,4.04761c-1.37572,1.25065 -3.18562,1.73109 -5.06018,2.02169c-0.42309,1.02588 -1.38101,1.68814 -2.19399,2.44629c0.53015,-0.16502 1.04372,-0.31055 1.52807,-0.40103c1.71585,-0.32051 3.53399,-0.48949 5.24052,-0.83829c1.15484,-0.23604 1.85134,-1.13599 2.84165,-1.6241c2.90695,-1.43282 7.25023,-4.85458 10.56225,-4.82355c1.64676,0.01542 4.02261,-0.22595 4.13553,2.30828c2.51081,2.59686 5.75602,7.65379 5.75602,9.83728c0,2.43204 0.39024,7.67066 -0.98365,9.96048c-0.30453,0.50755 -0.70072,0.94666 -1.17009,1.32704c0.27879,0.65775 0.5129,1.37993 0.67729,2.07682c2.66228,-0.03243 5.97435,-0.13984 7.47083,-2.03411c1.61894,-2.04928 3.57878,-6.64489 1.47994,-9.20336c-0.68031,-0.82929 -2.71775,-5.38545 -2.5771,-5.90116c-0.0517,-0.20027 -0.0792,-0.41027 -0.0792,-0.6267c0,-0.49255 0.14244,-0.95182 0.38837,-1.33889c-0.09253,-0.06204 -0.18521,-0.1238 -0.27808,-0.18522l-0.18219,-0.12146h-0.00003c0,0 -0.02355,-0.0157 -0.05445,-0.04507c0.04191,-0.14777 0.06434,-0.30373 0.06434,-0.46493c0,-0.18762 -0.03039,-0.36814 -0.0865,-0.53692c1.2841,-0.4307 2.25054,0.19825 3.40242,0.1118c0,0 0.00482,0 0.01343,0.00051c0.76253,-2.18269 1.20352,-4.17656 2.55524,-6.21388c0,0 0.0277,-0.04155 0.07835,-0.08667c0.89878,-1.31128 2.24899,-1.43872 3.73704,-1.43872l0.43305,0.16635c0,0 0.1806,0.09029 0.23063,0.27089c0.11288,0.02525 0.23574,0.10047 0.29166,0.2962c0.11679,0.40876 -0.29197,0.52555 -0.29197,0.52555c-0.71081,0.19274 -1.42007,0.71767 -2.06575,1.41106c0.00585,0.03376 0.00903,0.07044 0.00903,0.1103c0,0.33381 -0.22286,0.44476 -0.37101,0.48164c-0.55198,0.98866 -1.5167,3.53511 -2.23952,4.76351c-0.00826,0.09843 -0.01415,0.19513 -0.01758,0.28988c1.13216,0.5438 1.14403,1.78016 1.37019,2.911l0.08059,0.32036c0,0 0.02614,0.10457 -0.00055,0.22156c0.01553,0.1027 -0.00579,0.18799 -0.00579,0.18799c-0.02969,0.10605 -0.08199,0.21135 -0.1398,0.315c0.02178,0.18941 0.07468,0.36935 0.15346,0.53459c-0.0909,0.0185 -0.17641,0.0036 -0.22256,-0.0081c0.03877,0.16785 0.07693,0.33748 0.1147,0.50841c0.13734,0.62152 1.3218,1.27757 1.49033,1.8273c1.13653,3.70741 2.84966,7.12596 0.81947,11.18634c-0.37305,0.7461 -1.88254,2.14189 -2.64225,2.30013c-0.28412,0.05918 -1.54395,3.16642 -2.08114,3.62687c-2.73686,2.34588 -6.81981,1.56261 -10.06179,1.28345c-1.57971,-0.13603 -3.48934,-0.44535 -4.7437,-1.40242c-0.03196,-0.00564 -0.06368,-0.01128 -0.09515,-0.01689c-0.97542,-0.17398 -1.32625,1.48524 -2.10183,2.10183c-1.62798,1.29424 -7.1416,5.25399 -8.51629,5.52074c-2.36966,0.45982 -5.9409,1.2367 -8.06498,-0.24823c-1.07183,-0.00473 -2.09073,-0.04921 -3.07212,-0.43039c-0.07379,-0.01365 -0.12464,-0.03908 -0.12464,-0.03908h0.00001l-0.62944,-0.31472c-0.14379,-0.06816 -0.24324,-0.21465 -0.24324,-0.38436c0,-0.23478 0.19033,-0.42512 0.42512,-0.42512c0.0714,0 0.13869,0.0176 0.19776,0.0487l0.59125,0.29563c0.71358,0.33064 1.50984,0.39067 2.30918,0.39961c-0.21505,-0.68115 -0.29563,-1.48713 -0.90742,-1.55993c-1.41234,-0.16806 -3.28466,0.36885 -4.71131,0.32779c-1.27978,-0.03684 -2.54086,-0.36461 -3.79048,-0.73094c-0.22229,0.24043 -0.45698,0.43905 -0.69578,0.58233c-1.75469,1.05282 -5.47404,-0.96028 -7.06417,-1.49033l-5.33135,0c-1.59215,1.06144 -6.11494,-3.14454 -4.64513,-5.71672c0.504,-0.88199 1.02591,-1.33478 1.55425,-1.50588c-1.14231,-1.10066 -2.54601,-2.49136 -2.8654,-3.53321c-0.00358,-0.01169 -0.00717,-0.02354 -0.01077,-0.03555c-0.2898,0.18013 -0.60622,0.30362 -1.05546,0.15387c-7.60242,-2.53414 0.38022,-5.08259 0.42594,-5.33685c0.32975,-1.83394 -0.8431,-8.40209 1.72261,-9.73385l0.12843,-0.51372l0.00661,0.00165l0.00272,-0.03422c0.00492,-0.01234 0.00985,-0.02459 0.01477,-0.03675c-0.00032,-0.00025 -0.00064,-0.0005 -0.00097,-0.00076zM266.47554,209.71791c1.24918,0.34069 1.8432,1.20079 2.00047,2.22432c1.06868,0.12968 1.9887,0.2043 2.60056,0.23248c2.72557,0.12552 5.70521,-0.50179 8.27452,-1.41169c1.16547,-0.41274 2.6669,-1.54386 4.21212,-2.21703c-0.2067,0.02111 -0.40151,0.04496 -0.5831,0.07225c-0.52932,0.07955 -1.87386,0.13974 -2.15268,-0.27848c-0.28018,-0.42027 -0.27927,-1.42311 -0.77033,-1.30488c-5.27049,1.26898 -8.46608,2.0603 -13.26547,1.28095c-1.21996,-0.1981 -2.57658,-2.83726 -2.67585,-2.83962c-0.4664,-0.01107 -0.97947,0.02361 -1.47824,0.0054c-0.14859,0.91037 -0.67051,1.79074 -1.28817,2.43916c-0.61981,0.65068 -2.99194,-0.36485 -2.65495,0.46822c0.46182,1.14165 2.33379,1.9803 4.52802,2.57466c0.60968,-0.98809 2.13521,-1.55062 3.25308,-1.24575zM255.46828,197.49513c0.02312,0.04624 0.04322,0.0932 0.0606,0.14081c0.23293,0.37987 0.36723,0.82676 0.36723,1.30501c0,0.44135 -0.11437,0.856 -0.31509,1.2159c0.04675,0.19038 0.39052,0.03886 0.58357,0.07295c1.11761,0.19734 2.90452,0.87156 4.30208,1.73043c0.28803,-0.57207 0.75248,-1.1161 1.30016,-1.62256c-0.39295,-0.27325 -0.75603,-0.5614 -0.79721,-0.73712c-0.16685,-0.71198 -0.03165,-0.98458 0.25464,-1.0025c-0.04162,-0.08746 -0.07863,-0.17594 -0.11045,-0.26518c0,0 -0.13443,-0.40331 0.26887,-0.53774c0.40331,-0.13443 0.53774,0.26887 0.53774,0.26887c0.13428,0.45112 0.57142,0.96993 0.99791,1.3336c1.24797,-0.9178 2.58791,-1.65631 3.24688,-2.1366c0.64459,-0.46982 1.37652,-0.9234 2.16763,-1.33934c-1.06851,0.0959 -2.11922,0.13543 -3.13641,0.11082c-2.61315,-0.06323 -3.4028,-1.77004 -6.42452,-1.63893c-1.3317,0.05778 -3.26248,0.98383 -5.01703,1.23367c0.55613,0.37926 1.05565,0.90245 1.45186,1.5628zM287.12923,208.36956c1.63342,0.86802 0.34135,1.73174 1.56305,2.75206c0.289,0.24136 2.03865,-1.56261 2.149,-1.6572c0.31335,-0.26858 0.74927,-0.79238 1.25238,-1.42563c-1.69087,0.19328 -3.42111,0.26396 -4.98355,0.32069c0.00638,0.00333 0.01275,0.00669 0.01912,0.01008zM282.15304,198.49976c0.54085,0.51011 0.37794,1.89815 1.12079,1.92832c0.70388,0.02859 3.79976,-1.31887 4.35184,-1.05263c0.68357,0.32966 1.15515,0.53809 1.47091,0.79287c-0.00555,-0.11349 -0.01068,-0.22701 -0.01487,-0.34083l-0.06541,0.01309l-0.13998,-0.69992c-0.00653,-0.02961 -0.00997,-0.06039 -0.00997,-0.09198c0,-0.23478 0.19033,-0.42512 0.42512,-0.42512c0.11739,0 0.22367,0.04759 0.3006,0.12452l0.26622,0.26622v-0.53244c0,-0.23478 0.19033,-0.42512 0.42512,-0.42512c0.23478,0 0.42512,0.19033 0.42512,0.42512v0.38934c0.04445,0.17945 0.33275,1.09564 0.32156,1.63744c0.05874,-0.07548 0.1111,-0.1485 0.13592,-0.20559c0.16678,-0.38357 -0.03236,-0.8361 -0.03236,-1.25437c0,0 0,-0.42512 0.42512,-0.42512c0.42512,0 0.42512,0.42512 0.42512,0.42512c0,0.46093 -0.0975,3.22073 -1.39854,2.67417c-0.02976,-0.01251 -0.0583,-0.03316 -0.08567,-0.06098l-0.0247,0.01797l0.02046,0.01364l-0.27975,0.41963c-0.0757,0.1172 -0.20747,0.19479 -0.35738,0.19479c-0.09023,0 -0.1739,-0.02811 -0.24272,-0.07606c-0.01086,0.12454 0.0027,0.23427 0.10057,0.28465c0.21565,0.11099 5.41642,0.18195 5.75892,-0.54301c1.45881,-3.0878 -0.55299,-5.18663 -1.24183,-7.94199c-0.2033,-0.81318 0.41456,-2.43557 -0.08402,-3.17874l-0.13425,-0.03356c-0.18931,-0.04296 -0.33064,-0.21227 -0.33064,-0.41458c0,-0.0021 0.00002,-0.0042 0.00005,-0.0063c-0.81523,-0.71281 -2.08902,-1.69057 -3.00233,-2.72007c-2.55166,1.2657 -5.05788,2.58192 -7.64003,3.91261c-0.10952,0.05644 -0.21991,0.11258 -0.33114,0.1684c0.114,0.45347 0.18207,0.94462 0.19264,1.40817l0.04467,-0.01276l0.23088,0.80808c0.01238,0.03988 0.01905,0.08227 0.01905,0.12623c0,0.23478 -0.19033,0.42512 -0.42512,0.42512c-0.02938,0 -0.05805,-0.00298 -0.08575,-0.00865c0.05181,0.28092 0.08151,0.56549 0.06749,0.85888h0.15995v0.42512c0,0.03996 -0.00551,0.07864 -0.01582,0.11531c0.14095,0.38259 0.28275,0.76815 0.41912,1.16731l0.02182,0.27614c0,0 0,0.42512 -0.42512,0.42512c-0.42512,0 -0.42512,-0.42512 -0.42512,-0.42512l0.02182,-0.00727c-0.19957,-0.61844 -0.52381,-1.36933 -0.79865,-2.14854c-0.27918,-0.53689 -0.8214,-1.56697 -1.09961,-2.46077c-0.94473,0.40434 -1.93031,0.78378 -2.94222,1.13115c0.8387,0.11258 1.63905,0.33312 2.37474,0.68161c1.09572,0.26535 1.90947,1.25257 1.90947,2.42985c0,0.23437 -0.03225,0.4612 -0.09255,0.67631c-0.00147,0.32689 0.0724,0.64356 0.29045,0.84922zM264.98369,179.09296c-1.83305,0.95381 -2.56815,-0.03865 -3.48607,1.93362l-0.49825,0.1175c0,0 -0.21256,0 -0.21256,-0.21256c0,-0.21256 0.21256,-0.21256 0.21256,-0.21256l-0.00001,0.00001l0.11802,0.1175c0.20672,-0.39358 0.26718,-0.93608 0.47151,-1.24923c0.59231,-0.90776 2.29391,-0.41109 3.14459,-0.83797c0.30778,-0.30755 0.48474,-0.5748 0.55763,-0.80802c-0.03487,-0.03137 -0.062,-0.08018 -0.062,-0.15612c0,-0.09887 0.04599,-0.15175 0.09518,-0.18004c-0.06161,-0.44211 -0.56564,-0.73332 -1.22163,-0.94174l-0.02852,0.02139l-0.32864,0.13838l-0.29355,0.20245l-1.18828,0.44561l-0.53821,0.2691l-0.17566,0.03903l-0.15181,0.09661l-0.2998,0.09993l-0.01343,0.0179l-0.0633,0.00767l-0.11515,0.03838l-0.55152,0.04242l-0.54913,0.06656l-0.12044,-0.01506l-0.06357,0.00489l-0.01668,-0.01492l-1.11045,-0.13881l-0.18184,-0.07039l-0.19488,-0.0065l-1.14725,-0.32779l-0.20274,-0.11697l-0.22849,-0.05078l-0.65557,-0.32779l-0.14341,-0.12292l-0.18438,-0.04097l-0.06231,-0.03115l-0.06966,-0.01742l-0.01393,-0.02438l-0.63738,-0.31869h-0.0654l-0.05647,-0.01412l-0.05705,0.01154l-3.60565,-0.16389l-0.05554,-0.0166l-0.05728,0.00891l-1.53308,-0.13937c-0.03577,0.15236 -0.20602,0.15236 -0.20602,0.15236c-0.60828,-0.02429 -1.00142,0.50417 -1.39037,0.86215c-0.92841,0.85447 -2.33012,1.41521 -3.45035,2.65446c-0.08978,0.6432 1.03926,0.99643 1.56822,0.98844l0.32454,0.20113c0,0 0.16395,0.13214 0.03394,0.29657c0.70398,0.05607 1.3258,0.40378 1.7446,0.92226c0.95048,0.08822 2.4298,-0.91581 3.46264,-0.93024c1.83018,-0.02558 3.18239,0.71057 5.23081,0.65557c2.81875,-0.07568 6.35924,-1.22697 9.30363,-1.62091c0.88119,-0.1179 1.60822,-0.46704 2.25202,-0.94003c-0.93207,-0.03397 -1.86612,-0.02496 -2.77419,-0.02496c0,0 -0.21256,0 -0.21256,-0.21256c0,-0.21256 0.21256,-0.21256 0.21256,-0.21256c1.06386,0 2.17805,-0.01788 3.28334,0.03804c0.53667,-0.47337 1.02283,-1.02148 1.50831,-1.56887c-0.09897,-0.0012 -0.19502,0.00036 -0.28718,0.00603c-1.39191,0.08564 -2.82793,0.45208 -4.21012,0.50813c-0.09289,0.31545 -0.32996,0.67964 -0.7523,1.10231zM264.90511,190.3612c-0.21985,0.2978 0.52002,0.6074 0.88464,0.67127c0.61376,0.10751 1.26425,0.07106 1.92861,-0.04492l0.09287,-0.18574l0.14942,0.07471c0.38437,-0.66282 0.9319,-0.98235 1.51566,-1.76913l0.39844,-0.39995c0,0 0.30061,-0.3006 0.60121,0c0.01101,0.01101 0.02121,0.02202 0.03066,0.03302l-0.00001,-0.00002c0.18503,-0.24871 0.40703,-0.51048 0.65123,-0.83773l0.0316,-0.04213c-2.53067,0.31034 -4.92983,0.66584 -6.28432,2.50062zM272.20646,187.7799c0,0.01307 -0.00059,0.02601 -0.00174,0.03878c0.02157,-0.03004 0.04249,-0.06037 0.06272,-0.09099c-0.02108,0.0027 -0.04217,0.00538 -0.06325,0.00806c0.0015,0.01451 0.00226,0.02924 0.00226,0.04415zM244.95434,165.5143l-0.09345,-0.04063h-0.1019l-0.32872,-0.08218l-0.16187,0.03237l-0.54176,1.08352l-0.28643,0.76381v0.27858l0.0257,-0.04039l0.29554,-0.49257l0.04926,-0.04926l0.03855,-0.06058l0.02754,-0.00551l0.27578,-0.27578l-0.00122,-0.05712l0.41648,-0.41648l0.38331,-0.44719l0.06764,-0.00376l0.04366,-0.04366l0.16326,-0.09796z" fill="#000000" stroke="none" stroke-width="0.5"/></g></g></svg>