<svg version="1.1" xmlns="http://www.w3.org/2000/svg" xmlns:xlink="http://www.w3.org/1999/xlink" width="68.73736" height="83.29505" viewBox="0,0,68.73736,83.29505"><g transform="translate(-243.90911,-142.68646)"><g data-paper-data="{&quot;isPaintingLayer&quot;:true}" fill-rule="nonzero" stroke="none" stroke-linecap="butt" stroke-linejoin="miter" stroke-miterlimit="10" stroke-dasharray="" stroke-dashoffset="0" style="mix-blend-mode: normal"><path d="M273.24602,186.25512c0,0.20419 0.00033,0.40882 0.00033,0.613c-0.03232,0.02324 -0.06115,0.05506 -0.07963,0.09851c-0.47566,0.48535 -0.90084,1.53066 -1.61098,1.54849c-0.53657,0.57684 -1.22385,0.94939 -1.70375,1.60385c-0.77347,1.05482 -1.06168,2.18178 -2.05128,3.0961c-0.0456,0.0181 -0.07445,0.03913 -0.07445,0.03913c-0.91802,0.66818 -1.52556,1.54667 -2.23024,2.36031c-0.38621,0.44592 -0.9946,0.97452 -1.25137,1.48878c-0.14036,0.28111 -0.16422,0.51937 -0.34823,0.7959c-0.43193,0.68272 -1.22191,1.28031 -1.59398,2.00559c-0.43067,0.83955 -0.37222,1.84781 -1.09311,2.52646c-0.15104,-0.01309 -0.25905,0.1041 -0.25905,0.1041c-0.24746,0.27053 -0.5901,0.61985 -0.71931,0.96272c-0.0018,0.00478 -0.0532,0.48999 -0.13667,0.58395c-0.66446,0.74805 -0.97923,1.21964 -1.14718,2.20226c-0.08124,0.47525 0.17986,0.98594 0.18153,1.48516c-0.03906,0.21271 -0.05392,0.42205 -0.05929,0.63236l-0.00505,0.02706c-1.01201,0.18372 -1.60544,0.72406 -2.17937,1.42024c-0.04344,0.05269 -0.34897,0.3004 -0.53704,0.50437c0.15468,-0.36089 0.38763,-0.97487 0.41242,-1.07929c-0.01814,-0.34237 0.07292,-0.74426 -0.56525,-0.79553c-0.23404,-0.0188 -0.61894,0.59594 -0.78675,0.72901c-0.41675,0.33049 -1.25904,0.8932 -1.792,0.97755c-0.63252,0.10011 -1.29523,0.15934 -1.94089,0.15934c-0.0304,0 -0.04665,-0.02566 -0.07651,-0.02771c0.27059,-0.22256 0.49045,-0.41593 0.63293,-0.70052l0.10136,0.03679l0.10485,-0.24434c0.01557,-0.03309 0.02417,-0.06953 0.02417,-0.10779c0,-0.15168 -0.13576,-0.27477 -0.30286,-0.27477c-0.04215,0 -0.08235,0.0078 -0.11881,0.02193l-0.29014,0.10522c-0.72451,0.2189 -1.37445,0.38554 -1.92395,0.88657c-0.08537,0.07784 -0.27088,0.27817 -0.41154,0.31396c-0.05666,0.01442 -0.16225,0.03202 -0.25662,0.04701c0.76513,-0.23543 0.82098,-1.658 0.82098,-2.19945c-0.003,-0.61685 0.42759,-0.9148 0.54038,-1.49421c0.11092,-0.56979 -0.11897,-1.16509 -0.05848,-1.72471c0.07453,-0.68953 0.61797,-1.38658 1.03748,-1.95593l0.21227,-0.10724c0.15702,-0.3716 -0.0059,-0.78045 0.12652,-1.11425c0.18962,-0.47793 0.3944,-0.89453 0.49505,-1.41674c0.05408,-0.28055 -0.06364,-0.59502 -0.00218,-0.87162c0.19325,-0.86968 0.88029,-1.72695 1.4302,-2.41341c0.17652,-0.74348 0.07776,-1.55332 0.37166,-2.27878c0.08929,-0.22039 0.29589,-0.39582 0.3683,-0.62126c0.0936,-0.29143 -0.06532,-0.62031 0.05282,-0.91425c0.22392,-0.55709 0.90914,-1.04114 1.24734,-1.55066c0,0 0.03889,-0.05895 0.04551,-0.13524c0.11879,-0.07886 0.11909,-0.2267 0.11909,-0.2267l0.00007,-0.05504c-0.05429,-0.99556 1.13403,-1.72178 1.50076,-2.55083c0.14089,-0.3185 0.23295,-0.751 0.36341,-1.09593c0.28573,-0.65463 0.90934,-1.02837 1.26417,-1.68231c0.17619,-0.32472 0.10705,-0.74746 0.34236,-1.06355c0.64911,-0.87189 1.40031,-1.58161 1.81822,-2.58181c1.47782,-1.29093 2.10297,-3.1017 3.32054,-4.54514c0,0 0.12206,-0.14776 0.0325,-0.29182c0.04976,-0.01212 0.09791,-0.02474 0.14402,-0.03792c0.30303,-0.08664 0.53326,-0.30906 0.86911,-0.35782c0.34721,-0.0504 0.71446,-0.10874 1.0805,-0.18681c0.06606,0.16765 0.28404,0.16772 0.28404,0.16772c2.42218,-0.0338 3.06441,2.10237 4.48704,3.35036c0.19891,0.5774 0.67048,1.10552 0.87676,1.67546c0.32324,0.8931 0.42444,1.85646 0.59779,2.80394c0.08353,0.45656 0.30748,0.85861 0.29949,1.3302z" data-paper-data="{&quot;noHover&quot;:false,&quot;origItem&quot;:[&quot;Path&quot;,{&quot;applyMatrix&quot;:true,&quot;segments&quot;:[[[514.86666,382.00522],[0,-1.48693],[0.21366,0.16925]],[[515.39321,382.72229],[-0.12215,-0.31641],[3.14411,3.53453]],[[526.04442,393.99448],[-4.69411,-0.12987],[3.54676,4.20068]],[[537.30969,405.66736],[-3.17213,-4.766],[5.11265,7.68157]],[[550.87727,428.18052],[-6.54122,-6.65834],[0.30142,0.13186]],[[551.36939,428.46493],[0,0],[6.06811,4.8659]],[[566.10106,445.60182],[-4.65804,-5.92514],[2.55284,3.24728]],[[574.34581,456.41033],[-1.69721,-3.74494],[0.92776,2.04713]],[[576.63498,462.19767],[-1.21632,-2.01376],[2.85507,4.97181]],[[587.13702,476.79095],[-2.45936,-5.2818],[2.84679,6.11387]],[[594.3468,495.18817],[-4.76519,-4.94213],[0.9984,-0.09536]],[[596.05644,495.9463],[0,0],[1.63568,1.97007]],[[600.80473,502.95751],[-0.85409,-2.49693],[0.0119,0.03478]],[[601.70743,507.21009],[-0.55173,-0.68432],[4.39207,5.44754]],[[609.28391,523.24845],[-1.11018,-7.15572],[0.53695,3.46095]],[[608.11318,534.26171],[0.01108,-3.63556],[0.25817,1.54901]],[[608.5049,538.86675],[-0.03553,-1.53157],[0,0]],[[608.51223,538.8655],[0,0],[6.68939,1.33788]],[[622.90743,549.21009],[-3.79367,-5.06979],[0.28716,0.38375]],[[626.45533,552.88359],[-1.24319,-1.48534],[-1.02241,-2.62811]],[[623.72973,545.02374],[0.16386,0.76039],[0.11994,-2.49327]],[[627.46177,539.2317],[-4.21834,0.37332],[1.54699,-0.13691]],[[632.65947,544.54147],[-1.10919,-0.96907],[2.75475,2.40675]],[[644.49821,551.66275],[-3.52292,-0.61429],[4.18097,0.72904]],[[657.32,552.82667],[-4.2679,0],[0.20095,0]],[[657.91813,552.80225],[-0.19737,0.01494],[-1.78861,-1.62078]],[[653.73349,547.70127],[0.94182,2.07252],[0,0]],[653.06304,547.96945],[[652.27989,546.01156],[0,0],[-0.10292,-0.24098]],[[652.12,545.22667],[0,0.27861],[0,-1.10457]],[[654.12,543.22667],[-1.10457,0],[0.27861,0]],[[654.90489,543.38656],[-0.24098,-0.10292],[0,0]],[[656.82176,544.15331],[0,0],[4.789,1.59406]],[[669.53421,550.61245],[-3.63223,-3.64862],[0.56433,0.56687]],[[672.25386,552.89924],[-0.92973,-0.26067],[0.37456,0.10502]],[[673.9494,553.24197],[-0.62377,-0.10911],[-5.05751,-1.71448]],[[668.52,537.22667],[0,3.94307],[0.01985,-4.49207]],[[664.94582,526.34703],[0.74553,4.2194],[-0.73316,-4.14944]],[[665.32681,513.79163],[0.39982,4.07532],[-0.49264,-5.02141]],[[658.46576,499.55082],[2.77301,4.14619],[0,0]],[[657.06304,498.76945],[0,0],[-1.03796,-2.70611]],[[656.22263,490.65912],[0.87537,2.43087],[-1.25335,-3.4805]],[[652.94582,480.34703],[0.66531,3.80284],[-0.35744,-2.0431]],[[652.95608,474.00488],[0.40627,2.01433],[-1.27737,-6.3333]],[[643.49418,456.44301],[3.63494,4.9991],[-1.16678,-5.41425]],[[641.02825,439.87574],[1.94268,5.28309],[-0.59019,-1.60502]],[[638.59257,435.36053],[0.47865,1.64174],[-0.61875,-2.12228]],[[638.24317,428.71769],[0.78095,2.14059],[-1.48007,-4.05689]],[[630.00501,417.45566],[2.23555,3.71053],[0,0]],[[629.70518,416.47326],[0.04373,0.55556],[-0.78518,-0.57427]],[628.92,414.82667],[[628.92,414.42667],[0,0],[0.35886,-7.24998]],[[619.03274,395.88868],[2.42406,6.03742],[-0.93129,-2.31949]],[[616.64202,387.91458],[0.86235,2.51194],[-1.88868,-4.76725]],[[608.30716,375.67142],[2.34541,4.76218],[-1.16464,-2.36472]],[[606.05031,367.92765],[1.55546,2.30181],[-4.29062,-6.34937]],[[594.05031,349.12765],[2.76234,7.28382],[-9.76841,-9.40097]],[[572.12,316.02667],[8.04813,10.51162],[0,0]],[[571.90498,313.90161],[-0.59201,1.04903],[-0.32888,-0.08826]],[[570.95376,313.62529],[0.30477,0.096],[-2.00304,-0.63092]],[[565.21296,311.01862],[2.21995,0.35507],[-2.29501,-0.36707]],[[558.07588,309.65688],[2.41952,0.56857],[-0.43666,1.2209]],[[556.19999,310.87778],[0,0],[-16.01066,-0.24617]],[[526.56796,335.26257],[9.40364,-9.08822],[-1.31478,4.20491]],[[520.78084,347.45735],[1.36348,-4.15048],[-2.1366,6.50386]],[[516.84083,367.86481],[1.14585,-6.89993],[-0.55214,3.32479]],[[514.86666,377.54444],[-0.0528,-3.43426],[0,1.48693]]],&quot;closed&quot;:true}],&quot;index&quot;:null}" fill="#894e1b" stroke-width="0.5"/><path d="M257.17423,176.37656c-0.29663,-0.21976 -0.59263,-0.64662 -0.84471,-0.98644c0.03345,0.0009 0.06687,0.00185 0.10027,0.00284c0.21425,0.32972 0.58583,0.54778 1.00835,0.54778c0.02813,0 0.05604,-0.00097 0.08369,-0.00287c0.34284,0.48353 0.99779,0.48353 0.99779,0.48353h0.60082c1.35472,0 2.96878,0.20687 4.24707,-0.35962c0.37523,-0.16629 0.54485,-0.64914 0.91752,-0.8211c0.76238,-0.35178 1.71629,-0.13358 2.46664,-0.51036c1.51487,-0.76066 2.70895,-2.2561 3.91096,-3.59325l0.55339,-0.16602c0.5086,-0.13989 0.88222,-0.60568 0.88222,-1.15872c0,-0.4523 -0.24988,-0.84623 -0.61913,-1.05126c-0.09937,-0.56348 -0.59136,-0.99153 -1.18334,-0.99153c-0.20432,0 -0.39672,0.05099 -0.56519,0.14094c-0.14701,-0.14854 -0.86272,-0.78865 -1.66808,-0.08395c-0.90433,0.79129 -0.11304,1.69562 -0.11304,1.69562c0.14412,0.14932 0.28824,0.29865 0.43236,0.44797c-0.07878,0.16889 -0.16288,0.3337 -0.2808,0.45841c-0.60552,0.64039 -1.6308,1.75856 -2.43235,2.15636c-0.71153,0.35312 -1.61061,0.13628 -2.33995,0.45096c-0.4051,0.17479 -0.61304,0.65888 -1.00512,0.86121c-0.78153,0.40329 -2.36958,0.12105 -3.20315,0.12105h-0.60082c0,0 -0.04348,0 -0.11392,0.00827c-0.21882,-0.29657 -0.57073,-0.48893 -0.96756,-0.48893c-0.66365,0 -1.20165,0.53799 -1.20165,1.20165c0,0.04209 0.00216,0.08367 0.00638,0.12463c-0.05417,-0.00136 -0.1084,-0.00259 -0.16266,-0.00367l0.00085,-0.00527c0,0 -0.00045,-0.27485 -0.30302,-0.27485c-0.10455,0 -0.17313,0.03271 -0.21792,0.07562c-0.36275,-0.1625 -0.76826,-0.24983 -1.05265,-0.41006c-0.37233,-0.20977 -0.74644,-0.52172 -1.20257,-0.72872c-0.88424,-0.52879 -1.86014,-0.87081 -2.69369,-1.44778c-0.60311,-0.41746 -0.58955,-1.5904 -0.58854,-2.2125l0.09687,-0.27401c0.00865,-0.7059 0.02254,-1.9806 0.54594,-2.53484c0.72108,-0.76359 1.37678,-1.60995 2.02811,-2.48959c0,0 0.07706,-0.10527 0.04846,-0.22031c0.04754,-0.04109 0.07131,-0.08438 0.07131,-0.08438l-0.07408,-0.04544c1.15918,-0.39723 0.65923,-1.43603 0.2856,-2.20018c-0.35001,-0.71584 -0.15168,-1.56813 -0.28195,-2.32178c-0.10739,-0.62129 -0.70689,-1.09668 -0.91512,-1.68158c-0.40742,-1.47923 -1.71896,-3.55755 -0.2756,-4.858c0,0 0.12765,-0.11582 0.08742,-0.2579c0.11869,-0.06321 0.22487,-0.11117 0.29902,-0.13377c1.06066,-0.32331 2.73678,-0.39126 3.38648,0.53142c0.43807,0.57885 1.10632,0.91576 1.5036,1.5415c0.08188,0.12895 0.33245,1.06253 0.3872,1.09202c0.43325,0.23331 1.09662,-0.35333 1.32054,-0.59859c0.59785,-0.65484 1.18539,-1.37577 2.29068,-1.36472c1.6415,0 3.3019,-0.16664 4.81505,0.52211c0.85311,0.38832 1.38313,1.05086 2.14087,1.50511c0.47705,0.64951 1.12456,1.13752 1.4456,1.91697c0.538,1.30617 0.3881,2.83156 0.3881,4.21223c0,1.20109 0.6149,2.71648 1.35722,3.72106c0.30724,0.41579 0.87713,0.64858 1.23346,1.03798c0.30306,0.33119 0.48209,0.66362 0.75097,1.00506c-0.06003,0.90195 -0.17337,2.00645 -0.01046,2.89685c0.12733,0.69592 0.2693,1.08862 0.01062,1.79301l-0.02776,-0.0158c0,0 -0.14444,0.13116 -0.0776,0.28552c-0.25657,0.41037 -0.32652,0.91448 -0.65612,1.29957c-0.43535,0.50864 -1.49684,0.59825 -2.10251,0.83239c-0.62401,0.24122 -1.17849,0.63301 -1.82781,0.82946c-0.80513,0.4872 -1.82385,0.65691 -2.74246,0.80067c-0.36803,0.0576 -0.62466,0.26843 -0.94803,0.37468c-0.1774,0.0583 -0.38025,-0.03523 -0.56653,-0.00813c-0.68528,0.0997 -1.37053,0.27131 -2.07185,0.27131c-0.51955,0.00725 -0.96305,-0.19531 -1.46604,-0.27113c-0.73684,-0.11107 -1.44974,-0.14099 -2.17411,-0.35601c-0.30039,-0.08916 -0.87127,-0.04577 -1.12356,-0.23269z" data-paper-data="{&quot;noHover&quot;:false,&quot;origItem&quot;:[&quot;Path&quot;,{&quot;applyMatrix&quot;:true,&quot;segments&quot;:[[[608.86666,299.04444],[6.00061,0],[-8.13798,0]],[[582.2342,295.60848],[7.53039,3.1365],[-6.14031,-2.55752]],[[563.98796,288.17441],[6.5355,2.23277],[-5.70132,-3.74652]],[[547.27725,274.9251],[4.30947,5.32229],[-2.05556,-2.53866]],[[541.31997,266.31242],[2.22625,2.66489],[-3.74453,-4.48232]],[[535.53495,252.6753],[0.0644,5.84858],[-0.90219,0.80922]],[[533.36235,257.18688],[0.58049,-2.32196],[0,0]],[531.86409,259.48718],[[529.09059,260.04188],[1.6641,1.1094],[-1.6641,-1.1094]],[528.53589,257.26837],[[529.7043,255.56867],[0,0],[2.11395,-8.45579]],[[544.19999,247.71111],[-7.4683,0],[0,0]],[[546.19999,249.71111],[0,-2],[0,2]],[[544.19999,251.71111],[0,0],[-1.9154,0]],[[539.3739,251.58532],[1.32632,-0.00375],[0.15942,0.42202]],[[539.53333,252.37778],[0,0],[0,5.08763]],[[544.41334,263.77646],[-3.23329,-3.88906],[2.23713,2.69087]],[[550.45607,272.49712],[-2.02351,-2.57146],[3.79642,4.82446]],[[565.74536,284.58114],[-5.09166,-3.45565],[6.40565,2.06708]],[[583.49911,291.81374],[-5.9314,-2.63224],[7.0158,3.11348]],[[608.86666,295.04444],[-7.67594,0],[6.52494,0]],[[628.20561,294.41616],[-6.47273,0.14185],[0,0]],[628.19999,294.37778],[[630.19999,292.37778],[-2,0],[0.69106,0]],[[631.63933,292.92911],[-0.296,-0.31255],[2.39779,-1.18335]],[[638.58961,289.94776],[-1.87984,1.16683],[2.46113,-1.52763]],[[646.52947,284.64796],[-3.01503,1.50751],[5.84489,-3.85087]],[[664.31934,274.1217],[-5.50975,4.20166],[3.9866,-3.04013]],[[668.20026,258.02521],[0.00669,4.53034],[0,0]],[[667.55915,256.03147],[0,0],[-0.05721,-5.1406]],[[663.94391,237.59176],[3.45962,4.03618],[-4.76636,-5.5607]],[[650.53589,219.48718],[4.30528,6.40585],[0,0]],[[650.21574,217.88557],[-0.18911,0.83771],[-0.31418,-0.29919]],[649.74447,217.2722],[[650.2342,216.94181],[0,0],[-7.66215,-2.89274]],[[648.35223,200.94574],[-2.46966,5.56478],[2.31354,-5.213]],[[650.22582,184.05741],[-0.86108,5.48829],[0.70985,-4.52441]],[[656.27975,171.8186],[-1.37645,4.25938],[2.69306,-10.77222]],[[658.11911,136.45866],[9.54064,9.47031],[0,0]],[[657.54244,134.58143],[-0.26583,1.03472],[-0.78456,-0.46037]],[[655.56754,133.60848],[0.49014,0.1646],[-7.01098,-2.35445]],[[633.19743,137.48718],[4.29451,-6.7193],[-2.89561,4.21536]],[[623.26315,148.71496],[2.62608,-4.5568],[-0.54119,0.93907]],[[620.70275,156.66693],[0.36195,-0.21474],[-2.86377,1.69904]],[[611.98664,152.31242],[1.48009,1.78607],[-3.95181,-4.76876]],[[596.86666,142.37778],[7.30599,-0.08041],[-10.85038,0]],[[565.07869,146.17441],[10.00198,-5.01577],[-5.63911,2.82789]],[[550.94754,157.12532],[5.00867,-3.30801],[-3.15328,4.72992]],[[541.4091,171.07167],[2.12212,-5.67614],[-3.5562,9.51195]],[[538.86666,201.71111],[0,-10.05448],[0,8.74672]],[[529.90129,228.76257],[4.90671,-7.31562],[-2.03088,3.02793]],[[521.74668,236.31242],[2.3553,-2.83573],[-2.00325,2.41187]],[[516.78084,243.62401],[1.77732,-2.48646],[0.39683,6.56835]],[[516.84083,264.69814],[1.07682,-6.48421],[-0.84161,5.06788]],[[516.76403,277.74532],[-1.70988,-5.12964],[0,0]],[516.94754,277.63023],[[517.45924,279.70781],[0.4418,-1.12407],[1.69592,2.98846]],[[521.78941,289.16379],[-2.17864,-2.80435],[2.87765,3.70412]],[[535.67577,295.21541],[-4.00349,-1.70508],[4.12472,1.75671]],[[547.74536,301.24781],[-4.29195,-1.43065],[5.32193,3.54796]],[[565.85369,307.07027],[-6.07198,-1.04691],[2.43267,0.41943]],[[572.11289,309.79692],[-2.1375,-0.77381],[1.17262,0.42451]],[[575.85369,309.73693],[-1.23137,-0.19737],[4.52967,0.72604]],[[589.53333,311.71111],[-4.63581,0],[3.43426,0.0528]],[[599.21296,309.73693],[-3.32479,0.55214],[4.87058,-0.80884]],[[613.56754,307.14708],[-4.78813,1.56582],[1.98554,-0.64931]],[[620.986,305.45503],[-1.66769,1.36121],[1.96073,-1.6004]],[[626.64365,298.45675],[-1.6663,2.4748],[-5.93234,0.17653]]],&quot;closed&quot;:true}],&quot;index&quot;:null}" fill="#f8e5bf" stroke-width="0.5"/><path d="M256.32949,175.39008c0.00001,0.00001 0.00001,0.00002 0.00002,0.00004c-0.00001,0 -0.00001,0 -0.00001,0z" data-paper-data="{&quot;noHover&quot;:false,&quot;origItem&quot;:[&quot;Path&quot;,{&quot;applyMatrix&quot;:true,&quot;segments&quot;:[[[608.86666,299.04444],[6.00061,0],[-8.13798,0]],[[582.2342,295.60848],[7.53039,3.1365],[-6.14031,-2.55752]],[[563.98796,288.17441],[6.5355,2.23277],[-5.70132,-3.74652]],[[547.27725,274.9251],[4.30947,5.32229],[-2.05556,-2.53866]],[[541.31997,266.31242],[2.22625,2.66489],[-3.74453,-4.48232]],[[535.53495,252.6753],[0.0644,5.84858],[-0.90219,0.80922]],[[533.36235,257.18688],[0.58049,-2.32196],[0,0]],[531.86409,259.48718],[[529.09059,260.04188],[1.6641,1.1094],[-1.6641,-1.1094]],[528.53589,257.26837],[[529.7043,255.56867],[0,0],[2.11395,-8.45579]],[[544.19999,247.71111],[-7.4683,0],[0,0]],[[546.19999,249.71111],[0,-2],[0,2]],[[544.19999,251.71111],[0,0],[-1.9154,0]],[[539.3739,251.58532],[1.32632,-0.00375],[0.15942,0.42202]],[[539.53333,252.37778],[0,0],[0,5.08763]],[[544.41334,263.77646],[-3.23329,-3.88906],[2.23713,2.69087]],[[550.45607,272.49712],[-2.02351,-2.57146],[3.79642,4.82446]],[[565.74536,284.58114],[-5.09166,-3.45565],[6.40565,2.06708]],[[583.49911,291.81374],[-5.9314,-2.63224],[7.0158,3.11348]],[[608.86666,295.04444],[-7.67594,0],[6.52494,0]],[[628.20561,294.41616],[-6.47273,0.14185],[0,0]],[628.19999,294.37778],[[630.19999,292.37778],[-2,0],[0.69106,0]],[[631.63933,292.92911],[-0.296,-0.31255],[2.39779,-1.18335]],[[638.58961,289.94776],[-1.87984,1.16683],[2.46113,-1.52763]],[[646.52947,284.64796],[-3.01503,1.50751],[5.84489,-3.85087]],[[664.31934,274.1217],[-5.50975,4.20166],[3.9866,-3.04013]],[[668.20026,258.02521],[0.00669,4.53034],[0,0]],[[667.55915,256.03147],[0,0],[-0.05721,-5.1406]],[[663.94391,237.59176],[3.45962,4.03618],[-4.76636,-5.5607]],[[650.53589,219.48718],[4.30528,6.40585],[0,0]],[[650.21574,217.88557],[-0.18911,0.83771],[-0.31418,-0.29919]],[649.74447,217.2722],[[650.2342,216.94181],[0,0],[-7.66215,-2.89274]],[[648.35223,200.94574],[-2.46966,5.56478],[2.31354,-5.213]],[[650.22582,184.05741],[-0.86108,5.48829],[0.70985,-4.52441]],[[656.27975,171.8186],[-1.37645,4.25938],[2.69306,-10.77222]],[[658.11911,136.45866],[9.54064,9.47031],[0,0]],[[657.54244,134.58143],[-0.26583,1.03472],[-0.78456,-0.46037]],[[655.56754,133.60848],[0.49014,0.1646],[-7.01098,-2.35445]],[[633.19743,137.48718],[4.29451,-6.7193],[-2.89561,4.21536]],[[623.26315,148.71496],[2.62608,-4.5568],[-0.54119,0.93907]],[[620.70275,156.66693],[0.36195,-0.21474],[-2.86377,1.69904]],[[611.98664,152.31242],[1.48009,1.78607],[-3.95181,-4.76876]],[[596.86666,142.37778],[7.30599,-0.08041],[-10.85038,0]],[[565.07869,146.17441],[10.00198,-5.01577],[-5.63911,2.82789]],[[550.94754,157.12532],[5.00867,-3.30801],[-3.15328,4.72992]],[[541.4091,171.07167],[2.12212,-5.67614],[-3.5562,9.51195]],[[538.86666,201.71111],[0,-10.05448],[0,8.74672]],[[529.90129,228.76257],[4.90671,-7.31562],[-2.03088,3.02793]],[[521.74668,236.31242],[2.3553,-2.83573],[-2.00325,2.41187]],[[516.78084,243.62401],[1.77732,-2.48646],[0.39683,6.56835]],[[516.84083,264.69814],[1.07682,-6.48421],[-0.84161,5.06788]],[[516.76403,277.74532],[-1.70988,-5.12964],[0,0]],[516.94754,277.63023],[[517.45924,279.70781],[0.4418,-1.12407],[1.69592,2.98846]],[[521.78941,289.16379],[-2.17864,-2.80435],[2.87765,3.70412]],[[535.67577,295.21541],[-4.00349,-1.70508],[4.12472,1.75671]],[[547.74536,301.24781],[-4.29195,-1.43065],[5.32193,3.54796]],[[565.85369,307.07027],[-6.07198,-1.04691],[2.43267,0.41943]],[[572.11289,309.79692],[-2.1375,-0.77381],[1.17262,0.42451]],[[575.85369,309.73693],[-1.23137,-0.19737],[4.52967,0.72604]],[[589.53333,311.71111],[-4.63581,0],[3.43426,0.0528]],[[599.21296,309.73693],[-3.32479,0.55214],[4.87058,-0.80884]],[[613.56754,307.14708],[-4.78813,1.56582],[1.98554,-0.64931]],[[620.986,305.45503],[-1.66769,1.36121],[1.96073,-1.6004]],[[626.64365,298.45675],[-1.6663,2.4748],[-5.93234,0.17653]]],&quot;closed&quot;:true}],&quot;index&quot;:null}" fill="#f8e5bf" stroke-width="0.5"/><path d="M261.36837,165.03486c-0.30258,0 -0.30258,-0.27464 -0.30258,-0.27464l0.02303,-0.16953c-0.14152,-0.11551 -0.28001,-0.25492 -0.33339,-0.42075c-0.4809,0 -0.48502,-0.40391 -0.96944,-0.51561c-1.35342,-0.31204 -3.17617,0.27692 -4.33374,0.80226c0,0 -0.27062,0.12282 -0.40594,-0.12283c-0.13532,-0.24564 0.13531,-0.36846 0.13531,-0.36846c1.29356,-0.58707 3.24282,-1.1826 4.7434,-0.84556c0.52444,0.11779 0.7082,0.58294 1.14855,0.58294c0.16556,0.24219 0.36101,0.46862 0.57432,0.6778l0.02303,0.37973c0,0 0,0.27464 -0.30258,0.27464z" data-paper-data="{&quot;index&quot;:null}" fill="#000000" stroke-width="0.5"/><path d="M255.01436,165.17217c0,-0.27464 0.30258,-0.27464 0.30258,-0.27464l0.41836,0.02091c0.50296,0.42258 1.24845,0.56962 1.88641,0.27464c0.23837,-0.11021 0.39291,-0.36299 0.65142,-0.42551c0.36766,-0.08893 0.89766,-0.00735 1.2798,-0.00735c0,0 0.30258,0 0.30258,0.27464c0,0.27464 -0.30258,0.27464 -0.30258,0.27464c-0.34581,0 -0.8055,-0.07427 -1.14077,-0.00734c-0.25524,0.05095 -0.33529,0.29826 -0.55887,0.3984c-0.70132,0.31411 -1.81529,0.26465 -2.34957,-0.27463l-0.18679,0.02091c0,0 -0.30258,0 -0.30258,-0.27464z" data-paper-data="{&quot;index&quot;:null}" fill="#000000" stroke-width="0.5"/><path d="M276.78293,195.3353c0,-0.19192 0.01802,-0.37963 0.05246,-0.56153c-0.00207,-0.25579 0.01222,-0.50423 0.06036,-0.73002c-0.06266,0.00622 -0.12164,0.00748 -0.15962,-0.03113c-0.10084,-0.1025 -0.03591,-0.27441 -0.08053,-0.40574c-0.14431,-0.42475 -0.40314,-1.04996 -0.70741,-1.41302c-0.92695,-1.10604 -1.53296,-2.21454 -2.00079,-3.48845c-0.20607,-0.39253 -0.36638,-0.76987 -0.53693,-1.15378c-0.44817,0.55637 -0.89862,1.48135 -1.59739,1.46139c-0.3608,0.52659 -1.06494,0.86391 -1.47273,1.4181c-0.80422,1.09296 -1.10403,2.24522 -2.15514,3.19928c0,0 -0.04422,0.04014 -0.11256,0.06568c-1.62384,1.18283 -2.6401,2.91441 -3.66493,4.47383c-0.43857,0.64329 -1.21984,1.25393 -1.55793,1.95085c-0.49812,1.02678 -0.43723,2.12856 -1.4777,2.901l-0.09609,0.0896c0,0 -0.02987,0.02712 -0.07846,0.05095c-0.25524,0.41633 -0.31222,0.85047 -0.62152,1.24017c-0.17433,0.21964 -0.48853,0.31761 -0.64205,0.5717c-0.25574,0.42327 -0.28137,0.95028 -0.39025,1.40042c-0.0928,0.38362 0.18724,1.02183 0.18597,1.45376c-0.05305,0.28889 -0.05982,0.56944 -0.06002,0.85633c0.00415,0.02441 0.00456,0.05143 0.00009,0.08129c0.00002,0.00587 0.00004,0.01173 0.00005,0.01761c0.00701,0.00786 0.01361,0.01634 0.01969,0.0255c0.05083,0.03488 0.07916,0.07345 0.07916,0.07345c0.55674,0.75803 1.41632,1.46173 1.83548,2.22878c0.11936,0.21843 0.41121,0.33884 0.51202,0.56483c0.21137,0.47387 -0.21906,0.57921 -0.28345,0.973c-0.06863,0.41964 0.00391,0.90384 0.00391,1.32919c-0.01283,1.04647 -1.56551,1.98069 -2.45931,0.99061c-0.28237,-0.31279 -0.36026,-1.08876 -0.28572,-1.55331c-0.11168,0.15118 -0.23127,0.29506 -0.29366,0.45919c-0.4435,1.16664 0.07757,2.41693 -0.74383,3.55151c-0.2772,0.37742 -0.63179,0.72404 -0.90208,1.09059c-0.0537,0.07281 -0.04342,0.17245 -0.08643,0.25091c-0.06737,0.12287 -0.43072,0.38033 -0.30374,0.30579c0.2222,-0.13044 0.46282,0.0925 0.68555,0.12636c0.56515,0.08592 1.128,-0.02316 1.35055,0.64923c0.26325,0.79542 -1.37861,1.45458 -1.91319,1.9398c-1.16843,0.71034 -3.92095,0.77759 -4.41484,-0.77362c-0.02112,-0.06631 -0.03693,-0.13353 -0.04823,-0.20153c-0.02842,-0.01294 -0.04544,-0.02453 -0.04544,-0.02453c-0.51799,-0.36994 -0.78794,-0.90309 -0.91138,-1.49587c-0.16542,0.01223 -0.26826,-0.12779 -0.26826,-0.12779c-0.33203,-0.45356 -0.52585,-0.99599 -0.61113,-1.56565c-0.0071,-0.00367 -0.01097,-0.00601 -0.01097,-0.00601c-0.25489,-0.1555 -0.5735,-0.31698 -0.71684,-0.58114c-0.2379,-0.43841 -0.0268,-1.31483 -0.11998,-1.80048c-0.19239,-1.0027 -0.31183,-1.97124 -0.30421,-3.00702c0.12885,-0.47672 0.35275,-0.95058 0.39449,-1.43816c-0.07292,0.043 -0.1529,0.07894 -0.24337,0.10443c-0.11726,0.03303 -0.87639,-0.00449 -0.91605,-0.03725c-0.17056,-0.14094 -0.27116,-0.38252 -0.23813,-0.58973c0.05071,-0.31822 0.50365,-0.45789 0.7013,-0.7247c0.32005,-0.43201 0.25109,-0.82754 0.25109,-1.32979c0.00269,-0.65363 0.45067,-0.99814 0.54853,-1.58197c0.0935,-0.55778 -0.11516,-1.1307 -0.06339,-1.68142c0.07382,-0.78523 0.66536,-1.57022 1.13904,-2.21694c0,0 0.06698,-0.09119 0.17978,-0.11996c0.00613,-0.00406 0.01235,-0.00781 0.01863,-0.01131c0.08563,-0.32004 -0.04414,-0.63417 0.06887,-0.95672c0.16171,-0.46156 0.36779,-0.82954 0.47249,-1.33033c0.05939,-0.28406 -0.06109,-0.60084 0.00155,-0.88678c0.19804,-0.90403 0.87602,-1.83523 1.47324,-2.5319c0.13782,-0.73331 0.06937,-1.51487 0.35311,-2.22906c0.08372,-0.21071 0.2838,-0.37465 0.35768,-0.58838c0.10113,-0.29252 -0.05839,-0.63876 0.06817,-0.95534c0.24259,-0.60678 0.93238,-1.08773 1.29529,-1.6393c0,0 0.02723,-0.0412 0.0779,-0.0788v-0.05454c0.0165,-0.5229 0.41303,-1.30686 0.70446,-1.78238c0.20069,-0.32746 0.67885,-0.61021 0.82546,-0.94504c0.13558,-0.30966 0.24281,-0.75819 0.36449,-1.1021c0.30836,-0.69227 0.90696,-1.06107 1.28065,-1.72429c0.19216,-0.34105 0.13254,-0.78697 0.38474,-1.13373c0.64617,-0.88848 1.35652,-1.58215 1.81542,-2.5816c1.3947,-1.30396 2.08469,-2.96977 3.21464,-4.41671c-0.68159,0.09523 -1.47122,0.13037 -2.02609,0.13037c-1.38262,-0.01396 -2.72751,-0.53916 -4.08275,-0.73591c-0.32828,-0.04766 -0.75665,-0.03028 -1.0429,-0.23593c-0.43693,-0.31388 -0.89057,-0.95518 -1.19757,-1.37924c-0.00365,-0.0097 -0.00731,-0.01941 -0.01096,-0.02911c-0.00659,-0.00001 -0.0132,-0.00001 -0.01981,-0.00001l-0.31168,-0.28099c-0.35234,-0.17172 -0.71845,-0.22058 -1.04138,-0.39233c-0.39867,-0.21202 -0.74877,-0.52338 -1.21939,-0.73697c-0.89222,-0.54708 -1.92516,-0.86206 -2.75493,-1.48402c-0.79102,-0.59292 -0.82491,-1.85201 -0.82491,-2.68999c0,0 0,-0.01759 0.00489,-0.04385c0.0045,-0.02632 0.01062,-0.043 0.01062,-0.043l0.08923,-0.23178c-0.03757,-2.21769 1.40433,-3.4962 2.6692,-5.23491c0,0 0.019,-0.02587 0.05382,-0.05441c-0.02223,-0.09922 0.02817,-0.19071 0.02817,-0.19071l0.2758,-0.32081c0.70745,-0.16239 0.08527,-1.09813 -0.083,-1.46528c-0.29164,-0.63635 -0.24665,-1.33519 -0.28354,-2.01481c-0.16843,-0.07474 -0.2859,-0.24344 -0.2859,-0.43957l0.00007,-0.00001c0,-0.13043 0.05195,-0.24873 0.13629,-0.33533c-0.20784,-0.43075 -0.63015,-0.84582 -0.7881,-1.26662c-0.36052,-1.30895 -1.20533,-2.8607 -0.86514,-4.19864c-0.18242,-0.01881 -0.23503,-0.14875 -0.2502,-0.22214c-0.42547,0.19244 -0.78886,0.53948 -1.11904,0.7981c-0.44695,0.35007 -0.937,0.5101 -1.42171,0.78774c-1.23131,0.02955 -1.96238,-0.08018 -2.48238,-1.15875c-0.11808,-0.24492 -0.60503,-0.79254 -0.37219,-1.0956c0.10335,-0.13451 0.65281,-0.11405 0.8506,-0.11405c0.02105,0 0.04191,0.00011 0.06257,0.00032c-0.44384,-0.27531 -0.8484,-0.60068 -1.20427,-0.92475c-0.1374,-0.1882 -0.23049,-0.4002 -0.34039,-0.60273c-0.26142,-0.48174 -0.4504,-1.38341 0.5612,-1.20743c0.97777,0.17011 1.7061,1.06479 2.54954,1.38231c0.30012,0.11299 0.74464,0.23733 1.08132,0.35706c0.07823,0.02782 0.14277,0.02955 0.19995,0.02015c-0.31537,-0.17449 -0.61032,-0.36381 -0.7298,-0.68915c-0.56674,-0.37946 -0.68775,-2.19602 0.48408,-1.78203c0.36206,0.12792 0.80308,0.89179 1.07975,1.14649c0.64441,0.59323 1.47657,0.46883 2.30747,0.46883c0,0 0.00508,0 0.01392,0.0006c0.28842,-0.15298 0.56165,-0.20228 0.86172,-0.33886c0.44392,-0.20207 0.71888,-0.60638 1.09959,-0.81934c0.08798,-0.04922 0.22378,0.04817 0.31003,-0.00351c0.54966,-0.32935 0.56947,-1.0004 1.03079,-1.41329c0.31433,-0.28133 1.12184,-0.65089 1.54314,-0.75643c0.15104,-0.22999 0.50413,-0.71703 0.74689,-0.8478c0.36172,-0.19486 0.8737,-0.17884 1.27699,-0.43838c0.22764,-0.1465 0.37437,-0.37835 0.59023,-0.53887c1.11218,-0.82704 2.60091,-1.33135 3.7557,-2.03013c1.20882,-0.72103 2.89275,-0.61626 4.266,-0.77643c0.23717,-0.02766 0.42818,-0.19702 0.65529,-0.26491c0.61962,-0.18524 1.45571,-0.19488 2.10483,-0.19488c1.15274,0 2.40438,-0.11982 3.51668,0.18271c0.66106,0.17979 1.22011,0.50901 1.86765,0.7201c1.0535,0.34343 1.92374,0.52622 2.8433,1.15223c0.806,0.36475 1.5717,0.78571 2.24344,1.29701c0.5337,0.40624 0.80082,1.27728 1.26061,1.78352c0.65286,0.71879 1.45942,1.25174 2.05495,2.06746c0.32549,0.86478 0.33334,1.59131 0.33334,2.50085v0.09155c0,0 0,0.1032 -0.06971,0.18309c0.06971,0.07988 0.06971,0.1831 0.06971,0.1831c0,0.65558 0.4037,1.23354 0.59216,1.84287c0.35552,1.14952 -0.02889,2.48922 -0.40598,3.55363c-0.13771,0.3577 -0.00879,0.73567 -0.24143,1.07836c-0.36988,0.54484 -0.98604,1.27076 -1.25145,1.96596c0.00495,0.08474 0.00335,0.16988 -0.00543,0.25528l0.00003,-0.00004c-0.01601,0.15579 -0.06838,0.30126 -0.13399,0.442c-0.01616,0.32543 0.00316,0.66114 -0.07064,0.97593c-0.13046,0.5565 -0.94144,0.67224 -0.90381,1.23765c-0.00624,0.50867 -0.2195,0.88139 -0.11384,1.38515c0.03125,0.149 0.61367,0.37508 0.76902,0.56807l-0.05003,-0.1223c0,0 0.30258,0 0.30258,0.27464c0,0.08183 -0.02685,0.13927 -0.06456,0.1796c0.74869,0.54916 1.50506,1.10852 2.31033,1.57714c0.81787,0.47595 1.61983,0.7366 2.39608,1.29853c1.28497,0.93568 2.76517,1.55063 4.19885,2.31134c0.70957,0.37651 1.55532,0.57605 2.14305,1.11328c0.27788,0.12394 0.49621,0.37094 0.76423,0.4802c0.63441,0.25863 1.39267,0.26452 1.99549,0.60982c0.39908,0.22861 0.69901,0.58374 1.07284,0.83245c0.40569,0.26991 0.97538,0.3083 1.38852,0.53537c0.46182,0.25382 0.99551,0.93743 1.38504,1.29555c0.7614,0.36033 1.2589,1.24556 2.00806,1.68788l0.14697,0.12586c0,0 0.06231,0.05656 0.08605,0.13916c0.02537,0.01282 0.0403,0.02367 0.0403,0.02367c0.38584,0.28579 0.56608,0.66188 0.89129,0.99009c0.56017,0.56533 1.20311,1.08319 1.76499,1.64782c0.51927,0.52181 1.23316,0.95916 1.59348,1.59155c0.72799,0.78409 1.2758,1.70232 2.07657,2.42593c0.41314,0.37333 1.02338,0.82684 1.27476,1.32003c0.2751,0.53974 0.28842,1.20409 0.55292,1.73579c0.48539,0.88439 1.33565,1.73862 1.33922,2.77038l-0.08671,0.09425c0.39951,0.50765 0.19851,0.92892 0.2855,1.51548c0.06512,0.43909 0.36788,0.78758 0.40532,1.25131c0.0525,0.65018 0.00656,1.35376 0.00147,2.01591c0.07361,0.3871 0.21248,0.81698 0.14693,1.20906c-0.07156,0.4281 -0.48875,0.74093 -0.55471,1.14432c-0.15558,0.95137 -0.37832,1.87159 -0.55184,2.81659c-0.02033,0.43512 -0.23549,0.45601 -0.41945,0.80062c-0.05578,0.1045 0.1393,0.59843 0.1138,0.77816l-0.2646,0.18197c-0.0982,0.81662 -0.61136,1.35164 -0.96461,2.12085c-0.4221,0.91913 -0.61567,1.92405 -0.97189,2.86407c-0.29881,0.34787 -0.37095,0.51775 -0.51345,0.90774c0.04595,0.07294 0.04595,0.15112 0.04595,0.15112c-0.00829,0.67661 -0.53871,1.11155 -0.77126,1.73276c-0.15431,0.41222 -0.10415,0.86363 -0.22326,1.28216c0.07083,0.1098 0.01711,0.23984 0.01711,0.23984c-0.65761,1.5748 0.06596,2.64506 0.46503,4.14312c0.09514,0.35715 -0.03078,0.49089 0.14189,0.84078c0.06582,0.208 0.36946,0.80876 0.31536,1.00991c-0.01802,0.06697 -0.04649,0.12672 -0.0836,0.18016c0.33165,0.22408 0.75508,0.49809 0.87811,0.82504c0.17149,0.45575 -0.2186,0.91962 -0.41446,1.30501c-0.50926,1.00208 -1.40986,1.82253 -2.50931,2.32719c-0.4474,0.20212 -0.88654,0.55231 -1.37694,0.66247c-0.83124,0.18671 -1.71927,0.20157 -2.57827,0.3675c-0.4834,0.09338 -0.75927,0.39077 -1.19523,0.57506c-0.58666,0.248 -1.16532,0.20913 -1.79273,0.20913c-1.5502,-0.00457 -2.89458,0.38568 -4.43575,0.13378c-0.48855,-0.07985 -1.0926,0.36532 -1.54065,0.22355c-0.16608,-0.05255 -0.28274,-0.12723 -0.36099,-0.21667c-0.08075,0.04244 -0.16788,0.04244 -0.16788,0.04244c-0.70338,-0.00174 -1.97307,0.15571 -2.62157,-0.06125c-0.13662,-0.0457 -0.24131,-0.14889 -0.3513,-0.23565c-0.07121,0.05173 -0.15437,0.06431 -0.15437,0.06431c-0.6781,0.10062 -2.20929,-0.26314 -2.77416,-0.88651c-0.16984,0.14905 -0.3763,0.01519 -0.3763,0.01519c-0.33913,-0.22092 -1.00546,-0.57524 -0.87503,-1.06473c0.05761,-0.2162 0.5904,-0.60538 0.75023,-0.82365c0.16535,-0.2258 0.36151,-0.47191 0.57979,-0.72297c-0.28465,-0.17426 -0.63003,-0.38036 -0.75711,-0.65851c-0.27242,-0.5963 0.27072,-1.01601 0.78773,-1.26891c0.8187,-0.40046 1.62859,-0.67552 2.49069,-0.80935c0.20549,-0.04597 0.41894,-0.07085 0.63795,-0.07227c0.1952,-0.01409 0.39362,-0.02122 0.5959,-0.02122c0,0 0.19564,0 0.2723,0.1428c0.01245,0.00367 0.02488,0.00741 0.03726,0.01123c0.22684,-0.05411 0.457,-0.10133 0.68861,-0.14843c0.44918,-0.09135 0.87328,-0.2457 1.30582,-0.37507c-0.01218,-0.02288 -0.02205,-0.04942 -0.02882,-0.08018c-0.05934,-0.26931 0.23736,-0.32317 0.23736,-0.32317l0.31148,-0.0511c0.17845,0.00051 0.3565,-0.00647 0.53417,-0.01627c-0.04046,-0.88157 -0.28754,-1.70849 -0.58675,-2.53304c-0.2787,-0.76802 -0.1857,-1.46193 -0.68822,-2.15602c-0.32342,-0.8593 -0.69598,-2.08869 -0.53115,-3.00258c0.0661,-0.3665 0.29282,-0.68374 0.40762,-1.02611c0.11824,-0.35265 -0.0081,-0.9369 -0.0081,-1.31009c0,0 0,-0.00241 0.00025,-0.00677l0.01273,-0.34746c0.13954,-0.2007 0.18661,-0.45236 0.35171,-0.63639c0.17701,-0.19729 0.67031,-0.27924 0.75773,-0.5537c0.08663,-0.272 -0.08579,-0.63446 0,-0.91546c0.06719,-0.22009 0.2515,-0.39856 0.33477,-0.61408c0.45104,-0.42295 0.89079,-0.85885 1.33138,-1.29384c-0.32255,0.07156 -0.63496,0.18844 -1.02161,0.13015c-0.03999,-0.00603 -0.07973,-0.01338 -0.11927,-0.02185c-0.57661,0.30525 -1.06404,0.75306 -1.64789,1.01455c-0.24028,0.10761 -0.68917,0.09408 -0.95399,0.15088c-0.66168,0.1419 -1.05216,0.71209 -1.55675,1.05406c-0.39629,0.26857 -0.81712,0.32802 -1.17325,0.65799c-0.96064,0.87196 -0.53675,1.774 -0.82719,2.88992c-0.23806,0.91472 -0.11853,1.91485 -0.15617,2.87833c0.6205,0.84482 0.39256,1.81592 0.61003,2.76286c0.01606,0.06992 0.03799,0.1435 0.06427,0.22015c0.01992,0.00007 0.03986,0.0001 0.05981,0.0001c0,0 0.30258,0 0.30258,0.27464c0,0.13912 -0.07764,0.20777 -0.15426,0.24164c0.31475,0.72463 0.70876,1.57722 0.29566,2.21733c-0.11986,0.18573 -0.39124,0.26925 -0.49729,0.46177c-0.33798,0.11414 -0.38776,0.5877 -0.70331,0.74613c-0.33923,0.17032 -0.36601,-0.05569 -0.65142,0.01356c-0.59149,0.14353 -1.2351,0.13381 -1.81542,0.27463c-0.51549,0.12509 -1.07533,0.29451 -1.64332,0.43463c-0.05816,0.31353 -0.0996,0.62185 -0.11336,0.91366c-0.62262,0.61054 -1.10864,1.35188 -1.52177,2.0775c-0.08481,0.14896 -0.08263,0.32688 -0.12744,0.48955c-0.03404,0.1236 -0.29836,0.26264 -0.18838,0.34179c0.74609,0.53698 2.04331,-0.12402 2.56858,-0.53866c0.20281,0.08801 0.46101,0.10999 0.60842,0.26402c0.04878,0.05098 0.04926,0.57819 0.04519,0.69366c-0.02171,0.61646 -0.7472,1.65982 -1.35379,2.01877c-0.37412,0.22138 -1.22912,0.18222 -1.67193,0.17833c-0.57184,-0.00501 -1.13207,0.26509 -1.73366,0.12997c-0.34078,-0.07654 -0.74724,-0.33407 -1.05215,-0.48505c-0.10599,-0.19242 -0.36915,-0.28041 -0.4971,-0.46149c-0.42992,0.01863 -0.91513,0.04557 -1.21047,-0.27491c-0.05378,-0.05836 0.1027,-0.17102 0.04343,-0.22482c-0.05928,-0.0538 -0.1834,0.08824 -0.24769,0.03943c-0.15775,-0.11977 -0.20785,-0.31581 -0.24554,-0.51028c-0.07911,0.00786 -0.14493,-0.01206 -0.14493,-0.01206c-0.20899,-0.06324 -0.93022,-0.26821 -1.05749,-0.3746c-0.06556,-0.05481 0.09453,-0.18382 0.03151,-0.24102c-0.06302,-0.05721 -0.20292,0.08618 -0.26553,0.0286c-0.11202,-0.10302 -0.03789,-0.31019 -0.15128,-0.41195c-0.08085,-0.07255 -0.26601,0.05005 -0.3396,-0.0286c-0.14059,-0.15023 -0.17339,-0.46766 -0.19157,-0.75882c-0.06745,-0.02555 -0.11101,-0.06509 -0.11101,-0.06509c-0.19228,-0.17816 -0.49609,-0.2543 -0.64858,-0.46177c-0.10567,-0.14378 -0.24662,-0.8213 -0.32473,-1.00052c-0.17853,-0.40968 -0.2917,-0.81719 -0.36303,-1.22768c-0.76201,-0.05502 -1.53053,-0.10561 -2.33467,-0.11683c-0.90145,0.28103 -1.67828,0.27818 -2.62032,0.27818c-0.24673,0 -0.81093,0.07623 -1.0235,-0.02091c-0.19837,-0.09066 -0.37519,-0.28196 -0.50383,-0.51341c-0.23233,-0.00935 -0.44743,-0.03641 -0.70846,-0.1146c-0.48032,-0.31164 -1.13872,-0.06603 -1.45774,-0.69088c-0.00064,-0.00124 -0.00126,-0.00248 -0.00188,-0.00372c-0.12203,0.12707 -0.31855,0.06761 -0.31855,0.06761c-0.84825,-0.26304 -1.4975,-1.14699 -0.83715,-1.90703c1.05537,-1.2147 2.60977,-1.37184 3.93699,-2.17496c2.00248,-0.46273 4.09046,-0.04511 6.14428,0.10837c-0.10512,-0.3348 -0.22922,-0.79461 -0.04848,-1.06378c-0.03222,-0.0221 -0.06568,-0.04969 -0.10063,-0.08379c-0.15374,-0.14993 -0.1385,-0.42746 -0.04344,-0.61322c0.1116,-0.21806 0.51121,-0.13664 0.74674,-0.24667c0.01915,-0.00895 0.03645,-0.02023 0.05247,-0.03314c0.0292,-0.75603 0.26749,-1.5585 0.07143,-2.25909c-0.0975,-0.3484 -0.38439,-0.60159 -0.45804,-0.98033c-0.07201,-0.37031 0.15547,-0.57525 0.15547,-0.931c0.50919,-0.92436 -0.11824,-2.16971 0.15128,-3.15833c0.07681,-0.28177 0.49,-1.09926 0.74055,-1.26907c0.06716,-0.04552 0.18842,0.09323 0.24769,0.03942c0.05926,-0.0538 -0.09149,-0.16248 -0.04344,-0.22482c0.19417,-0.25189 0.51503,-0.42696 0.82077,-0.61478c0.01277,-0.08325 0.02789,-0.16534 0.04567,-0.24608c0.10856,-0.49306 0.35578,-0.95084 0.57276,-1.41742c0.0022,-0.00041 0.00441,-0.00081 0.00661,-0.00121c-0.02353,-0.05736 -0.02353,-0.10739 -0.02353,-0.10739c0,-1.64782 0,-3.29565 0,-4.94347c0,-0.01568 -0.00008,-0.03146 -0.00024,-0.04734c-0.07909,-0.2689 -0.12153,-0.55349 -0.12153,-0.848zM279.78293,198.3353c-0.90864,0 -1.72292,-0.40396 -2.27307,-1.04208c0,1.29295 0,2.58589 0,3.87884c0.02369,-0.00442 0.04735,-0.00882 0.07099,-0.01318c-0.15131,0.33527 -0.3214,0.69153 -0.45495,1.04493c0.37247,-0.32159 0.59112,-0.43507 0.91898,-0.82513c0.05578,-0.06637 -0.05398,-0.17552 -0.01277,-0.25015c0.19433,-0.3519 0.49026,-0.88651 0.82202,-1.18765c0.42875,-0.38917 1.09061,-0.71098 1.51286,-1.09855c0.2482,-0.22782 0.47444,-0.50211 0.74465,-0.71228c-0.05887,-0.0077 -0.11813,-0.01424 -0.17542,-0.02444c-0.35505,0.14798 -0.74462,0.22969 -1.15329,0.22969zM288.08364,223.67152c0.26603,0.10881 0.5749,0.19347 0.85687,0.24794c-0.00637,-0.00316 -0.01273,-0.00634 -0.01907,-0.00955c-0.27653,-0.05362 -0.57707,-0.13476 -0.8378,-0.23839zM307.89433,218.63442c-0.05975,0.01962 -0.12167,0.0368 -0.18475,0.05204c0.06394,-0.01516 0.12633,-0.03208 0.18597,-0.0512c-0.00041,-0.00028 -0.00081,-0.00056 -0.00122,-0.00084zM306.75225,218.84276c-0.01741,0.00341 -0.03459,0.00729 -0.05158,0.01157c0.01218,-0.00288 0.02451,-0.00556 0.03698,-0.008c0.14955,-0.02933 0.35166,-0.05226 0.56418,-0.08414c-0.20523,0.03011 -0.39994,0.05122 -0.54958,0.08057zM302.20383,218.80434c-0.1099,0.08513 -0.21815,0.15654 -0.3274,0.21362c0.11099,-0.05659 0.22081,-0.128 0.33219,-0.21362zM300.1885,218.98623c0.01764,0.01357 0.03428,0.02657 0.0494,0.03857c-0.00637,-0.01118 -0.01344,-0.02283 -0.02285,-0.03342c-0.00886,-0.00167 -0.01772,-0.00339 -0.02655,-0.00514zM269.30404,217.15527c-0.00065,0.00032 -0.00129,0.00063 -0.00194,0.00095c0.10204,0.00293 0.1996,0.00241 0.29372,-0.001c-0.09351,0.00305 -0.19043,0.00325 -0.29178,0.00005zM280.25057,220.29321l0.01049,-0.10582l-0.01371,0.11166c0.00107,-0.00195 0.00214,-0.0039 0.00322,-0.00584zM274.98324,221.46353c-0.00528,-0.00722 -0.01055,-0.01445 -0.01579,-0.02169c-0.00265,-0.00101 -0.00533,-0.00202 -0.00799,-0.00303c0.00757,0.00857 0.01551,0.01679 0.02378,0.02472zM276.92837,223.44335c-0.02129,-0.01966 -0.04134,-0.04017 -0.0593,-0.06208c0.01059,0.02165 0.02251,0.0424 0.03758,0.05987c0.00721,0.00078 0.01445,0.00151 0.02172,0.00221zM278.82844,224.45902c-0.0079,-0.06875 -0.01515,-0.1361 -0.02342,-0.19766c0.00568,0.06386 0.01049,0.13272 0.01761,0.1979c0.00194,-0.00008 0.00388,-0.00016 0.00581,-0.00024zM284.71415,223.20104c-0.00612,0.00669 -0.0125,0.01341 -0.01914,0.02016c-0.11375,0.37317 -0.20912,0.76971 -0.38089,1.12914c0.18133,-0.36372 0.28178,-0.76644 0.40002,-1.1493zM281.45311,223.07486c-0.02601,0.04672 -0.03951,0.0976 -0.02703,0.16556c-0.01012,-0.0659 0.00276,-0.1176 0.02703,-0.16556zM279.36678,222.5211c0.05958,-0.28285 0.14522,-0.56791 0.24667,-0.84643c-0.10185,0.27852 -0.18755,0.56349 -0.24667,0.84643zM250.53446,216.76845c0.0002,-0.00958 0.00042,-0.01916 0.00067,-0.02874c-0.11739,-0.21804 -0.1475,-0.46772 -0.15898,-0.7332c0.00451,0.27728 0.02907,0.53747 0.15831,0.76193zM251.3774,218.26996c0.0034,-0.27245 0.02384,-0.54532 0.05299,-0.8101c-0.03383,0.25599 -0.05935,0.51924 -0.06461,0.78016c0.00383,0.01001 0.0077,0.01999 0.01163,0.02994zM252.43454,220.08606c0.03297,-0.22071 0.08336,-0.44314 0.12804,-0.66229c-0.04753,0.2187 -0.10023,0.44013 -0.13351,0.65589c0.00182,0.00214 0.00364,0.00427 0.00547,0.0064zM264.60437,177.52347c0.03438,0.0553 0.03758,0.11114 0.02846,0.15897c0.01161,-0.04752 0.0121,-0.10438 -0.01903,-0.16127c-0.00314,0.00077 -0.00628,0.00154 -0.00943,0.00231zM251.50897,203.0166c-0.00188,0.00255 -0.00376,0.0051 -0.00564,0.00765l0.20762,-0.10489c0.00087,-0.00206 0.00173,-0.00413 0.00259,-0.0062zM249.16652,210.3894c0.01483,-0.00235 0.02994,-0.00478 0.04509,-0.00724c0.14978,-0.05948 0.27049,-0.16662 0.36775,-0.3037c-0.10728,0.14727 -0.24249,0.25852 -0.41285,0.31094zM259.06737,208.41539c0.00003,-0.00112 0.00006,-0.00225 0.00009,-0.00337l-0.00061,0.00329zM259.12663,207.78303c0,-0.00081 -0.00001,-0.00161 -0.00001,-0.00242c-0.00612,0.03403 -0.01162,0.06798 -0.01657,0.10185c0.00497,-0.03308 0.01048,-0.06622 0.01658,-0.09944zM258.94952,206.2707c0.00167,-0.00978 0.00336,-0.01951 0.00506,-0.02919c-0.00252,0.01415 -0.005,0.0284 -0.00746,0.04276c-0.04159,0.24331 0.00655,0.49591 0.06366,0.75151c-0.05594,-0.26237 -0.10283,-0.52192 -0.06126,-0.76508zM273.23031,186.1377c-0.0001,-0.00156 -0.00021,-0.00311 -0.00032,-0.00467c-0.03233,0.00858 -0.05945,0.0212 -0.08221,0.03634c0.02317,-0.01352 0.05044,-0.02451 0.08253,-0.03167zM255.84401,153.00497c-0.0068,-0.00899 -0.01368,-0.01792 -0.02063,-0.02678c0.00398,0.00516 0.00795,0.01034 0.01188,0.01554c0.02129,0.03023 0.04332,0.05979 0.06601,0.08875c-0.01961,-0.02536 -0.03872,-0.05118 -0.05726,-0.07751zM244.9357,151.70001c-0.08102,-0.10932 -0.22275,-0.2906 -0.33354,-0.47855c0.10542,0.18309 0.24175,0.3595 0.32276,0.46883c0.0062,0.00561 0.01242,0.01122 0.01867,0.01685c-0.00263,-0.00238 -0.00526,-0.00475 -0.00789,-0.00713zM248.99012,152.39543l0.00698,-0.00159l-0.01761,-0.06396c-0.0023,0.00063 -0.0046,0.00126 -0.00689,0.00189zM248.24961,150.95515c-0.07063,-0.03732 -0.12437,-0.07587 -0.16492,-0.11577c0.04017,0.04204 0.09447,0.08258 0.16716,0.12178c-0.00075,-0.002 -0.0015,-0.004 -0.00224,-0.00601zM283.64034,158.08084c-0.00716,0.02022 -0.01322,0.04236 -0.01838,0.06607c0.00443,-0.01858 0.00949,-0.03618 0.01532,-0.05263c0.14664,-0.38089 0.29474,-0.82183 0.39616,-1.27888c-0.1013,0.45225 -0.2479,0.88829 -0.3931,1.26544zM311.89051,196.01536l0.00064,-0.00005c-0.00021,-0.00104 -0.00043,-0.00208 -0.00064,-0.00313c0,0.00106 0,0.00212 0,0.00317zM289.49067,201.00284c0,0 -0.00343,-0.00311 -0.00985,-0.00814l-0.01455,0.02106c0.00425,0.00132 0.00849,0.00265 0.01271,0.00398zM282.24825,198.08876c0,-0.02945 -0.00348,-0.05575 -0.0097,-0.07922c0.00419,0.01994 0.00649,0.04178 0.00649,0.06571c0,0.07728 -0.02396,0.13282 -0.05839,0.17273c0.00249,0.00278 0.00499,0.00556 0.00749,0.00832c0.03209,-0.0395 0.05411,-0.09356 0.05411,-0.16754zM275.55022,166.98055c0,0 -0.0227,-0.05869 -0.0815,-0.10628c0.06008,0.05435 0.08409,0.11976 0.08409,0.11976c0.04516,0.12442 0.0802,0.25138 0.10591,0.38038c-0.0259,-0.13364 -0.06178,-0.26511 -0.1085,-0.39386zM274.98173,167.18123c0.03253,0.08735 0.05896,0.17646 0.07969,0.26708c-0.02114,-0.09527 -0.04855,-0.18889 -0.08269,-0.28057c0,0 -0.00287,-0.00782 -0.00613,-0.0212c0.00426,0.02147 0.00913,0.03469 0.00913,0.03469zM273.51853,167.70077c-0.14957,-0.21513 -0.2757,-0.4137 -0.41086,-0.60814c0.13612,0.19904 0.26347,0.40227 0.41111,0.615c-0.00008,-0.00229 -0.00016,-0.00457 -0.00025,-0.00686zM269.78086,157.70663c-0.18047,-0.43567 -0.44752,-0.78202 -0.73576,-1.11155c0.2906,0.33605 0.56004,0.68904 0.74045,1.12456c0.02626,0.06339 0.05099,0.12722 0.07429,0.19146c-0.02465,-0.06863 -0.05095,-0.1368 -0.07898,-0.20447zM256.4278,175.42748c-0.00494,-0.00739 -0.0098,-0.01484 -0.01458,-0.02234c-0.02997,-0.00088 -0.05995,-0.00172 -0.08995,-0.00254c0.00548,0.00739 0.01099,0.01481 0.01653,0.02226c0.02934,0.00084 0.05874,0.00174 0.088,0.00262zM283.48976,152.68836c-0.00153,-0.00175 -0.00302,-0.00351 -0.00448,-0.00528c-0.03938,0.04924 -0.05408,0.10545 -0.05957,0.14054c0.00742,-0.03723 0.02453,-0.09 0.06404,-0.13527zM247.99441,149.98166c0.00103,0.00464 0.002,0.00927 0.00293,0.01389c0.00474,0.01311 0.01039,0.02875 0.01668,0.04565c-0.01866,-0.05837 -0.02831,-0.09895 -0.01961,-0.05954zM248.00658,153.66088l-0.0011,0.00025l0.00171,0.0014zM273.66145,171.40844c0.00111,-0.00148 0.00222,-0.00296 0.00333,-0.00444c-0.01525,-0.1079 -0.03709,-0.22396 -0.06114,-0.34542c0.02248,0.12157 0.04248,0.23709 0.05781,0.34986zM267.73516,176.65031c0.37121,0.0799 0.75767,0.20837 1.12236,0.37046c-0.36244,-0.16221 -0.74691,-0.29128 -1.1169,-0.37245c-0.00182,0.00066 -0.00364,0.00133 -0.00546,0.00199zM273.8659,187.10034c0.00018,0.0004 0.00036,0.00079 0.00055,0.00119c0.00537,-0.00607 0.01164,-0.01361 0.01827,-0.02246c-0.00749,0.0092 -0.0141,0.01639 -0.01882,0.02127zM293.47497,212.43871c0.08547,0.11431 0.15469,0.22844 0.21179,0.34268c-0.05753,-0.11691 -0.12759,-0.23368 -0.21461,-0.35064c0.00094,0.00266 0.00189,0.00531 0.00283,0.00796zM294.80464,217.33189c0.00168,-0.0001 0.00336,-0.00019 0.00503,-0.00029c-0.02704,-0.44057 -0.09672,-0.87555 -0.1973,-1.30375c0.09861,0.42609 0.16583,0.85929 0.19227,1.30404zM307.94341,208.89988c-0.00641,-0.00461 -0.01268,-0.00955 -0.01877,-0.01486c0.00603,0.00593 0.01229,0.01146 0.01874,0.01661c0.00001,-0.00058 0.00002,-0.00117 0.00003,-0.00175zM281.60535,166.30771c-0.00126,-0.00097 -0.00251,-0.00193 -0.00377,-0.00288c-0.0174,0.02853 -0.0277,0.05605 -0.03264,0.08223c0.0065,-0.02538 0.01813,-0.05192 0.03641,-0.07935zM286.79448,223.07899c0.00012,-0.00406 0.00026,-0.00811 0.00044,-0.01217c-0.09855,-0.06445 -0.21942,-0.14102 -0.31257,-0.20705c0.09025,0.07057 0.21104,0.15283 0.31213,0.21923zM292.95659,224.20891c0.00037,-0.00287 0.00076,-0.00574 0.00116,-0.00861c-0.0102,0.0005 -0.02144,0.00297 -0.03103,0.00564c0.00712,0.00042 0.0174,0.00126 0.02987,0.00296zM265.05913,217.8889c0.00091,-0.00311 0.00184,-0.00622 0.00279,-0.00932c-0.0234,-0.01398 -0.0505,-0.02378 -0.07293,-0.03029c0.01891,0.00832 0.04435,0.02126 0.07013,0.03961zM267.05757,218.54454c-0.00025,-0.00152 -0.0005,-0.00304 -0.00075,-0.00456c-0.03728,-0.00456 -0.07984,-0.00952 -0.12272,-0.01604c0.04156,0.00877 0.08263,0.01549 0.12347,0.02061zM246.46728,154.75149c-0.17732,-0.03942 -0.34083,-0.10848 -0.49245,-0.23207c0.15216,0.12671 0.31514,0.19484 0.49245,0.23207zM244.53919,150.71483c0.04463,0.04179 0.09983,0.1105 0.15239,0.15667c-0.05358,-0.04966 -0.10897,-0.11907 -0.15239,-0.15667zM249.5685,151.87805c-0.00175,-0.00203 -0.00353,-0.00404 -0.00536,-0.00602c0.00182,0.00198 0.0036,0.00399 0.00536,0.00602zM248.61342,151.39178c-0.06243,-0.04327 -0.12058,-0.08965 -0.17252,-0.14157c0.05169,0.05256 0.1098,0.09874 0.17252,0.14157zM248.12866,150.25211c0.03807,0.04014 0.07719,0.07489 0.1174,0.10884c-0.04067,-0.03505 -0.08045,-0.07082 -0.1174,-0.10884zM248.47835,150.5681c0.12403,0.12926 0.2284,0.27484 0.35355,0.40314c-0.12407,-0.12919 -0.22844,-0.27477 -0.35355,-0.40314zM283.58313,158.57635c-0.00628,0.10324 -0.0151,0.20466 -0.03492,0.29112c0.02092,-0.08605 0.02929,-0.18759 0.03492,-0.29112zM275.55687,159.91513c0.00649,0.05701 0.0188,0.11454 0.02618,0.17126c-0.00651,-0.05661 -0.01883,-0.11414 -0.02618,-0.17126zM299.26568,218.93929c0.04005,0.07195 0.10466,0.13913 0.18231,0.20246c-0.07678,-0.06359 -0.14114,-0.13085 -0.18231,-0.20246zM300.23816,219.69159c0.01835,0.0421 -0.06129,0.03398 -0.16768,0.00658c0.11893,0.03554 0.20627,0.04828 0.16768,-0.00658zM299.84724,199.70771c-0.07039,-0.06153 -0.14598,-0.06894 -0.20851,-0.05799c0.06371,-0.00691 0.13928,0.0028 0.20851,0.05799zM270.67158,164.1092c-0.03127,-0.07416 -0.06137,-0.14883 -0.09016,-0.22385c0.02877,0.07502 0.05886,0.1497 0.09016,0.22385zM256.84463,154.85819c0.08915,0.20173 0.28241,0.90195 0.35198,1.03216c-0.08008,-0.17956 -0.27202,-0.87306 -0.35198,-1.03216zM271.55573,188.51512c-0.00198,0.00213 -0.00397,0.00426 -0.00596,0.00639c0.11724,-0.00412 0.22671,-0.03623 0.32993,-0.08913c-0.10147,0.05003 -0.20899,0.07985 -0.32397,0.08274zM251.07517,214.66511c0.04908,-0.03407 0.1164,-0.06035 0.20195,-0.04848c-0.08987,-0.01654 -0.15603,0.01168 -0.20195,0.04848zM251.98346,215.16939c0.12913,0.00853 0.19691,0.07072 0.23249,0.13365c-0.02986,-0.06506 -0.09443,-0.12915 -0.23249,-0.13365zM253.1989,216.68241c0.02059,-0.03866 0.05297,-0.0777 0.10391,-0.10484c-0.05451,0.0259 -0.08591,0.06559 -0.10391,0.10484zM258.2147,219.98514c-0.01622,-0.03282 -0.0409,-0.06572 -0.0698,-0.09646c0.02812,0.03101 0.05259,0.06388 0.0698,0.09646zM255.58237,219.87198c-0.00121,-0.01579 -0.00085,-0.03111 0.00054,-0.04561c-0.00164,0.01435 -0.00206,0.0297 -0.00054,0.04561zM259.07546,211.43063c0.00889,-0.01047 0.0186,-0.02034 0.02903,-0.02954c-0.0106,0.00904 -0.0203,0.01891 -0.02903,0.02954zM260.40504,214.85419c0.13235,-0.01796 0.2639,-0.07487 0.38185,-0.15592c-0.11842,0.0797 -0.24988,0.13631 -0.38185,0.15592zM287.5609,211.89841c0.01549,0.02109 0.03044,0.04226 0.04489,0.06353c-0.01445,-0.02157 -0.02941,-0.04305 -0.04491,-0.06444c0.00001,0.0003 0.00002,0.0006 0.00002,0.00091zM290.80347,204.16557c0.16604,-0.12531 0.34099,-0.23949 0.537,-0.32782c-0.19795,0.08786 -0.37217,0.2021 -0.537,0.32782zM292.15835,203.6645c0.15423,-0.01204 0.30401,-0.02897 0.40328,-0.07269c-0.09993,0.03988 -0.24954,0.05848 -0.40328,0.07269zM272.48707,216.82304c-0.11124,-0.00429 -0.22208,-0.00721 -0.33177,-0.00792c0.10964,0.00079 0.2205,0.00369 0.33177,0.00792zM297.61015,221.82593c0.00435,0.08043 -0.03399,0.13975 -0.07777,0.18078c0.04644,-0.03764 0.08718,-0.09557 0.07777,-0.18078zM306.27946,219.0304c-0.12934,0.06476 -0.26107,0.12864 -0.41007,0.16405c0.15312,-0.03424 0.28281,-0.09868 0.41007,-0.16405zM300.38834,220.20778c-0.10238,0.02794 -0.2144,0.0327 -0.33077,0.02052c0.11656,0.01305 0.22863,0.00844 0.33077,-0.02052z" fill="#000000" stroke-width="0.5"/><path d="M276.88079,205.08887l0.7067,-10.84639l10.95986,-0.4863c0,0 0.39603,4.30083 0.19279,6.42847c-0.08008,0.83822 -0.72372,2.00432 -0.98332,3.10242c-0.39007,1.64996 -0.42045,3.14642 -0.42045,3.14642z" data-paper-data="{&quot;index&quot;:null}" fill="#000000" stroke-width="0"/></g></g></svg>