<svg version="1.1" xmlns="http://www.w3.org/2000/svg" xmlns:xlink="http://www.w3.org/1999/xlink" width="137.07281" height="77.45124" viewBox="0,0,137.07281,77.45124"><defs><linearGradient x1="275.93929" y1="161.67303" x2="275.93929" y2="189.25463" gradientUnits="userSpaceOnUse" id="color-1"><stop offset="0" stop-color="#9e6d55"/><stop offset="1" stop-color="#ffc99b"/></linearGradient></defs><g transform="translate(-208.52869,-140.73532)"><g data-paper-data="{&quot;isPaintingLayer&quot;:true}" fill-rule="nonzero" stroke-linejoin="miter" stroke-miterlimit="10" stroke-dasharray="" stroke-dashoffset="0" style="mix-blend-mode: normal"><path d="M326.35258,209.42814c0,0 -16.67327,-1.31329 -22.25514,-5.27295c-5.78247,-4.10198 -11.85914,-18.92705 -11.85914,-18.92705" data-paper-data="{&quot;index&quot;:null}" fill="none" stroke="#000000" stroke-width="1" stroke-linecap="round"/><path d="M327.24688,206.4855c2.04345,0 3.7,1.11929 3.7,2.5c0,1.38071 -1.65654,2.5 -3.7,2.5c-2.04345,0 -3.7,-1.11929 -3.7,-2.5c0,-1.38071 1.65654,-2.5 3.7,-2.5z" data-paper-data="{&quot;index&quot;:null}" fill="#000000" stroke="none" stroke-width="0" stroke-linecap="butt"/><path d="M341.76688,203.99905l3.125,2.43498l-5.375,6.62314l-11.5,-3.31157" data-paper-data="{&quot;index&quot;:null}" fill="none" stroke="#000000" stroke-width="1" stroke-linecap="round"/><path d="M332.76688,197.8629l3.5,0.97399l0.875,7.88933l-7.75,2.14278" data-paper-data="{&quot;index&quot;:null}" fill="none" stroke="#000000" stroke-width="1" stroke-linecap="round"/><path d="M319.89188,198.73949l4,-0.97399l5.125,3.40897l-1.5,6.33094" data-paper-data="{&quot;index&quot;:null}" fill="none" stroke="#000000" stroke-width="1" stroke-linecap="round"/><path d="M325.76688,210.6405l-6.125,4.75l-6.625,-2.625l-0.375,-1.875" data-paper-data="{&quot;index&quot;:null}" fill="none" stroke="#000000" stroke-width="1" stroke-linecap="round"/><path d="M293.8753,184.21908c-0.39051,0.22896 -0.78033,0.44287 -1.16207,0.63393c-2.86865,1.23901 -5.71377,2.16918 -8.64723,3.2526c-1.12153,0.41422 -1.45798,0.97306 -2.75099,0.97306c-2.72967,0 -6.72743,0.67266 -9.2256,-0.61244c0,0 -0.07743,-0.03858 -0.18324,-0.05174c-0.07402,-0.07675 -0.1514,-0.11534 -0.1514,-0.11534l-0.30925,-0.12971c-2.07665,-0.34254 -6.30522,-0.51241 -7.93428,-1.8916c-0.0088,-0.3875 -0.4213,-0.45749 -0.4213,-0.45749l-0.46232,-0.07621c-1.04186,-0.35092 -1.92086,-0.89497 -2.90119,-1.38513c-2.84358,-1.41529 -4.69633,-5.21284 -6.39702,-7.76837c0,0 -0.08228,-0.12382 -0.22439,-0.19141c-0.41477,-2.53096 -0.34972,-4.61708 -0.35827,-7.33913c0.43104,-2.52914 3.8712,-5.56315 5.94397,-7.23162c0.04046,0.00601 0.06675,0.00594 0.06675,0.00594c1.17353,-0.00369 2.35462,-0.3427 3.52139,-0.02702c0.73061,0.19768 1.20023,1.44837 1.71538,1.96352c0.92789,0.92789 2.00411,1.31109 3.11435,1.86621c1.00937,0.16823 1.83794,0.53015 2.85845,0.5936c0.13977,0.09278 0.30324,0.09227 0.30324,0.09227c3.12585,0 6.3455,-0.50258 9.41992,-0.50581c2.36722,0.40345 7.05902,0.89923 8.90536,-0.87059c0.70738,-0.67806 0.49242,-1.73548 1.09456,-2.43205c1.6081,-1.32866 2.75584,1.12164 4.25965,2.48827c0.02677,0.12143 0.08864,0.20814 0.08864,0.20814c0.27686,0.3818 0.50656,0.88883 0.6795,1.42964c0.00311,0.07313 0.0177,0.12404 0.0177,0.12404c0.54491,1.90717 -0.0905,4.30135 0.55325,6.04707c0.47627,1.29154 1.68039,2.41865 2.53146,3.44522c0.33776,0.50338 1.46554,1.14894 1.29383,1.84171c-0.51997,2.09785 -2.96971,4.46902 -4.80976,5.53743c-0.13588,0.02006 -0.43455,0.1095 -0.43455,0.49551c0,0.03098 0.00184,0.06022 0.00544,0.08748z" data-paper-data="{&quot;noHover&quot;:false,&quot;origItem&quot;:[&quot;Path&quot;,{&quot;applyMatrix&quot;:true,&quot;segments&quot;:[[[262.16154,190.21099],[0,0.03098],[0,-0.38601]],[[262.59542,189.71692],[-0.13588,0.02006],[1.84004,-1.06841]],[[267.40118,184.19416],[-0.51997,2.09785],[0.17171,-0.69277]],[[266.10706,182.35629],[0.33776,0.50338],[-0.85107,-1.02657]],[[263.57602,178.91967],[0.47627,1.29154],[-0.64375,-1.74572]],[[263.02693,172.88681],[0.54491,1.90717],[0,0]],[[263.00935,172.76304],[0.00311,0.07313],[-0.17295,-0.54081]],[[262.3316,171.33678],[0.27686,0.3818],[0,0]],[[262.24322,171.1291],[0.02677,0.12143],[-1.5038,-1.36662]],[[257.99041,168.65],[1.6081,-1.32866],[-0.60214,0.69657]],[[256.89379,171.07972],[0.70738,-0.67806],[-1.84635,1.76982]],[[248.00876,171.96497],[2.36722,0.40345],[-3.07442,0.00323]],[[238.63334,172.46667],[3.12585,0],[0,0]],[[238.3309,172.37389],[0.13977,0.09278],[-1.02051,-0.06345]],[[235.47871,171.77549],[1.00937,0.16823],[-1.11024,-0.55512]],[[232.36667,169.90707],[0.92789,0.92789],[-0.51515,-0.51515]],[[230.65092,167.94393],[0.73061,0.19768],[-1.16677,-0.31569]],[[227.13334,167.96667],[1.17353,-0.00369],[0,0]],[[227.06664,167.96066],[0.04046,0.00601],[-2.07277,1.66848]],[[221.13163,175.17458],[0.43104,-2.52914],[0.00856,2.72206]],[[221.49166,182.49835],[-0.41477,-2.53096],[0.14211,0.06759]],[[221.71603,182.68932],[0,0],[1.70069,2.55553]],[[228.10694,190.43612],[-2.84358,-1.41529],[0.98032,0.49016]],[[231.00386,191.81475],[-1.04186,-0.35092],[0,0]],[231.46554,191.89014],[[231.88563,192.34618],[-0.0088,-0.3875],[1.62906,1.37919]],[[239.79887,194.22347],[-2.07665,-0.34254],[0,0]],[240.10694,194.35279],[[240.25771,194.46792],[-0.07402,-0.07675],[0.10581,0.01316]],[[240.44028,194.51946],[0,0],[2.49817,1.2851]],[[249.63334,195.13334],[-2.72967,0],[1.29301,0]],[[252.37566,194.16472],[-1.12153,0.41422],[2.93347,-1.08342]],[[261.0063,190.92975],[-2.86865,1.23901],[0.38173,-0.19106]],[[262.16706,190.2983],[-0.39051,0.22896],[-0.0036,-0.02726]]],&quot;closed&quot;:true}],&quot;index&quot;:null}" fill="url(#color-1)" stroke="none" stroke-width="0.5" stroke-linecap="butt"/><path d="M258.3178,167.51349c1.32662,0.22475 1.94237,1.34135 1.90436,3.08911c-2.65774,5.59014 -8.87738,-3.36488 -2.36163,-3.36488c0,0 0.33627,0 0.45727,0.27577z" data-paper-data="{&quot;index&quot;:null}" fill="#000000" stroke="none" stroke-width="0.5" stroke-linecap="butt"/><path d="M293.45049,180.0723c0.0922,0.11298 -0.36691,1.96173 -0.6047,2.24059c-0.32443,0.38046 -0.30488,-0.54397 -0.30488,-0.54397l0.16622,-1.09311c-1.96826,0.26361 -5.8434,-0.92712 -4.84464,-3.43776c0.64187,-1.61352 1.9219,-1.53299 3.29049,-0.23722c0,0 0.64586,0.24588 0.68804,0.32109c1.08512,0.34343 1.71251,-0.13755 2.02346,0.58738c0.33722,0.09462 0.33722,0.47915 0.33722,0.47915c-0.02249,0.84181 -0.26609,1.18676 -0.75121,1.68384z" data-paper-data="{&quot;index&quot;:null}" fill="#000000" stroke="none" stroke-width="0.5" stroke-linecap="butt"/><path d="M261.89188,186.56148c0,0 -6.07665,14.82506 -11.85913,18.92704c-5.58188,3.95966 -22.25515,5.27295 -22.25515,5.27295" data-paper-data="{&quot;index&quot;:null}" fill="none" stroke="#000000" stroke-width="1" stroke-linecap="round"/><path d="M263.76462,182.84119c-0.93212,-1.25831 -1.38658,-3.04062 -1.71593,-4.358c-0.75084,-3.00336 0.25388,-5.21067 0.47833,-8.08265c1.38227,3.07621 6.2373,2.44161 9.07253,2.44161c2.94585,-0.82901 5.45315,0.95968 8.50348,1.17749c0.78128,0.05579 2.3455,-0.08963 2.46196,-1.07609c0.32811,1.73771 2.40723,1.63416 3.90547,1.295c-0.15943,1.61819 -0.35125,3.24343 -0.29446,4.8786c-0.80418,1.60836 -1.10563,3.31061 -1.68913,4.649c-0.02672,-0.00295 -0.04308,-0.00287 -0.04308,-0.00287l-0.15403,0.00029c-0.72627,0.0589 -0.73459,-0.6517 -1.58513,-0.61189c-1.43726,0.06727 -2.93904,0.83751 -4.52366,0.67584c-0.26727,-0.02727 -0.3672,-1.46108 -1.50433,-1.42793c-1.37697,0.04014 -1.93107,1.45986 -3.4169,0.18629c-0.63381,-0.02765 -2.47987,0.69088 -2.87602,0.52751c-0.89017,-0.36709 -1.85627,-1.46344 -2.77681,-1.7817c-1.08742,-0.37597 -2.87311,0.64612 -3.84231,1.50951z" data-paper-data="{&quot;noHover&quot;:false,&quot;origItem&quot;:[&quot;Path&quot;,{&quot;applyMatrix&quot;:true,&quot;segments&quot;:[[[235.9856,187.40569],[-1.08742,-0.37597],[0.92054,0.31826]],[[238.74689,189.17212],[-0.89017,-0.36709],[0.39615,0.16336]],[[241.60425,188.63765],[-0.63381,-0.02765],[1.48584,1.27357]],[[244.9916,188.45574],[-1.37697,0.04014],[1.13713,-0.03315]],[[246.49181,189.8859],[-0.26727,-0.02727],[1.58462,0.16167]],[[251.00044,189.22408],[-1.43726,0.06727],[0.85054,-0.03981]],[[252.58462,189.83737],[-0.72627,0.0589],[0,0]],[252.73846,189.83737],[[252.78149,189.84031],[-0.02672,-0.00295],[0.5835,-1.33839]],[[254.46338,185.21013],[-0.80418,1.60836],[-0.05679,-1.63517]],[[254.75847,180.35107],[-0.15943,1.61819],[-1.49824,0.33917]],[[250.85687,179.06688],[0.32811,1.73771],[-0.11646,0.98646]],[[248.39533,180.1438],[0.78128,0.05579],[-3.05033,-0.21782]],[[239.96166,178.98638],[2.94585,-0.82901],[-2.83523,0]],[[230.90699,176.52677],[1.38227,3.07621],[-0.22445,2.87198]],[[230.43507,184.57874],[-0.75084,-3.00336],[0.32934,1.31739]],[[232.14508,188.91818],[-0.93212,-1.25831],[0.9692,-0.86339]]],&quot;closed&quot;:true}],&quot;index&quot;:null}" fill="#000000" stroke="none" stroke-width="0.5" stroke-linecap="butt"/><path d="M283.99723,184.66295c-0.69493,1.02391 -1.78348,1.70144 -3.8364,1.70144c-1.46129,0 -2.53209,-0.40604 -3.88961,-0.72673c-2.04536,-0.48319 -4.48196,0.2699 -6.53328,-0.24707c-1.38966,-0.70514 -2.97428,-0.68796 -4.35827,-1.25527c-0.36354,-0.14901 -0.68611,-0.36002 -0.97379,-0.61217c2.14262,-2.3651 3.52265,-0.05913 5.72955,0.49848c0.84217,0.21279 1.87348,-0.50269 2.74486,-0.57683c1.39011,1.19152 2.56949,0.17688 3.9299,-0.1154c0.54008,-0.11603 0.50393,1.18023 0.965,1.36213c1.43997,0.5681 3.68264,-0.35867 4.93001,-0.57109c0.17513,-0.02982 0.84724,0.37157 1.29202,0.54251z" data-paper-data="{&quot;noHover&quot;:false,&quot;origItem&quot;:[&quot;Path&quot;,{&quot;applyMatrix&quot;:true,&quot;segments&quot;:[[[502.18374,380.43977],[0.35025,-0.05965],[-2.49474,0.42485]],[[492.12408,381.57766],[2.87993,1.1362],[-0.92215,-0.36381]],[[490.20143,378.89952],[1.08016,-0.23206],[-2.72083,0.58455]],[[482.51459,379.15107],[2.78021,2.38304],[-1.74276,0.14829]],[[476.8447,380.23598],[1.68435,0.42558],[-4.41379,-1.11522]],[[465.58474,379.25769],[4.28523,-4.73021],[0.57536,0.50429]],[[467.53268,380.47612],[-0.72707,-0.29803],[2.76798,1.13461]],[[476.24695,382.96212],[-2.77931,-1.41028],[4.10264,1.03396]],[[489.12975,383.42675],[-4.09071,-0.96638],[2.71504,0.64139]],[[496.9,384.9],[-2.92258,0],[4.10585,0]],[[504.56787,381.52569],[-1.38987,2.04781],[-0.88957,-0.34187]]],&quot;closed&quot;:true}],&quot;index&quot;:null}" fill="#000000" stroke="none" stroke-width="0.5" stroke-linecap="butt"/><path d="M282.54113,171.96579c-3.51686,2.36994 -7.38625,-1.15362 -11.10469,-0.06685c-2.41594,0 -7.14784,0.7289 -8.10093,-2.13621c2.58195,0.17407 5.21303,0.72953 7.79332,0.0618c3.27534,0.02795 7.59053,0.88433 10.70755,0.26092c1.7471,0.00738 3.22272,0.69901 4.97081,0.75633l-0.14391,0.25487c0,0.69461 -0.03839,1.39119 -0.09333,2.07496c-0.01455,0.0137 -0.02778,0.02832 -0.03976,0.04321c-1.95955,0.52197 -2.59554,0.14422 -3.98905,-1.24903z" data-paper-data="{&quot;noHover&quot;:false,&quot;origItem&quot;:[&quot;Path&quot;,{&quot;applyMatrix&quot;:true,&quot;segments&quot;:[[[509.6347,358.61804],[-3.9191,1.04394],[0.02396,-0.02976]],[[509.71416,358.53204],[-0.0291,0.02741],[0.1099,-1.36754]],[[509.9,354.4],[0,1.38923],[0,0]],[[510.18794,353.89237],[0,0],[-3.49618,-0.11463]],[[500.24854,352.39513],[3.49419,0.01477],[-6.23404,1.24681]],[[479.02218,351.89251],[6.55069,0.05591],[-5.16057,1.33545]],[[463.44317,351.74328],[5.1639,0.34813],[1.90619,5.73023]],[[479.64592,355.99208],[-4.83188,0],[7.43689,-2.17355]],[[501.85551,356.13878],[-7.03372,4.73988],[2.78701,2.78649]]],&quot;closed&quot;:true}],&quot;index&quot;:null}" fill="#000000" stroke="none" stroke-width="0.5" stroke-linecap="butt"/><path d="M262.73856,172.2398c-0.01604,-0.01369 -0.03158,-0.03126 -0.04612,-0.05358c-0.11311,-0.1736 0.06049,-0.28671 0.06049,-0.28671c0.42634,-0.2664 0.62353,-0.80705 1.04065,-1.1212c1.10879,-0.83508 2.42033,-0.44343 2.7891,0.89094c0.0171,0.53428 -0.08573,2.02357 -0.44284,2.46328c-0.56633,0.69733 -1.29636,0.04001 -1.73282,-0.31004c-0.14865,-0.11922 -0.82801,-0.06479 -1.10006,-0.19375c-0.45179,-0.38932 -0.6337,-0.81207 -0.5684,-1.38893zM263.17247,172.10287c-0.0002,0.0032 -0.0004,0.00495 -0.0004,0.00495l-0.01257,0.10908c-0.07345,0.44481 0.03001,0.76601 0.37242,1.06381c0.37493,0.16942 0.77463,-0.00332 1.10757,0.19872c0.21813,0.13237 0.81105,0.92093 1.16869,0.40463c0.27633,-0.39893 0.37639,-1.67774 0.36484,-2.15232c-0.61001,-2.12711 -2.08513,-0.36245 -3.00056,0.37112z" data-paper-data="{&quot;index&quot;:null}" fill="#000000" stroke="none" stroke-width="0.5" stroke-linecap="butt"/><path d="M266.1926,171.72497c0.01155,0.47457 -0.0981,1.77833 -0.37444,2.17726c-0.35764,0.51629 -0.96421,-0.27003 -1.18234,-0.4024c-0.33294,-0.20204 -0.74501,-0.03656 -1.11994,-0.20598c-0.34241,-0.2978 -0.45056,-0.63171 -0.3771,-1.07653l0.01259,-0.11041c0,0 0.0002,-0.00181 0.0004,-0.00501c0.91542,-0.73357 2.43082,-2.50404 3.04083,-0.37693z" data-paper-data="{&quot;noHover&quot;:false,&quot;origItem&quot;:[&quot;Path&quot;,{&quot;applyMatrix&quot;:true,&quot;segments&quot;:[[[462.70723,358.07863],[1.04267,-2.10175],[0.00233,0.00598]],[462.71068,358.08795],[[462.77976,358.29641],[0,0],[0.24142,0.86875]],[[464.35137,359.91245],[-0.87196,-0.25179],[0.82281,-0.00848]],[[466.52787,359.34002],[-0.77413,-0.08606],[0.50717,0.05638]],[[468.98868,359.08962],[-0.21388,1.23779],[0.16525,-0.9564]],[[467.83759,354.87805],[0.42069,0.85114],[-2.89821,-3.34472]]],&quot;closed&quot;:true}],&quot;index&quot;:null}" fill="#000000" stroke="none" stroke-width="0.5" stroke-linecap="butt"/><path d="M265.86026,173.03467c0.09798,0.18256 -0.08458,0.28055 -0.08458,0.28055l-0.16724,0.08739c-0.83104,0.29075 -0.59853,-0.29517 -0.95582,-0.55501c-0.33572,-0.24415 -0.72958,0.20476 -1.00643,-0.53187c0,0 -0.07118,-0.19459 0.12341,-0.26577c0.19459,-0.07118 0.26577,0.12341 0.26577,0.12341c0.10045,0.28451 0.59705,0.15385 0.84392,0.32732c0.37528,0.26371 -0.02914,0.75218 0.5868,0.51274l0.11363,-0.06335c0,0 0.18257,-0.09799 0.28055,0.08458z" data-paper-data="{&quot;index&quot;:null}" fill="#000000" stroke="none" stroke-width="0.5" stroke-linecap="butt"/><path d="M266.68104,173.41174c-0.02032,-0.00566 -0.04181,-0.01506 -0.06439,-0.02917c-0.1757,-0.10981 -0.06589,-0.28552 -0.06589,-0.28552c0.27449,-0.42117 0.22565,-0.99459 0.47166,-1.45519c0.65396,-1.22438 2.00847,-1.42151 2.90491,-0.36657c0.24052,0.47739 0.77447,1.87146 0.63576,2.42067c-0.21998,0.87098 -1.15894,0.58226 -1.70222,0.44858c-0.18503,-0.04553 -0.77828,0.28996 -1.07934,0.28756c-0.57373,-0.16284 -0.91676,-0.46966 -1.10048,-1.02036zM267.01693,173.10481c0.00116,0.00299 0.00173,0.00466 0.00173,0.00466l0.03454,0.10423c0.12071,0.43437 0.34982,0.68212 0.7858,0.80802c0.41141,-0.00424 0.70119,-0.32924 1.08825,-0.28621c0.25358,0.02819 1.12346,0.4937 1.2304,-0.1252c0.08263,-0.4782 -0.3652,-1.68022 -0.57555,-2.10579c-1.44911,-1.67236 -2.04385,0.54942 -2.56518,1.60029z" data-paper-data="{&quot;index&quot;:null}" fill="#000000" stroke="none" stroke-width="0.5" stroke-linecap="butt"/><path d="M269.597,171.49012c0.21034,0.42557 0.65997,1.65425 0.57735,2.13245c-0.10694,0.6189 -0.98826,0.16116 -1.24184,0.13297c-0.38707,-0.04303 -0.69112,0.2806 -1.10253,0.28484c-0.43598,-0.1259 -0.6747,-0.38321 -0.79541,-0.81758l-0.03508,-0.10544c0,0 -0.00059,-0.00172 -0.00175,-0.00472c0.52133,-1.05087 1.15015,-3.29488 2.59926,-1.62252z" data-paper-data="{&quot;noHover&quot;:false,&quot;origItem&quot;:[&quot;Path&quot;,{&quot;applyMatrix&quot;:true,&quot;segments&quot;:[[[462.70723,358.07863],[1.04267,-2.10175],[0.00233,0.00598]],[462.71068,358.08795],[[462.77976,358.29641],[0,0],[0.24142,0.86875]],[[464.35137,359.91245],[-0.87196,-0.25179],[0.82281,-0.00848]],[[466.52787,359.34002],[-0.77413,-0.08606],[0.50717,0.05638]],[[468.98868,359.08962],[-0.21388,1.23779],[0.16525,-0.9564]],[[467.83759,354.87805],[0.42069,0.85114],[-2.89821,-3.34472]]],&quot;closed&quot;:true}],&quot;index&quot;:null}" fill="#000000" stroke="none" stroke-width="0.5" stroke-linecap="butt"/><path d="M269.84716,172.81798c0.16575,0.12432 0.04144,0.29008 0.04144,0.29008l-0.11488,0.1497c-0.63129,0.6137 -0.66717,-0.01565 -1.10066,-0.10084c-0.40732,-0.08005 -0.57549,0.49298 -1.13682,-0.05854c0,0 -0.14651,-0.14651 0,-0.29302c0.14651,-0.14651 0.29302,0 0.29302,0c0.21093,0.21574 0.60631,-0.11191 0.90327,-0.05854c0.45144,0.08113 0.29035,0.69449 0.74817,0.21792l0.07639,-0.10531c0,0 0.12432,-0.16576 0.29008,-0.04144z" data-paper-data="{&quot;index&quot;:null}" fill="#000000" stroke="none" stroke-width="0.5" stroke-linecap="butt"/><path d="M271.01437,172.99508c-0.02032,-0.00566 -0.04181,-0.01506 -0.06439,-0.02917c-0.1757,-0.10981 -0.06589,-0.28552 -0.06589,-0.28552c0.27449,-0.42117 0.22565,-0.99459 0.47166,-1.45519c0.65396,-1.22438 2.00847,-1.42151 2.90491,-0.36657c0.24052,0.47739 0.77447,1.87146 0.63576,2.42067c-0.21998,0.87098 -1.15894,0.58226 -1.70222,0.44858c-0.18503,-0.04553 -0.77828,0.28996 -1.07934,0.28756c-0.57373,-0.16284 -0.91676,-0.46966 -1.10048,-1.02036zM271.35026,172.68815c0.00116,0.00299 0.00173,0.00466 0.00173,0.00466l0.03454,0.10423c0.12071,0.43437 0.34982,0.68212 0.7858,0.80802c0.41141,-0.00424 0.70119,-0.32924 1.08825,-0.28621c0.25358,0.02819 1.12346,0.4937 1.2304,-0.1252c0.08263,-0.4782 -0.3652,-1.68022 -0.57555,-2.10579c-1.44911,-1.67236 -2.04385,0.54942 -2.56518,1.60029z" data-paper-data="{&quot;index&quot;:null}" fill="#000000" stroke="none" stroke-width="0.5" stroke-linecap="butt"/><path d="M273.93034,171.07345c0.21034,0.42557 0.65997,1.65425 0.57735,2.13245c-0.10694,0.6189 -0.98826,0.16116 -1.24184,0.13297c-0.38707,-0.04303 -0.69112,0.2806 -1.10253,0.28484c-0.43598,-0.1259 -0.6747,-0.38321 -0.79541,-0.81758l-0.03508,-0.10544c0,0 -0.00059,-0.00172 -0.00175,-0.00472c0.52133,-1.05087 1.15015,-3.29488 2.59926,-1.62252z" data-paper-data="{&quot;noHover&quot;:false,&quot;origItem&quot;:[&quot;Path&quot;,{&quot;applyMatrix&quot;:true,&quot;segments&quot;:[[[462.70723,358.07863],[1.04267,-2.10175],[0.00233,0.00598]],[462.71068,358.08795],[[462.77976,358.29641],[0,0],[0.24142,0.86875]],[[464.35137,359.91245],[-0.87196,-0.25179],[0.82281,-0.00848]],[[466.52787,359.34002],[-0.77413,-0.08606],[0.50717,0.05638]],[[468.98868,359.08962],[-0.21388,1.23779],[0.16525,-0.9564]],[[467.83759,354.87805],[0.42069,0.85114],[-2.89821,-3.34472]]],&quot;closed&quot;:true}],&quot;index&quot;:null}" fill="#000000" stroke="none" stroke-width="0.5" stroke-linecap="butt"/><path d="M274.18048,172.40131c0.16575,0.12432 0.04144,0.29008 0.04144,0.29008l-0.11488,0.1497c-0.63129,0.6137 -0.66717,-0.01565 -1.10066,-0.10084c-0.40732,-0.08005 -0.57549,0.49298 -1.13682,-0.05854c0,0 -0.14651,-0.14651 0,-0.29302c0.14651,-0.14651 0.29302,0 0.29302,0c0.21093,0.21574 0.60631,-0.11191 0.90327,-0.05854c0.45144,0.08113 0.29035,0.69449 0.74817,0.21792l0.07639,-0.10531c0,0 0.12432,-0.16576 0.29008,-0.04144z" data-paper-data="{&quot;index&quot;:null}" fill="#000000" stroke="none" stroke-width="0.5" stroke-linecap="butt"/><path d="M275.01437,173.82841c-0.02032,-0.00566 -0.04181,-0.01506 -0.06439,-0.02917c-0.1757,-0.10981 -0.06589,-0.28552 -0.06589,-0.28552c0.27449,-0.42117 0.22565,-0.99459 0.47166,-1.45519c0.65396,-1.22438 2.00847,-1.42151 2.90491,-0.36657c0.24052,0.47739 0.77447,1.87146 0.63576,2.42067c-0.21998,0.87098 -1.15894,0.58226 -1.70222,0.44858c-0.18503,-0.04553 -0.77828,0.28996 -1.07934,0.28756c-0.57373,-0.16284 -0.91676,-0.46966 -1.10048,-1.02036zM275.35026,173.52148c0.00116,0.00299 0.00173,0.00466 0.00173,0.00466l0.03454,0.10423c0.12071,0.43437 0.34982,0.68212 0.7858,0.80802c0.41141,-0.00424 0.70119,-0.32924 1.08825,-0.28621c0.25358,0.02819 1.12346,0.4937 1.2304,-0.1252c0.08263,-0.4782 -0.3652,-1.68022 -0.57555,-2.10579c-1.44911,-1.67236 -2.04385,0.54942 -2.56518,1.60029z" data-paper-data="{&quot;index&quot;:null}" fill="#000000" stroke="none" stroke-width="0.5" stroke-linecap="butt"/><path d="M277.93034,171.90679c0.21034,0.42557 0.65997,1.65425 0.57735,2.13245c-0.10694,0.6189 -0.98826,0.16116 -1.24184,0.13297c-0.38707,-0.04303 -0.69112,0.2806 -1.10253,0.28484c-0.43598,-0.1259 -0.6747,-0.38321 -0.79541,-0.81758l-0.03508,-0.10544c0,0 -0.00059,-0.00172 -0.00175,-0.00472c0.52133,-1.05087 1.15015,-3.29488 2.59926,-1.62252z" data-paper-data="{&quot;noHover&quot;:false,&quot;origItem&quot;:[&quot;Path&quot;,{&quot;applyMatrix&quot;:true,&quot;segments&quot;:[[[462.70723,358.07863],[1.04267,-2.10175],[0.00233,0.00598]],[462.71068,358.08795],[[462.77976,358.29641],[0,0],[0.24142,0.86875]],[[464.35137,359.91245],[-0.87196,-0.25179],[0.82281,-0.00848]],[[466.52787,359.34002],[-0.77413,-0.08606],[0.50717,0.05638]],[[468.98868,359.08962],[-0.21388,1.23779],[0.16525,-0.9564]],[[467.83759,354.87805],[0.42069,0.85114],[-2.89821,-3.34472]]],&quot;closed&quot;:true}],&quot;index&quot;:null}" fill="#000000" stroke="none" stroke-width="0.5" stroke-linecap="butt"/><path d="M278.18048,173.23464c0.16575,0.12432 0.04144,0.29008 0.04144,0.29008l-0.11488,0.1497c-0.63129,0.6137 -0.66717,-0.01565 -1.10066,-0.10084c-0.40732,-0.08005 -0.57549,0.49298 -1.13682,-0.05854c0,0 -0.14651,-0.14651 0,-0.29302c0.14651,-0.14651 0.29302,0 0.29302,0c0.21093,0.21574 0.60631,-0.11191 0.90327,-0.05854c0.45144,0.08113 0.29035,0.69449 0.74817,0.21792l0.07639,-0.10531c0,0 0.12432,-0.16576 0.29008,-0.04144z" data-paper-data="{&quot;index&quot;:null}" fill="#000000" stroke="none" stroke-width="0.5" stroke-linecap="butt"/><path d="M279.09771,174.41174c-0.02032,-0.00566 -0.04181,-0.01505 -0.0644,-0.02917c-0.1757,-0.10981 -0.06589,-0.28552 -0.06589,-0.28552c0.27449,-0.42117 0.22565,-0.99459 0.47167,-1.45519c0.65396,-1.22438 2.00847,-1.42151 2.90491,-0.36657c0.24052,0.47739 0.77447,1.87146 0.63576,2.42067c-0.21998,0.87098 -1.15894,0.58226 -1.70222,0.44858c-0.18503,-0.04553 -0.77828,0.28996 -1.07934,0.28756c-0.57373,-0.16284 -0.91676,-0.46966 -1.10048,-1.02037zM279.43359,174.10481c0.00116,0.00299 0.00172,0.00466 0.00172,0.00466l0.03454,0.10423c0.12071,0.43437 0.34982,0.68212 0.7858,0.80802c0.41141,-0.00424 0.70119,-0.32924 1.08825,-0.28621c0.25358,0.02819 1.12346,0.4937 1.2304,-0.1252c0.08263,-0.4782 -0.3652,-1.68022 -0.57555,-2.10578c-1.44911,-1.67236 -2.04385,0.54942 -2.56518,1.60029z" data-paper-data="{&quot;index&quot;:null}" fill="#000000" stroke="none" stroke-width="0.5" stroke-linecap="butt"/><path d="M282.01367,172.49012c0.21034,0.42557 0.65997,1.65425 0.57735,2.13244c-0.10694,0.6189 -0.98826,0.16117 -1.24184,0.13298c-0.38707,-0.04303 -0.69112,0.2806 -1.10252,0.28484c-0.43598,-0.1259 -0.6747,-0.38321 -0.79541,-0.81758l-0.03508,-0.10544c0,0 -0.00059,-0.00172 -0.00175,-0.00472c0.52133,-1.05087 1.15016,-3.29488 2.59926,-1.62252z" data-paper-data="{&quot;noHover&quot;:false,&quot;origItem&quot;:[&quot;Path&quot;,{&quot;applyMatrix&quot;:true,&quot;segments&quot;:[[[462.70723,358.07863],[1.04267,-2.10175],[0.00233,0.00598]],[462.71068,358.08795],[[462.77976,358.29641],[0,0],[0.24142,0.86875]],[[464.35137,359.91245],[-0.87196,-0.25179],[0.82281,-0.00848]],[[466.52787,359.34002],[-0.77413,-0.08606],[0.50717,0.05638]],[[468.98868,359.08962],[-0.21388,1.23779],[0.16525,-0.9564]],[[467.83759,354.87805],[0.42069,0.85114],[-2.89821,-3.34472]]],&quot;closed&quot;:true}],&quot;index&quot;:null}" fill="#000000" stroke="none" stroke-width="0.5" stroke-linecap="butt"/><path d="M282.26383,173.81798c0.16575,0.12432 0.04144,0.29008 0.04144,0.29008l-0.11488,0.1497c-0.63129,0.6137 -0.66717,-0.01565 -1.10067,-0.10084c-0.40732,-0.08005 -0.57549,0.49298 -1.13681,-0.05854c0,0 -0.14651,-0.14651 0,-0.29302c0.14651,-0.14651 0.29302,0 0.29302,0c0.21093,0.21574 0.60631,-0.11191 0.90328,-0.05854c0.45144,0.08113 0.29035,0.69449 0.74817,0.21792l0.07639,-0.10531c0,0 0.12432,-0.16576 0.29008,-0.04144z" data-paper-data="{&quot;index&quot;:null}" fill="#000000" stroke="none" stroke-width="0.5" stroke-linecap="butt"/><path d="M283.22403,173.88512c-0.01532,-0.00427 -0.03153,-0.01135 -0.04857,-0.022c-0.13252,-0.08283 -0.0497,-0.21535 -0.0497,-0.21535c0.20703,-0.31766 0.17019,-0.75015 0.35574,-1.09755c0.49324,-0.92346 1.51485,-1.07215 2.19098,-0.27648c0.18141,0.36006 0.58413,1.41152 0.47951,1.82575c-0.16592,0.65692 -0.87411,0.43916 -1.28387,0.33833c-0.13956,-0.03434 -0.587,0.21869 -0.81408,0.21689c-0.43273,-0.12282 -0.69145,-0.35423 -0.83002,-0.76959zM283.47736,173.65362c0.00088,0.00226 0.0013,0.00351 0.0013,0.00351l0.02605,0.07861c0.09104,0.32762 0.26385,0.51448 0.59268,0.60943c0.31029,-0.0032 0.52886,-0.24833 0.82079,-0.21587c0.19126,0.02126 0.84735,0.37236 0.92801,-0.09443c0.06232,-0.36067 -0.27545,-1.26727 -0.43409,-1.58825c-1.09296,-1.26135 -1.54153,0.41439 -1.93474,1.20699z" data-paper-data="{&quot;index&quot;:null}" fill="#000000" stroke="none" stroke-width="0.5" stroke-linecap="butt"/><path d="M285.42334,172.43577c0.15865,0.32098 0.49777,1.24768 0.43545,1.60836c-0.08066,0.46679 -0.74537,0.12156 -0.93664,0.10029c-0.29194,-0.03245 -0.52126,0.21164 -0.83156,0.21484c-0.32883,-0.09495 -0.50888,-0.28903 -0.59992,-0.61665l-0.02646,-0.07953c0,0 -0.00044,-0.0013 -0.00132,-0.00356c0.39321,-0.7926 0.86748,-2.48511 1.96045,-1.22376z" data-paper-data="{&quot;noHover&quot;:false,&quot;origItem&quot;:[&quot;Path&quot;,{&quot;applyMatrix&quot;:true,&quot;segments&quot;:[[[462.70723,358.07863],[1.04267,-2.10175],[0.00233,0.00598]],[462.71068,358.08795],[[462.77976,358.29641],[0,0],[0.24142,0.86875]],[[464.35137,359.91245],[-0.87196,-0.25179],[0.82281,-0.00848]],[[466.52787,359.34002],[-0.77413,-0.08606],[0.50717,0.05638]],[[468.98868,359.08962],[-0.21388,1.23779],[0.16525,-0.9564]],[[467.83759,354.87805],[0.42069,0.85114],[-2.89821,-3.34472]]],&quot;closed&quot;:true}],&quot;index&quot;:null}" fill="#000000" stroke="none" stroke-width="0.5" stroke-linecap="butt"/><path d="M285.61202,173.43728c0.12502,0.09377 0.03126,0.21878 0.03126,0.21878l-0.08665,0.1129c-0.47614,0.46287 -0.5032,-0.0118 -0.83016,-0.07606c-0.30721,-0.06038 -0.43405,0.37182 -0.85742,-0.04415c0,0 -0.1105,-0.1105 0,-0.22101c0.1105,-0.1105 0.22101,0 0.22101,0c0.15909,0.16272 0.4573,-0.08441 0.68128,-0.04415c0.34049,0.06119 0.21899,0.52381 0.56429,0.16436l0.05761,-0.07943c0,0 0.09377,-0.12502 0.21878,-0.03126z" data-paper-data="{&quot;index&quot;:null}" fill="#000000" stroke="none" stroke-width="0.5" stroke-linecap="butt"/><path d="M264.71324,180.30583c0.29324,-0.06822 0.94552,0.12932 1.11611,0.04441c0.50087,-0.24932 1.35389,-0.73651 1.75913,0.06522c0.25553,0.50555 0.03957,1.98267 -0.09066,2.50112c-0.64387,1.22554 -2.00869,1.32957 -2.91472,0.27797c-0.34084,-0.3956 -0.41866,-0.96581 -0.77866,-1.31671c0,0 -0.1456,-0.14742 0.00182,-0.29302c0.01895,-0.01871 0.03787,-0.03259 0.05645,-0.04255c0.05876,-0.57756 0.32633,-0.95201 0.85053,-1.23644zM267.1108,182.76846c0.11212,-0.46128 0.28607,-1.73216 0.10081,-2.18069c-0.23977,-0.5805 -0.98671,0.06407 -1.22798,0.14707c-0.36827,0.12668 -0.72214,-0.12703 -1.12451,-0.04115c-0.39787,0.21825 -0.56722,0.51013 -0.58995,0.96039l-0.0109,0.10926c0,0 -0.00018,0.00175 -0.00066,0.00492c0.73865,0.91133 1.80515,2.94912 2.85319,1.0002z" data-paper-data="{&quot;index&quot;:null}" fill="#000000" stroke="none" stroke-width="0.5" stroke-linecap="butt"/><path d="M264.23717,181.76482c0.00048,-0.00317 0.00068,-0.00498 0.00068,-0.00498l0.01116,-0.11056c0.02273,-0.45026 0.19936,-0.75357 0.59723,-0.97182c0.40236,-0.08589 0.76987,0.16337 1.13813,0.03668c0.24127,-0.083 1.00107,-0.72248 1.24084,-0.14199c0.18526,0.44853 0.01539,1.74582 -0.09673,2.2071c-1.04804,1.94892 -2.15266,-0.10311 -2.89131,-1.01443z" data-paper-data="{&quot;noHover&quot;:false,&quot;origItem&quot;:[&quot;Path&quot;,{&quot;applyMatrix&quot;:true,&quot;segments&quot;:[[[462.70723,358.07863],[1.04267,-2.10175],[0.00233,0.00598]],[462.71068,358.08795],[[462.77976,358.29641],[0,0],[0.24142,0.86875]],[[464.35137,359.91245],[-0.87196,-0.25179],[0.82281,-0.00848]],[[466.52787,359.34002],[-0.77413,-0.08606],[0.50717,0.05638]],[[468.98868,359.08962],[-0.21388,1.23779],[0.16525,-0.9564]],[[467.83759,354.87805],[0.42069,0.85114],[-2.89821,-3.34472]]],&quot;closed&quot;:true}],&quot;index&quot;:null}" fill="#000000" stroke="none" stroke-width="0.5" stroke-linecap="butt"/><path d="M266.7899,181.45188l-0.09758,-0.08604c-0.551,-0.36485 -0.25961,0.19841 -0.68235,0.37635c-0.27809,0.11706 -0.73558,-0.11613 -0.89419,0.14053c0,0 -0.1109,0.17502 -0.28592,0.06412c-0.17502,-0.1109 -0.06412,-0.28592 -0.06412,-0.28592c0.42704,-0.66098 0.71653,-0.13864 1.09645,-0.30588c0.40435,-0.17799 0.30164,-0.79993 1.05192,-0.33924l0.14485,0.12093c0,0 0.15757,0.13454 0.02304,0.29211c-0.13453,0.15758 -0.29211,0.02304 -0.29211,0.02304z" data-paper-data="{&quot;index&quot;:null}" fill="#000000" stroke="none" stroke-width="0.5" stroke-linecap="butt"/><path d="M269.45797,180.65183c0.29965,0.02928 0.85432,0.4253 1.04312,0.39948c0.55433,-0.0758 1.51845,-0.26417 1.64561,0.62512c0.08018,0.56075 -0.59743,1.89094 -0.88683,2.34038c-1.00242,0.95481 -2.32868,0.61631 -2.85024,-0.67005c-0.19621,-0.48392 -0.08733,-1.04902 -0.316,-1.49672c0,0 -0.09072,-0.18628 0.09555,-0.27701c0.02395,-0.01166 0.04631,-0.01874 0.0671,-0.02224c0.24062,-0.52833 0.61401,-0.79737 1.20169,-0.89896zM270.94067,183.75255c0.25394,-0.40109 0.8257,-1.54934 0.79383,-2.03358c-0.04126,-0.62671 -0.95527,-0.25527 -1.21041,-0.25391c-0.38945,0.00208 -0.64344,-0.3516 -1.05212,-0.39909c-0.4468,0.07934 -0.7007,0.30163 -0.86643,0.72089l-0.04531,0.10002c0,0 -0.00074,0.0016 -0.00221,0.00445c0.40792,1.09988 0.76569,3.37188 2.38265,1.86121z" data-paper-data="{&quot;index&quot;:null}" fill="#000000" stroke="none" stroke-width="0.5" stroke-linecap="butt"/><path d="M268.53977,181.88154c0.00147,-0.00285 0.00224,-0.0045 0.00224,-0.0045l0.04597,-0.10117c0.16573,-0.41927 0.43018,-0.65004 0.87699,-0.72939c0.40868,0.04749 0.67701,0.4013 1.06645,0.39922c0.25514,-0.00136 1.17971,-0.36386 1.22097,0.26285c0.03187,0.48424 -0.54449,1.65881 -0.79842,2.0599c-1.61696,1.51068 -2.00628,-0.78702 -2.4142,-1.8869z" data-paper-data="{&quot;noHover&quot;:false,&quot;origItem&quot;:[&quot;Path&quot;,{&quot;applyMatrix&quot;:true,&quot;segments&quot;:[[[462.70723,358.07863],[1.04267,-2.10175],[0.00233,0.00598]],[462.71068,358.08795],[[462.77976,358.29641],[0,0],[0.24142,0.86875]],[[464.35137,359.91245],[-0.87196,-0.25179],[0.82281,-0.00848]],[[466.52787,359.34002],[-0.77413,-0.08606],[0.50717,0.05638]],[[468.98868,359.08962],[-0.21388,1.23779],[0.16525,-0.9564]],[[467.83759,354.87805],[0.42069,0.85114],[-2.89821,-3.34472]]],&quot;closed&quot;:true}],&quot;index&quot;:null}" fill="#000000" stroke="none" stroke-width="0.5" stroke-linecap="butt"/><path d="M271.05829,182.40254l-0.06489,-0.11276c-0.40515,-0.52208 -0.30947,0.10483 -0.76693,0.13803c-0.30093,0.02184 -0.65966,-0.34558 -0.89211,-0.15322c0,0 -0.16111,0.13029 -0.2914,-0.03082c-0.13029,-0.16111 0.03082,-0.2914 0.03082,-0.2914c0.61622,-0.48943 0.72319,0.09812 1.13667,0.06135c0.44005,-0.03913 0.54192,-0.66121 1.10517,0.01548l0.0985,0.16095c0,0 0.10619,0.1779 -0.07172,0.2841c-0.17791,0.1062 -0.28411,-0.07172 -0.28411,-0.07172z" data-paper-data="{&quot;index&quot;:null}" fill="#000000" stroke="none" stroke-width="0.5" stroke-linecap="butt"/><path d="M273.95797,180.90183c0.29964,0.02928 0.85432,0.4253 1.04312,0.39949c0.55433,-0.0758 1.51845,-0.26417 1.64561,0.62511c0.08017,0.56076 -0.59743,1.89093 -0.88683,2.34038c-1.00242,0.95481 -2.32868,0.61632 -2.85025,-0.67005c-0.1962,-0.48392 -0.08732,-1.04901 -0.316,-1.49672c0,0 -0.09073,-0.18628 0.09555,-0.27701c0.02394,-0.01166 0.0463,-0.01875 0.0671,-0.02224c0.24062,-0.52833 0.61401,-0.79737 1.2017,-0.89896zM275.44067,184.00256c0.25394,-0.40108 0.8257,-1.54934 0.79383,-2.03358c-0.04126,-0.62671 -0.95528,-0.25527 -1.21042,-0.25391c-0.38944,0.00208 -0.64343,-0.35159 -1.05211,-0.39908c-0.4468,0.07934 -0.7007,0.30162 -0.86643,0.72089l-0.04531,0.10002c0,0 -0.00073,0.0016 -0.00221,0.00445c0.40792,1.09988 0.76569,3.37189 2.38264,1.86121z" data-paper-data="{&quot;index&quot;:null}" fill="#000000" stroke="none" stroke-width="0.5" stroke-linecap="butt"/><path d="M273.03977,182.13154c0.00147,-0.00285 0.00224,-0.0045 0.00224,-0.0045l0.04597,-0.10117c0.16573,-0.41927 0.43019,-0.65004 0.87699,-0.72939c0.40868,0.04749 0.677,0.4013 1.06645,0.39921c0.25514,-0.00136 1.17972,-0.36386 1.22097,0.26285c0.03187,0.48424 -0.54449,1.65881 -0.79843,2.05989c-1.61695,1.51068 -2.00628,-0.78702 -2.4142,-1.8869z" data-paper-data="{&quot;noHover&quot;:false,&quot;origItem&quot;:[&quot;Path&quot;,{&quot;applyMatrix&quot;:true,&quot;segments&quot;:[[[462.70723,358.07863],[1.04267,-2.10175],[0.00233,0.00598]],[462.71068,358.08795],[[462.77976,358.29641],[0,0],[0.24142,0.86875]],[[464.35137,359.91245],[-0.87196,-0.25179],[0.82281,-0.00848]],[[466.52787,359.34002],[-0.77413,-0.08606],[0.50717,0.05638]],[[468.98868,359.08962],[-0.21388,1.23779],[0.16525,-0.9564]],[[467.83759,354.87805],[0.42069,0.85114],[-2.89821,-3.34472]]],&quot;closed&quot;:true}],&quot;index&quot;:null}" fill="#000000" stroke="none" stroke-width="0.5" stroke-linecap="butt"/><path d="M275.55829,182.65254l-0.06489,-0.11276c-0.40516,-0.52208 -0.30947,0.10483 -0.76693,0.13802c-0.30093,0.02184 -0.65966,-0.34557 -0.89211,-0.15322c0,0 -0.1611,0.13029 -0.29139,-0.03081c-0.13029,-0.1611 0.03081,-0.29139 0.03081,-0.29139c0.61622,-0.48943 0.7232,0.09812 1.13667,0.06135c0.44005,-0.03913 0.54191,-0.66121 1.10516,0.01548l0.0985,0.16095c0,0 0.10619,0.1779 -0.07172,0.2841c-0.17791,0.1062 -0.2841,-0.07171 -0.2841,-0.07171z" data-paper-data="{&quot;index&quot;:null}" fill="#000000" stroke="none" stroke-width="0.5" stroke-linecap="butt"/><path d="M278.45797,181.23516c0.29964,0.02928 0.85432,0.4253 1.04312,0.39949c0.55433,-0.0758 1.51845,-0.26417 1.64561,0.62511c0.08017,0.56076 -0.59743,1.89093 -0.88683,2.34038c-1.00242,0.95481 -2.32868,0.61632 -2.85025,-0.67005c-0.1962,-0.48392 -0.08732,-1.04901 -0.316,-1.49672c0,0 -0.09073,-0.18628 0.09555,-0.27701c0.02394,-0.01166 0.0463,-0.01875 0.0671,-0.02224c0.24062,-0.52833 0.61401,-0.79737 1.2017,-0.89896zM279.94067,184.33589c0.25394,-0.40108 0.8257,-1.54934 0.79383,-2.03358c-0.04126,-0.62671 -0.95528,-0.25527 -1.21042,-0.25391c-0.38944,0.00208 -0.64343,-0.35159 -1.05211,-0.39908c-0.4468,0.07934 -0.7007,0.30162 -0.86643,0.72089l-0.04531,0.10002c0,0 -0.00073,0.0016 -0.00221,0.00445c0.40792,1.09988 0.76569,3.37189 2.38264,1.86121z" data-paper-data="{&quot;index&quot;:null}" fill="#000000" stroke="none" stroke-width="0.5" stroke-linecap="butt"/><path d="M277.53977,182.46487c0.00147,-0.00285 0.00224,-0.0045 0.00224,-0.0045l0.04597,-0.10117c0.16573,-0.41927 0.43019,-0.65004 0.87699,-0.72939c0.40868,0.04749 0.677,0.4013 1.06645,0.39921c0.25514,-0.00136 1.17972,-0.36386 1.22097,0.26285c0.03187,0.48424 -0.54449,1.65881 -0.79843,2.05989c-1.61695,1.51068 -2.00628,-0.78702 -2.4142,-1.8869z" data-paper-data="{&quot;noHover&quot;:false,&quot;origItem&quot;:[&quot;Path&quot;,{&quot;applyMatrix&quot;:true,&quot;segments&quot;:[[[462.70723,358.07863],[1.04267,-2.10175],[0.00233,0.00598]],[462.71068,358.08795],[[462.77976,358.29641],[0,0],[0.24142,0.86875]],[[464.35137,359.91245],[-0.87196,-0.25179],[0.82281,-0.00848]],[[466.52787,359.34002],[-0.77413,-0.08606],[0.50717,0.05638]],[[468.98868,359.08962],[-0.21388,1.23779],[0.16525,-0.9564]],[[467.83759,354.87805],[0.42069,0.85114],[-2.89821,-3.34472]]],&quot;closed&quot;:true}],&quot;index&quot;:null}" fill="#000000" stroke="none" stroke-width="0.5" stroke-linecap="butt"/><path d="M280.05829,182.98587l-0.06489,-0.11276c-0.40516,-0.52208 -0.30947,0.10483 -0.76693,0.13802c-0.30093,0.02184 -0.65966,-0.34557 -0.89211,-0.15322c0,0 -0.1611,0.13029 -0.29139,-0.03081c-0.13029,-0.1611 0.03081,-0.29139 0.03081,-0.29139c0.61622,-0.48943 0.7232,0.09812 1.13667,0.06135c0.44005,-0.03913 0.54191,-0.66121 1.10516,0.01548l0.0985,0.16095c0,0 0.10619,0.1779 -0.07172,0.2841c-0.17791,0.1062 -0.2841,-0.07171 -0.2841,-0.07171z" data-paper-data="{&quot;index&quot;:null}" fill="#000000" stroke="none" stroke-width="0.5" stroke-linecap="butt"/><path d="M282.40216,182.40183c0.19753,0.0193 0.56317,0.28036 0.68763,0.26334c0.36542,-0.04997 1.00098,-0.17414 1.0848,0.41208c0.05285,0.36965 -0.39383,1.24652 -0.58461,1.5428c-0.6608,0.62942 -1.53509,0.40628 -1.87891,-0.4417c-0.12934,-0.319 -0.05757,-0.69152 -0.20831,-0.98665c0,0 -0.05981,-0.1228 0.06299,-0.18261c0.01578,-0.00769 0.03052,-0.01236 0.04424,-0.01466c0.15862,-0.34828 0.40476,-0.52563 0.79217,-0.5926zM283.37956,184.44586c0.1674,-0.2644 0.54431,-1.02134 0.5233,-1.34055c-0.0272,-0.41313 -0.62973,-0.16827 -0.79792,-0.16738c-0.25673,0.00137 -0.42416,-0.23177 -0.69356,-0.26308c-0.29453,0.0523 -0.46191,0.19883 -0.57116,0.47522l-0.02987,0.06593c0,0 -0.00048,0.00105 -0.00145,0.00293c0.2689,0.72505 0.50475,2.22278 1.57066,1.22693z" data-paper-data="{&quot;index&quot;:null}" fill="#000000" stroke="none" stroke-width="0.5" stroke-linecap="butt"/><path d="M281.79687,183.21246c0.00097,-0.00188 0.00148,-0.00297 0.00148,-0.00297l0.03031,-0.06669c0.10925,-0.27639 0.28358,-0.42851 0.57812,-0.48082c0.26941,0.03131 0.44629,0.26454 0.70301,0.26317c0.16819,-0.0009 0.77768,-0.23986 0.80487,0.17327c0.02101,0.31921 -0.35893,1.0935 -0.52633,1.3579c-1.06591,0.99585 -1.32255,-0.51881 -1.59146,-1.24386z" data-paper-data="{&quot;noHover&quot;:false,&quot;origItem&quot;:[&quot;Path&quot;,{&quot;applyMatrix&quot;:true,&quot;segments&quot;:[[[462.70723,358.07863],[1.04267,-2.10175],[0.00233,0.00598]],[462.71068,358.08795],[[462.77976,358.29641],[0,0],[0.24142,0.86875]],[[464.35137,359.91245],[-0.87196,-0.25179],[0.82281,-0.00848]],[[466.52787,359.34002],[-0.77413,-0.08606],[0.50717,0.05638]],[[468.98868,359.08962],[-0.21388,1.23779],[0.16525,-0.9564]],[[467.83759,354.87805],[0.42069,0.85114],[-2.89821,-3.34472]]],&quot;closed&quot;:true}],&quot;index&quot;:null}" fill="#000000" stroke="none" stroke-width="0.5" stroke-linecap="butt"/><path d="M283.45709,183.55592l-0.04277,-0.07433c-0.26708,-0.34416 -0.20401,0.0691 -0.50557,0.09099c-0.19838,0.0144 -0.43485,-0.22781 -0.58809,-0.101c0,0 -0.1062,0.08589 -0.19209,-0.02031c-0.08589,-0.1062 0.02031,-0.19209 0.02031,-0.19209c0.40622,-0.32263 0.47674,0.06468 0.7493,0.04044c0.29008,-0.0258 0.35724,-0.43588 0.72853,0.0102l0.06493,0.1061c0,0 0.07,0.11727 -0.04728,0.18728c-0.11728,0.07001 -0.18728,-0.04728 -0.18728,-0.04728z" data-paper-data="{&quot;index&quot;:null}" fill="#000000" stroke="none" stroke-width="0.5" stroke-linecap="butt"/><path d="M270.38331,204.41883l-0.62857,6.08571" data-paper-data="{&quot;index&quot;:null}" fill="none" stroke="#000000" stroke-width="1" stroke-linecap="round"/><path d="M283.12616,211.4474l-0.34285,-6.22857" data-paper-data="{&quot;index&quot;:null}" fill="none" stroke="#000000" stroke-width="1" stroke-linecap="round"/><path d="M230.58331,210.31883c0,1.38071 -1.65654,2.5 -3.7,2.5c-2.04345,0 -3.7,-1.11929 -3.7,-2.5c0,-1.38071 1.65654,-2.5 3.7,-2.5c2.04345,0 3.7,1.11929 3.7,2.5z" data-paper-data="{&quot;index&quot;:null}" fill="#000000" stroke="none" stroke-width="0" stroke-linecap="butt"/><path d="M226.11331,211.07893l-11.5,3.31157l-5.375,-6.62314l3.125,-2.43498" data-paper-data="{&quot;index&quot;:null}" fill="none" stroke="#000000" stroke-width="1" stroke-linecap="round"/><path d="M224.73831,210.20234l-7.75,-2.14278l0.875,-7.88934l3.5,-0.97399" data-paper-data="{&quot;index&quot;:null}" fill="none" stroke="#000000" stroke-width="1" stroke-linecap="round"/><path d="M226.61331,208.83875l-1.5,-6.33095l5.125,-3.40897l4,0.97399" data-paper-data="{&quot;index&quot;:null}" fill="none" stroke="#000000" stroke-width="1" stroke-linecap="round"/><path d="M241.48831,212.22383l-0.375,1.875l-6.625,2.625l-6.125,-4.75" data-paper-data="{&quot;index&quot;:null}" fill="none" stroke="#000000" stroke-width="1" stroke-linecap="round"/><path d="M274.03474,211.73455c0.85715,1.34663 7.76375,5.5 -8.71428,5.35715c-5.04927,-0.04378 -10,0.41806 -10,-1.35715c0,-1.7752 0.52196,-6.35715 5.57142,-6.35715c1.78269,0 3.397,0.39245 5.52093,0.78128c3.8921,0.71255 7.00525,0.607 7.62194,1.57586z" data-paper-data="{&quot;index&quot;:null}" fill="#000000" stroke="#000000" stroke-width="1" stroke-linecap="butt"/><path d="M287.81845,210.73012c2.12393,-0.38884 3.73823,-0.78128 5.52092,-0.78128c5.04946,0 5.57143,4.58194 5.57143,6.35715c0,1.7752 -4.95073,1.31337 -10,1.35714c-16.47803,0.14285 -9.57143,-4.01051 -8.71429,-5.35714c0.61669,-0.96886 3.72984,-0.86331 7.62194,-1.57586z" data-paper-data="{&quot;index&quot;:null}" fill="#000000" stroke="#000000" stroke-width="1" stroke-linecap="butt"/><path d="M257.90497,217.19606c0,0 -1.86038,-0.49844 -2.11074,-0.66469c-0.32335,-0.21472 -0.55593,-1.18254 -0.55593,-1.18254c0,0 2.62072,0.58402 4.62091,0.60575c1.62277,0.01763 5.30928,-0.4983 8.43971,-0.58417c4.0128,-0.11007 7.39772,0.20065 7.39772,0.20065c0,0 -0.48695,0.45114 -0.93952,0.67035c-0.43569,0.21104 -2.06048,0.62131 -2.06048,0.62131c0,0 -5.78003,0.29266 -8.50559,0.27348c-2.52261,-0.01775 -6.28607,0.05985 -6.28607,0.05985z" data-paper-data="{&quot;index&quot;:null}" fill="#000000" stroke="#000000" stroke-width="0.5" stroke-linecap="butt"/><path d="M289.74391,217.24732c-2.72556,0.01917 -8.5056,-0.27349 -8.5056,-0.27349c0,0 -1.6248,-0.41028 -2.06048,-0.62131c-0.45256,-0.21921 -0.93952,-0.67035 -0.93952,-0.67035c0,0 3.38492,-0.31072 7.39772,-0.20064c3.13043,0.08587 6.81693,0.6018 8.43971,0.58417c2.00018,-0.02173 4.62091,-0.60575 4.62091,-0.60575c0,0 -0.23257,0.96781 -0.55593,1.18253c-0.25036,0.16626 -2.11074,0.66469 -2.11074,0.66469c0,0 -3.76346,-0.0776 -6.28607,-0.05985z" data-paper-data="{&quot;index&quot;:null}" fill="#000000" stroke="#000000" stroke-width="0.5" stroke-linecap="butt"/><path d="M262.93831,199.74883c-0.4,-0.3 -0.1,-0.7 -0.1,-0.7l0.32353,-0.41488c0.03329,-0.13034 0.08612,-0.28238 0.15492,-0.44546c-0.0559,0.04206 -0.11232,0.08353 -0.16938,0.1244c-0.03405,0.04889 -0.06351,0.09471 -0.08766,0.13712l-0.24451,0.48809c-0.08024,0.16893 -0.25243,0.28572 -0.45189,0.28572c-0.04913,0 -0.0966,-0.00708 -0.14145,-0.02029c-0.03238,0.00659 -0.0659,0.01004 -0.10022,0.01004c-0.27614,0 -0.5,-0.22386 -0.5,-0.5c0,-0.12094 0.04294,-0.23184 0.1144,-0.3183l0.34358,-0.42257c-0.26043,-0.01733 -0.4663,-0.23407 -0.4663,-0.49889c0,-0.04575 0.00615,-0.09005 0.01765,-0.13214l0.12228,-0.48912l0.05442,0.01361l-0.01018,-0.12829c0.83647,-0.93843 1.62631,-2.52187 2.25671,-3.63712c0,0 0.24807,-0.43412 0.68219,-0.18605c0.43412,0.24807 0.18605,0.68219 0.18605,0.68219c-0.1107,0.1919 -0.22798,0.40362 -0.35063,0.62688c0.27588,-0.03041 0.52395,0.06618 0.70554,0.34474c0.14029,0.2152 0.14074,0.47834 0.05016,0.76705c0.00207,0.00739 0.00405,0.01483 0.00593,0.02231c0.23065,0.04442 0.40487,0.24734 0.40487,0.49096c0,0.05938 -0.01036,0.11634 -0.02935,0.16918l-0.24631,0.73893l-0.22695,-0.07565c-0.34214,0.81489 -0.90479,1.29308 -1.17093,2.38242l-0.42647,0.58512c0,0 -0.3,0.4 -0.7,0.1z" data-paper-data="{&quot;index&quot;:null}" fill="#000000" stroke="none" stroke-width="0.5" stroke-linecap="butt"/><path d="M287.06055,205.06965c-0.35329,0 -0.68946,-0.07328 -0.99415,-0.20547c-3.28316,0.22656 -6.67217,0.61427 -9.82213,0.08928c-3.3063,0.01095 -7.17985,-0.44891 -10.41626,0.21421c0,0 -0.28902,0.05781 -0.46763,-0.13725c-0.05812,0.01325 -0.12004,0.02522 -0.18598,0.03585c-1.6311,0 -5.37072,0.30972 -6.23971,-1.53088c-0.6557,-1.38882 0.6726,-5.12663 0.97165,-6.62273c0.71128,-3.55426 1.54585,-6.81068 1.54585,-10.4575c0,0 0,-0.06239 0.02203,-0.14309c-0.73036,-0.32611 -1.41347,-0.71379 -2.1512,-1.08265c-3.0391,-1.52578 -4.94961,-5.3518 -6.77575,-8.08653c0,0 -0.01683,-0.02525 -0.03599,-0.06747l-0.29118,-0.21101c-0.11886,-0.7744 -0.68088,-1.2464 -0.7551,-2.04096c-0.01927,-0.20637 -0.03053,-0.41394 -0.03527,-0.62246c-2.79716,-0.09178 -2.69138,-1.97285 -3.95389,-3.64784v-0.00003c0,0 -0.17276,-0.25916 -0.04104,-0.50475c-0.07132,-0.04938 -0.14331,-0.09786 -0.21596,-0.14541c0.18516,-0.5729 0.34035,-1.16509 0.41975,-1.80899c0,0 0.03031,-0.24247 0.21806,-0.36721c0.09848,-1.42784 1.12042,-2.34747 1.43114,-3.74273c0.31627,-1.42018 -0.17841,-2.33264 0.71662,-3.67682c0,0 0.0265,-0.03974 0.0754,-0.08648c0.69187,-2.30041 1.6388,-4.06653 1.98082,-6.50029l0.0668,-0.16432c-0.2308,-0.13568 -0.2308,-0.43431 -0.2308,-0.43431c0,-1.08063 -0.43061,-2.5671 -0.08546,-3.60256c0.85092,-2.55277 5.17137,-3.73558 7.41914,-4.31435c0.07417,-5.08993 6.20483,-3.03084 9.41523,-3.68703c4.44166,-0.62874 8.89512,0.11393 13.36848,-0.78252c2.12495,-0.00625 3.8266,1.01705 5.87631,1.22222c0.95855,0.09595 2.11908,-0.10079 3.03632,0.26011c0.18359,0.07224 0.36416,0.15629 0.53909,0.25123c0.21247,-0.05232 0.40823,0.07819 0.40823,0.07819h0.00001c3.04687,2.03125 6.37531,2.93943 9.03964,5.52935c3.63757,2.42505 3.34967,7.60285 3.34967,11.55334c0,1.23261 0.18486,2.64705 -0.10834,3.8586c0.21839,0.37127 0.37203,0.79257 0.36867,1.35829c0.21429,0.1952 0.43642,0.38547 0.66083,0.57412l0.31072,-0.33019c0.03704,-0.01009 0.07281,-0.02076 0.10739,-0.03198c0.17838,0.34733 0.38677,0.61985 0.61597,0.82623c-0.07371,0.03426 -0.15182,0.06658 -0.2349,0.09693c-0.01136,0.01791 -0.02776,0.04166 -0.04922,0.06744c0.49358,0.41949 0.96779,0.84911 1.36179,1.32493c3.49829,3.02287 5.48133,8.00987 1.28886,11.56645c-2.65264,2.65787 -6.24236,2.61954 -8.69419,-0.08361c-0.67682,1.98604 -2.76123,4.03133 -4.5288,5.23656c0.06822,0.06357 0.13735,0.1262 0.20733,0.18787c-0.67665,0.45481 -1.36248,0.86781 -2.036,1.22587l0.14099,0.28119c-0.00619,0.45601 0.04108,0.93663 0.11334,1.42333c-0.03938,0.02596 -0.07855,0.0522 -0.11753,0.0787c0.00419,0.03289 0.00419,0.05353 0.00419,0.05353c0,3.56255 0.41194,7.12125 1.1014,10.56861c0.217,1.10773 0.95571,5.13694 0.08549,6.00717c-0.58329,0.58329 -2.42561,0.21632 -3.58481,0.20778c-0.79575,0.25149 -1.55383,0.51914 -2.06083,0.60363c-0.30672,0.00088 -0.61547,0.0065 -0.92594,0.01589c-0.36296,0.20533 -0.78237,0.32252 -1.22914,0.32252zM262.71946,186.73382l-0.01001,-0.0017c0.0124,0.03116 0.02743,0.05975 0.04334,0.08539c-0.01299,-0.02577 -0.02452,-0.05376 -0.03332,-0.0837zM251.68368,170.80244c0.00144,-0.01394 0.00288,-0.02789 0.0043,-0.04183c-0.01284,0.0073 -0.02752,0.02287 -0.04033,0.03865c0.00847,0.00045 0.02079,0.00135 0.03603,0.00318zM251.57521,171.79883h-0.00592l0.00432,0.01473c0.00053,-0.00491 0.00107,-0.00982 0.0016,-0.01473zM248.59672,168.45924c-0.00153,0.00978 -0.00308,0.01955 -0.00464,0.02931c0.06907,-0.04093 0.11732,-0.09652 0.15102,-0.15423c-0.03554,0.04815 -0.083,0.09246 -0.14638,0.12492zM252.52861,167.03778c0.07553,-0.1355 0.15559,-0.27095 0.23975,-0.4062c-0.00072,-0.00032 -0.00143,-0.00063 -0.00215,-0.00095c-0.08351,0.13548 -0.16285,0.27125 -0.2376,0.40715zM272.53237,199.4605c0.03215,0.01581 0.06436,0.03571 0.09452,0.06078c-0.02959,-0.02753 -0.06211,-0.04704 -0.09452,-0.06078zM279.07449,199.50619c0.02568,-0.01905 0.05246,-0.0347 0.07914,-0.04755c-0.02681,0.01145 -0.05377,0.02687 -0.07914,0.04755z" fill="#000000" stroke="none" stroke-width="0.5" stroke-linecap="butt"/><path d="M285.71096,155.26485c-0.41602,-0.27735 -0.13868,-0.69338 -0.13868,-0.69338l0.26603,-0.39765c0.09331,-0.12441 0.60807,-0.71096 1.04595,-1.18693c-0.4251,0.29575 -1.01187,0.64317 -1.61327,0.97316c-0.57156,0.43123 -1.16969,0.85136 -1.76921,1.34692l-0.76835,0.63465c-0.08686,0.07283 -0.19885,0.11669 -0.32107,0.11669c-0.20339,0 -0.37841,-0.12144 -0.45652,-0.29577c-0.0728,0.01916 -0.14532,0.03562 -0.21753,0.04919v0.28709h-0.5c-0.27614,0 -0.5,-0.22386 -0.5,-0.5c0,-0.13036 0.04989,-0.24906 0.13161,-0.33807l0.33847,-0.37134c1.47845,-1.61751 4.00653,-4.0819 6.15866,-4.65067c0,0 0.48507,-0.12127 0.60634,0.3638c0.12127,0.48507 -0.3638,0.60634 -0.3638,0.60634c-0.16178,0.03719 -0.32756,0.08917 -0.49627,0.15402v0.17785l0.22154,0.05598c0.34026,-0.11381 0.66885,-0.15714 0.85936,0.00224c0.8815,0.73743 -1.14306,2.62438 -1.5559,3.17484l-0.23397,0.35235c0,0 -0.27735,0.41603 -0.69338,0.13868z" data-paper-data="{&quot;index&quot;:null}" fill="#000000" stroke="none" stroke-width="0.5" stroke-linecap="butt"/><path d="M233.39665,203.79883c-0.25,0 -0.25,-0.25 -0.25,-0.25l0.00322,-0.48449c0.03382,-0.10421 0.0602,-0.21072 0.08362,-0.31781c-0.06062,-0.10869 -0.12212,-0.25588 -0.1839,-0.44817c-0.00158,-0.00449 -0.00303,-0.00905 -0.00436,-0.01365c-0.19482,-0.62091 0.45735,-1.29277 0.7698,-1.8693c-0.28905,-0.08915 -0.65883,-0.20722 -1.04632,-0.33354c-0.47673,-0.07368 -1.01264,-0.2194 -1.4587,-0.3883c-0.11048,-0.02236 -0.2152,-0.04246 -0.31217,-0.05944l-0.01359,0.04076l-0.23967,-0.07988c-0.09268,-0.01182 -0.17263,-0.01839 -0.23683,-0.01839c-1.07131,0 -2.47254,0.99654 -3.01421,1.88867l-0.14234,0.14921c0,0 -0.17678,0.17677 -0.35356,0c-0.17677,-0.17677 0,-0.35355 0,-0.35355l0.07987,-0.07301c0.71684,-1.01246 2.12529,-2.11132 3.43024,-2.11132c0.04276,0 0.10318,0.00123 0.17842,0.00382c0.01422,-0.00251 0.02885,-0.00382 0.0438,-0.00382h0.33334v0.0216l0.05061,-0.01643c0.01841,0.0077 0.03724,0.0155 0.05646,0.02336c0.04658,0.00297 0.09478,0.0062 0.1444,0.00969c0.35229,-0.12825 0.84028,-0.03925 1.32322,0.13092c1.10652,0.14493 2.2165,0.39595 2.22419,0.8012c0.00446,0.23502 -0.24016,0.46287 -0.46553,0.52966c-0.0065,0.00192 -0.03251,-0.00286 -0.07515,-0.01342c-0.04203,0.13096 -0.08178,0.26249 -0.11929,0.39114v0.26117c-0.00176,0.38901 -0.19399,1.31413 -0.47034,1.65505c-0.02484,0.08414 -0.05435,0.17474 -0.08844,0.27389l0.00323,0.4044c0,0 0,0.25 -0.25,0.25z" data-paper-data="{&quot;index&quot;:null}" fill="#000000" stroke="none" stroke-width="0.5" stroke-linecap="butt"/><path d="M225.39665,203.35439c-0.25,0 -0.25,-0.25 -0.25,-0.25l0.00187,-0.36388c0.0389,-0.15818 0.0778,-0.31635 0.1167,-0.47453c0,0 0.06063,-0.24253 0.30317,-0.1819c0.24254,0.06063 0.1819,0.30316 0.1819,0.30316c-0.03518,0.13812 -0.07035,0.27624 -0.10552,0.41436l0.00188,0.30279c0,0 0,0.25 -0.25,0.25z" data-paper-data="{&quot;index&quot;:null}" fill="#000000" stroke="none" stroke-width="0.5" stroke-linecap="butt"/><path d="M219.36887,199.54883c0,-0.25 0.25,-0.25 0.25,-0.25h0.11111c0.40676,0.03257 1.13092,-0.42911 1.60603,-0.54809c0,0 0.24254,-0.06064 0.30317,0.1819c0.06063,0.24254 -0.1819,0.30317 -0.1819,0.30317c-0.59825,0.1493 -1.16068,0.53788 -1.72731,0.56302h-0.11111c0,0 -0.25,0 -0.25,-0.25z" data-paper-data="{&quot;index&quot;:null}" fill="#000000" stroke="none" stroke-width="0.5" stroke-linecap="butt"/><path d="M217.84178,201.55022c-0.2236,0.11181 -0.33541,-0.11181 -0.33541,-0.11181l-0.13751,-0.33402c0,-0.77487 0.21042,-0.98064 0.73989,-1.51011c0,0 0.17678,-0.17677 0.35356,0c0.17677,0.17677 0,0.35356 0,0.35356c-0.46114,0.46114 -0.59345,0.51077 -0.59345,1.15655l0.08472,0.11042c0,0 0.1118,0.2236 -0.11181,0.33541z" data-paper-data="{&quot;index&quot;:null}" fill="#000000" stroke="none" stroke-width="0.5" stroke-linecap="butt"/><path d="M217.17442,207.4655c-0.25,0 -0.25,-0.25 -0.25,-0.25l0.01903,-0.54012c0.41865,-0.41865 0.20779,-1.66286 0.2032,-2.23766c0,0 0,-0.25 0.25,-0.25c0.25,0 0.25,0.25 0.25,0.25c-0.00422,0.63422 0.22427,1.96347 -0.24126,2.429l0.01903,0.34877c0,0 0,0.25 -0.25,0.25z" data-paper-data="{&quot;index&quot;:null}" fill="#000000" stroke="none" stroke-width="0.5" stroke-linecap="butt"/><path d="M220.96715,209.51678c-0.07906,0.23717 -0.31623,0.15812 -0.31623,0.15812l-0.34994,-0.11731c-0.65586,-0.33886 -1.18412,-0.37943 -1.74777,-0.94308c0,0 -0.17677,-0.17678 0,-0.35355c0.17677,-0.17677 0.35356,0 0.35356,0c0.52473,0.52473 0.94601,0.5239 1.58556,0.8347l0.31672,0.10491c0,0 0.23717,0.07906 0.15812,0.31623z" data-paper-data="{&quot;index&quot;:null}" fill="#000000" stroke="none" stroke-width="0.5" stroke-linecap="butt"/><path d="M210.61748,206.54953c-0.11181,-0.2236 0.11181,-0.33541 0.11181,-0.33541l0.19535,-0.09552c0.3028,-0.20186 0.59431,-0.37679 0.85079,-0.63543c0,0 0.17678,-0.17677 0.35355,0c0.17677,0.17677 0,0.35356 0,0.35356c-0.28277,0.28074 -0.59604,0.47727 -0.92699,0.6979l-0.2491,0.12671c0,0 -0.2236,0.11181 -0.33541,-0.1118z" data-paper-data="{&quot;index&quot;:null}" fill="#000000" stroke="none" stroke-width="0.5" stroke-linecap="butt"/><path d="M212.50776,213.02106c-0.25,0 -0.25,-0.25 -0.25,-0.25l0.01072,-0.372c-0.58638,-0.82254 -1.64864,-1.54053 -1.67739,-2.628c0,0 0,-0.25 0.25,-0.25c0.25,0 0.25,0.25 0.25,0.25c-0.03696,0.89888 1.19174,1.75713 1.65594,2.48311l0.01073,0.51689c0,0 0,0.25 -0.25,0.25z" data-paper-data="{&quot;index&quot;:null}" fill="#000000" stroke="none" stroke-width="0.5" stroke-linecap="butt"/><path d="M218.53554,213.88217c0,0.25 -0.25,0.25 -0.25,0.25h-0.11111c-0.79069,0 -2.73981,0.12769 -3.26766,0.70455c0,0 -0.17678,0.17677 -0.35356,0c-0.17677,-0.17677 0,-0.35356 0,-0.35356c0.7142,-0.67566 2.64076,-0.851 3.62122,-0.851h0.11111c0,0 0.25,0 0.25,0.25z" data-paper-data="{&quot;index&quot;:null}" fill="#000000" stroke="none" stroke-width="0.5" stroke-linecap="butt"/><path d="M237.50637,215.77175c-0.11181,-0.2236 0.11181,-0.33541 0.11181,-0.33541l0.19535,-0.09552c0.11111,-0.07407 0.22223,-0.14815 0.33334,-0.22223c0,0 0.12589,-0.08393 0.24708,-0.02327c0.04937,-0.08484 0.14586,-0.117 0.14586,-0.117l0.30255,-0.09852c0.56549,-0.37699 1.1697,-0.36163 1.77582,-0.66569c0,0 0.05721,-0.02861 0.12823,-0.02794c0.01568,-0.02301 0.02902,-0.03634 0.02902,-0.03634l0.22222,-0.22222c0.30981,-0.26019 0.149,-0.97833 0.149,-1.37878c0,0 0,-0.25 0.25,-0.25c0.25,0 0.25,0.25 0.25,0.25c0,0.62501 0.14081,1.2536 -0.29545,1.73234l-0.22223,0.22222c0,0 -0.08326,0.08326 -0.19264,0.07836c-0.0415,0.05306 -0.09455,0.07958 -0.09455,0.07958c-0.60969,0.3039 -1.22306,0.29652 -1.77974,0.66764l-0.36411,0.12371c0,0 -0.09903,0.03301 -0.19044,-0.00762c-0.03456,0.0571 -0.08328,0.08957 -0.08328,0.08957c-0.11111,0.07407 -0.22223,0.14815 -0.33334,0.22223l-0.24909,0.12671c0,0 -0.2236,0.1118 -0.33541,-0.11181z" data-paper-data="{&quot;index&quot;:null}" fill="#000000" stroke="none" stroke-width="0.5" stroke-linecap="butt"/><path d="M233.21987,215.48317c0.17677,-0.17677 0.35356,0 0.35356,0l0.20395,0.20566c0.87285,0.58558 1.84893,0.53178 2.87355,0.17839c0,0 0.23718,-0.07906 0.31623,0.15811c0.07906,0.23717 -0.15812,0.31623 -0.15812,0.31623c-1.19286,0.38672 -2.31643,0.41887 -3.34867,-0.26605l-0.2405,-0.23878c0,0 -0.17677,-0.17678 0,-0.35356z" data-paper-data="{&quot;index&quot;:null}" fill="#000000" stroke="none" stroke-width="0.5" stroke-linecap="butt"/><path d="M329.09109,200.77106c0,0.25 -0.25,0.25 -0.25,0.25h-0.44444c-1.01209,-0.04489 -1.35144,-1.63446 -2.22223,-1.55556c-0.93491,0 -1.69399,-0.81471 -2.45129,-1.36291c-0.01373,-0.00994 -3.58801,0.93055 -4.05523,1.02472c0,0 -0.24514,0.04903 -0.29417,-0.19611c-0.04903,-0.24515 0.19611,-0.29417 0.19611,-0.29417c0.74424,-0.14777 3.96082,-1.2123 4.38922,-0.97528c0.74974,0.41482 1.35852,1.30375 2.21536,1.30375c0.97431,0.05124 1.39931,1.62145 2.22223,1.55556h0.44444c0,0 0.25,0 0.25,0.25z" data-paper-data="{&quot;index&quot;:null}" fill="#000000" stroke="none" stroke-width="0.5" stroke-linecap="butt"/><path d="M336.72998,202.24328c-0.25,0 -0.25,-0.25 -0.25,-0.25v-0.11111c0,-0.98937 -0.12113,-1.65614 -0.43162,-2.58761c0,0 -0.04844,-0.14531 0.04426,-0.24637c-0.02161,-0.02748 -0.03503,-0.05794 -0.04337,-0.08519c-1.07513,-0.26306 -2.36034,0.31047 -3.27382,-0.57072c0,0 -0.17678,-0.17678 0,-0.35356c0.17678,-0.17677 0.35355,0 0.35355,0c0.74893,0.78897 2.29674,0.18221 3.23561,0.49516l0.17095,0.34829c0,0 0,0.09688 -0.06032,0.17003c0.03359,0.04258 0.04748,0.08424 0.04748,0.08424c0.32434,0.97302 0.45727,1.71262 0.45727,2.74573v0.11111c0,0 0,0.25 -0.25,0.25z" data-paper-data="{&quot;index&quot;:null}" fill="#000000" stroke="none" stroke-width="0.5" stroke-linecap="butt"/><path d="M337.06331,204.35439c-0.25,0 -0.25,-0.25 -0.25,-0.25v-0.11111c0.00126,-0.27823 -0.03498,-0.55862 -0.10364,-0.82826c0,0 -0.06063,-0.24254 0.1819,-0.30317c0.24253,-0.06063 0.30317,0.1819 0.30317,0.1819c0.07617,0.30973 0.11731,0.63056 0.11857,0.94952v0.11111c0,0 0,0.25 -0.25,0.25z" data-paper-data="{&quot;index&quot;:null}" fill="#000000" stroke="none" stroke-width="0.5" stroke-linecap="butt"/><path d="M344.28554,206.57661c-0.25,0 -0.25,-0.25 -0.25,-0.25l0.00322,-0.29329c-0.21055,-0.66155 -1.41257,-1.14445 -2.05451,-1.35843c0,0 -0.23717,-0.07906 -0.15812,-0.31623c0.07905,-0.23717 0.31623,-0.15812 0.31623,-0.15812c0.87322,0.29108 2.08149,0.85059 2.38993,1.75268l0.00323,0.37338c0,0 0,0.25 -0.25,0.25z" data-paper-data="{&quot;index&quot;:null}" fill="#000000" stroke="none" stroke-width="0.5" stroke-linecap="butt"/><path d="M340.74419,211.35417c-0.13867,-0.20801 0.06934,-0.34669 0.06934,-0.34669l0.29523,-0.19099c0.56545,-0.86622 2.84864,-3.02109 2.81566,-3.82322c0,0 0,-0.25 0.25,-0.25c0.25,0 0.25,0.25 0.25,0.25c-0.0292,1.10451 -2.25012,3.12835 -2.96211,4.17677l-0.37143,0.25346c0,0 -0.20802,0.13868 -0.34669,-0.06934z" data-paper-data="{&quot;index&quot;:null}" fill="#000000" stroke="none" stroke-width="0.5" stroke-linecap="butt"/><path d="M338.81331,212.77106c0,-0.25 0.25,-0.25 0.25,-0.25l-0.06566,0.07322c0.52634,-0.47964 0.84904,-0.39342 1.3021,-1.07301c0,0 0.13867,-0.20801 0.34668,-0.06933c0.20801,0.13868 0.06934,0.34669 0.06934,0.34669c-0.41051,0.61577 -1.00932,0.72621 -1.36457,1.14921l-0.28789,0.07322c0,0 -0.25,0 -0.25,-0.25z" data-paper-data="{&quot;index&quot;:null}" fill="#000000" stroke="none" stroke-width="0.5" stroke-linecap="butt"/><path d="M333.7286,211.65925c0.11181,-0.2236 0.33541,-0.11181 0.33541,-0.11181l0.17105,0.09219c1.02895,0.25767 1.75159,0.6592 2.82825,0.6592c0,0 0.25,0 0.25,0.25c0,0.25 -0.25,0.25 -0.25,0.25c-1.12111,0 -1.88639,-0.40882 -2.94952,-0.67413l-0.2734,-0.13004c0,0 -0.2236,-0.11181 -0.1118,-0.33541z" data-paper-data="{&quot;index&quot;:null}" fill="#000000" stroke="none" stroke-width="0.5" stroke-linecap="butt"/><path d="M313.62025,212.54953c-0.11181,0.2236 -0.33541,0.1118 -0.33541,0.1118l-0.28719,-0.15794c-0.56051,-0.59048 -0.62878,-0.61775 -0.62878,-1.51011c0,0 0,-0.25 0.25,-0.25c0.25,0 0.25,0.25 0.25,0.25c0,0.4177 0.18171,0.86656 0.48233,1.15655l0.15725,0.06428c0,0 0.22361,0.11181 0.1118,0.33541z" data-paper-data="{&quot;index&quot;:null}" fill="#000000" stroke="none" stroke-width="0.5" stroke-linecap="butt"/><path d="M318.86887,215.10439c0,0.25 -0.25,0.25 -0.25,0.25l-0.399,-0.07322c-0.88731,-1.05653 -3.02236,-1.49816 -4.34672,-1.93961c0,0 -0.23717,-0.07906 -0.15812,-0.31623c0.07905,-0.23717 0.31623,-0.15811 0.31623,-0.15811c1.53121,0.5104 3.35701,0.98039 4.54216,2.06039l0.04545,-0.07323c0,0 0.25,0 0.25,0.25z" data-paper-data="{&quot;index&quot;:null}" fill="#000000" stroke="none" stroke-width="0.5" stroke-linecap="butt"/><path d="M322.07826,213.80311c0.07905,0.23717 -0.15811,0.31623 -0.15811,0.31623l-0.23561,0.05071c-0.15087,0.43462 -1.92711,1.38994 -2.399,1.40656c0,0 -0.25,0 -0.25,-0.25c0,-0.25 0.25,-0.25 0.25,-0.25c0.38425,0.02096 1.94486,-0.94476 2.04544,-1.26011l0.43105,-0.1715c0,0 0.23717,-0.07906 0.31623,0.15811z" data-paper-data="{&quot;index&quot;:null}" fill="#000000" stroke="none" stroke-width="0.5" stroke-linecap="butt"/><path d="M323.39733,212.54745c0.22361,0.11181 0.11181,0.33541 0.11181,0.33541l-0.30371,0.35849c-0.20512,0.01716 -0.38541,0.15862 -0.54768,0.28527c0,0 -0.2,0.15 -0.35,-0.05c-0.15,-0.2 0.05,-0.35 0.05,-0.35c0.23546,-0.17119 0.49779,-0.33804 0.78566,-0.38141l-0.08149,-0.08595c0,0 0.1118,-0.22361 0.33541,-0.11181z" data-paper-data="{&quot;index&quot;:null}" fill="#000000" stroke="none" stroke-width="0.5" stroke-linecap="butt"/><path d="M331.8397,208.3273c-0.11181,-0.2236 0.1118,-0.33541 0.1118,-0.33541l0.25497,-0.12467c0.79249,-0.25806 1.53289,-0.68017 2.31955,-0.99495c0,0 0.23212,-0.09285 0.32497,0.13927c0.09285,0.23212 -0.13927,0.32497 -0.13927,0.32497c-0.79956,0.3197 -1.543,0.73186 -2.34713,1.00505l-0.18948,0.09755c0,0 -0.2236,0.1118 -0.33541,-0.11181z" data-paper-data="{&quot;index&quot;:null}" fill="#000000" stroke="none" stroke-width="0.5" stroke-linecap="butt"/><path d="M327.50775,207.02106c-0.25,0 -0.25,-0.25 -0.25,-0.25l0.00092,-0.13254c0.05498,-0.59813 0.30561,-1.12337 0.45099,-1.70588c0,0 0.06064,-0.24253 0.30317,-0.1819c0.24253,0.06063 0.1819,0.30317 0.1819,0.30317c-0.13799,0.55104 -0.39339,1.06404 -0.4379,1.62745l0.00092,0.08969c0,0 0,0.25 -0.25,0.25z" data-paper-data="{&quot;index&quot;:null}" fill="#000000" stroke="none" stroke-width="0.5" stroke-linecap="butt"/><path d="M328.90675,210.28117c-0.17678,0.17677 -0.35356,0 -0.35356,0l-0.20394,-0.20567c-0.0634,-0.04197 -0.14522,-0.09402 -0.23521,-0.15402c-0.01745,0.02003 -0.03519,0.03964 -0.05321,0.05881l0.11539,0.19234l-0.42522,0.25513c-0.03834,0.02392 -0.08363,0.03774 -0.13215,0.03774c-0.00249,0 -0.00498,-0.00003 -0.00745,-0.0001l-0.038,0.03799c-0.04524,0.04524 -0.10774,0.07323 -0.17677,0.07323c-0.13807,0 -0.25,-0.11193 -0.25,-0.25v-0.43531c-0.599,0.43806 -1.8992,1.58328 -2.50682,0.61845c-0.19657,-0.31214 0.02943,-0.85546 0.40967,-1.39353c-0.43273,-0.43051 -0.75212,-0.88625 -0.27407,-1.41083c0,0 0.17677,-0.17677 0.35355,0c0.17678,0.17677 0,0.35356 0,0.35356c-0.13257,0.11133 -0.0877,0.27486 0.04016,0.45619c0.1375,-0.44413 0.44801,-0.88925 0.89754,-1.1641c0.03236,-0.07617 0.06597,-0.15417 0.10018,-0.23401c0,0 0.09848,-0.22979 0.32826,-0.13131c0.0803,0.03441 0.12051,0.08486 0.13885,0.13593c0.35532,-0.07867 0.76335,-0.05916 1.21491,0.10479c0.8891,0.3228 0.98887,1.2092 0.69645,1.9721c0.0043,-0.00113 0.0086,-0.00224 0.0129,-0.00335c0,0 0.24253,-0.06064 0.30317,0.1819c0.06063,0.24254 -0.1819,0.30317 -0.1819,0.30317c-0.00637,0.00153 -0.01273,0.00308 -0.01909,0.00464c0.00194,0.00131 0.00389,0.00262 0.00585,0.00393l0.2405,0.23878c0,0 0.17678,0.17678 0,0.35356zM327.1852,209.86341c-0.00851,0.00609 -0.01719,0.01234 -0.02603,0.01876h0.028c-0.00067,-0.00626 -0.00133,-0.01251 -0.00198,-0.01876zM326.91436,208.02634c-0.12522,0.01768 -0.37878,0.2086 -0.65933,0.47427c0.06856,0.15052 0.25973,0.26593 0.64669,0.36124l0.00993,0.00472c0.08936,-0.03059 0.16715,-0.05602 0.235,-0.08523v-0.34362c0,-0.13807 0.11193,-0.25 0.25,-0.25c0.00327,0 0.00653,0.00006 0.00977,0.00018c-0.0946,-0.12134 -0.25786,-0.19463 -0.49205,-0.16157zM326.501,209.33954c0.01074,-0.02514 0.02097,-0.04049 0.02097,-0.04049l0.01605,-0.02267c-0.32246,-0.10792 -0.52878,-0.24229 -0.64902,-0.40246c-0.06142,0.06711 -0.12209,0.13574 -0.18099,0.2049c0.14175,0.12975 0.27766,0.25109 0.37378,0.35169c0.1187,-0.00707 0.25803,-0.03588 0.41921,-0.09097zM326.30746,209.90472c-0.03739,0.00719 -0.07386,0.01318 -0.10942,0.01798c-0.00277,0.01617 -0.00738,0.03587 -0.01507,0.05665c0.04115,-0.02441 0.08269,-0.04934 0.12449,-0.07463zM325.28292,209.64162c-0.16968,0.2644 -0.26311,0.49239 -0.21096,0.61661c0.09193,0.21901 0.42974,0.09995 0.84677,-0.12766c-0.17415,-0.0171 -0.20823,-0.16737 -0.2149,-0.22555c-0.18192,-0.04614 -0.32126,-0.13878 -0.4209,-0.26341zM327.61732,207.68467c0.22003,0.15467 0.33451,0.40148 0.35218,0.66881c0.02053,0.06948 0.00497,0.13732 -0.00059,0.15737c-0.00972,0.1353 -0.04286,0.27222 -0.09837,0.40204c0.05755,0.07987 0.116,0.15678 0.17946,0.23207c0.14521,-0.6187 0.18917,-1.30706 -0.35158,-1.4417c-0.02722,-0.00678 -0.05426,-0.01297 -0.08111,-0.0186z" data-paper-data="{&quot;index&quot;:null}" fill="#000000" stroke="none" stroke-width="0.5" stroke-linecap="butt"/><path d="M226.24009,210.83672c-0.17677,0.17677 -0.35355,0 -0.35355,0l-0.29545,-0.399c0.02074,-0.02801 0.04071,-0.05615 0.06008,-0.0842c-0.10598,0.03359 -0.21191,0.06457 -0.32184,0.09028c-0.03413,0.02444 -0.06975,0.04919 -0.10701,0.07443l0.01273,0.05091l-0.13576,0.03394l-0.2278,0.15186c-0.04024,0.02768 -0.08899,0.04389 -0.14152,0.04389c-0.13807,0 -0.25,-0.11193 -0.25,-0.25c0,-0.01909 0.00214,-0.03769 0.00619,-0.05555c-0.00405,-0.01787 -0.00619,-0.03646 -0.00619,-0.05555c0,-0.11246 0.07426,-0.20758 0.17641,-0.239l0.02998,-0.00999l0.09669,-0.12989c-0.05364,0.00194 -0.10789,0.00097 -0.16419,-0.00335v0.07667h-0.33333c-0.13807,0 -0.25,-0.11193 -0.25,-0.25c0,-0.11266 0.07452,-0.20792 0.17696,-0.23917l0.28304,-0.0936c0.30173,-0.09979 0.60104,-0.19527 0.90229,-0.28605l-0.00299,-0.00498l0.42522,-0.25513c0.03834,-0.02392 0.08363,-0.03775 0.13215,-0.03775c0.13807,0 0.25,0.11193 0.25,0.25c0,0.05981 -0.021,0.1147 -0.05603,0.15773l-0.00738,0.00923c0.03943,0.0442 0.06341,0.10249 0.06341,0.16638c0,0.03779 -0.00839,0.07362 -0.0234,0.10574c0.12256,-0.02872 0.24159,-0.05294 0.35049,-0.07542l0.25706,-0.05209c0.01762,-0.00394 0.03594,-0.00601 0.05474,-0.00601c0.13807,0 0.25,0.11193 0.25,0.25c0,0.11898 -0.08311,0.21854 -0.19444,0.2438l-0.25798,0.06449c-0.19114,0.15797 -0.39322,0.31129 -0.54758,0.35837l0.14899,0.04545c0,0 0.17677,0.17678 0,0.35356z" data-paper-data="{&quot;index&quot;:null}" fill="#000000" stroke="none" stroke-width="0.5" stroke-linecap="butt"/><path d="M227.99765,211.50339c-0.17677,-0.17677 0,-0.35356 0,-0.35356l0.26756,-0.25811c0.24559,-0.08631 0.47045,-0.13719 0.67054,-0.16097c0.12344,-0.45763 0.32097,-0.86804 0.44058,-1.35367c0,0 0.06063,-0.24253 0.30317,-0.1819c0.24254,0.06063 0.1819,0.30317 0.1819,0.30317c-0.01519,0.05996 -0.03164,0.11872 -0.04906,0.17656c0.03992,-0.02699 0.08805,-0.04274 0.13986,-0.04274c0.13807,0 0.25,0.11193 0.25,0.25c0,0.05253 -0.01621,0.10128 -0.04389,0.14152l-0.16519,0.24779c-0.09238,0.13856 -0.19227,0.33425 -0.30778,0.51776c0.42481,0.15778 0.39653,0.51817 -0.30793,0.62001l0.01082,0.07583l-0.06938,0.0099l-0.00624,0.07279c-0.00968,0.12922 -0.11759,0.23106 -0.24929,0.23106c-0.13627,0 -0.24707,-0.10902 -0.24994,-0.2446c-0.11681,-0.02102 -0.20544,-0.12318 -0.20544,-0.24604c0,-0.00581 0.0002,-0.01156 0.00059,-0.01727c-0.02644,0.00903 -0.05327,0.01775 -0.08044,0.02612l-0.17687,0.18634c0,0 -0.17678,0.17677 -0.35356,0z" data-paper-data="{&quot;index&quot;:null}" fill="#000000" stroke="none" stroke-width="0.5" stroke-linecap="butt"/></g></g></svg>