<svg version="1.1" xmlns="http://www.w3.org/2000/svg" xmlns:xlink="http://www.w3.org/1999/xlink" width="75.4286" height="106.93123" viewBox="0,0,75.4286,106.93123"><g transform="translate(-238.8714,-127.65448)"><g data-paper-data="{&quot;isPaintingLayer&quot;:true}" fill="#000000" fill-rule="nonzero" stroke="none" stroke-width="0.5" stroke-linecap="butt" stroke-linejoin="miter" stroke-miterlimit="10" stroke-dasharray="" stroke-dashoffset="0" style="mix-blend-mode: normal"><path d="M273.36692,184.1308c-0.06737,0.00885 -0.12459,-0.01036 -0.12459,-0.01036c-0.77595,-0.26044 -1.40867,0.44199 -2.08488,0.82506c-0.59359,0.33626 -1.82038,0.49597 -2.51655,0.61237c-1.02028,0.16782 -3.27836,0.81059 -4.24262,0.3266c-0.46852,-0.23516 -0.68441,-1.08806 -1.00795,-1.51375c-0.12032,-0.78 1.45661,-2.74201 2.30356,-2.90066c0.73979,-0.13857 1.52741,0.08882 2.26114,0.09219c0.75214,0.12583 1.83373,0.10663 2.52627,0.33098c0.99354,0.32185 1.96563,1.0966 2.87764,1.64639l0.20052,0.1494c0,0 0.19737,0.14867 0.0487,0.34603c-0.07897,0.10484 -0.17168,0.11204 -0.24125,0.09575z" data-paper-data="{&quot;index&quot;:null}"/><path d="M244.65549,184.49436c-0.4332,-0.85132 0.16069,-1.7733 1.19121,-1.77805c1.38406,0.00286 4.84658,0.63942 4.87507,2.41924c-0.02441,1.02453 -2.69445,1.1912 -3.96603,1.22036c-0.1166,0.12707 -0.28589,0.04199 -0.28589,0.04199c-0.02457,-0.01253 -0.04849,-0.02466 -0.07181,-0.03645c-0.0227,0.00019 -0.04428,0.00035 -0.0647,0.00048c0,0 -0.17595,-0.00037 -0.23059,-0.14895c-0.04126,-0.02098 -0.08067,-0.04129 -0.11871,-0.06142c-0.6717,0.20721 -1.13154,-0.83719 -1.32855,-1.6572z" data-paper-data="{&quot;index&quot;:null}"/><path d="M302.32452,202.86901c-0.46774,3.4294 -0.79933,6.98825 -3.10525,8.85191c-0.76173,1.36874 -1.63745,2.63962 -2.27255,3.61575c-1.86867,3.75223 -4.72834,7.16581 -8.10485,9.69819c-1.80897,1.81696 -4.03518,4.44672 -6.41552,5.51006c-1.76244,0.78731 -3.86422,1.02187 -5.67467,1.74605c-1.59265,0.01776 -4.31262,-0.31378 -5.70535,0.51555c-1.83836,1.09469 -4.30539,1.77919 -6.53206,1.77919c-3.69344,0 -7.68908,-1.44795 -9.8446,-4.65122c0,0 -0.20288,-0.30432 -0.00132,-0.56593c-2.13288,-1.00207 -3.85412,-2.69006 -5.15084,-5.3057c-2.12811,-2.81971 -2.47689,-7.05493 -3.34546,-10.42731c0,0 -0.00434,-0.01737 -0.0081,-0.04635c-0.08834,-0.09545 -0.12403,-0.20252 -0.12403,-0.20252l-0.15359,-0.46542c-0.32976,-1.40575 -1.30054,-3.3983 -2.07381,-4.5582c-0.59414,-0.91525 -0.6482,-1.85574 -0.91966,-2.84674c-0.27322,-0.99744 -1.20502,-1.89236 -1.78422,-2.70968c-1.11169,-1.56875 -1.36909,-4.14864 -1.38009,-6.00664c0,-4.50283 0.91534,-6.87335 3.89398,-9.95292c-0.03684,-0.10207 -0.03684,-0.18994 -0.03684,-0.18994v-0.57143c0,-0.52959 0.02422,-0.99694 -0.10011,-1.51201c-0.96487,-1.39511 -2.78368,-1.18164 -3.66574,-2.48568c-1.54179,-2.2794 1.04667,-4.685 1.98338,-6.55089c1.29362,-1.68265 -0.02699,-4.14693 0.21479,-6.08394c0.17293,-1.38545 0.8534,-2.55499 0.8534,-3.93891c0,0 0,-0.44355 0.41776,-0.49513c-0.24332,-0.03795 -0.36498,-0.28127 -0.36498,-0.28127c-0.54365,-1.09163 -1.7596,-1.56492 -2.27934,-2.55911c-0.69971,-1.33845 0.2239,-2.45997 -0.04579,-3.69248c-0.28633,-1.30854 -1.72766,-0.66163 -1.72766,-2.54345c0.01815,-3.06412 1.96768,-4.76926 2.8952,-7.3342c0.50082,-1.38495 0.60472,-3.16953 1.89888,-4.08183c2.29258,-1.52254 3.63487,-3.48444 5.49523,-5.3661c1.10219,-1.11481 2.79673,-1.63179 3.8831,-2.73846c2.3722,-1.78433 5.22869,-3.01545 7.79092,-4.4833c0.28366,-0.1625 0.54821,-0.33071 0.80386,-0.49594c0.40837,-0.34406 0.81654,-0.56886 1.13207,-1.0313l0.00001,0.00003c1.71113,-0.73378 3.4097,-2.0834 5.20016,-2.52693c2.27959,-0.5647 5.45306,0.02026 7.60454,0.5618c1.35832,0.00012 2.56802,0.56768 3.93891,0.56768c3.32882,0 7.33128,-0.62718 10.54984,0.15779c0.35163,0.08964 0.71599,0.17853 1.08809,0.26998c0.16142,-0.01568 0.29996,0.05359 0.29996,0.05359c0.02786,0.01411 0.05608,0.02788 0.08464,0.04134c0.79072,0.1964 1.60809,0.40909 2.40622,0.66878c0.55722,0.13631 1.08509,0.30023 1.50246,0.56691c0.74787,0.32984 1.44788,0.72523 2.05532,1.21608c0.98596,0.42021 1.65857,1.62247 2.93845,2.31483l0.02751,0.16302l0.06615,-0.03308l0.14065,0.2813c1.06636,1.17541 1.58449,2.57465 2.29218,4.01314c0.55529,1.1287 1.80878,1.50677 2.52558,2.49396c0.51843,0.71399 0.94235,1.50367 1.40184,2.27244c0.14079,0.08409 0.21119,0.22488 0.21119,0.22488c1.71957,3.45286 3.35503,5.98063 4.30744,9.76442c1.46371,2.89041 1.45963,7.96373 1.45963,11.17347v0.42857c0,0 0,0.40917 -0.37014,0.48722c-0.21479,3.36788 0.75793,6.76118 0.22048,10.02355c0,0 -0.01808,0.10845 -0.08813,0.21517c1.33609,1.59063 1.66636,3.35167 1.66636,5.55978c0,2.5071 -0.53265,6.18455 -1.77919,8.38921c-0.74664,1.32054 -2.04297,2.59833 -2.40641,4.09878c-1.48466,2.22699 -2.01476,5.87327 -4.69449,7.25966c-0.56735,0.29353 -1.21431,0.35432 -1.87668,0.33482c-0.36018,0.4889 -0.78002,0.96073 -1.21872,1.41512z"/></g></g></svg>