<svg version="1.1" xmlns="http://www.w3.org/2000/svg" xmlns:xlink="http://www.w3.org/1999/xlink" width="62.7902" height="51.92848" viewBox="0,0,62.7902,51.92848"><defs><linearGradient x1="273.97736" y1="187.57718" x2="273.97736" y2="216.84675" gradientUnits="userSpaceOnUse" id="color-1"><stop offset="0" stop-color="#ff0000"/><stop offset="1" stop-color="#490000"/></linearGradient><linearGradient x1="272.95456" y1="192.5188" x2="272.95456" y2="193.15852" gradientUnits="userSpaceOnUse" id="color-2"><stop offset="0" stop-color="#ff0000"/><stop offset="1" stop-color="#000000"/></linearGradient></defs><g transform="translate(-241.65044,-170.8349)"><g data-paper-data="{&quot;isPaintingLayer&quot;:true}" fill-rule="nonzero" stroke="none" stroke-linecap="butt" stroke-linejoin="miter" stroke-miterlimit="10" stroke-dasharray="" stroke-dashoffset="0" style="mix-blend-mode: normal"><path d="M298.18539,193.82756c-1.42362,-1.37133 -3.53314,-0.47238 -5.24356,-1.04251c0,0 -0.10658,-0.10504 -0.19333,0.06191c-0.16696,0.08675 -0.10333,0.27743 -0.10333,0.27743c0.65225,1.87485 -0.51823,3.31191 -0.51823,5.0347c0,2.00897 -0.37268,2.75239 -1.00659,4.61127l-0.01202,0.2445c0,0 -0.00003,0.20458 0.19056,0.23138c-0.2248,1.32149 -1.01325,2.62175 -1.9239,3.54031c-1.0837,1.61345 -2.60463,2.68259 -3.96865,4.06095c-0.83757,0.55839 -0.761,1.75648 -0.85377,2.80208c-0.08704,0.06787 -0.08746,0.18922 -0.08746,0.18922c0.00215,0.15422 -0.00425,0.31977 -0.01652,0.49127c-0.01667,0.06856 -0.03599,0.13574 -0.05758,0.20056l-0.07262,0.13961c0,0 -0.0889,0.17744 0.06023,0.2871c-0.09074,0.62713 -0.24742,1.27912 -0.41617,1.78538l-0.00526,0.10401c-0.16745,-0.10649 -0.49415,-0.24404 -0.94021,-0.25505c0.18709,-0.67022 -0.33535,-1.62436 0.0355,-2.47751l0.09854,-0.06566c0.06443,-0.0416 0.10656,-0.11365 0.10656,-0.19604c0,-0.12905 -0.04648,-0.16047 -0.17554,-0.16047l-0.25543,0.0004c-1.5748,0 -0.81541,-1.79227 -2.41935,-1.77945c-2.5136,0.81042 -4.99318,1.67921 -7.67835,1.70692c-1.02685,0.37241 -3.48333,-0.37869 -4.85094,-0.43064c-0.02053,-0.06255 -0.06267,-0.10453 -0.06267,-0.10453l-0.17704,-0.14184c-1.65121,-0.49758 -4.3967,-1.71825 -4.4166,1.50587c0.00544,0.52727 0.33505,1.14917 0.21367,1.6824c-0.10232,0.44952 -1.92014,0.49666 -1.95013,0.25272c-0.05227,-0.42512 0.01609,-0.92591 0.01609,-1.35668c-0.01688,-1.63576 -0.01667,-3.32821 -0.0088,-4.97967c0.02887,0.01327 0.14337,-0.02853 0.18704,-0.02853c0.23367,0 0.15467,-0.18371 0.15467,-0.18371l-0.16036,-0.30761c-0.43326,-0.14025 -0.74706,-0.39523 -1.11703,-0.64187c-1.4567,-1.4567 -1.6007,-3.25588 -3.03101,-4.74122c-0.92492,-1.37635 -1.96896,-3.68855 -2.00372,-5.30838c-0.87456,-0.87456 -1.07355,-3.44802 -0.67115,-4.60471c0,0 0.07407,-0.22213 -0.1476,-0.29602c-0.00389,-0.00129 -0.00773,-0.00249 -0.01153,-0.00362c-0.02614,-0.12223 -0.07258,-0.12931 -0.07258,-0.12931l-0.29136,-0.09401c-0.21074,-0.00218 -0.42128,-0.00349 -0.63203,-0.00349c-1.34896,0 -2.63737,-0.25364 -3.91202,0.26968c-0.40379,0.16579 -1.0573,1.0481 -1.44431,0.97412c-2.53444,0 -0.31228,-3.05046 0.74518,-3.75542c1.02304,-1.02304 3.42114,-3.20606 4.82224,-3.18707c1.41775,-0.45755 3.59909,-0.34715 5.14729,-0.34263c-0.42573,1.35704 -0.25219,2.8521 -0.24008,4.36604c0.14557,0.43671 0.04608,2.24767 0.9681,1.71666c0.54089,-0.3115 0.7674,-1.59749 1.15252,-2.08621c0.08676,-0.11009 0.4114,-0.72173 0.50583,-1.06837c-0.09416,1.38973 0.44951,2.1888 1.36321,3.11418c0.00379,0.04776 -0.04302,0.16521 0.15858,0.16521c0.10129,0 0.15908,-0.04442 0.19159,-0.09418l0.0741,0.25685c0,2.00466 2.73399,2.2132 4.24062,2.2132c2.26517,0 4.16101,-0.65052 6.22257,-1.47102c0.20831,-0.05184 0.40714,-0.11302 0.59098,-0.18252c0.05442,0.02391 0.1062,0.02395 0.1062,0.02395l0.17099,0.00006c0.48787,-0.00503 0.97647,-0.11053 1.44154,-0.26555c0.99261,-0.33087 1.86477,-1.18112 2.58222,-2.08824c-0.50592,0.87087 -1.31749,1.79012 -1.89291,2.3658l-0.23652,0.15865c-0.06443,0.04161 -0.07767,0.02531 -0.07767,0.10772c0,0.11121 0.07911,0.20477 0.18318,0.22838l0.33713,0.08456l0.01651,-0.06628c1.21425,0.31304 2.03907,-0.60799 3.00119,-1.41939c0.02387,-0.02013 0.02868,0.00115 0.10643,-0.07495c-0.72791,0.89464 -1.62761,1.66383 -2.26838,2.62303l-0.15742,0.15787c-0.04229,0.04229 -0.01861,0.02162 -0.01861,0.08615c0,0.12905 0.10652,0.23494 0.23557,0.23494c0.02138,0 0.04235,-0.00268 0.06202,-0.00807l0.33602,-0.08281l-0.01153,-0.04545c1.86301,-0.16474 4.20733,-1.28037 5.46365,-2.54261c1.29746,-0.86497 2.31246,-2.32176 2.97168,-3.82344c0.03149,0.01815 0.14022,-0.03415 0.19246,-0.03415c0.23367,0 0.16535,-0.1699 0.16535,-0.1699l0.00021,-0.16971c0,-0.79274 0.19687,-1.51458 0.34561,-2.25094c0.0534,0.02275 0.16617,-0.04602 0.16617,-0.04602l0.08507,0.00009c1.68728,0 3.32167,0.00537 5.01828,0.00537c2.6115,0 3.67928,1.11746 5.55583,1.8284c0.71853,1.14948 1.43715,2.82771 2.62104,3.49301c-0.97214,-0.00163 -1.7139,0.05847 -2.5015,0.87266z" data-paper-data="{&quot;noHover&quot;:false,&quot;origItem&quot;:[&quot;Path&quot;,{&quot;applyMatrix&quot;:true,&quot;segments&quot;:[[[507.50985,378.09359],[0,0],[1.68524,-1.74217]],[[512.86242,376.22635],[-2.08013,-0.00348],[-2.53322,-1.42356]],[[507.26014,368.76619],[1.53747,2.45959],[-4.01532,-1.52126]],[[495.38182,364.86883],[5.58795,0],[-3.63029,0]],[[484.65455,364.86883],[3.61037,0],[0,0]],[484.47273,364.86883],[[484.25265,364.82016],[0.11427,0.04867],[-0.31825,1.57563]],[[483.51818,369.64156],[0,-1.69629],[0,0]],[483.51818,370.0052],[[483.01818,370.5052],[0.5,0],[-0.1118,0]],[[482.75219,370.44138],[0.06739,0.03882],[-1.41053,3.2132]],[[476.24427,378.7555],[2.77624,-1.85082],[-2.68819,2.70085]],[[464.56976,384.2115],[3.98635,-0.35251],[0,0]],[464.594,384.30845],[[463.8776,384.48755],[0,0],[-0.04209,0.01151]],[[463.74546,384.5052],[0.04574,0],[-0.27614,0]],[[463.24546,384.0052],[0,0.27614],[0,-0.13807]],[[463.3919,383.65164],[-0.09048,0.09048],[0,0]],[[463.72932,383.31422],[0,0],[1.3711,-2.05246]],[[468.5871,377.7043],[-1.55755,1.9143],[-0.16635,0.16282]],[[468.24427,378.02823],[0.05108,-0.04308],[-2.0587,1.73618]],[[461.84145,381.07578],[2.59819,0.66982],[0,0]],[461.80601,381.21754],[[461.08888,381.03826],[0,0],[-0.22266,-0.05053]],[[460.7,380.55065],[0,0.23795],[0,-0.17631]],[[460.9291,380.13032],[-0.13785,0.08903],[0,0]],[[461.43723,379.79157],[0,0],[1.23124,-1.23181]],[[465.41177,374.91423],[-1.08253,1.86345],[-1.53514,1.941]],[[459.90357,379.38863],[2.12395,-0.70798],[-0.99513,0.33171]],[[456.83636,379.95974],[1.04392,-0.01077],[0,0]],[456.47273,379.95974],[[456.2469,379.90858],[0.11645,0.05116],[-0.39338,0.14871]],[[454.9902,380.29912],[0.44573,-0.11093],[-4.41119,1.75566]],[[441.74546,383.41429],[4.84689,0],[-3.22382,0]],[[432.51818,378.55065],[0,4.28945],[0,0]],[[432.51818,378.12297],[0,0],[-0.06956,0.10645]],[[432.10909,378.32338],[0.21674,0],[-0.43136,0]],[[431.61039,377.84906],[0.00813,0.10217],[-1.95508,-1.98006]],[[428.6997,371.1781],[-0.20149,2.97365],[-0.20209,0.74171]],[[427.76849,373.59492],[0.18563,-0.23557],[-0.82405,1.04572]],[[425.31054,378.04718],[1.15736,-0.66654],[-1.97288,1.13621]],[[423.07009,374.26711],[0.31148,0.93444],[-0.0259,-3.23942]],[[423.7385,365.05037],[-0.91095,2.90373],[-3.31274,-0.00967]],[[412.73464,365.77147],[3.03362,-0.97904],[-2.99799,-0.04062]],[[402.42609,372.57369],[2.18904,-2.18904],[-2.26267,1.50845]],[[400.83636,380.59611],[-5.42306,0],[0.82813,0.15829]],[[403.73593,378.45235],[-0.86401,0.35474],[2.72742,-1.11979]],[[412.10909,377.86883],[-2.88644,0],[0.45094,0]],[[413.46191,377.87529],[-0.45092,-0.00465],[0,0]],[414.08539,378.07631],[[414.42435,378.4322],[-0.05594,-0.26155],[0.00813,0.00239]],[[414.44902,378.43995],[-0.00832,-0.00277],[0.47434,0.15811]],[[414.76525,379.0724],[0,0],[-0.86104,2.47502]],[[416.2074,388.90476],[-1.87134,-1.87134],[0.07439,3.46601]],[[420.49576,400.23366],[-1.97909,-2.94504],[3.0605,3.17823]],[[426.97154,410.3458],[-3.11697,-3.11697],[0.79163,0.52775]],[[429.35811,411.71267],[-0.92707,-0.30009],[0,0]],[429.7,412.36883],[[429.2,412.86883],[0.5,0],[-0.09343,0]],[[428.96883,412.82298],[0.06177,0.02839],[-0.01682,3.53371]],[[428.97273,423.45974],[-0.03612,-3.5001],[0,0.92174]],[[428.93467,426.35931],[-0.11184,-0.90966],[0.06417,0.52195]],[[433.1017,425.81385],[-0.21894,0.96184],[0.25972,-1.14098]],[[432.51818,422.36883],[0.01164,1.12823],[0.04261,-6.89878]],[[442.08539,418.9854],[-3.53317,-1.06469],[0,0]],[442.46265,419.28801],[[442.59598,419.51125],[-0.04393,-0.13384],[2.92632,0.11116]],[[452.93809,420.42074],[-2.1972,0.79685],[5.74559,-0.0593]],[[469.30173,416.78438],[-5.37846,1.73411],[3.43202,-0.02744]],[[474.47273,420.59611],[-3.36967,0],[0,0]],[[475.01818,420.59611],[0,0],[0.27614,0]],[[475.51818,421.09611],[0,-0.27614],[0,0.17631]],[[475.28908,421.51643],[0.13785,-0.08903],[0,0]],[[475.0776,421.65742],[0,0],[-0.79351,1.8255]],[[474.99424,426.96376],[0.40032,-1.43409],[0.95445,0.02355]],[[476.89654,427.34217],[-0.3583,-0.22786],[0,0]],[[476.90748,427.11981],[0,0],[0.36108,-1.08325]],[[477.79139,423.30449],[-0.19417,1.3419],[-0.3191,-0.23464]],[477.66188,422.69068],[[477.81657,422.39254],[0,0],[0.04623,-0.1387]],[[477.93897,421.96408],[-0.03567,0.14672],[0.02626,-0.36699]],[[477.97273,420.91429],[0.00458,0.33],[0,0]],[[478.15896,420.51024],[-0.18624,0.14521],[0.19852,-2.23733]],[[479.97392,414.52762],[-1.79218,1.19479],[2.91864,-2.94935]],[[488.44969,405.87002],[-2.31884,3.45237],[1.94858,-1.96548]],[[492.56237,398.31719],[-0.48103,2.82764],[-0.40782,-0.05733]],[492.15455,397.82338],[[492.1802,397.30163],[0,0],[1.3564,-3.97754]],[[494.33636,387.45974],[0,4.29866],[0,-3.68636]],[[495.45293,376.70876],[1.39564,4.0117],[0,0]],[[495.67445,376.11601],[-0.35723,0.18562],[0.18562,-0.35723]],[[496.26721,375.89449],[0,0],[3.65986,1.21995]],[[507.49202,378.13697],[-3.04617,-2.93431],[0,0]]],&quot;closed&quot;:true}]}" fill="url(#color-1)" stroke-width="0.5"/><path d="M273.63575,192.52817c-0.40773,0.24012 -0.92049,0.47596 -1.36239,0.63035c0.30187,-0.14289 0.63572,-0.48518 0.9452,-0.57843c0.16156,-0.05621 0.2983,-0.07438 0.41719,-0.05191z" data-paper-data="{&quot;noHover&quot;:false,&quot;origItem&quot;:[&quot;Path&quot;,{&quot;applyMatrix&quot;:true,&quot;segments&quot;:[[[453.90358,375.57046],[0.3457,-0.12028],[-0.66222,0.19954]],[[452.04298,376.69566],[0.64592,-0.30576],[0.94554,-0.33034]],[[454.77664,375.43086],[-0.87244,0.5138],[-0.2544,-0.04806]]],&quot;closed&quot;:true,&quot;fillColor&quot;:[0,0,0,1],&quot;strokeWidth&quot;:0.5}]}" fill="url(#color-2)" stroke-width="0.25"/><path d="M271.96078,193.21087c0.0334,-0.00122 0.15798,0.0122 0.19005,0.00633c-2.34808,0.74236 -5.14773,0.30754 -7.30288,-1.08604c-0.00464,-0.00155 -0.0093,-0.00314 -0.01393,-0.00468c0.01229,-0.28905 0.02553,-0.56926 0.04165,-0.57791c0.47244,-0.25377 2.72782,1.12284 2.72992,1.12874c0.78908,0.74298 2.15711,-0.3534 3.0441,-0.14201c0.5313,0.12662 0.78164,0.71583 1.40291,0.69306z" data-paper-data="{&quot;noHover&quot;:false,&quot;origItem&quot;:[&quot;Path&quot;,{&quot;applyMatrix&quot;:true,&quot;segments&quot;:[[[451.38182,376.86884],[0,0],[-1.32934,0.04872]],[[448.37818,375.40528],[1.13686,0.27094],[-1.89794,-0.45234]],[[441.8656,375.72262],[1.68842,1.58978],[-0.00448,-0.01262]],[[436.21964,373.31992],[1.0109,-0.543],[-0.03446,0.0185]],[[436.1335,374.5413],[0.0263,-0.61848],[0.00992,0.00328]],[[436.16332,374.55122],[-0.00994,-0.00332],[4.61146,2.9819]],[[451.59186,376.8457],[-5.0243,1.58846],[-0.0686,0.01256]],[[451.38182,376.86882],[0.07148,-0.00262],[0,0]]],&quot;closed&quot;:true,&quot;fillColor&quot;:[0,0,0,1],&quot;strokeWidth&quot;:0.5}]}" fill="#000000" stroke-width="0.25"/><path d="M276.25524,185.83781c-1.33358,0.90358 -2.11387,-0.49329 -3.03076,-0.7797c0.59225,-0.05203 1.23375,-0.26458 1.81174,-0.45006c0.10899,0.04799 0.22323,0.05293 0.22323,0.05293c0.62867,-0.00181 1.00766,0.46012 1.17038,1.08437l-0.17459,0.09244z" data-paper-data="{&quot;noHover&quot;:false,&quot;origItem&quot;:[&quot;Path&quot;,{&quot;applyMatrix&quot;:true,&quot;segments&quot;:[[460.3772,361.04372],[[460.74858,360.8542],[0,0],[-0.34818,-1.33574]],[[458.2909,358.64158],[1.3452,-0.00386],[0,0]],[[457.83842,358.5389],[0.2332,0.10268],[-1.23674,0.39686]],[[454.0855,359.4256],[1.26726,-0.11134],[1.9619,0.61282]],[[460.3772,361.04374],[-2.85352,1.93344],[0,0]]],&quot;closed&quot;:true,&quot;fillColor&quot;:[0,0,0,1],&quot;strokeWidth&quot;:0.5}]}" fill="#000000" stroke-width="0.25"/><path d="M264.24801,184.99885c2.45005,0.21865 5.5317,-0.83904 7.74249,-0.06993c0.19316,0.06228 0.38534,0.10507 0.57642,0.12836c-1.46533,0.15922 -3.05195,0.72711 -4.67041,0.67682c-0.7679,0 -3.29421,-0.0421 -3.64851,-0.73526z" data-paper-data="{&quot;noHover&quot;:false,&quot;origItem&quot;:[&quot;Path&quot;,{&quot;applyMatrix&quot;:true,&quot;segments&quot;:[[[442.65456,360.77792],[-1.6431,0],[3.46308,0.10762]],[[452.4806,359.40634],[-3.13544,0.3407],[-0.40886,-0.04984]],[[451.24742,359.1357],[0.41332,0.13326],[-4.7305,-1.64572]],[[434.88014,359.2827],[5.24248,0.46786],[0.7581,1.48316]]],&quot;closed&quot;:true,&quot;fillColor&quot;:[0,0,0,1],&quot;strokeWidth&quot;:0.5}]}" fill="#000000" stroke-width="0.25"/><path d="M284.53509,217.75903c0.05065,0.05232 0.09525,0.11065 0.13228,0.1765c0.01685,0.02996 0.02934,0.064 0.03889,0.10071c0.08791,0.17875 0.14533,0.37519 0.16549,0.58255c0.69404,0.20567 1.35309,0.49568 1.91534,1.05309c0.20553,0.20553 0.35135,0.40613 0.44577,0.59963c0.68575,0.7717 0.6786,1.66377 -1.51455,2.45428c-0.27864,0.10043 -0.5544,-0.01507 -0.81308,-0.17359c-0.66161,0.0431 -1.30722,-0.09722 -1.72013,-0.477c-1.41188,-0.42546 -1.86119,-0.98522 -2.06342,-2.3795c-0.03867,-0.26659 0.09072,-0.67466 0.28388,-1.01986c0.0696,-0.20777 0.17308,-0.49665 0.24567,-0.64984c-0.0084,-0.04265 -0.01549,-0.09015 -0.02147,-0.14325c0.03969,-0.3694 -0.35512,-0.59297 -0.05007,-1.05755c0.10947,-0.16671 0.56799,-0.22906 0.82426,-0.23249c-0.09215,-0.17653 0.05328,-0.73077 0.00834,-0.82982c-0.1302,-0.28703 -0.22377,-1.28652 0.06115,-1.66585c-1.28409,-0.21803 -0.95464,-1.75114 -2.01711,-1.76174c-2.44734,0.85141 -5.01243,1.73599 -7.64748,1.69944c-1.19321,0.36976 -3.6334,-0.42184 -5.05077,-0.42184c0,0 -0.22716,0 -0.23353,-0.22397c-0.01074,-0.00848 -0.01667,-0.01442 -0.01667,-0.01442l0.00637,-0.02853c-1.33216,-0.47295 -3.87762,-1.64825 -3.85606,1.13787c-0.00582,0.41893 0.23948,0.85012 0.29077,1.28397c0.03047,0.02486 0.05942,0.05123 0.08662,0.07933c0.05065,0.05232 0.09525,0.11065 0.13228,0.1765c0.02609,0.04638 0.04648,0.09655 0.06203,0.14973c0.09661,0.21346 0.1504,0.45045 0.1504,0.7c0,0.34593 -0.10336,0.66772 -0.28088,0.93617c0.00011,0.07161 0.00997,0.12996 0.03418,0.17083c0.00806,0.01361 0.02167,0.07603 0.03805,0.16997c0.58179,0.25872 1.06194,0.37728 0.36826,1.41004c-0.07322,0.07322 -0.15521,0.14608 -0.24484,0.21785c-0.28831,0.48168 -0.893,0.71384 -1.413,0.92947c-1.09741,0.45505 -4.77532,0.43136 -4.66225,-1.60381c0.1029,-1.85218 2.40506,-1.5498 2.5466,-1.86133c0.06488,-0.14279 0.17121,-0.54191 0.27266,-0.84837c-0.08895,-0.38766 0.02744,-1.07341 0.02744,-1.40048c0.02356,-1.69841 0.01022,-3.55528 0.00047,-5.2716c-0.26201,-0.14615 -0.50108,-0.32001 -0.76465,-0.49572c-0.41931,-0.41931 -1.28737,-0.93086 -1.57091,-1.40363c-0.64564,-1.07652 -0.50315,-2.41832 -1.52064,-3.38736c-0.9033,-1.36256 -2.11367,-3.80632 -2.0745,-5.41196c-0.93502,-0.93502 -1.08113,-3.50232 -0.72167,-4.80096l-0.20452,-0.07115c-0.18578,0.00258 -0.37159,0.00302 -0.55738,0.00302c-1.30574,0 -2.50729,-0.23156 -3.73431,0.23713c-0.15369,0.05871 -0.28267,0.14942 -0.40056,0.25334c0.0013,0.01346 0.00227,0.02706 0.00291,0.04082c0.0041,0.08759 -0.00272,0.1725 -0.01802,0.25503c-0.0227,0.24305 -0.09658,0.47123 -0.21076,0.67367c0.12024,0.68552 -0.20673,1.05898 -0.60625,1.45865c-0.09101,0.53804 -0.24224,1.19426 -0.47024,1.83013c0.45776,0.2591 1.236,0.15907 1.06463,0.8001c-0.19246,0.7199 -1.47462,1.09828 -1.97147,1.56292c-0.17892,0.57122 0.92532,1.49717 -0.47095,1.97018c-1.24469,0.42167 -1.37087,-0.63308 -1.33698,-1.23555c-0.25771,0.86391 -1.35588,1.26639 -2.03994,0.58233c-0.29917,-0.29917 0.60051,-3.08122 0.0497,-1.37448c-0.18996,0.59701 -1.06258,0.90002 -1.57919,0.35482c-1.08373,-1.14372 1.26313,-3.30552 2.05641,-3.82979c0.14019,-0.14166 1.29023,-0.93211 1.27402,-1.0089c-0.18294,-0.86711 -0.05988,-2.05108 0.74984,-2.54859c0.2386,-0.39166 0.46461,-0.79918 0.87505,-0.82198c0.02723,-0.01767 0.05499,-0.03459 0.08327,-0.05072c0.36648,-0.97232 1.19141,-2.006 1.86121,-2.45254c1.08391,-1.08391 3.53997,-3.26101 5.03909,-3.27888c1.32298,-0.45847 3.49378,-0.35834 5.01639,-0.34436l0.06523,-0.26092l0.08471,-0.38118l0.02118,-0.04235l0.01184,-0.04735l0.01657,-0.00947l0.05663,-0.11325l0.0903,-0.10535l0.0047,-0.08465l0.25577,-0.21924l0.21924,-0.25577l0.08465,-0.0047l0.10535,-0.0903l0.01651,-0.00826v-0.02728c-0.45363,-0.0424 -0.89048,-0.22729 -1.28482,-0.62163c-2.33042,-1.5828 0.14736,-4.36967 1.98898,-4.81903c0.01673,-0.00009 0.03356,-0.00001 0.0505,0.00027l0.02815,-0.05543c0.32806,-0.81242 0.7783,-1.55167 1.16238,-2.31981c0.36605,-0.37301 0.7167,-0.76499 1.06258,-1.16466l0.23616,-0.36736l0.01061,-0.00998l0.0049,-0.01372l0.84972,-1.27458l0.09808,-0.08916l0.06319,-0.11651l1.16837,-1.27458l0.13275,-0.08771l0.10034,-0.12349l0.42486,-0.31865l0.46752,-0.19685l0.08845,-0.0923h0.13076l0.12051,-0.05074l0.09822,0.04247c0.49159,-0.412 1.05664,-0.95528 1.6217,-1.09525c1.13575,-0.28135 2.53415,0.12199 3.5695,-0.52258c2.40575,-0.60745 4.49103,0.54996 6.7801,1.13171c2.02988,1.01165 3.04648,2.81519 4.83432,4.07034c0.47658,0.90418 0.92863,2.23808 1.20758,3.26484l0.00004,-0.00002c0.0683,0.01393 0.1862,0.06202 0.1862,0.22799c0,0.03687 -0.00582,0.06792 -0.01562,0.09407c0.66633,0.98197 0.83763,3.13557 1.21158,4.20859c0.30211,0.86687 1.20956,1.07273 1.21845,2.18435c0,0.3281 -0.0342,0.64526 -0.08489,0.95743c0.01311,-0.0015 0.02116,-0.0015 0.02116,-0.0015c1.68665,0 3.40246,0 5.09831,0c1.39865,0 2.57947,0.13386 3.89145,0.51986c0.92425,0.27193 1.20614,1.19206 1.9435,1.3975c0.68826,0.98034 1.15643,2.08112 1.86998,2.82773c0.00472,0.00153 0.00942,0.00308 0.01412,0.00465c0.15885,0.05309 0.30725,0.129 0.44131,0.22383c0.2712,0.15515 0.5719,0.35336 0.87533,0.57107c0.17667,0.04367 0.36619,0.07146 0.5706,0.0813c0.27165,0.27165 0.8057,0.08904 0.97618,0.55133c0.05501,0.14914 0.20445,0.5362 0.38297,1.02315c0.11432,0.13122 0.18676,0.23659 0.20363,0.3041c0.03139,0.12557 0.05344,0.28198 0.06883,0.45813c0.39057,1.12528 0.77042,2.38828 0.58397,2.61581c-0.07769,0.11397 -0.26881,0.21966 -0.45739,0.30439c0.16196,0.35515 0.57282,0.88947 0.39339,1.20348c-0.27063,0.4736 -0.55774,0.93815 -0.86031,1.39201c-0.0641,0.09615 -0.2821,0.11002 -0.48803,0.12215c-0.10584,0.08337 -0.23945,0.12009 -0.40847,0.0917c-0.36739,0.61449 -1.51905,1.60439 -2.41268,1.09375c-1.28464,-0.73408 -0.60816,-2.06845 -0.59195,-3.12603c-0.09146,-0.05636 -0.19768,-0.10644 -0.32108,-0.14921c-0.92077,-0.04431 -1.20558,-0.86135 -1.05935,-1.61541c-0.04919,-0.08368 -0.09785,-0.16765 -0.146,-0.2519c-0.19912,-0.34845 0.03981,-0.68022 0.31137,-0.97793c-0.06347,-0.02398 -0.11382,-0.05565 -0.13419,-0.10007c-0.16044,-0.34965 -0.04099,-0.81939 -0.11492,-1.18998c-0.07579,-0.06304 -0.07837,-0.15011 -0.06989,-0.20593c-0.02688,-0.05149 -0.06104,-0.09937 -0.10441,-0.14274c-1.19416,-1.20673 -3.24686,-0.53187 -4.79916,-0.88218c0.43606,1.80691 -0.58002,3.20113 -0.58002,4.88058c0,1.80424 -0.3366,2.67376 -0.83654,4.15797c0.0718,0.06921 0.07179,0.17561 0.07179,0.17561c0,1.65744 -0.93424,3.42071 -2.09229,4.56669c-1.08305,1.6388 -2.63592,2.73284 -4.02625,4.11121c-0.84614,0.56409 -0.5751,2.15843 -0.79319,3.20552c-0.06951,0.82287 -0.25633,1.75625 -0.49283,2.46576l0.01199,0.09605c0,0 0,0.23072 -0.22928,0.23364c0.01481,0.09581 0.01502,0.20389 0.00919,0.32405c0.13746,0.06835 0.26273,0.14882 0.36385,0.25328zM245.09483,201.69053c-0.02567,-0.16085 -0.0345,-0.26944 -0.02897,-0.33573c-0.00955,0.06365 -0.00187,0.17743 0.02641,0.35466c0,0.03869 -0.00237,0.07601 -0.00692,0.11195c0.00622,-0.04173 0.00947,-0.08536 0.00947,-0.13088zM245.54591,201.78423c0.0007,0.00099 0.0014,0.00198 0.0021,0.00297c0.00551,-0.0497 0.00842,-0.10054 0.00842,-0.15244c-0.00013,-0.00014 -0.00027,-0.0002 -0.00042,-0.00022c-0.00068,0.05096 -0.00411,0.10087 -0.0101,0.14968zM248.87469,199.49548c-0.04656,-0.01206 -0.09236,-0.02387 -0.13735,-0.03553c0.04682,0.01221 0.09453,0.02454 0.14308,0.0371c-0.00186,-0.00054 -0.00377,-0.00107 -0.00572,-0.00158zM261.16196,180.19075c0.06599,0.01276 0.13268,0.02769 0.19981,0.04469c-0.06672,-0.01781 -0.13305,-0.03359 -0.19877,-0.04724c-0.00035,0.00085 -0.00069,0.0017 -0.00104,0.00255zM277.76015,179.68506c-0.0322,-0.01872 -0.06469,-0.03741 -0.09748,-0.05604c0.00827,0.00823 0.01651,0.0165 0.02472,0.02483c0.02436,0.01017 0.04862,0.02058 0.07277,0.03122zM243.06181,201.07793c0.04085,-0.11789 0.16906,-0.32801 0.33163,-0.51788c-0.16902,0.1931 -0.30319,0.41058 -0.34508,0.53145c-0.00993,0.0763 -0.04097,0.13779 -0.08628,0.18479c0.05259,-0.04862 0.08883,-0.11461 0.09973,-0.19835zM244.18116,201.1333c-0.09317,0.17069 -0.20355,0.3567 -0.29045,0.52962c0.08823,-0.17384 0.19861,-0.35987 0.29045,-0.52962z" fill="#000000" stroke-width="0.5"/></g></g></svg>