<svg version="1.1" xmlns="http://www.w3.org/2000/svg" xmlns:xlink="http://www.w3.org/1999/xlink" width="92.38676" height="94.1618" viewBox="0,0,92.38676,94.1618"><g transform="translate(-220.35106,-131.47921)"><g data-paper-data="{&quot;isPaintingLayer&quot;:true}" fill-rule="nonzero" stroke="none" stroke-linecap="butt" stroke-linejoin="miter" stroke-miterlimit="10" stroke-dasharray="" stroke-dashoffset="0" style="mix-blend-mode: normal"><path d="M254.56454,155.23219l0.00002,0.00001l-0.00004,0.00003z" data-paper-data="{&quot;noHover&quot;:false,&quot;origItem&quot;:[&quot;Path&quot;,{&quot;applyMatrix&quot;:true,&quot;segments&quot;:[[[447.63672,293.37954],[0,0],[1.63987,0.98979]],[[452.77631,295.01968],[-1.92669,0],[0,0]],[[453.6218,295.18531],[0,0],[0.1206,-0.37305]],[[453.91804,294.04793],[-0.07477,0.38579],[0.38871,-2.00574]],[[454.92098,288.03556],[-0.70464,1.89164],[0.47943,-1.76672]],[[456.91242,282.8807],[-0.91789,1.45351],[-1.60718,0.14876]],[[452.14896,283.44528],[1.61552,-0.01798],[0,0]],[451.94486,283.6571],[[450.69706,283.24118],[0.41594,0.83186],[-0.41594,-0.83186]],[451.113,281.99338],[[452.14896,281.58516],[0,0],[1.95666,0.03008]],[[458.0393,280.96512],[-2.01256,0],[0,0]],[[458.5842,281.12628],[-0.25582,-0.16116],[0.52168,-0.32086]],[[460.37046,280.59718],[-0.67366,0.0179],[0,0]],[461.15538,280.32288],[[461.64696,280.28816],[-0.26314,-0.04142],[0.27304,-0.32304]],[[462.37954,279.96512],[0,0],[1.95198,0]],[[466.7603,279.07498],[-1.74512,0.54968],[1.20176,-0.37854]],[[471.06006,279.03508],[-1.27386,0],[2.8432,0]],[[479.5916,279.0471],[-2.8429,-0.04372],[4.3965,-1.4655]],[[491.25714,280.966],[-3.72214,-1.94712],[0.96902,0.50692]],[[494.78248,280.90722],[-1.00884,0.1617],[1.89664,-0.304]],[[500.8218,280.58518],[-1.91718,0],[2.52212,0]],[[508.84176,281.55514],[-2.36736,-0.81238],[1.54518,0.53024]],[[513.09144,284.4443],[-1.28322,-0.88628],[1.38584,0.95714]],[[516.3485,286.57816],[-0.7847,-1.49676],[1.00722,0.0977]],[[519.00874,287.6317],[-0.96806,-0.63612],[0,0]],[518.80286,287.4755],[[519.73292,288.40556],[0,-0.93006],[0,0]],[[519.73286,288.40552],[0,0],[0,0.93006]],[518.8028,289.33558],[[517.97688,289.17938],[0,0],[-0.4187,-0.28416]],[[516.94446,288.57962],[0.31372,0.1224],[0.02032,3.12636]],[[518.14286,298.2967],[-0.9706,-2.85318],[0.76554,2.25034]],[[520.43936,304.19692],[-0.45948,-2.10392],[2.36782,-0.35942]],[[527.52382,303.32634],[-2.1486,0.78268],[2.44482,-0.89058]],[[534.5001,300.50324],[-2.70386,0.6616],[3.09602,-0.02068]],[[543.39058,298.041],[-3.01722,0.87036],[4.43532,-1.27942]],[[555.82606,291.64464],[-3.54126,3.43056],[1.34004,-0.4046]],[[560.06564,288.92638],[-1.1508,0.95018],[1.56872,-1.29524]],[[565.33594,285.8262],[-1.6011,1.33604],[3.41698,-2.8513]],[[573.09592,275.73532],[-2.57512,3.49488],[-0.14324,-4.15626]],[[574.0923,263.72574],[2.4778,4.1345],[-0.8803,-1.46888]],[[570.84828,260.54154],[1.02232,1.03874],[-1.02172,-1.03812]],[[567.94676,258.01178],[1.91816,-0.0873],[-3.077,-0.98944]],[[560.07576,253.3336],[2.92018,0.98066],[-2.775,-0.93192]],[[551.27222,254.7275],[2.81122,-0.81064],[-0.2276,0.50612]],[550.42468,255.23362],[[550.40876,255.18588],[0,0],[-2.82026,0.94008]],[[541.74416,256.47368],[2.9582,0],[-2.85694,0]],[[533.12988,257.94426],[2.67784,-1.14022],[-1.83812,0.78268]],[[527.6323,260.80192],[2.03314,-0.36258],[-1.30766,0.2332]],[[523.60206,260.80192],[1.31002,-0.18718],[-1.19546,0.17082]],[[520.19186,261.42196],[1.26182,0.00528],[-1.3928,0.48674]],[[515.68672,262.3163],[1.24234,-0.54868],[-3.1445,1.38876]],[[505.74154,266.04434],[3.36134,-1.12078],[-2.14452,0.71506]],[[499.23116,268.21446],[1.99782,-1.26074],[-1.9305,0.05126]],[[493.65084,269.76454],[1.73668,-0.56812],[-4.72454,1.54556]],[[478.50046,271.66456],[4.97698,0],[-3.22726,0]],[[470.08408,269.42364],[2.89124,1.12272],[-0.8446,-0.32798]],[[467.38032,269.14452],[0.87124,0.24874],[-0.93786,-0.26776]],[[464.59016,267.59444],[0.91798,0.30142],[-2.44684,-0.80346]],[[456.52968,263.25418],[2.22304,1.58904],[-2.91174,0.05006]],[[446.78002,259.78932],[2.57602,1.29168],[-1.34278,-0.6733]],[[442.60038,258.44378],[1.251,0.74764],[-2.13924,-1.2785]],[[434.94896,253.98154],[2.48484,0],[-3.69436,-1.23146]],[[424.28492,257.44136],[2.47282,-2.13466],[-1.2957,1.1185]],[[424.2473,264.53418],[-0.00916,-1.37348],[0,2.81156]],[[426.89856,272.1057],[-1.47106,-2.24134],[0.6496,0.98974]],[[427.92762,275.42532],[-0.33436,-1.01164],[0.53268,1.61172]],[[430.84026,279.73574],[-1.08806,-1.26924],[1.08142,1.26146]],[[434.91676,282.9353],[-1.62302,0],[1.48576,1.93492]],[[439.60932,288.53666],[-1.38096,-2.07822],[0.30558,0.45988]],[[440.36374,290.18848],[-0.49564,-0.3877],[2.15467,1.68545]],[[447.65791,293.32775],[-2.57513,-0.64392],[0,0]],[[447.60107,293.36023],[0,0],[0.02305,0.01175]]],&quot;closed&quot;:true}]}" fill="#56330b" stroke-width="0.5"/><path d="M274.66032,137.15989c-0.10844,0.32528 -0.43372,0.21685 -0.43372,0.21685l-0.41472,-0.14791c-0.95635,-0.95635 -2.89857,-1.10201 -2.55255,-2.88929c0,0 0.08316,-0.33264 0.4158,-0.24949c0.33264,0.08316 0.24949,0.4158 0.24949,0.4158c-0.40367,1.11496 1.65131,1.54315 2.2478,2.13964l0.27104,0.08068c0,0 0.32528,0.10843 0.21685,0.43372z" fill="#000000" stroke-width="0.5"/><path d="M231.15311,191.14402c0.05924,-0.01902 0.20082,-0.05808 0.25971,-0.08087c-0.06523,0.06332 -0.19869,0.19705 -0.25758,0.25838c0.00372,-0.04094 -0.00474,-0.13536 -0.00213,-0.17751z" data-paper-data="{&quot;noHover&quot;:false,&quot;origItem&quot;:[&quot;Path&quot;,{&quot;applyMatrix&quot;:true,&quot;segments&quot;:[[[231.19053,191.28611],[0.00372,-0.04094],[0.05889,-0.06133]],[[231.37751,191.09855],[-0.06523,0.06332],[-0.05889,0.02279]],[[231.20001,191.16132],[0.05924,-0.01902],[-0.00261,0.04215]]],&quot;closed&quot;:true,&quot;fillColor&quot;:[0,0,0,1],&quot;strokeWidth&quot;:0.5}]}" fill="#000000" stroke-width="0.25"/><path d="M231.68632,190.32531c-0.07548,0.10121 -0.30174,0.18914 -0.47889,0.22414c-0.00957,-0.00735 -0.02439,-0.01701 -0.03467,-0.02343c-0.01437,-0.23435 -0.05371,-0.49498 -0.08783,-0.55801c-0.14568,-0.26907 0.64926,0.29314 0.6014,0.3573z" data-paper-data="{&quot;noHover&quot;:false,&quot;origItem&quot;:[&quot;Path&quot;,{&quot;applyMatrix&quot;:true,&quot;segments&quot;:[[[231.63921,190.30857],[0,0],[0.04786,-0.06416]],[[231.12293,190.0005],[-0.14568,-0.26907],[0.03412,0.06303]],[[231.19969,190.48389],[-0.01437,-0.23435],[0.01028,0.00642]],[[231.22948,190.50457],[-0.00957,-0.00735],[0.17715,-0.035]],[[231.6392,190.30857],[-0.07548,0.10121],[0,0]]],&quot;closed&quot;:true,&quot;fillColor&quot;:[0,0,0,1],&quot;strokeWidth&quot;:0.5}]}" fill="#000000" stroke-width="0.25"/><path d="M255.16318,176.74866c0.00896,0.00136 0.11374,0.01627 0.12271,0.01762c-0.00311,0.00239 -0.02531,0.05013 -0.02828,0.05254c-0.00594,-0.00375 -0.0885,-0.06643 -0.09443,-0.07019z" data-paper-data="{&quot;noHover&quot;:false,&quot;origItem&quot;:[&quot;Path&quot;,{&quot;applyMatrix&quot;:true,&quot;segments&quot;:[[[255.20929,176.76793],[0,0],[0.00593,0.00376]],[[255.22709,176.7792],[-0.00594,-0.00375],[0.00297,-0.00241]],[[255.23621,176.77201],[-0.00311,0.00239],[-0.00897,-0.00135]],[[255.2093,176.76794],[0.00896,0.00136],[0,0]]],&quot;closed&quot;:true,&quot;fillColor&quot;:[0,0,0,1],&quot;strokeWidth&quot;:0.5}]}" fill="#000000" stroke-width="0.25"/><path d="M258.06459,176.97904c0.07385,0.00804 0.17819,0.03868 0.25229,0.04788c0.22814,0.05185 0.46193,0.1238 0.68519,0.1651c-0.51318,0.12741 -1.15043,0.23409 -1.67761,0.2385c-0.09655,-0.0595 -0.20611,-0.13541 -0.3179,-0.19541c0.34443,-0.05762 0.76672,-0.19023 1.05803,-0.25607z" data-paper-data="{&quot;noHover&quot;:false,&quot;origItem&quot;:[&quot;Path&quot;,{&quot;applyMatrix&quot;:true,&quot;segments&quot;:[[[257.05655,177.23443],[0.34443,-0.05762],[0.11179,0.06]],[[257.37225,177.41583],[-0.09655,-0.0595],[0.52718,-0.00441]],[[258.95209,177.1935],[-0.51318,0.12741],[-0.22326,-0.0413]],[[258.27444,177.05336],[0.22814,0.05185],[-0.0741,-0.0092]],[[258.05253,177.02756],[0.07385,0.00804],[-0.29131,0.06584]]],&quot;closed&quot;:true,&quot;fillColor&quot;:[0,0,0,1],&quot;strokeWidth&quot;:0.5}]}" fill="#000000" stroke-width="0.25"/><path d="M293.46829,196.02567c-0.02551,-0.02682 -0.05001,-0.05453 -0.07357,-0.08326c-0.13098,0.18683 -0.35075,0.34442 -0.38054,0.56727l0.30926,-0.07731c0.00512,-0.00126 0.01023,-0.00252 0.01532,-0.00379c0.03491,-0.07897 0.08312,-0.16859 0.13058,-0.31884zM295.65532,197.02949c-0.11293,0.44976 -1.22985,0.40798 -1.55006,0.39207c-0.37837,-0.01881 -0.71153,-0.0645 -0.98041,-0.14675h-0.17642c-0.17977,0 -0.32948,-0.12866 -0.36208,-0.29893c-0.27908,-0.29399 -0.25727,-0.75541 0.20279,-1.45398c0,0 0.04807,-0.07211 0.13256,-0.1231l-0.165,-0.41252c-0.01897,-0.04442 -0.02947,-0.09332 -0.02947,-0.14468c0,-0.20361 0.16506,-0.36867 0.36867,-0.36867c0.1018,0 0.19397,0.04126 0.26068,0.10798l0.29494,0.29494l-0.0074,0.0074l0.02522,0.01173c0.23797,0.32384 0.93935,0.72828 1.44463,1.16466l0.59739,0.19913c0.15064,0.04634 0.26016,0.1866 0.26016,0.35244c0,0.18209 -0.13202,0.33335 -0.30556,0.36329c-0.00249,0.01834 -0.00602,0.03667 -0.01063,0.055z" fill="#000000" stroke-width="0.5"/><path d="M251.30847,222.59594c0.03248,-0.10798 0.11894,-0.25169 0.34913,-0.25169c0.36867,0 0.36867,0.36867 0.36867,0.36867l-0.25209,0.49721c-1.53793,0.46886 -2.66688,1.16054 -4.06395,-0.23653c0,0 -0.26068,-0.26068 0,-0.52137c0.26068,-0.26068 0.52137,0 0.52137,0c1.0608,1.0608 1.95025,0.57 3.07686,0.14372z" fill="#000000" stroke-width="0.5"/><path d="M241.02479,196.94984c0.08188,-0.16628 0.16492,-0.33226 0.24852,-0.49786l-0.34178,0.47385c-0.0667,0.09488 -0.17701,0.15689 -0.3018,0.15689c-0.20361,0 -0.36867,-0.16506 -0.36867,-0.36867c0,-0.07694 0.02357,-0.14837 0.06388,-0.20748l0.25994,-0.39352l0.0161,0.01064l0.14118,-0.19573c1.15088,-2.88939 3.33216,-4.82787 5.00493,-7.33704c0,0 0.2045,-0.30675 0.51126,-0.10225c0.30675,0.2045 0.10225,0.51126 0.10225,0.51126c-0.72307,1.0846 -1.53578,2.05792 -2.31905,3.04669c0.01428,0.03079 0.02269,0.061 0.02664,0.09015c0.25791,-0.39432 0.52898,-0.78136 0.86713,-1.11949l0.03735,-0.00947l-0.00812,-0.01218l0.4382,-0.29214c0.05934,-0.04082 0.13123,-0.06472 0.20869,-0.06472c0.20361,0 0.36867,0.16506 0.36867,0.36867c0,0.1018 -0.04126,0.19397 -0.10798,0.26068l-0.29494,0.29494l-0.04153,-0.04153c-0.21118,0.36822 -0.45733,0.7124 -0.72032,1.04505c0.16076,0.03971 0.27996,0.1849 0.27996,0.35792c0,0.06193 -0.01526,0.12027 -0.04223,0.17151l-0.29162,0.58323l-0.12717,-0.06359c-0.49811,1.16889 -1.4079,2.2386 -2.26151,3.3447c-0.27382,0.42979 -0.55377,0.83618 -0.84305,1.18379c-0.15677,0.37827 -0.30891,0.75713 -0.45367,1.13672c-0.14135,0.37068 -0.37151,1.2272 -0.70046,1.70083c-0.01745,0.16048 -0.02681,0.32357 -0.02729,0.48953l-0.1276,0.07192l0.04768,0.04768l-0.29494,0.29494v0c-0.06671,0.06671 -0.15888,0.10798 -0.26068,0.10798c-0.20361,0 -0.36867,-0.16506 -0.36867,-0.36867c0,-0.04379 0.00763,-0.08579 0.02164,-0.12475l0.14474,-0.43424l0.06421,0.0214c0.06169,-0.47113 0.1719,-0.9437 0.31717,-1.41639c-0.06518,-0.0665 -0.10537,-0.15758 -0.10537,-0.25804c0,-0.06193 0.01526,-0.12027 0.04223,-0.17151l0.32643,-0.65286l0.08352,0.04177c0.20238,-0.5672 0.47157,-1.13071 0.78611,-1.68063z" fill="#000000" stroke-width="0.5"/><path d="M261.61558,143.85999c0.05137,-0.37144 0.14252,-0.7556 0.26788,-1.14291c-0.0161,-0.18294 -0.05563,-0.37273 0.01962,-0.53934c0.05457,-0.12082 0.19894,-0.17825 0.29121,-0.27362c0.05559,-0.12626 0.11439,-0.25214 0.17623,-0.37731c0.18298,-0.54936 0.36577,-1.47613 0.42525,-1.90155c0.07626,-0.54546 -0.05568,-0.73997 0.25903,-1.23866c0.48383,-1.49933 1.3284,-2.44613 2.33487,-3.61712c0.48821,-0.56802 0.82282,-1.38575 1.40364,-1.8611c0.44606,-0.36507 0.80864,-0.26682 1.2705,-0.414c0.34847,-0.11105 0.6463,-0.44106 1.01957,-0.56859c0.96092,-0.31758 2.24369,-0.60551 3.29373,-0.34577c0.51922,0.12845 1.25295,0.67881 1.6895,0.95627c0.40169,0.2553 0.598,0.75967 0.93373,1.04241c0.1843,0.15521 0.49443,0.08214 0.68576,0.22859c0.41452,0.31729 0.90461,0.86928 1.19998,1.31234c0.44673,0.45957 0.71635,1.08765 0.96597,1.68628c0.07969,0.19109 -0.06341,0.46312 0.07567,0.61649c0.08093,0.08924 0.27668,0.01364 0.34289,0.11429c0.16176,0.24592 0.21694,0.93176 0.26092,1.38029c1.01111,1.00964 1.75896,2.59251 2.06194,3.98725c0.22872,-0.03108 0.45425,-0.068 0.65857,-0.13371c0.84854,-0.00336 1.89331,-0.10246 2.74305,-0.22859c0.66219,-0.09828 1.26097,-0.74604 1.85921,-1.00376c1.06912,-0.46057 2.30975,-0.60078 3.45324,-0.60078c0.99598,0 1.95546,-0.10957 2.90469,-0.4157c0.07634,-0.11152 0.21238,-0.14553 0.21238,-0.14553c1.22688,-0.306 2.58481,-0.98301 3.83993,-0.567c0.44239,0.14663 0.81724,0.40076 1.18138,0.67467c0.0224,-0.00279 0.04619,-0.00427 0.07147,-0.00427c0.43129,0 0.43129,0.43129 0.43129,0.43129c-0.09643,2.00501 -2.42846,2.49727 -4.61541,2.91387c-0.82287,0.30341 -1.67261,0.5062 -2.48623,0.58542c-0.34621,0.12635 -0.64251,0.27567 -0.86701,0.46116c0.09863,1.05904 0.74281,0.45649 1.80813,0.80593c0.29503,0.09677 0.57974,0.16929 0.8559,0.22061l0.38787,-0.24273c0.5934,0.05527 1.18363,-0.48696 1.77272,-0.67157c0.97382,-0.30517 2.12018,-0.37772 3.16122,-0.53049c1.17297,-0.17213 2.08463,-1.18958 3.34692,-1.2132c0,0 0.43129,0 0.43129,0.43129c0,0.02959 -0.00203,0.05715 -0.00581,0.08281c0.0072,0.02708 0.01148,0.05299 0.01328,0.07775c0.03128,0.04717 0.06108,0.09602 0.08916,0.14677c0.94309,1.70445 -0.21923,3.13775 -0.31373,4.83081c0.02744,0.05511 0.04458,0.12395 0.04458,0.20992c0,0.43129 -0.43129,0.43129 -0.43129,0.43129c-0.77751,0 -1.56806,0.08851 -2.36356,0.21893c-0.50214,0.1892 -1.0323,0.36945 -1.67344,0.47674c-0.38765,0.06487 -0.7956,0.09134 -1.21275,0.09645c-0.41397,0.0852 -0.82663,0.16652 -1.23684,0.23741c-0.45746,0.07906 -1.03734,0.32997 -1.52326,0.29578c0.20461,0.07839 0.42207,0.19446 0.66067,0.23291c1.41986,0.2288 2.89322,0.09968 4.31295,0.34504c0.30555,0.05281 1.08052,-0.14297 1.27099,0.12075c0.01562,0.02163 0.03053,0.04285 0.04473,0.0637c0.08839,0.00585 0.18648,0.01257 0.29042,0.0192c-0.05349,0.06502 -0.10759,0.12942 -0.16237,0.19317c0.40296,0.78115 -0.36739,0.9066 -0.85892,1.12814l-0.30721,0.02201c-0.47102,0.3866 -0.9967,0.73186 -1.59969,1.02673c-0.69767,0.34116 -1.22759,0.99532 -1.92236,1.24545c-1.27869,1.33179 -3.12754,1.97286 -4.78753,2.44221c-1.13091,0.31975 -2.18128,0.93094 -3.35141,0.92095c-0.3484,0.08931 -0.93929,0.12025 -1.24448,0.30094c-0.39599,0.23445 -0.7442,0.56906 -1.21252,0.71555c-0.8636,0.27014 -1.82948,0.16199 -2.72966,0.3353c0.00102,0.03641 0.00154,0.07334 0.00154,0.11082c0,0.81146 0.31319,1.33274 0.55676,2.07222c0.50941,1.5466 0.60697,3.54798 0.58176,5.18766c0.2148,0.64441 0.04099,1.81845 0.5055,2.36126c0.23473,0.2743 0.43972,0.53537 0.61388,0.79816c0.96015,-0.28324 1.51385,0.02257 2.0556,0.52293c0.62444,-0.2849 1.31726,-1.02964 1.77219,-1.47963c1.6888,-0.85719 3.38046,-1.41823 5.13005,-1.993c0.84071,-0.27618 1.23087,-0.59309 1.92806,-0.51237v-0.0738h0.34289c0.18937,0 0.34289,0.15352 0.34289,0.34289c0,0.12091 -0.06258,0.22719 -0.15711,0.28824l-0.28096,0.18731c-0.27741,0.59765 -0.66237,1.73845 -1.26247,1.93849c-0.17189,0.62947 -1.13498,1.37008 -1.60011,1.8287c-0.21369,0.2107 -0.33143,0.52224 -0.49729,0.78561c0.01161,0.05446 0.02174,0.10946 0.03035,0.16496c0.95851,-0.08287 2.02766,0.07026 2.88703,0.18017c0.33894,0.04335 0.74391,-0.08574 1.07364,0.0075c0.77722,0.21979 1.31358,0.89577 2.08694,1.15137c0.77537,0.25846 1.55186,0.19725 2.34667,0.32972c0.32354,0.05392 0.58531,-0.13186 0.87329,0.2103c0.61489,0.73055 -0.221,1.25632 -0.80926,1.47839c-0.63643,0.24025 -1.35082,0.05268 -1.9626,0.23518c-0.64492,0.19238 -1.17413,0.46498 -1.88988,0.58341c-1.66892,0.00048 -3.17376,0.6216 -4.7809,0.74185c0.47906,0.12103 0.98477,0.3604 1.4194,0.53478c0.62573,0.15816 2.70819,1.00199 2.2364,1.82242c0.64063,0.31069 0.91782,0.85759 1.44366,1.37869c0.59438,0.589 1.34804,1.01173 1.93617,1.59348c0.6872,0.67973 1.54187,1.73339 2.60678,1.74962c0.45554,0.28748 1.01369,0.42997 1.45243,0.72225c0.76216,0.50775 1.52649,1.12533 2.2576,1.80638c0.0548,0.02345 0.10807,0.06509 0.14573,0.13701c1.2183,1.1559 2.33655,2.48159 3.1878,3.75847c0.03815,0.05723 0.0801,0.11873 0.12451,0.18384c0.09546,0.00397 0.18776,0.00635 0.27596,0.00635h0.22859c0,0 0.34289,0 0.34289,0.34289c0,0.34289 -0.34289,0.34289 -0.34289,0.34289h-0.0602c0.34374,0.5994 0.59481,1.28735 0.2184,1.80825c-0.01672,0.02313 -0.06578,0.06331 -0.13354,0.11221c0.62085,0.39432 1.07221,1.09167 1.58933,1.60879c1.35515,1.35515 2.38631,2.57247 2.38631,4.58562c0,0.23543 -0.01415,0.41977 -0.04761,0.57877c0.05235,0.32757 0.034,0.64754 -0.06875,0.95578c-0.49051,1.47154 -1.54258,1.91539 -2.84644,1.75606c-0.05895,0.00274 -0.11955,0.00853 -0.18249,0.01949c-1.32663,0.23104 -2.42956,0.06959 -3.70647,-0.35605c-0.70189,-0.24529 -1.4885,-0.2257 -2.16252,-0.45429c-0.60159,-0.20403 -0.96588,-0.87804 -1.5371,-1.16309c-0.77465,-0.38658 -1.55204,-0.75131 -2.35796,-1.01138l-0.12016,0.0176c0,0 -0.04884,0 -0.10966,-0.01843c-0.49401,0.23762 -0.85217,-0.19625 -1.24693,-0.33916c-0.25076,-0.09078 -0.54305,0.07122 -0.80005,0c-0.16797,-0.04655 -0.31772,-0.13818 -0.4675,-0.23067c0.04188,1.67 0.34949,3.2454 0.10525,4.95499c-0.12935,0.90537 -0.14824,1.51063 -0.9664,2.07034c-1.06236,0.53118 -2.35663,1.14206 -3.26924,1.91159c-0.77691,0.65512 -1.65003,1.31409 -2.59465,1.71371c0.20923,0.53634 0.42709,1.11874 0.43402,1.57739c0.0124,0.82036 -0.67875,1.54309 -0.80424,2.32764c-0.11055,0.69116 -0.02515,1.43719 -0.24176,2.1108c-0.25675,0.77023 -0.26448,1.57061 -0.88289,2.19131c-0.71229,0.71494 -1.26489,0.53899 -2.13053,0.66747c-0.2382,0.03536 -0.41274,0.25683 -0.64133,0.3326c-0.46869,0.15535 -0.97787,0.28259 -1.49832,0.37824c-0.87169,1.22069 -1.85658,2.05182 -3.08905,2.88802c-0.91724,0.68598 -1.78235,1.40579 -2.73895,1.93435c-0.44151,0.45059 -1.09337,0.72958 -2.07118,0.73442c-0.04844,0.00742 -0.09723,0.01422 -0.14636,0.0204c-0.79137,0.09944 -1.65998,0.43624 -2.45899,0.09077c-0.4212,-0.18212 -0.61012,-0.54689 -1.07769,-0.71088c-0.80365,-0.80365 -1.74331,-1.49399 -2.56983,-2.32846c-0.55742,-0.5628 -0.8241,-1.41104 -1.29409,-1.98396c-0.47361,-0.57733 -0.97523,-0.9538 -0.98474,-1.80825c0,0 0,-0.00694 0.00099,-0.01886c-0.60374,0.00972 -1.24229,-0.01687 -1.56053,-0.50511c-0.12483,-0.19151 -0.04554,-0.81953 -0.13727,-1.08201c-0.14263,-0.42885 -0.11742,-1.04668 -0.39706,-1.37687c-1.31476,-1.55239 -4.36368,-0.31704 -6.07592,-0.33611c-0.14547,-0.04849 -0.28944,-0.08594 -0.43233,-0.11791c-0.20565,0.83114 -0.46797,2.1491 -0.95107,2.48194c-0.21315,0.14686 -0.53443,0.17536 -0.86996,0.17055c-0.16375,1.46809 -1.19551,3.11881 -2.38897,3.90688c-1.49759,1.49759 -3.15273,2.58544 -5.3606,2.59218c-1.10335,0.00337 -2.23625,-0.18339 -2.89393,-1.15414c-0.77016,-0.78096 -1.90417,-1.24196 -2.54097,-2.2087c-0.30286,-0.45978 -0.44902,-0.99306 -0.78829,-1.46804c-0.64629,-0.9048 -1.29746,-1.52802 -1.41555,-2.59041c-0.75302,0.174 -1.84617,0.69769 -2.59939,0.16958c-1.08238,-0.7589 -0.86241,-2.46515 -0.84396,-3.66556c-0.23576,-0.67858 -0.74818,-1.09443 -1.10104,-1.71152c-0.29792,-0.52101 -0.43449,-1.20499 -0.78166,-1.68603c-0.43292,-0.59983 -1.18481,-0.9916 -1.51567,-1.64995c-0.23078,-0.45921 -0.15147,-1.00372 -0.14921,-1.50103c-0.21588,-0.09761 -0.40902,-0.20418 -0.55096,-0.32013c-0.36165,-0.2954 -0.54651,-0.88231 -0.68863,-1.307c-0.61259,-1.83071 -0.235,-3.85231 0.35138,-5.61145c0.38935,-0.7741 0.33526,-1.56913 0.56008,-2.36832c0.08715,-0.30978 0.44165,-0.4759 0.60126,-0.75534c0.31528,-0.55199 0.5789,-1.33236 0.75378,-2.11951c-0.28515,0.40987 -0.57051,0.8094 -0.83886,1.16723c-0.13714,0.18288 0.12483,0.49426 0,0.68576c-0.33845,0.51924 -1.11142,0.39412 -1.60787,0.70135c-0.16282,0.10077 -0.29342,0.25734 -0.46133,0.34571l-0.00512,0.00998c-0.72357,1.05336 -2.22222,1.09938 -3.31754,1.70883c-0.70637,0.39305 -1.20866,0.66843 -1.96034,0.92345c-0.51032,0.32204 -1.18201,0.21486 -1.68479,0.55513c-1.60792,1.08817 -3.10531,0.82557 -4.33141,-0.64576c-0.52519,-0.63023 -0.91698,-0.95696 -1.01506,-1.81312c-0.89235,-0.22284 -0.96646,-1.61818 -0.6279,-2.32661c0.4156,-0.86965 0.93538,-1.42886 1.56918,-2.05138c0.27888,-0.27392 0.40373,-0.85576 0.61875,-1.17846c0.23486,-0.35248 0.56067,-0.67139 0.80332,-1.03392c-0.14581,-0.80427 0.11468,-1.72147 0.74725,-2.2431c0.17435,-0.14377 0.38731,-0.24579 0.60531,-0.30524c0.06467,-0.01764 0.13545,0.14205 0.1792,0.09125c0.06055,-0.07029 0.23564,-0.80629 0.45718,-1.02865c0.93661,-0.9401 2.04505,-1.67266 2.86417,-2.74969c1.31179,-0.89378 2.68579,-1.76554 4.08527,-2.4591c1.45704,-0.72209 2.71053,-1.92296 4.04785,-2.81449c1.66302,-1.67537 4.36974,-2.95922 6.80213,-2.5416c0.33378,-0.402 0.6542,-0.78866 0.93485,-1.31859c-0.10856,-0.78184 1.33659,-1.7183 1.86745,-1.89174c0.77759,-0.25403 1.81943,0.09959 2.61383,0.09959c0,0 0.02302,0 0.05714,0.00597c0.13845,-0.35493 0.3522,-0.66196 0.63983,-0.86839c1.10817,-1.10817 1.49652,-2.60614 1.98781,-4.05862c0.01864,0.00047 0.03734,0.0007 0.05609,0.0007c0.01453,0 0.02903,-0.00014 0.04349,-0.00042c0.04656,-2.84988 2.08439,-5.69751 3.13704,-8.32913c0.27136,-0.6735 0.53916,-1.33167 0.79548,-1.98628c-0.05179,-0.19231 0.10539,-0.34949 0.10539,-0.34949l0.02646,0.01029c0.04084,-0.1059 0.08133,-0.21175 0.12146,-0.31761l0.00016,0.00014c0.19424,-0.63309 0.54832,-1.22194 0.83474,-1.82964l-0.1031,-0.02106c-0.81581,0 -1.50846,-0.29251 -2.20151,-0.70616c0,0 -0.03881,-0.02328 -0.08107,-0.06714c-0.96014,-0.25047 -1.9251,-0.57857 -2.67474,-1.22749c-0.21792,-0.18863 -0.24732,-0.52303 -0.40763,-0.76255c-0.43897,-0.65585 -1.12145,-1.15362 -1.47023,-1.82095c-0.64607,0 -1.27846,-0.84611 -1.69736,-1.33489c-0.46608,-0.54385 -0.97996,-1.14813 -1.21208,-1.8397c-0.10945,-0.32608 -0.09203,-0.74615 -0.30638,-1.06204c-0.62213,-0.91681 -1.07985,-1.99975 -1.07985,-3.1519c0.0075,-0.8785 -0.48753,-2.33098 0.21472,-3.0998c0.88581,-0.96979 3.09362,-1.94507 4.52625,-1.46753c0.983,0 2.2315,1.18624 3.05049,1.72616c0.39462,0.26016 1.04552,0.24788 1.50269,0.47586c0.96029,0.47885 2.41258,1.22063 3.49183,1.23708c0.8736,0.55129 1.91247,1.2613 2.92352,1.74849c0.00391,-0.00675 0.00634,-0.01041 0.00634,-0.01041c0.18871,-0.27452 0.40081,-0.74802 0.56966,-1.21937c0.0077,-0.04209 0.01627,-0.08388 0.0257,-0.12533zM292.82023,140.97949c-0.03128,0.06955 -0.08265,0.11317 -0.13479,0.14054c0.00243,-0.00098 0.00486,-0.00199 0.0073,-0.00304c0.05412,-0.02665 0.10851,-0.07024 0.14159,-0.14158c-0.00471,0.00137 -0.00941,0.00273 -0.01411,0.00408zM257.89167,144.12301c-0.4226,0.00727 -0.92234,-0.11535 -1.43093,-0.29578c0.00005,0.00002 0.00009,0.00003 0.00014,0.00005c0.51093,0.1824 1.01365,0.30726 1.439,0.30159c-0.00274,-0.00195 -0.00548,-0.00391 -0.00821,-0.00586zM300.60066,197.65507c-0.00028,-0.00023 -0.00056,-0.00046 -0.00083,-0.0007c-0.18058,0.16126 -0.36689,0.31935 -0.53307,0.4882c0.16709,-0.16828 0.35367,-0.32614 0.53391,-0.4875zM223.84112,192.26666c-0.00009,0.00015 -0.00017,0.00029 -0.00026,0.00044c0.00906,0.01329 0.01828,0.02646 0.02769,0.03951c-0.00932,-0.01319 -0.01846,-0.02651 -0.02743,-0.03995zM255.35638,218.18252c-0.19871,0.09346 -0.34344,0.1628 -0.46726,0.21422c0.12738,-0.05192 0.27595,-0.12309 0.48321,-0.22056c0.00288,-0.00135 0.00576,-0.00265 0.00866,-0.0039c-0.00828,0.00302 -0.01649,0.00642 -0.02461,0.01024zM285.0811,219.01895c0.00394,-0.00095 0.00788,-0.00191 0.01181,-0.00287c0.0041,-0.0652 -0.01011,-0.13935 -0.06695,-0.20853c0.05252,0.07116 0.06232,0.14653 0.05513,0.2114zM289.85034,211.25305c-0.00294,0.00606 -0.00607,0.01217 -0.00941,0.01834c0.00461,-0.0042 0.00918,-0.00838 0.01315,-0.01227c-0.00125,-0.00201 -0.0025,-0.00403 -0.00374,-0.00607zM265.01789,212.02381c-0.00349,0.00121 -0.00698,0.00241 -0.01048,0.0036c0.12387,-0.00055 0.25637,-0.01743 0.39319,-0.04871c-0.13318,0.02949 -0.26208,0.04512 -0.38271,0.04512zM263.57651,212.24211c-1.10632,0.40051 -2.20622,0.69397 -3.32478,0.83227c1.12426,-0.13848 2.22955,-0.43383 3.34142,-0.83634c0.03638,-0.01317 0.07377,-0.02439 0.11203,-0.03403c-0.04436,0.0106 -0.08734,0.02314 -0.12867,0.0381zM244.97644,209.27046c-0.00346,0.00012 -0.00691,0.00023 -0.01034,0.00032c0.19359,0.12801 0.39263,0.21194 0.59367,0.25954c-0.19756,-0.04887 -0.39309,-0.13304 -0.58333,-0.25986zM236.03569,207.16821c-0.00003,0.0006 -0.00007,0.00121 -0.0001,0.00181c0.14091,0.04835 0.28715,0.09533 0.42499,0.13929c-0.1349,-0.04374 -0.27886,-0.09074 -0.42488,-0.1411zM259.0203,214.41416c0.0029,-0.0414 0.01903,-0.1641 0.10879,-0.24729c-0.09202,0.0755 -0.11477,0.19189 -0.1204,0.24488c0.00387,0.00081 0.00775,0.00161 0.01162,0.00241zM248.89085,204.07889c0.02943,0.04478 0.05706,0.08968 0.08295,0.1347c-0.02623,-0.04629 -0.05429,-0.09248 -0.08423,-0.13853c0.00043,0.00127 0.00086,0.00256 0.00128,0.00384zM248.47691,174.98997c0.00537,-0.00158 0.01075,-0.00316 0.01614,-0.00474c-0.33118,-0.02935 -0.71752,-0.10671 -1.09488,-0.1543c0.37217,0.04946 0.75296,0.12689 1.07874,0.15903zM293.19482,169.14623c-0.00039,0.00101 -0.00078,0.00203 -0.00117,0.00304c0.0281,-0.0102 0.05571,-0.02272 0.08284,-0.03737c-0.02675,0.01359 -0.05398,0.02509 -0.08168,0.03432zM294.44894,179.38885c-0.00292,0.00538 -0.00623,0.01056 -0.00991,0.01555c0.00833,-0.00886 0.01533,-0.01841 0.02092,-0.02869c0.02626,-0.04837 -0.01689,-0.08363 -0.07925,-0.11223c0.05686,0.03521 0.09449,0.07705 0.06825,0.12538zM290.1167,209.5977c0.00049,-0.00021 0.00097,-0.00041 0.00146,-0.00062c-0.00425,-0.01114 -0.00944,-0.0243 -0.01463,-0.03748c0.00431,0.01261 0.0087,0.02531 0.01316,0.0381zM296.39379,199.0135l-0.02822,-0.00986l0.02822,0.01018zM245.0856,175.89618c0.04787,-0.00141 0.09987,0.00048 0.14804,0.00421c-0.0483,-0.00587 -0.09943,-0.01037 -0.14326,-0.01061c-0.0016,0.00215 -0.0032,0.00429 -0.00478,0.0064zM252.95377,206.25985c-0.00008,-0.00057 -0.00016,-0.00114 -0.00024,-0.0017c-0.02822,0.0102 -0.05632,0.02091 -0.08438,0.03197c0.02813,-0.01047 0.05633,-0.02061 0.08462,-0.03026zM249.62969,206.76799c0.38259,-0.00649 0.76159,-0.02462 1.13852,-0.05547c-0.37915,0.02898 -0.75974,0.04571 -1.13708,0.05242c-0.00048,0.00102 -0.00096,0.00203 -0.00144,0.00305zM269.02257,218.65285c-0.028,-0.00391 -0.05677,-0.00718 -0.08622,-0.00991c0.03732,0.00614 0.07401,0.01286 0.10195,0.01677c0.12712,0.01777 0.24293,0.05317 0.35126,0.10029c-0.11389,-0.0507 -0.23495,-0.08869 -0.36699,-0.10715zM231.8177,197.14426c-0.15008,0 -0.29332,-0.00905 -0.43101,-0.0262c0.14288,0.01873 0.29172,0.02864 0.44798,0.02864c0.05685,-0.00088 0.11433,0.00342 0.17229,0.01149c-0.06372,-0.00963 -0.12686,-0.01489 -0.18926,-0.01393zM248.49932,202.01122c0.00072,0.00195 0.00145,0.00389 0.00218,0.00583c0.32451,0.14346 0.64436,0.3139 0.964,0.4774c-0.31747,-0.16555 -0.63569,-0.33829 -0.96618,-0.48323zM234.94475,195.64838c-0.0876,-0.00919 -0.18305,-0.02546 -0.28815,-0.04426c0.10678,0.02124 0.20462,0.04011 0.28927,0.04989c-0.00037,-0.00188 -0.00074,-0.00375 -0.00112,-0.00563zM225.41137,189.5813c-0.00402,0.00144 -0.00807,0.00282 -0.01215,0.00416c0.007,0.1193 0.02747,0.24157 0.06254,0.35799c-0.02991,-0.11597 -0.0443,-0.23841 -0.05039,-0.36215zM226.50302,190.20451c0.05112,-0.16705 0.13079,-0.30053 0.23,-0.41432c-0.10094,0.11236 -0.18257,0.24397 -0.23584,0.40881c0.00195,0.00184 0.00389,0.00367 0.00584,0.00551zM288.67669,177.28733c0.41773,0.06644 0.8527,0.02926 1.28742,-0.00463c-0.00857,-0.00139 -0.01716,-0.00279 -0.02575,-0.00423c-0.8657,-0.14429 -1.72036,-0.33795 -2.24482,-1.12464l-0.29062,-0.18575c0,0 -0.03276,-0.02184 -0.06868,-0.06182c-0.04357,0.01192 -0.08697,0.02474 -0.13019,0.0384c-0.09272,0.11916 -0.18987,0.2378 -0.29083,0.35564c0.54676,0.38116 1.0274,0.86996 1.76347,0.98702zM248.04449,202.64593c0.19253,0.33749 0.44745,0.65163 0.64211,0.99016c-0.19287,-0.33923 -0.44777,-0.65337 -0.64211,-0.99016zM245.95963,176.15002c-0.10368,-0.05613 -0.20838,-0.10929 -0.31961,-0.15209c0.10989,0.04317 0.21524,0.09625 0.31961,0.15209zM290.45722,197.44616c0.42501,0.19937 0.99668,0.28969 1.46463,0.49768c-0.46515,-0.21046 -1.03654,-0.30108 -1.46463,-0.49768zM292.83314,198.56146c0.17734,0.13562 0.35812,0.26316 0.54945,0.35285c-0.18851,-0.09044 -0.37056,-0.21779 -0.54945,-0.35285zM264.82647,212.07612c-0.16418,0.0344 -0.33678,0.04769 -0.50729,0.05875c0.16956,-0.01006 0.34153,-0.02258 0.50729,-0.05875zM244.67315,209.24241c-0.08848,-0.02098 -0.16709,-0.05189 -0.24364,-0.08767c0.07562,0.03638 0.15345,0.06744 0.24364,0.08767zM243.91743,208.91805c-0.09093,-0.02425 -0.18703,-0.01355 -0.28414,0.00094c0.09843,-0.01192 0.19604,-0.02046 0.28414,-0.00094zM243.1527,208.9078c-0.49779,-0.11628 -0.93556,-0.39892 -1.43462,-0.51584c0.49772,0.12059 0.93547,0.4033 1.43462,0.51584zM239.12883,208.07532c-0.31614,-0.04179 -0.62978,-0.09362 -0.94141,-0.16571c0.31197,0.0726 0.62543,0.12429 0.94141,0.16571zM242.5231,216.28583c0.01974,-0.00855 0.04153,-0.01551 0.06557,-0.02043c-0.02589,0.00434 -0.04714,0.01128 -0.06557,0.02043zM258.33561,217.06038c0.02243,-0.03408 0.02461,-0.08417 0.02017,-0.13982c0.00143,0.05403 -0.00235,0.10361 -0.02017,0.13982zM253.33879,212.72007c0.0301,-0.00543 0.05917,-0.00655 0.0851,-0.00548c-0.0254,-0.00161 -0.0546,-0.00074 -0.0851,0.00548zM253.92944,212.8022c0.1582,0.00508 0.3118,-0.00934 0.47406,-0.00655c-0.16273,-0.00407 -0.31634,0.0103 -0.47406,0.00655zM267.23585,217.84902c0.03675,0.03187 0.09553,0.0343 0.16074,0.02869c-0.06324,0.00154 -0.12133,-0.00343 -0.16074,-0.02869zM269.76368,218.21303c0.2747,0.16389 0.5167,0.37541 0.7878,0.53261c-0.26997,-0.15907 -0.512,-0.37054 -0.7878,-0.53261zM250.57778,204.59146c-0.23535,-0.09885 -0.4546,-0.23115 -0.68672,-0.32665c0.23146,0.0971 0.45073,0.22937 0.68672,0.32665zM289.68052,211.43351c-0.05111,0.02379 -0.10302,0.02933 -0.14978,0.02599c0.04608,0.00556 0.09809,0.00092 0.14978,-0.02599zM270.60779,219.52505c-0.27702,-0.11403 -0.51055,-0.30646 -0.75344,-0.48278c0.24019,0.17662 0.47031,0.37 0.75344,0.48278zM251.32589,203.04499c-0.13629,0.00587 -0.27132,0.00724 -0.39914,-0.00136c0.12815,0.00929 0.26302,0.00773 0.39914,0.00136zM256.57958,217.87525c-0.1845,0.06429 -0.33517,0.23277 -0.5218,0.30169c0.18866,-0.063 0.33932,-0.23146 0.5218,-0.30169zM232.99919,195.30316c-0.26628,-0.16828 -0.49937,-0.36421 -0.74287,-0.53889c0.24265,0.17566 0.47574,0.3716 0.74287,0.53889zM226.32358,190.83421c-0.1097,-0.07823 -0.22799,-0.15972 -0.33679,-0.23781c0.10802,0.0778 0.22632,0.1593 0.33679,0.23781zM307.65143,193.26038c0.15464,0.05182 0.30166,0.08599 0.46787,0.01258c-0.16367,0.06717 -0.31205,0.03554 -0.46787,-0.01258zM299.37057,199.47678c0.08665,-0.09988 0.14086,-0.24841 0.18715,-0.40425c-0.04888,0.15481 -0.10483,0.30277 -0.18715,0.40425zM296.98235,195.25759c0.00565,-0.00127 0.01134,-0.00218 0.01706,-0.00276c-0.00931,-0.00008 -0.01859,0.00066 -0.02778,0.00229c0.00687,0.00045 0.01072,0.00048 0.01072,0.00048zM285.66083,142.41664c-0.19554,0.1208 -0.38892,0.25448 -0.58625,0.37854c0.19748,-0.1235 0.39086,-0.25717 0.58625,-0.37854zM254.09647,142.76021c-0.33858,-0.12182 -0.70369,-0.1575 -1.03482,-0.27166c0.00213,0.00078 0.00425,0.00155 0.00638,0.00232c0.32846,0.11503 0.69108,0.15093 1.02844,0.26934zM250.46927,140.81621c0.28642,0.1123 0.58289,0.29419 0.87479,0.49873c0.00016,0.00011 0.00033,0.00023 0.00049,0.00034c-0.2915,-0.20583 -0.5878,-0.38833 -0.87528,-0.49907zM300.33789,174.74811c-0.09041,0.00026 -0.2338,0.01789 -0.34634,0.02072c0.1081,-0.00119 0.25069,-0.01851 0.34634,-0.02072z" fill="#000000" stroke-width="0.5"/></g></g></svg>