<svg version="1.1" xmlns="http://www.w3.org/2000/svg" xmlns:xlink="http://www.w3.org/1999/xlink" width="50.63053" height="71.22081" viewBox="0,0,50.63053,71.22081"><defs><linearGradient x1="276.63111" y1="187.82452" x2="276.63111" y2="194.91181" gradientUnits="userSpaceOnUse" id="color-1"><stop offset="0" stop-color="#a0a0a0"/><stop offset="1" stop-color="#b6b6b6"/></linearGradient><linearGradient x1="274.40864" y1="149.33172" x2="274.40864" y2="158.19993" gradientUnits="userSpaceOnUse" id="color-2"><stop offset="0" stop-color="#ff7600"/><stop offset="1" stop-color="#6a3200"/></linearGradient></defs><g transform="translate(-250.69888,-145.86079)"><g data-paper-data="{&quot;isPaintingLayer&quot;:true}" fill-rule="nonzero" stroke-linecap="butt" stroke-linejoin="miter" stroke-miterlimit="10" stroke-dasharray="" stroke-dashoffset="0" style="mix-blend-mode: normal"><path d="M273.93771,192.24654c-0.31103,-0.21532 -0.10368,-0.53831 -0.10368,-0.53831l0.27317,-0.41189c1.57394,-1.08962 2.65235,-2.23012 4.68024,-2.23012c0,0 0.37381,0 0.37381,0.38818c0,0.38818 -0.37381,0.38818 -0.37381,0.38818c-1.79464,0 -2.75325,1.03469 -4.15158,2.00273l-0.17976,0.29358c0,0 -0.20736,0.32299 -0.51839,0.10767z" data-paper-data="{&quot;index&quot;:null}" fill="#000000" stroke="none" stroke-width="1.5"/><path d="M271.42224,192.92022c-0.16718,0.34719 -0.50153,0.1736 -0.50153,0.1736l-0.14995,-0.08819c-1.11739,-0.34216 -1.30592,-1.39322 -0.11323,-1.81139c0,0 0.36265,-0.09415 0.45332,0.28244c0.09066,0.37658 -0.27199,0.47073 -0.27199,0.47073c-0.56941,0.03155 -0.18593,0.25191 0.11323,0.30504l0.30297,0.14697c0,0 0.33435,0.1736 0.16718,0.52079z" data-paper-data="{&quot;index&quot;:null}" fill="#000000" stroke="none" stroke-width="1.5"/><path d="M296.49839,192.0995c0,3.29442 -8.89489,2.7837 -19.86729,2.7837c-10.9724,0 -19.86729,0.51072 -19.86729,-2.7837c0,-3.29442 8.74206,-4.27497 19.71447,-4.27497c10.9724,0 20.02011,0.98055 20.02011,4.27497z" data-paper-data="{&quot;index&quot;:null}" fill="url(#color-1)" stroke="#000000" stroke-width="1.5"/><path d="M297.63926,212.46491c0,0 0.1224,0.62416 -0.93704,1.06016c-2.18929,0.90096 -7.564,2.86851 -18.97384,2.80503c-12.51019,-0.06959 -18.00209,-1.91629 -19.93272,-2.77214c-0.90732,-0.40222 -0.9749,-1.09305 -0.9749,-1.09305c0,0 -1.56578,-3.52279 -1.16509,-11.1496c0.38875,-7.39943 1.3221,-8.94515 1.3221,-8.94515c0,0 4.91565,1.53204 20.75061,1.63374c14.0977,0.09053 20.22489,-1.73317 20.22489,-1.73317c0,0 0.72332,3.13565 0.79218,9.51289c0.0893,8.26994 -1.10617,10.68131 -1.10617,10.68131z" data-paper-data="{&quot;index&quot;:null}" fill="#000000" stroke="#000000" stroke-width="1.5"/><path d="M293.79238,192.27901c0.23002,0.27519 -0.06464,0.49002 -0.06464,0.49002l-0.4769,0.27086c-0.23809,0.01381 -0.47607,0.03992 -0.71181,0.07799c-0.11048,0.1127 -0.28638,0.1127 -0.28638,0.1127l0.03775,-0.06794c-0.00992,0.00197 -0.01984,0.00397 -0.02974,0.00598c-0.65053,0.51382 -2.13173,0.83018 -2.99558,0.83716c-2.16647,0 -4.3223,0.6393 -6.53472,0.77453c-1.48424,0.09071 -3.07782,-0.19312 -4.58848,-0.19312c0,0 -0.21634,0 -0.31986,-0.1537c-2.52077,-0.11799 -4.91488,-0.43878 -7.42844,-0.90827c0,0 -0.36656,-0.06847 -0.29324,-0.41081c0.07331,-0.34234 0.43987,-0.27387 0.43987,-0.27387c2.66333,0.49747 5.17407,0.82488 7.86029,0.91781c0.05918,-0.25699 0.36393,-0.25699 0.36393,-0.25699c1.36184,0 2.74425,0.01876 4.13001,0.00884c1.24939,-0.23701 2.44798,-0.61261 3.72615,-1.06958c1.90217,-0.68006 4.10229,-0.81206 5.83498,-1.87665l0.16627,-0.16589c0,0 0.26432,-0.24686 0.52865,0h0.00001c0.26432,0.24686 0,0.49373 0,0.49373l-0.28665,0.2571c-1.78956,1.08077 -3.98955,1.23231 -5.94079,1.93027c-0.33794,0.12088 -0.67069,0.23629 -1.00043,0.34529c1.9466,-0.10839 3.87498,-0.34238 5.73704,-0.83469c0.5026,-0.13069 1.02219,-0.21374 1.54272,-0.24661l0.06534,-0.12448c0,0 0.29467,-0.21483 0.52469,0.06037z" data-paper-data="{&quot;index&quot;:null}" fill="#000000" stroke="none" stroke-width="1.5"/><path d="M279.37127,186.2637c9.86772,0 18.5168,3.9421 18.5168,5.78525c0,1.84315 -28.61314,5.12566 -35.57174,11.65981c-7.4313,6.97803 -5.50305,-9.58391 -5.50305,-11.42707c0,-1.84315 12.69027,-6.018 22.55799,-6.018z" data-paper-data="{&quot;index&quot;:null}" fill="#000000" stroke="#000000" stroke-width="1.5"/><path d="M298.32218,157.13945c0,4.99613 -9.64093,4.2216 -21.53361,4.2216c-11.89269,0 -21.53361,0.77453 -21.53361,-4.2216c0,-4.99613 9.47528,-6.48317 21.36797,-6.48317c11.89269,0 21.69926,1.48704 21.69926,6.48317z" data-paper-data="{&quot;index&quot;:null}" fill="#000000" stroke="#000000" stroke-width="2"/><path d="M268.75852,160.28382l-0.13638,-1.98662l11.83658,-0.64677l0.13638,1.98662z" data-paper-data="{&quot;index&quot;:null}" fill="#0057ff" stroke="#000000" stroke-width="0"/><path d="M280.81104,157.83269l0.79295,1.86037l-11.08433,3.76073l-0.79295,-1.86037z" data-paper-data="{&quot;index&quot;:null}" fill="#07c300" stroke="#000000" stroke-width="0"/><path d="M272.54055,159.05891l-0.13638,1.98662l-11.83658,-0.64677l0.13638,-1.98662z" data-paper-data="{&quot;index&quot;:null}" fill="#0057ff" stroke="#000000" stroke-width="0"/><path d="M278.67361,158.70833l0.79295,-1.86036l11.08433,3.76072l-0.79295,1.86036z" data-paper-data="{&quot;index&quot;:null}" fill="#ff0000" stroke="#000000" stroke-width="0"/><path d="M281.58006,163.0703l-0.13638,-1.98662l11.83658,-0.64677l0.13638,1.98662z" data-paper-data="{&quot;index&quot;:null}" fill="#0057ff" stroke="#000000" stroke-width="0"/><path d="M255.60988,186.41806c0,0 -0.69005,-2.97572 -0.70988,-14.97569c-0.02048,-12.39008 0.38238,-14.81386 0.38238,-14.81386c0,0 6.39091,2.69024 21.09537,2.55668c16.5165,-0.15001 21.64372,-2.41003 21.64372,-2.41003c0,0 1.07251,3.0035 0.62631,13.69949c-0.59748,14.32233 -0.46255,15.94341 -0.46255,15.94341c0,0 -0.07049,1.01909 -1.01685,1.61242c-2.01371,1.26252 -7.74201,3.98669 -20.79063,4.08935c-11.90093,0.09363 -17.50697,-2.80881 -19.79049,-4.13787c-1.10504,-0.64316 -0.97738,-1.56391 -0.97738,-1.56391z" data-paper-data="{&quot;index&quot;:null}" fill="#000000" stroke="#000000" stroke-width="1.5"/><path d="M270.47716,170.32634c0,0.21013 0.00255,0.4122 -0.07263,0.60079c-0.14266,0.35789 -0.50602,0.51275 -0.86369,0.73694c-0.17796,0.11155 -0.35719,0.27414 -0.54861,0.37476c-0.21972,0.11549 -0.4555,0.16161 -0.72391,0.16161c-0.55417,0 -0.88743,-0.17315 -1.27522,-0.45917c-0.28326,-0.20892 -0.56721,-0.32349 -0.7463,-0.62935c-0.11545,-0.19717 -0.18732,-0.56418 -0.18732,-0.78558c0,-0.47259 0.20616,-0.78839 0.54635,-1.11805c0.22203,-0.21516 0.37122,-0.57628 0.68738,-0.71895c0.26035,-0.11749 0.67574,-0.03709 0.97511,-0.03709c0.38524,0 0.63684,0.21241 0.97611,0.30805c0.63123,0.17795 0.95834,0.55964 1.10949,1.03165c0.05392,0.16836 0.12323,0.34821 0.12323,0.5344z" data-paper-data="{&quot;index&quot;:null}" fill="#000000" stroke="#000000" stroke-width="1.5"/><path d="M284.46783,170.38131c0.14867,-0.46428 0.47044,-0.83973 1.09134,-1.01477c0.33371,-0.09407 0.58121,-0.30302 0.96014,-0.30302c0.29448,0 0.70307,-0.07907 0.95916,0.03648c0.31099,0.14034 0.45774,0.49554 0.67614,0.70719c0.33462,0.32427 0.53741,0.6349 0.53741,1.09976c0,0.21779 -0.07069,0.57879 -0.18425,0.77274c-0.17616,0.30086 -0.45548,0.41355 -0.7341,0.61906c-0.38144,0.28133 -0.70925,0.45166 -1.25436,0.45166c-0.26402,0 -0.49595,-0.04537 -0.71206,-0.15897c-0.1883,-0.09898 -0.36458,-0.2589 -0.53964,-0.36863c-0.35182,-0.22051 -0.70923,-0.37284 -0.84956,-0.72489c-0.07395,-0.18551 -0.07144,-0.38427 -0.07144,-0.59097c0,-0.18314 0.06819,-0.36006 0.12122,-0.52566z" data-paper-data="{&quot;index&quot;:null}" fill="#000000" stroke="#000000" stroke-width="1.5"/><path d="M295.62575,174.64484c-3.58721,4.07194 -3.00673,3.98627 -5.94097,5.93266c-4.49351,2.98071 -8.45609,4.29383 -12.84975,4.29383c-2.84445,0 -1.01642,0.24897 -9.31533,-1.53518c-0.97024,-0.74611 -4.50233,-3.1454 -5.33,-3.97008c-3.81076,-3.79698 -5.53561,-11.37401 -4.2195,-13.12032c2.88649,-2.24648 2.55341,-0.09493 3.23118,3.0273c0.69006,3.92932 1.18262,4.32887 3.02488,6.02368c3.32951,3.06303 8.02222,5.42875 11.59318,5.42875c7.26271,0 16.81861,-5.96747 18.35114,-10.70718c0,0 1.56884,-1.82077 1.85472,-1.68244c1.5679,0.75868 0.7676,2.93719 0.7676,2.93719z" data-paper-data="{&quot;index&quot;:null}" fill="#000000" stroke="#000000" stroke-width="1.5"/><path d="M270.07754,158.19993l-1.38949,-1.80756l10.05169,-7.06065l1.38949,1.80756z" data-paper-data="{&quot;index&quot;:null}" fill="url(#color-2)" stroke="#000000" stroke-width="0"/><path d="M263.83946,155.88254l0.83407,-2.09662l11.65911,4.2383l-0.83407,2.09662z" data-paper-data="{&quot;index&quot;:null}" fill="#000000" stroke="#000000" stroke-width="0"/><path d="M281.55017,156.22631l0.83407,2.09662l-11.6591,4.2383l-0.83407,-2.09662z" data-paper-data="{&quot;index&quot;:null}" fill="#000000" stroke="#000000" stroke-width="0"/><path d="M285.3986,156.2776l-0.14345,2.2389l-12.45036,-0.7289l0.14345,-2.2389z" data-paper-data="{&quot;index&quot;:null}" fill="#000000" stroke="#000000" stroke-width="0"/><path d="M273.96662,154.07281l0.83407,-2.09663l11.65911,4.23832l-0.83407,2.09662z" data-paper-data="{&quot;index&quot;:null}" fill="#000000" stroke="#000000" stroke-width="0"/><path d="M259.4428,157.21318l0.83407,-2.09663l11.65911,4.23832l-0.83407,2.09662z" data-paper-data="{&quot;index&quot;:null}" fill="#000000" stroke="#000000" stroke-width="0"/><path d="M265.2227,149.76714l0.83407,-2.09662l11.65911,4.23831l-0.83407,2.09662z" data-paper-data="{&quot;index&quot;:null}" fill="#000000" stroke="#000000" stroke-width="0"/><path d="M268.27986,154.68305l-0.14345,-2.2389l12.45036,-0.7289l0.14345,2.2389z" data-paper-data="{&quot;index&quot;:null}" fill="#000000" stroke="#000000" stroke-width="0"/><path d="M280.95738,151.92062l0.83407,2.09663l-11.6591,4.23832l-0.83407,-2.09663z" data-paper-data="{&quot;index&quot;:null}" fill="#000000" stroke="#000000" stroke-width="0"/><path d="M282.93339,150.1109l0.83407,2.09662l-11.6591,4.2383l-0.83407,-2.09662z" data-paper-data="{&quot;index&quot;:null}" fill="#000000" stroke="#000000" stroke-width="0"/><path d="M286.78182,150.1622l-0.14345,2.2389l-12.45037,-0.7289l0.14345,-2.2389z" data-paper-data="{&quot;index&quot;:null}" fill="#000000" stroke="#000000" stroke-width="0"/><path d="M275.34986,147.95741l0.83407,-2.09662l11.6591,4.23831l-0.83407,2.09663z" data-paper-data="{&quot;index&quot;:null}" fill="#000000" stroke="#000000" stroke-width="0"/><path d="M256.93694,155.22486l-1.38949,-1.80756l10.05169,-7.06065l1.38949,1.80756z" data-paper-data="{&quot;index&quot;:null}" fill="#000000" stroke="#000000" stroke-width="0"/><path d="M250.69889,152.90746l0.83407,-2.09662l11.65911,4.2383l-0.83407,2.09662z" data-paper-data="{&quot;index&quot;:null}" fill="#000000" stroke="#000000" stroke-width="0"/><path d="M253.75605,157.82341l-0.14345,-2.2389l12.45036,-0.7289l0.14345,2.2389z" data-paper-data="{&quot;index&quot;:null}" fill="#000000" stroke="#000000" stroke-width="0"/><path d="M266.43354,155.06095l0.83407,2.09662l-11.6591,4.23832l-0.83407,-2.09663z" data-paper-data="{&quot;index&quot;:null}" fill="#000000" stroke="#000000" stroke-width="0"/><path d="M273.04022,162.23281l-1.38949,1.80756l-10.05169,-7.06066l1.38949,-1.80756z" data-paper-data="{&quot;index&quot;:null}" fill="#000000" stroke="#000000" stroke-width="0"/><path d="M268.40957,153.25127l0.83407,2.09662l-11.6591,4.2383l-0.83407,-2.09662z" data-paper-data="{&quot;index&quot;:null}" fill="#000000" stroke="#000000" stroke-width="0"/><path d="M272.258,153.30256l-0.14345,2.2389l-12.45037,-0.7289l0.14345,-2.2389z" data-paper-data="{&quot;index&quot;:null}" fill="#000000" stroke="#000000" stroke-width="0"/><path d="M260.82604,151.09777l0.83407,-2.09663l11.65911,4.23832l-0.83407,2.09662z" data-paper-data="{&quot;index&quot;:null}" fill="#000000" stroke="#000000" stroke-width="0"/><path d="M284.94716,155.22486l-1.38949,-1.80756l10.05169,-7.06066l1.38949,1.80756z" data-paper-data="{&quot;index&quot;:null}" fill="#000000" stroke="#000000" stroke-width="0"/><path d="M278.7091,152.90746l0.83407,-2.09662l11.65911,4.23831l-0.83407,2.09662z" data-paper-data="{&quot;index&quot;:null}" fill="#000000" stroke="#000000" stroke-width="0"/><path d="M281.76629,157.82341l-0.14345,-2.2389l12.45036,-0.7289l0.14345,2.2389z" data-paper-data="{&quot;index&quot;:null}" fill="#000000" stroke="#000000" stroke-width="0"/><path d="M294.44377,155.06095l0.83407,2.09662l-11.65911,4.23832l-0.83407,-2.09663z" data-paper-data="{&quot;index&quot;:null}" fill="#000000" stroke="#000000" stroke-width="0"/><path d="M296.41978,153.25127l0.83407,2.09662l-11.6591,4.2383l-0.83407,-2.09662z" data-paper-data="{&quot;index&quot;:null}" fill="#000000" stroke="#000000" stroke-width="0"/><path d="M300.26818,153.30256l-0.14345,2.2389l-12.45036,-0.7289l0.14345,-2.2389z" data-paper-data="{&quot;index&quot;:null}" fill="#000000" stroke="#000000" stroke-width="0"/><path d="M288.83624,151.09777l0.83407,-2.09663l11.6591,4.23832l-0.83407,2.09662z" data-paper-data="{&quot;index&quot;:null}" fill="#000000" stroke="#000000" stroke-width="0"/><path d="M265.56816,188.25369c-0.43587,0.43587 -0.87175,0 -0.87175,0l-0.36643,-0.37001c-0.61472,-0.73767 -1.30172,-1.37319 -1.95795,-1.99863c0.14737,0.3788 0.28607,0.75946 0.41174,1.14234l0.06696,-0.04464l0.48846,0.73269c0.06825,0.09922 0.1082,0.21941 0.1082,0.34894c0,0.34044 -0.27598,0.61642 -0.61642,0.61642c-0.18868,0 -0.35756,-0.08477 -0.47063,-0.2183l-0.49053,-0.57228c-0.24643,-0.28751 -0.60831,-0.69628 -1.0052,-1.17444l0.03218,0.38615c0.00181,0.01922 0.00273,0.03869 0.00273,0.05837c0,0.34044 -0.27598,0.61642 -0.61642,0.61642c-0.20976,0 -0.39503,-0.10477 -0.50638,-0.26482l-0.40617,-0.56864l0.00554,-0.00395l-0.01634,-0.01167c-0.72572,-1.16041 -1.08333,-2.22732 -1.61577,-3.4696c0,0 -0.24282,-0.56658 0.32376,-0.8094c0.13105,-0.05617 0.24478,-0.06902 0.3422,-0.05561c-0.08275,-0.30527 -0.17081,-0.58632 -0.2726,-0.8248l0.00878,-0.05295l-0.02263,0.00565l-0.16103,-0.6441c-0.01419,-0.05189 -0.02176,-0.10652 -0.02176,-0.16292c0,-0.34044 0.27598,-0.61642 0.61642,-0.61642c0.2715,0 0.502,0.17552 0.58422,0.41927l0.11124,0.3059c0.1057,-0.18756 0.30675,-0.31422 0.53739,-0.31422c0.26933,0 0.49831,0.17273 0.58222,0.41345l0.23904,0.63744c0.0741,0.18067 0.14997,0.36147 0.22712,0.54243c0.46083,0.40571 0.6817,1.02969 1.18385,1.60313c1.00629,1.14917 2.25775,1.99299 3.25487,3.18954l0.29108,0.28751c0,0 0.43587,0.43587 0,0.87175z" data-paper-data="{&quot;index&quot;:null}" fill="#000000" stroke="none" stroke-width="0.5"/><path d="M293.88212,183.52382c-0.76713,0.76884 -3.93211,2.94434 -4.61421,0.80387c-0.12179,-0.38218 0.33698,-0.73491 0.57843,-1.05522c1.08064,-1.4336 2.00138,-1.52288 2.64553,-3.45758c0,0 0.19493,-0.58479 0.77971,-0.38986c0.58479,0.19493 0.38986,0.77971 0.38986,0.77971c-0.21393,0.64109 -0.44756,1.42082 -0.8112,2.08644l0.72861,-0.42502c0.09321,-0.05665 0.20265,-0.08928 0.3197,-0.08928c0.34044,0 0.61642,0.27598 0.61642,0.61642c0,0.12953 -0.03995,0.24972 -0.1082,0.34894l-0.48846,0.73269l-0.01797,-0.01197z" data-paper-data="{&quot;index&quot;:null}" fill="#000000" stroke="none" stroke-width="0.5"/><path d="M285.51523,175.69488c-0.61642,0 -0.61642,-0.61642 -0.61642,-0.61642l0.12799,-0.26188l-0.46453,-0.26545c-0.19127,-0.10464 -0.32098,-0.30774 -0.32098,-0.54114c0,-0.24354 0.14123,-0.45408 0.34625,-0.55421c-0.01489,-0.05748 -0.02197,-0.12255 -0.01846,-0.19619c-0.06299,-0.01673 -0.1262,-0.03304 -0.18963,-0.0488c0,0 -0.59802,-0.1495 -0.44852,-0.74752c0.1495,-0.59802 0.74752,-0.44852 0.74752,-0.44852c1.03993,0.26153 2.42441,1.00804 3.40756,0.39157l-0.08114,-0.06923c0,0 0.27567,-0.55134 0.82701,-0.27567c0.55134,0.27567 0.27567,0.82701 0.27567,0.82701l-0.40989,0.58829c-0.09486,0.05109 -0.18934,0.09596 -0.28351,0.13512c0.01226,0.04849 0.01877,0.09927 0.01877,0.15157c0,0.31996 -0.24378,0.58299 -0.55574,0.61347l-0.73232,0.08137l-0.00577,-0.05191l-0.10367,0.05429c-0.04413,-0.01082 -0.08758,-0.0223 -0.13043,-0.03432c-0.03628,0.01707 -0.07539,0.02909 -0.11712,0.03702c0.00084,0.01315 0.00127,0.02642 0.00127,0.03978c0,0.31734 -0.2398,0.57867 -0.54808,0.61267l-0.1129,0.01411c-0.016,0.14812 -0.10607,0.56496 -0.61296,0.56496z" data-paper-data="{&quot;index&quot;:null}" fill="#000000" stroke="none" stroke-width="0.5"/><path d="M268.19822,174.69244c-0.43587,0.43587 -0.87175,0 -0.87175,0l-0.27672,-1.19174c-0.38636,-0.19499 -0.77437,-0.38262 -1.15483,-0.59929c0,0 -0.40791,-0.23309 -0.30801,-0.6484c-0.13819,-0.11067 -0.27091,-0.22909 -0.39736,-0.35501c0,0 -0.43587,-0.43587 0,-0.87175c0.43587,-0.43587 0.87175,0 0.87175,0c0.82683,0.83076 2.22247,1.35681 3.39916,1.0592c0.03438,-0.17865 0.15809,-0.50004 0.60319,-0.50004c0.61642,0 0.61642,0.61642 0.61642,0.61642l-0.39998,0.90593c-0.3554,0.12066 -0.72013,0.19706 -1.08677,0.23146c0.00483,0.03111 0.00735,0.06299 0.00735,0.09545c0,0.31734 -0.2398,0.57867 -0.54808,0.61267l-0.29399,0.03675c0.05749,0.1644 0.06159,0.38637 -0.16038,0.60835z" data-paper-data="{&quot;index&quot;:null}" fill="#000000" stroke="none" stroke-width="0.5"/><path d="M291.18931,168.15692c-0.22893,-0.57233 0.3434,-0.80126 0.3434,-0.80126l0.33405,-0.12725c0.04583,-0.02616 0.09153,-0.05183 0.13708,-0.07713c-0.29227,-0.34827 0.00437,-0.7438 0.00437,-0.7438l0.413,-0.48163c0.74349,-0.4589 1.33573,-0.98949 1.76405,-1.75566c0,0 0.30583,-0.5352 0.84104,-0.22937c0.5352,0.30583 0.22937,0.84104 0.22937,0.84104c-0.3064,0.5272 -0.66265,0.96621 -1.07766,1.35236c0.06521,0.0365 0.13068,0.09019 0.19411,0.1663c0.39462,0.47355 -0.07893,0.86817 -0.07893,0.86817c-0.57217,0.47124 -1.17418,0.76375 -1.81477,1.13012l-0.48784,0.20151c0,0 -0.57233,0.22893 -0.80126,-0.3434z" data-paper-data="{&quot;index&quot;:null}" fill="#000000" stroke="none" stroke-width="0.5"/><path d="M269.73488,196.18898v-0.19333h0.98627c0.30943,0 0.56562,0.228 0.60971,0.52517c2.69589,-0.64343 5.40712,-1.36015 7.66231,-2.51483c0,0 0.55134,-0.27567 0.82701,0.27567c0.27567,0.55134 -0.27567,0.82701 -0.27567,0.82701c-3.4006,1.66839 -7.60319,2.44061 -11.41324,3.42758c-0.01406,0.25988 -0.18909,0.47696 -0.42715,0.55327l-0.99606,0.34524c-1.4898,0.56898 -2.9114,1.28077 -4.36373,1.93007l0.01825,0.02606l-0.8157,0.57099c-0.10122,0.07285 -0.22545,0.11576 -0.35968,0.11576c-0.05318,0 -0.10478,-0.00673 -0.15401,-0.0194c-0.09728,0.06421 -0.21384,0.10159 -0.33912,0.10159c-0.34044,0 -0.61642,-0.27598 -0.61642,-0.61642c0,-0.11267 0.03023,-0.21827 0.08301,-0.30915l0.40071,-0.72129c0.03049,-0.06068 0.06081,-0.12184 0.09101,-0.1834c-0.00055,-0.48022 0.00631,-1.15502 0.05879,-1.26674c0.13009,-0.27692 0.51974,-0.59606 0.99429,-0.87105c0.35799,-0.64314 0.76908,-1.24209 1.29494,-1.71489c0,0 0.4639,-0.40592 0.86982,0.05798c0.11359,0.12981 0.15906,0.25508 0.16565,0.36819l0.39471,-0.13157c0.06514,-0.02342 0.13537,-0.03618 0.20858,-0.03618c0.12621,0 0.24357,0.03793 0.34128,0.10302c1.56886,-0.39094 3.18028,-0.73761 4.75446,-0.64939z" data-paper-data="{&quot;index&quot;:null}" fill="#000000" stroke="none" stroke-width="0.5"/><path d="M257.79796,192.89268c-0.17196,-0.07783 -0.40816,-0.25881 -0.342,-0.65578c0.10134,-0.60804 0.70937,-0.5067 0.70937,-0.5067l0.58673,0.10543c0.26784,0.09278 0.50756,0.15147 0.73041,0.19207c0.1491,-0.00636 0.29759,-0.00759 0.44054,-0.00599c0.11612,-0.05366 0.23223,-0.10731 0.34835,-0.16098c0,0 0.41884,-0.19331 0.69909,0.11685l0.61384,0.07673c0.30828,0.034 0.54808,0.29533 0.54808,0.61267c0,0.00058 0,0.00116 0,0.00174c0.57508,0.15637 1.15426,0.39823 1.68542,0.6778c0.17421,0.04199 0.35402,0.07801 0.54026,0.1054l0.0169,-0.04225l0.80856,0.32342c0.23411,0.08742 0.40082,0.31307 0.40082,0.57767c0,0.34044 -0.27598,0.61642 -0.61642,0.61642c-0.0812,0 -0.15874,-0.01571 -0.22974,-0.04423l-0.59314,-0.22243c-0.6369,-0.07912 -2.24507,-0.37835 -3.25016,-0.8349l-0.02368,0.0071l-0.00323,-0.01077l-0.04853,0.01387c-0.00562,0.00442 -0.01124,0.00884 -0.01687,0.01327l-0.018,-0.0033l-0.67851,0.19386l-0.03216,0.25727c-0.034,0.30828 -0.29533,0.54808 -0.61267,0.54808c-0.18095,0 -0.34369,-0.07796 -0.45646,-0.20214c-0.10226,0.07539 -0.22864,0.11996 -0.36544,0.11996c-0.28896,0 -0.53149,-0.19883 -0.59822,-0.46715l-0.24304,-0.89116l0.04677,-0.01276c-0.02854,-0.09045 -0.04762,-0.18367 -0.0544,-0.28049c-0.00547,-0.07821 -0.0027,-0.15095 0.00754,-0.21858z" data-paper-data="{&quot;index&quot;:null}" fill="#000000" stroke="none" stroke-width="0.5"/><path d="M288.62897,193.19067c-0.19493,-0.58479 0.38986,-0.77971 0.38986,-0.77971l0.5762,-0.19142c0.03557,-0.18239 0.15157,-0.33601 0.30957,-0.42245l0.56494,-0.32282l0.03572,0.06251l0.01907,-0.00817l0.09283,-0.11491c0.14107,-0.00275 0.281,-0.00873 0.42009,-0.01711c0.53162,-0.32434 1.62249,-0.32503 2.24568,-0.40283l0.6171,-0.15428c0.05189,-0.01419 0.10652,-0.02176 0.16292,-0.02176c0.34044,0 0.61642,0.27598 0.61642,0.61642c0,0.05291 -0.00667,0.10425 -0.0192,0.15325c0.01231,0.0521 0.0192,0.11036 0.0192,0.17551c0,0.61642 -0.61642,0.61642 -0.61642,0.61642c-0.02464,0 -0.04925,0.00013 -0.07382,0.00039l-0.14782,0.14782l-0.13934,-0.13934c-0.0444,0.0021 -0.0887,0.00454 -0.13291,0.00727c-0.90481,0.71418 -1.90337,0.60567 -3.45103,0.94776l-0.70932,0.23731c0,0 -0.58479,0.19493 -0.77971,-0.38986z" data-paper-data="{&quot;index&quot;:null}" fill="#000000" stroke="none" stroke-width="0.5"/><path d="M293.98134,198.28378c-0.16624,0.09088 -0.33624,0.17556 -0.50946,0.25448c-0.10856,0.19169 -0.30925,0.28088 -0.30925,0.28088l-0.68673,0.30209c-0.83707,0.58966 -1.28614,0.97168 -1.95948,1.18378l0.06442,0.17179l-0.64422,0.24158c-0.071,0.02854 -0.14853,0.04423 -0.22974,0.04423c-0.34044,0 -0.61642,-0.27598 -0.61642,-0.61642c0,-0.15158 0.05471,-0.29038 0.14547,-0.39773l0.00111,-0.00133l-0.22566,0.07522c-0.06514,0.02342 -0.13537,0.03618 -0.20858,0.03618c-0.34044,0 -0.61642,-0.27598 -0.61642,-0.61642c0,-0.15443 0.05679,-0.29561 0.15064,-0.40377l0.4909,-0.57271l0.02113,0.01811l0.03069,-0.07166c0.48374,-0.34888 1.01627,-0.6904 1.57442,-0.99995l0.13187,-0.13187l0.02671,0.02671l0.035,-0.08071c1.38438,-0.79928 2.48434,-1.81326 3.66677,-2.85066c0,0 0.4639,-0.40592 0.86982,0.05798c0.18229,0.20833 0.18916,0.40496 0.14141,0.55839c0.2589,-0.09765 0.51063,-0.16287 0.66943,0.01251c1.0929,1.207 -0.39006,1.87823 -1.0671,2.14139c-0.06125,0.02381 -0.12249,0.04718 -0.1837,0.07017c0.06284,0.09659 0.09935,0.21188 0.09935,0.33571c0,0.20976 -0.10477,0.39503 -0.26482,0.50638l-0.56864,0.40617l-0.00884,-0.01239z" data-paper-data="{&quot;index&quot;:null}" fill="#000000" stroke="none" stroke-width="0.5"/><path d="M260.26041,209.25436c-0.1495,-0.59802 0.44852,-0.74752 0.44852,-0.74752l0.54501,-0.13585c-0.40076,-0.01099 -0.7881,-0.07426 -1.18566,-0.22746l-0.0838,0.22347l-0.64404,-0.24151c-0.24072,-0.08391 -0.41345,-0.31289 -0.41345,-0.58222c0,-0.0424 0.00428,-0.0838 0.01244,-0.12379c-0.20512,-0.0517 -0.41538,-0.12252 -0.63264,-0.217c0,0 -0.56329,-0.25035 -0.31294,-0.81364c0.25035,-0.56329 0.81364,-0.31294 0.81364,-0.31294c1.37163,0.6264 2.47263,-0.04033 3.88542,-0.04326l0.56585,-0.2122c0.071,-0.02854 0.14853,-0.04423 0.22974,-0.04423c0.34044,0 0.61642,0.27598 0.61642,0.61642c0,0.1947 -0.09027,0.36832 -0.23124,0.48128l0.18623,-0.02328c0.02813,-0.00393 0.05688,-0.00597 0.0861,-0.00597c0.34044,0 0.61642,0.27598 0.61642,0.61642c0,0.17022 -0.069,0.32433 -0.18055,0.43587l-0.65751,0.65751l-0.12457,-0.12457c-0.51397,0.52236 -1.08013,0.75716 -2.11149,1.10243l-0.68036,0.17056c0,0 -0.59802,0.1495 -0.74752,-0.44852z" data-paper-data="{&quot;index&quot;:null}" fill="#000000" stroke="none" stroke-width="0.5"/><path d="M275.11829,207.87202c0,-0.50721 0.41735,-0.59707 0.56523,-0.61299c0.31553,-0.42587 0.51746,-0.89563 0.70739,-1.36966c-0.43935,0.28848 -0.93959,0.54506 -1.54709,0.80978l0.28598,-1.45514c0.68654,-1.09757 1.2526,-1.92897 1.56849,-3.19256c0,0 0.1495,-0.59802 0.74752,-0.44852c0.44903,0.11226 0.47661,0.4774 0.46248,0.65236c0.04121,-0.00868 0.08393,-0.01325 0.12772,-0.01325c0.34044,0 0.61642,0.27598 0.61642,0.61642c0,0.01484 -0.00053,0.02956 -0.00155,0.04414l-0.07655,1.22476l-0.35895,-0.02244c-0.01037,0.01405 -0.02073,0.02802 -0.03108,0.04191c-0.1665,1.46254 -0.79957,2.96616 -1.72947,4.11981l-0.72012,0.2218c0,0 -0.61642,0 -0.61642,-0.61642z" data-paper-data="{&quot;index&quot;:null}" fill="#000000" stroke="none" stroke-width="0.5"/><path d="M274.85834,154.51704c0.0257,-1.89295 0.68534,-3.85146 2.10246,-5.06613c1.5454,-1.32463 4.3548,-0.01971 4.48088,2.01298c0.05999,0.96721 -1.6712,2.0765 -1.58333,3c0.1724,1.81187 1.5515,3.38383 0.4375,5.33333c-1.93527,3.38671 -5.42969,-0.47448 -7.72886,-0.58333c-1.47579,-0.06987 -3.81225,0.85417 -5.0352,-0.51432c-0.54025,-0.60454 -1.22179,-5.05559 0.98734,-4.90323c0.32923,-0.15961 0.69877,-0.24912 1.08921,-0.24912c0.39672,0 0.77186,0.09241 1.10507,0.25687c1.54049,0.33941 4.14275,0.87388 4.14493,0.71294z" fill="#000000" stroke="none" stroke-width="0.5"/></g></g></svg>